<?xml version="1.0" standalone="no"?>
<!DOCTYPE svg PUBLIC "-//W3C//DTD SVG 1.1//EN" "http://www.w3.org/Graphics/SVG/1.1/DTD/svg11.dtd" >
<svg xmlns="http://www.w3.org/2000/svg" xmlns:xlink="http://www.w3.org/1999/xlink" version="1.1">
<metadata>
Created by FontForge 20201107 at Mon Feb 12 13:19:48 2024
 By 
Copyright (c) 2019 by Mike Abbink, Paul van der Laan, Pieter van Rosmalen, Mint Tantisuwanna. All rights reserved.
</metadata>
<defs>
<font id="Anuphan-SemiBold" horiz-adv-x="0" >
  <font-face 
    font-family="Anuphan SemiBold"
    font-weight="600"
    font-stretch="normal"
    units-per-em="2048"
    panose-1="2 11 5 3 5 2 3 0 2 3"
    ascent="1597"
    descent="-451"
    x-height="1069"
    cap-height="1430"
    bbox="-1311 -606 2666 2335"
    underline-thickness="178"
    underline-position="-243"
    unicode-range="U+0020-FB02"
  />
<missing-glyph horiz-adv-x="966" 
d="M66 0v1597h835v-1597h-835zM244 178h479v1241h-479v-1241z" />
    <glyph glyph-name="fi" unicode="fi" horiz-adv-x="1269" 
d="M49 864v205h158v156q0 140 74.5 215.5t216.5 75.5h184v-205h-219v-242h655v-1069h-256v864h-399v-864h-256v864h-158zM840 1358v39q0 60 37 95.5t112 35.5q76 0 114 -35.5t38 -95.5v-39q0 -60 -37.5 -94.5t-114.5 -34.5q-75 0 -112 34.5t-37 94.5z" />
    <glyph glyph-name="fl" unicode="fl" horiz-adv-x="1312" 
d="M49 864v205h158v156q0 140 74.5 215.5t216.5 75.5h184v-205h-219v-242h219v-205h-219v-864h-256v864h-158zM866 254v1262h256v-1311h144v-205h-142q-128 0 -193 66t-65 188z" />
    <glyph glyph-name="uni0E240E45" unicode="&#xe24;&#xe45;" horiz-adv-x="2070" 
d="M121 627v94q0 228 132 352.5t372 124.5q359 0 465 -262h12q38 118 143 190t254 72q205 0 314.5 -121t109.5 -346v-1167h-260v1114q0 305 -268 305q-129 0 -199 -73t-70 -216v-1130h-260v1161q0 125 -64.5 191.5t-185.5 66.5q-217 0 -245 -182h237v-180q-113 -6 -161 -69
t-48 -210v-131h187v-211h-166q-139 0 -210 71.5t-71 207.5v36q0 250 240 301v11h-258z" />
    <glyph glyph-name="uni0E260E45" unicode="&#xe26;&#xe45;" horiz-adv-x="2093" 
d="M84 0v207h147v131q0 124 53 196t148 91v10h-301v86q0 228 133.5 352.5t376.5 124.5q363 0 469 -262h14q38 118 143.5 190t254.5 72q205 0 314.5 -121t109.5 -346v-1167h-260v1114q0 305 -269 305q-129 0 -198.5 -73t-69.5 -216v-1130h-260v1161q0 125 -66.5 191.5
t-189.5 66.5q-226 0 -250 -182h246v-172q-86 -4 -119 -60.5t-33 -189.5v-125q0 -139 -56 -196.5t-190 -57.5h-147z" />
    <glyph glyph-name=".notdef" horiz-adv-x="966" 
d="M66 0v1597h835v-1597h-835zM244 178h479v1241h-479v-1241z" />
    <glyph glyph-name=".null" 
 />
    <glyph glyph-name="nonmarkingreturn" horiz-adv-x="682" 
 />
    <glyph glyph-name="space" unicode=" " horiz-adv-x="483" 
 />
    <glyph glyph-name="exclam" unicode="!" horiz-adv-x="630" 
d="M152 119v41q0 66 40 104.5t123 38.5t123.5 -38.5t40.5 -104.5v-41q0 -65 -41 -104.5t-123 -39.5t-122.5 39.5t-40.5 104.5zM180 1026v404h273v-404l-78 -600h-115z" />
    <glyph glyph-name="quotedbl" unicode="&#x22;" horiz-adv-x="958" 
d="M152 879v637h229v-637h-229zM580 879v637h229v-637h-229z" />
    <glyph glyph-name="numbersign" unicode="#" horiz-adv-x="1349" 
d="M55 377v164h254l60 348h-226v164h254l66 377h170l-64 -377h324l63 377h172l-63 -377h225v-164h-256l-57 -348h225v-164h-254l-65 -377h-172l65 377h-323l-66 -377h-172l66 377h-226zM481 541h324l59 348h-323z" />
    <glyph glyph-name="dollar" unicode="$" horiz-adv-x="1228" 
d="M80 238l162 149q130 -150 303 -172v422q-221 47 -322.5 143t-101.5 250q0 162 106 261.5t299 121.5v184h197v-184q246 -23 389 -199l-166 -143q-88 109 -239 141v-387q221 -50 322 -143t101 -250q0 -162 -105.5 -273.5t-301.5 -140.5v-186h-197v182q-276 21 -446 224z
M362 1040q0 -72 43.5 -112.5t139.5 -65.5v352q-89 -15 -136 -60t-47 -114zM707 217q88 18 135 70t47 127q0 69 -40.5 114.5t-141.5 73.5v-385z" />
    <glyph glyph-name="percent" unicode="%" horiz-adv-x="1961" 
d="M113 1049q0 197 91.5 301t262.5 104t261.5 -104t90.5 -301q0 -198 -90.5 -302t-261.5 -104t-262.5 104.5t-91.5 301.5zM336 993q0 -196 131 -196q129 0 129 196v111q0 196 -129 196q-131 0 -131 -196v-111zM369 0l991 1430h233l-991 -1430h-233zM1143 381q0 197 91.5 301
t262.5 104t261.5 -104t90.5 -301q0 -198 -90.5 -302t-261.5 -104t-262.5 104.5t-91.5 301.5zM1366 326q0 -197 131 -197q129 0 129 197v110q0 197 -129 197q-131 0 -131 -197v-110z" />
    <glyph glyph-name="ampersand" unicode="&#x26;" horiz-adv-x="1458" 
d="M117 373q0 73 21.5 133.5t64 108.5t90 84t113.5 73q-160 175 -160 340q0 145 113 243.5t296 98.5q171 0 280 -86.5t109 -234.5q0 -66 -22.5 -123t-66.5 -104.5t-93 -84t-117 -76.5l254 -274q52 132 62 305h321v-215h-135q-30 -140 -94 -256l283 -305h-316l-121 133
q-77 -69 -174 -113.5t-237 -44.5q-222 0 -346.5 111.5t-124.5 286.5zM381 393q0 -93 63.5 -148t178.5 -55q144 0 239 89l-327 354q-78 -44 -116 -94t-38 -123v-23zM492 1098q0 -44 28.5 -91t95.5 -122q88 51 135.5 103t47.5 116v14q0 63 -43.5 99t-108.5 36q-67 0 -111 -39
t-44 -102v-14z" />
    <glyph glyph-name="quotesingle" unicode="'" horiz-adv-x="530" 
d="M152 879v637h229v-637h-229z" />
    <glyph glyph-name="parenleft" unicode="(" horiz-adv-x="690" 
d="M106 639q0 287 101.5 532.5t261.5 384.5h242q-168 -156 -264.5 -377t-96.5 -464v-156q0 -247 97 -468t264 -374h-242q-157 135 -260 384t-103 538z" />
    <glyph glyph-name="parenright" unicode=")" horiz-adv-x="690" 
d="M-20 -283q166 153 263 374t97 468v156q0 243 -96 464t-264 377h241q160 -139 261.5 -384.5t101.5 -532.5q0 -289 -103 -538t-260 -384h-241z" />
    <glyph glyph-name="asterisk" unicode="*" horiz-adv-x="1128" 
d="M68 1104l69 201l332 -136l-16 361h223l-17 -361l332 136l68 -201l-346 -103l233 -288l-180 -121l-203 305l-203 -307l-180 123l236 288z" />
    <glyph glyph-name="plus" unicode="+" horiz-adv-x="1228" 
d="M137 522v207h365v395h225v-395h365v-207h-365v-393h-225v393h-365z" />
    <glyph glyph-name="comma" unicode="," horiz-adv-x="608" 
d="M78 -291q74 70 119 134.5t67 138.5q-59 10 -89 48.5t-30 94.5v37q0 68 41 108.5t121 40.5t121 -40.5t41 -108.5v-37q0 -111 -57.5 -226.5t-151.5 -189.5h-182z" />
    <glyph glyph-name="hyphen" unicode="-" horiz-adv-x="823" 
d="M119 496v256h583v-256h-583z" />
    <glyph glyph-name="period" unicode="." horiz-adv-x="608" 
d="M143 125v37q0 68 41 108.5t121 40.5t121 -40.5t41 -108.5v-37q0 -67 -41 -107.5t-121 -40.5t-121 40.5t-41 107.5z" />
    <glyph glyph-name="slash" unicode="index.html" horiz-adv-x="888" 
d="M10 -309l586 1825h215l-586 -1825h-215z" />
    <glyph glyph-name="zero" unicode="0" horiz-adv-x="1228" 
d="M84 715q0 358 131 548.5t399 190.5t399.5 -190.5t131.5 -548.5t-131.5 -549t-399.5 -191t-399 191t-131 549zM367 586q0 -189 57.5 -288t189.5 -99t190 99.5t58 287.5v258q0 188 -58 287.5t-190 99.5t-189.5 -99t-57.5 -288v-258z" />
    <glyph glyph-name="one" unicode="1" horiz-adv-x="1228" 
d="M82 1012l354 418h404v-1215h325v-215h-977v215h390v1024h-17l-313 -367z" />
    <glyph glyph-name="two" unicode="2" horiz-adv-x="1228" 
d="M104 1100q19 59 47.5 109.5t72.5 96t98.5 78t127.5 51.5t158 19q220 0 345.5 -118t125.5 -308q0 -69 -19.5 -134t-48.5 -115.5t-80 -107t-96 -97t-114 -97.5l-305 -254h700v-223h-987v246l449 395q117 101 170 184t53 174v29q0 91 -60.5 144t-154.5 53q-192 0 -252 -213z
" />
    <glyph glyph-name="three" unicode="3" horiz-adv-x="1228" 
d="M51 240l195 149q55 -96 126.5 -146t184.5 -50q119 0 184.5 58.5t65.5 160.5v12q0 101 -70 154t-200 53h-142v219h142q118 0 179.5 50t61.5 132v15q0 89 -57 139.5t-156 50.5q-184 0 -293 -174l-170 154q81 112 192 174.5t279 62.5q216 0 349 -101.5t133 -271.5
q0 -131 -77 -215.5t-196 -109.5v-11q131 -25 215 -115t84 -235q0 -189 -144.5 -304.5t-379.5 -115.5q-99 0 -181.5 21.5t-142.5 60.5t-102.5 82.5t-79.5 100.5z" />
    <glyph glyph-name="four" unicode="4" horiz-adv-x="1228" 
d="M68 276v226l569 928h330v-947h188v-207h-188v-276h-250v276h-649zM285 483h432v691h-19z" />
    <glyph glyph-name="five" unicode="5" horiz-adv-x="1228" 
d="M115 240l192 149q57 -96 124 -146t175 -50q120 0 184 67t64 186v19q0 113 -64.5 176.5t-179.5 63.5q-141 0 -231 -107l-217 31l53 801h838v-230h-641l-35 -483h16q49 103 115.5 154t185.5 51q190 0 313 -122t123 -329q0 -221 -140 -358.5t-386 -137.5q-323 0 -489 265z
" />
    <glyph glyph-name="six" unicode="6" horiz-adv-x="1228" 
d="M102 537q0 119 30.5 235t80.5 211t117.5 181.5t138 151t145.5 114.5h357q-135 -98 -226.5 -176t-170.5 -166t-126.5 -181.5t-70.5 -201.5l16 -7q104 213 324 213q183 0 301.5 -122t118.5 -322q0 -218 -141.5 -355t-374.5 -137q-243 0 -381 151.5t-138 410.5zM375 430
q0 -118 65 -182t181 -64q115 0 179 64t64 182v31q0 116 -64 180t-179 64q-116 0 -181 -64t-65 -180v-31z" />
    <glyph glyph-name="seven" unicode="7" horiz-adv-x="1228" 
d="M123 952v478h987v-228l-487 -1202h-277l502 1214h-502v-262h-223z" />
    <glyph glyph-name="eight" unicode="8" horiz-adv-x="1228" 
d="M94 391q0 135 75.5 223t207.5 125v17q-110 40 -175 123.5t-65 203.5q0 168 126 269.5t351 101.5t351.5 -101.5t126.5 -269.5q0 -120 -65 -203.5t-175 -123.5v-17q132 -37 207.5 -125t75.5 -223q0 -185 -138 -300.5t-383 -115.5t-382.5 115.5t-137.5 300.5zM369 389
q0 -97 64.5 -152t180.5 -55q117 0 181.5 55t64.5 152v41q0 97 -64.5 152t-181.5 55q-116 0 -180.5 -55t-64.5 -152v-41zM389 1026q0 -91 58.5 -140.5t166.5 -49.5q109 0 167.5 49.5t58.5 140.5v31q0 91 -58.5 140.5t-167.5 49.5q-108 0 -166.5 -49.5t-58.5 -140.5v-31z" />
    <glyph glyph-name="nine" unicode="9" horiz-adv-x="1228" 
d="M92 963q0 218 141.5 354.5t374.5 136.5q243 0 380.5 -151t137.5 -410q0 -119 -30.5 -235t-80.5 -211t-117.5 -181.5t-138 -151t-145.5 -114.5h-356q135 98 226.5 176t170.5 166t126.5 181.5t70.5 201.5l-16 6q-104 -213 -324 -213q-183 0 -301.5 122.5t-118.5 322.5z
M365 969q0 -116 64 -180t179 -64q116 0 181 64t65 180v30q0 118 -65 182t-181 64q-115 0 -179 -64t-64 -182v-30z" />
    <glyph glyph-name="colon" unicode=":" horiz-adv-x="649" 
d="M164 125v37q0 68 41 108.5t121 40.5t120.5 -40.5t40.5 -108.5v-37q0 -68 -40.5 -108t-120.5 -40t-121 40.5t-41 107.5zM164 907v37q0 67 41 107.5t121 40.5t120.5 -40t40.5 -108v-37q0 -68 -40.5 -108.5t-120.5 -40.5t-121 40.5t-41 108.5z" />
    <glyph glyph-name="semicolon" unicode=";" horiz-adv-x="649" 
d="M98 -291q148 141 187 273q-59 10 -89 48.5t-30 94.5v37q0 68 41 108.5t121 40.5t120.5 -40.5t40.5 -108.5v-37q0 -112 -57 -227t-151 -189h-183zM164 907v37q0 67 41 107.5t121 40.5t120.5 -40t40.5 -108v-37q0 -68 -40.5 -108.5t-120.5 -40.5t-121 40.5t-41 108.5z" />
    <glyph glyph-name="less" unicode="&#x3c;" horiz-adv-x="1228" 
d="M203 514v174l823 522v-260l-559 -342v-14l559 -342v-262z" />
    <glyph glyph-name="equal" unicode="=" horiz-adv-x="1228" 
d="M137 295v207h955v-207h-955zM137 748v208h955v-208h-955z" />
    <glyph glyph-name="greater" unicode="&#x3e;" horiz-adv-x="1228" 
d="M203 -10v262l559 342v14l-559 342v260l823 -522v-172z" />
    <glyph glyph-name="question" unicode="?" horiz-adv-x="1007" 
d="M35 1124q19 66 54.5 123t89.5 104.5t134.5 75t178.5 27.5q205 0 329.5 -113t124.5 -297q0 -88 -30 -161.5t-81.5 -123.5t-116 -82t-136.5 -44v-172h-244v319q336 15 336 240v29q0 86 -52.5 135t-140.5 49q-89 0 -148.5 -54t-80.5 -143zM299 119v41q0 66 40.5 104.5
t123.5 38.5t123.5 -38.5t40.5 -104.5v-41q0 -65 -41 -104.5t-123 -39.5t-123 39.5t-41 104.5z" />
    <glyph glyph-name="at" unicode="@" horiz-adv-x="1841" 
d="M127 594q0 187 58 345.5t162.5 272t257.5 177t337 63.5q166 0 307.5 -51.5t246 -147.5t163.5 -244t59 -331q0 -238 -97 -378t-275 -140q-105 0 -169.5 51t-70.5 135h-10q-58 -184 -242 -184q-145 0 -237.5 112.5t-92.5 319.5q0 209 92.5 321.5t237.5 112.5q84 0 140 -44
t79 -116h8v142h199v-576q0 -112 98 -112q79 0 123.5 84t44.5 243v70q0 260 -169.5 416.5t-434.5 156.5q-190 0 -337 -84.5t-225.5 -231.5t-78.5 -333v-92q0 -286 174 -461.5t461 -175.5h444v-162h-444q-247 0 -431 105.5t-281 296t-97 440.5zM741 520q0 -86 47 -137t132 -51
q70 0 115.5 43.5t45.5 105.5v242q0 59 -45 97t-116 38q-85 0 -132 -52t-47 -138v-148z" />
    <glyph glyph-name="A" unicode="A" horiz-adv-x="1372" 
d="M43 0l481 1430h330l475 -1430h-274l-117 367h-510l-117 -367h-268zM489 594h383l-186 594h-10z" />
    <glyph glyph-name="B" unicode="B" horiz-adv-x="1355" 
d="M168 0v1430h659q176 0 277.5 -100t101.5 -267q0 -78 -21.5 -137.5t-58.5 -94t-81 -53t-95 -22.5v-13q40 -1 80.5 -12t82.5 -36.5t74 -62.5t52.5 -94.5t20.5 -127.5q0 -173 -106 -291.5t-263 -118.5h-723zM434 225h379q79 0 123.5 42t44.5 118v70q0 76 -44.5 117.5
t-123.5 41.5h-379v-389zM434 834h338q74 0 117 40t43 113v64q0 72 -43 112.5t-117 40.5h-338v-370z" />
    <glyph glyph-name="C" unicode="C" horiz-adv-x="1312" 
d="M109 705q0 357 163 553t449 196q373 0 520 -328l-225 -120q-72 213 -295 213q-153 0 -242.5 -105.5t-89.5 -290.5v-223q0 -184 89 -286.5t243 -102.5q117 0 195 62t116 165l215 -127q-159 -336 -526 -336q-288 0 -450 187.5t-162 542.5z" />
    <glyph glyph-name="D" unicode="D" horiz-adv-x="1409" 
d="M168 0v1430h520q285 0 450 -183.5t165 -531.5t-165 -531.5t-450 -183.5h-520zM434 236h254q155 0 243.5 93t88.5 273v225q0 180 -88.5 273.5t-243.5 93.5h-254v-958z" />
    <glyph glyph-name="E" unicode="E" horiz-adv-x="1226" 
d="M168 0v1430h940v-236h-674v-354h598v-234h-598v-370h674v-236h-940z" />
    <glyph glyph-name="F" unicode="F" horiz-adv-x="1179" 
d="M168 0v1430h917v-236h-651v-354h567v-234h-567v-606h-266z" />
    <glyph glyph-name="G" unicode="G" horiz-adv-x="1456" 
d="M109 711q0 353 171.5 548t460.5 195q190 0 327.5 -84t213.5 -242l-215 -124q-41 99 -122 157t-204 58q-162 0 -257 -101.5t-95 -288.5v-229q0 -186 96 -287.5t263 -101.5q134 0 221.5 64.5t87.5 181.5v96h-283v223h537v-776h-230v221h-8q-19 -108 -119.5 -177t-257.5 -69
q-127 0 -233.5 48.5t-185.5 139.5t-123.5 231.5t-44.5 316.5z" />
    <glyph glyph-name="H" unicode="H" horiz-adv-x="1470" 
d="M168 0v1430h266v-590h604v590h265v-1430h-265v606h-604v-606h-266z" />
    <glyph glyph-name="I" unicode="I" horiz-adv-x="862" 
d="M109 0v213h190v1004h-190v213h645v-213h-191v-1004h191v-213h-645z" />
    <glyph glyph-name="J" unicode="J" horiz-adv-x="1112" 
d="M53 352l246 51q40 -194 201 -194q85 0 135.5 53.5t50.5 157.5v792h-453v218h719v-1031q0 -193 -122 -307.5t-328 -114.5q-190 0 -303.5 100.5t-145.5 274.5z" />
    <glyph glyph-name="K" unicode="K" horiz-adv-x="1382" 
d="M168 0v1430h266v-707h10l203 266l359 441h305l-498 -596l539 -834h-316l-411 649l-191 -225v-424h-266z" />
    <glyph glyph-name="L" unicode="L" horiz-adv-x="1064" 
d="M168 0v1430h266v-1194h565v-236h-831z" />
    <glyph glyph-name="M" unicode="M" horiz-adv-x="1673" 
d="M168 0v1430h297l371 -703h6l366 703h295v-1430h-250v1026h-8l-110 -219l-299 -545l-295 545l-113 229h-8v-1036h-252z" />
    <glyph glyph-name="N" unicode="N" horiz-adv-x="1470" 
d="M168 0v1430h293l436 -742l147 -297h7v1039h252v-1430h-293l-435 741l-149 297h-6v-1038h-252z" />
    <glyph glyph-name="O" unicode="O" horiz-adv-x="1458" 
d="M109 715q0 356 166.5 547.5t453.5 191.5t454 -191.5t167 -547.5t-167 -548t-454 -192t-453.5 192t-166.5 548zM389 604q0 -183 92 -288t248 -105t248 105t92 288v221q0 183 -92 288.5t-248 105.5t-248 -105.5t-92 -288.5v-221z" />
    <glyph glyph-name="P" unicode="P" horiz-adv-x="1308" 
d="M168 0v1430h641q195 0 308.5 -120.5t113.5 -320.5t-113.5 -321t-308.5 -121h-375v-547h-266zM434 778h350q80 0 126 42.5t46 119.5v96q0 77 -46 119.5t-126 42.5h-350v-420z" />
    <glyph glyph-name="Q" unicode="Q" horiz-adv-x="1458" 
d="M109 715q0 356 166.5 547.5t453.5 191.5t454 -191.5t167 -547.5q0 -311 -127.5 -497t-354.5 -230v-133h219v-217h-198q-271 0 -271 258v88q-239 36 -374 223.5t-135 507.5zM389 604q0 -183 92 -288t248 -105t248 105t92 288v221q0 183 -92 288.5t-248 105.5t-248 -105.5
t-92 -288.5v-221z" />
    <glyph glyph-name="R" unicode="R" horiz-adv-x="1357" 
d="M168 0v1430h643q193 0 306.5 -119.5t113.5 -321.5q0 -150 -68 -255.5t-200 -149.5l297 -584h-297l-269 555h-260v-555h-266zM434 778h350q80 0 126 42.5t46 119.5v96q0 77 -46 119.5t-126 42.5h-350v-420z" />
    <glyph glyph-name="S" unicode="S" horiz-adv-x="1249" 
d="M80 213l180 174q146 -178 367 -178q125 0 190.5 54.5t65.5 150.5q0 76 -44.5 120.5t-154.5 63.5l-133 20q-217 35 -322.5 138t-105.5 278q0 192 139.5 306t376.5 114q310 0 487 -211l-180 -172q-120 150 -321 150q-115 0 -176.5 -44t-61.5 -126q0 -81 47.5 -121.5
t155.5 -61.5l133 -24q218 -38 321 -139t103 -277q0 -206 -143 -329.5t-394 -123.5q-326 0 -530 238z" />
    <glyph glyph-name="T" unicode="T" horiz-adv-x="1187" 
d="M51 1194v236h1086v-236h-410v-1194h-266v1194h-410z" />
    <glyph glyph-name="U" unicode="U" horiz-adv-x="1411" 
d="M160 586v844h260v-879q0 -173 66.5 -256.5t218.5 -83.5q153 0 219.5 83.5t66.5 256.5v879h260v-844q0 -320 -126.5 -465.5t-422.5 -145.5q-294 0 -418 145t-124 466z" />
    <glyph glyph-name="V" unicode="V" horiz-adv-x="1302" 
d="M33 1430h272l219 -699l129 -477h6l127 477l222 699h262l-469 -1430h-303z" />
    <glyph glyph-name="W" unicode="W" horiz-adv-x="1937" 
d="M53 1430h266l142 -687l90 -444h4l104 444l166 687h293l164 -687l102 -442h7l92 442l145 687h256l-344 -1430h-299l-182 754l-90 383h-6l-93 -383l-184 -754h-301z" />
    <glyph glyph-name="X" unicode="X" horiz-adv-x="1337" 
d="M39 0l461 735l-443 695h312l305 -512h4l311 512h289l-447 -697l467 -733h-309l-330 551h-6l-325 -551h-289z" />
    <glyph glyph-name="Y" unicode="Y" horiz-adv-x="1290" 
d="M20 1430h299l332 -609h4l324 609h291l-492 -865v-565h-266v561z" />
    <glyph glyph-name="Z" unicode="Z" horiz-adv-x="1224" 
d="M78 0v236l745 958h-708v236h1011v-236l-747 -958h768v-236h-1069z" />
    <glyph glyph-name="bracketleft" unicode="[" horiz-adv-x="671" 
d="M168 -283v1839h395v-184h-160v-1470h160v-185h-395z" />
    <glyph glyph-name="backslash" unicode="\" horiz-adv-x="888" 
d="M76 1516h217l584 -1825h-218z" />
    <glyph glyph-name="bracketright" unicode="]" horiz-adv-x="671" 
d="M109 -98h161v1470h-161v184h395v-1839h-395v185z" />
    <glyph glyph-name="asciicircum" unicode="^" horiz-adv-x="1228" 
d="M92 680l414 750h223l410 -750l-205 -100l-318 579h-12l-317 -579z" />
    <glyph glyph-name="underscore" unicode="_" horiz-adv-x="1144" 
d="M61 -156h1022v-217h-1022v217z" />
    <glyph glyph-name="grave" unicode="`" horiz-adv-x="1228" 
d="M332 1538l219 109l192 -381l-155 -76z" />
    <glyph glyph-name="a" unicode="a" horiz-adv-x="1140" 
d="M76 291q0 161 118.5 244t340.5 83h182v80q0 191 -203 191q-152 0 -244 -137l-151 137q129 205 413 205q214 0 327.5 -98.5t113.5 -282.5v-508h108v-205h-143q-77 0 -127.5 44t-65.5 118l-4 20h-12q-27 -100 -109 -153.5t-202 -53.5q-162 0 -252 85.5t-90 230.5zM338 293
q0 -64 43 -97.5t121 -33.5q94 0 154.5 41.5t60.5 115.5v144h-170q-209 0 -209 -135v-35z" />
    <glyph glyph-name="b" unicode="b" horiz-adv-x="1226" 
d="M152 0v1516h258v-625h8q29 93 110 148t187 55q201 0 309.5 -146t108.5 -413q0 -266 -109 -413t-309 -147q-105 0 -185 55t-112 148h-8v-178h-258zM410 365q0 -81 62.5 -129t160.5 -48q103 0 167 69.5t64 184.5v185q0 115 -64 184.5t-167 69.5q-97 0 -160 -47.5
t-63 -124.5v-344z" />
    <glyph glyph-name="c" unicode="c" horiz-adv-x="1048" 
d="M82 535q0 260 128.5 409.5t362.5 149.5q156 0 263 -71.5t155 -199.5l-209 -94q-21 72 -74 114t-135 42q-108 0 -165.5 -68.5t-57.5 -185.5v-195q0 -117 57.5 -184.5t165.5 -67.5q88 0 142 44t88 124l196 -96q-109 -281 -426 -281q-234 0 -362.5 150t-128.5 410z" />
    <glyph glyph-name="d" unicode="d" horiz-adv-x="1226" 
d="M92 535q0 268 109 413.5t311 145.5q106 0 186 -55t109 -148h10v625h256v-1516h-256v178h-10q-31 -93 -110.5 -148t-184.5 -55q-202 0 -311 146.5t-109 413.5zM362 442q0 -115 64.5 -184.5t167.5 -69.5q98 0 160.5 48t62.5 129v344q0 77 -63 124.5t-160 47.5
q-103 0 -167.5 -69.5t-64.5 -184.5v-185z" />
    <glyph glyph-name="e" unicode="e" horiz-adv-x="1142" 
d="M82 535q0 257 131 408t362 151q121 0 215.5 -42.5t152.5 -117t88 -170.5t30 -209v-86h-713v-27q0 -120 67 -190t195 -70q164 0 273 146l141 -154q-68 -93 -181.5 -146t-258.5 -53q-234 0 -368 151.5t-134 408.5zM348 629h445v20q0 114 -56 182t-157 68q-104 0 -168 -70.5
t-64 -183.5v-16z" />
    <glyph glyph-name="f" unicode="f" horiz-adv-x="714" 
d="M49 864v205h158v156q0 140 74.5 215.5t216.5 75.5h184v-205h-219v-242h219v-205h-219v-864h-256v864h-158z" />
    <glyph glyph-name="g" unicode="g" horiz-adv-x="1114" 
d="M59 -180q0 86 50 138t141 67v22q-65 15 -100 61.5t-35 112.5q0 77 54 123.5t140 65.5v8q-96 44 -145 124.5t-49 188.5q0 165 114.5 264t323.5 99q109 0 188 -27v33q0 155 150 155h166v-198h-226v-31q164 -92 164 -295q0 -165 -114.5 -262.5t-325.5 -97.5q-77 0 -162 18
q-78 -33 -78 -96q0 -82 140 -82h282q375 0 375 -301q0 -174 -130 -259t-427 -85q-260 0 -378 64.5t-118 189.5zM266 -123q0 -66 54 -99.5t174 -33.5h131q127 0 187 32.5t60 100.5q0 55 -43 83t-141 28h-362q-60 -40 -60 -111zM360 715q0 -83 49.5 -125.5t145.5 -42.5
q94 0 144.5 42.5t50.5 125.5v35q0 81 -50.5 123t-144.5 42q-96 0 -145.5 -42t-49.5 -123v-35z" />
    <glyph glyph-name="h" unicode="h" horiz-adv-x="1202" 
d="M152 0v1516h258v-625h10q76 203 299 203q164 0 253 -109.5t89 -308.5v-676h-256v649q0 117 -43 174.5t-137 57.5q-89 0 -152 -44.5t-63 -127.5v-709h-258z" />
    <glyph glyph-name="i" unicode="i" horiz-adv-x="561" 
d="M129 1358v39q0 60 38.5 95.5t113.5 35.5t113 -35.5t38 -95.5v-39q0 -59 -38 -94t-113 -35t-113.5 35t-38.5 94zM152 0v1069h258v-1069h-258z" />
    <glyph glyph-name="j" unicode="j" horiz-adv-x="561" 
d="M-12 -205h164v1274h258v-1200q0 -279 -279 -279h-143v205zM129 1358v39q0 60 38.5 95.5t113.5 35.5t113 -35.5t38 -95.5v-39q0 -59 -38 -94t-113 -35t-113.5 35t-38.5 94z" />
    <glyph glyph-name="k" unicode="k" horiz-adv-x="1146" 
d="M152 0v1516h258v-918h10l143 193l242 278h291l-369 -414l410 -655h-308l-278 483l-141 -155v-328h-258z" />
    <glyph glyph-name="l" unicode="l" horiz-adv-x="600" 
d="M152 254v1262h258v-1311h141v-205h-139q-130 0 -195 66t-65 188z" />
    <glyph glyph-name="m" unicode="m" horiz-adv-x="1816" 
d="M152 0v1069h258v-178h10q74 203 287 203q111 0 191 -55t118 -162h6q31 94 117.5 155.5t208.5 61.5q156 0 241.5 -109.5t85.5 -308.5v-676h-256v649q0 118 -43 175t-133 57q-83 0 -142 -44.5t-59 -127.5v-709h-256v649q0 232 -174 232q-83 0 -142.5 -44.5t-59.5 -127.5
v-709h-258z" />
    <glyph glyph-name="n" unicode="n" horiz-adv-x="1202" 
d="M152 0v1069h258v-178h10q76 203 299 203q164 0 253 -109.5t89 -308.5v-676h-256v649q0 117 -43 174.5t-137 57.5q-89 0 -152 -44.5t-63 -127.5v-709h-258z" />
    <glyph glyph-name="o" unicode="o" horiz-adv-x="1153" 
d="M82 535q0 258 133 408.5t360 150.5q229 0 362.5 -150.5t133.5 -408.5q0 -257 -134 -408.5t-362 -151.5q-227 0 -360 151.5t-133 408.5zM350 436q0 -121 60.5 -186.5t164.5 -65.5q106 0 167 65.5t61 186.5v197q0 121 -61 186.5t-167 65.5q-104 0 -164.5 -65.5
t-60.5 -186.5v-197z" />
    <glyph glyph-name="p" unicode="p" horiz-adv-x="1226" 
d="M152 -410v1479h258v-178h8q29 93 110 148t187 55q201 0 309.5 -146t108.5 -413q0 -266 -109 -413t-309 -147q-105 0 -185 55t-112 148h-8v-588h-258zM410 365q0 -81 62.5 -129t160.5 -48q103 0 167 69.5t64 184.5v185q0 115 -64 184.5t-167 69.5q-97 0 -160 -47.5
t-63 -124.5v-344z" />
    <glyph glyph-name="q" unicode="q" horiz-adv-x="1226" 
d="M92 535q0 268 109 413.5t311 145.5q106 0 186 -55t109 -148h10v178h256v-1479h-256v588h-10q-31 -93 -110.5 -148t-184.5 -55q-202 0 -311 146.5t-109 413.5zM362 442q0 -115 64.5 -184.5t167.5 -69.5q98 0 160.5 48t62.5 129v344q0 77 -63 124.5t-160 47.5
q-103 0 -167.5 -69.5t-64.5 -184.5v-185z" />
    <glyph glyph-name="r" unicode="r" horiz-adv-x="802" 
d="M152 0v1069h258v-221h10q24 95 95 158t190 63h55v-244h-82q-268 0 -268 -168v-657h-258z" />
    <glyph glyph-name="s" unicode="s" horiz-adv-x="1019" 
d="M59 172l158 152q127 -146 295 -146q180 0 180 127q0 96 -133 115l-106 14q-355 45 -355 322q0 156 110.5 247t293.5 91q147 0 240 -41t176 -127l-154 -152q-47 53 -113.5 85t-142.5 32q-82 0 -123 -31t-41 -84q0 -55 33 -83t110 -40l107 -14q174 -25 259 -103t85 -212
q0 -155 -119.5 -252t-316.5 -97q-146 0 -252.5 50t-190.5 147z" />
    <glyph glyph-name="t" unicode="t" horiz-adv-x="761" 
d="M51 864v205h84q57 0 79 25.5t22 83.5v182h231v-291h219v-205h-219v-659h203v-205h-189q-131 0 -200.5 69t-69.5 197v598h-160z" />
    <glyph glyph-name="u" unicode="u" horiz-adv-x="1200" 
d="M139 393v676h256v-649q0 -232 185 -232q85 0 148 45.5t63 126.5v709h258v-1069h-258v178h-9q-75 -203 -301 -203q-163 0 -252.5 109.5t-89.5 308.5z" />
    <glyph glyph-name="v" unicode="v" horiz-adv-x="1071" 
d="M25 1069h254l149 -465l107 -379h14l104 379l150 465h244l-361 -1069h-303z" />
    <glyph glyph-name="w" unicode="w" horiz-adv-x="1673" 
d="M47 1069h248l108 -442l86 -373h7l100 373l127 442h233l129 -442l103 -373h6l86 373l106 442h240l-293 -1069h-278l-137 473l-80 293h-7l-79 -293l-136 -473h-274z" />
    <glyph glyph-name="x" unicode="x" horiz-adv-x="1110" 
d="M39 0l367 543l-359 526h293l223 -356h8l224 356h272l-360 -530l364 -539h-293l-229 371h-8l-232 -371h-270z" />
    <glyph glyph-name="y" unicode="y" horiz-adv-x="1069" 
d="M20 1069h254l191 -573l67 -267h13l71 267l191 573h244l-435 -1262q-41 -118 -107 -167.5t-194 -49.5h-153v205h190l51 154z" />
    <glyph glyph-name="z" unicode="z" horiz-adv-x="1024" 
d="M76 0v205l557 659h-539v205h840v-199l-563 -665h577v-205h-872z" />
    <glyph glyph-name="braceleft" unicode="{" horiz-adv-x="741" 
d="M41 535v206q89 0 144 48t55 135v438q0 89 51.5 141.5t134.5 52.5h207v-184h-160v-465q0 -97 -59.5 -170.5t-147.5 -91.5v-16q88 -18 147.5 -91.5t59.5 -170.5v-465h160v-185h-207q-83 0 -134.5 52.5t-51.5 142.5v440q0 87 -55 135t-144 48z" />
    <glyph glyph-name="bar" unicode="|" horiz-adv-x="763" 
d="M272 -283v1839h220v-1839h-220z" />
    <glyph glyph-name="braceright" unicode="}" horiz-adv-x="741" 
d="M109 -98h159v467q0 97 59.5 170.5t147.5 91.5v16q-88 18 -147.5 91t-59.5 171v463h-159v184h206q84 0 135.5 -52t51.5 -142v-438q0 -87 54.5 -135t143.5 -48v-206q-89 0 -143.5 -48t-54.5 -135v-440q0 -90 -51.5 -142.5t-135.5 -52.5h-206v185z" />
    <glyph glyph-name="asciitilde" unicode="~" horiz-adv-x="1228" 
d="M115 680q91 121 260 121q69 0 124.5 -17.5t135.5 -56.5q67 -34 118.5 -51t108.5 -17q46 0 81 13t83 45l88 -144q-89 -122 -260 -122q-69 0 -125 17t-135 56q-46 23 -74.5 35.5t-71 23.5t-81.5 11q-45 0 -80.5 -13.5t-83.5 -45.5z" />
    <glyph glyph-name="uni00A0" unicode="&#xa0;" horiz-adv-x="483" 
 />
    <glyph glyph-name="exclamdown" unicode="&#xa1;" horiz-adv-x="630" 
d="M152 909v41q0 65 40.5 104.5t122.5 39.5t123 -39.5t41 -104.5v-41q0 -66 -40.5 -104.5t-123.5 -38.5t-123 38.5t-40 104.5zM178 43l80 600h113l80 -600v-403h-273v403z" />
    <glyph glyph-name="cent" unicode="&#xa2;" horiz-adv-x="1103" 
d="M88 528q0 225 104.5 369t290.5 176v217h199v-215q235 -32 332 -248l-189 -102q-51 119 -155 147v-690q115 28 176 156l184 -109q-48 -102 -135.5 -167.5t-212.5 -79.5v-215h-199v217q-187 34 -291 177t-104 367zM340 440q0 -94 40.5 -161t117.5 -91v680q-76 -25 -117 -91
t-41 -161v-176z" />
    <glyph glyph-name="sterling" unicode="&#xa3;" horiz-adv-x="1200" 
d="M88 592v213h137q-45 133 -45 225q0 190 135.5 307t362.5 117q311 0 469 -244l-193 -135q-57 76 -122 113t-150 37q-111 0 -172 -60.5t-61 -173.5q0 -78 38 -186h414v-213h-340q6 -30 6 -66q0 -100 -46 -173.5t-111 -110.5v-17h704v-225h-969v254q80 35 122 103t42 157
q0 28 -8 78h-213z" />
    <glyph glyph-name="currency" unicode="&#xa4;" horiz-adv-x="1275" 
d="M27 246l196 196q-65 112 -65 273q0 160 65 272l-196 197l143 141l192 -195q115 72 275 72q159 0 274 -72l195 195l143 -141l-196 -197q65 -112 65 -272q0 -161 -65 -273l196 -196l-143 -142l-195 195q-115 -72 -274 -72q-160 0 -275 72l-192 -195zM418 655
q0 -114 58 -174.5t161 -60.5q104 0 162.5 60.5t58.5 174.5v119q0 114 -58.5 175t-162.5 61q-103 0 -161 -61t-58 -175v-119z" />
    <glyph glyph-name="yen" unicode="&#xa5;" horiz-adv-x="1300" 
d="M49 1430h299l307 -590h7l303 590h286l-364 -654h241v-168h-348v-159h348v-168h-348v-281h-266v281h-350v168h350v159h-350v168h244z" />
    <glyph glyph-name="brokenbar" unicode="&#xa6;" horiz-adv-x="763" 
d="M272 -283v732h220v-732h-220zM272 825v731h220v-731h-220z" />
    <glyph glyph-name="section" unicode="&#xa7;" horiz-adv-x="1177" 
d="M121 522q0 92 56 167t163 120v27q-156 105 -156 280q0 157 119 247.5t311 90.5q241 0 390 -137l-132 -158q-111 105 -262 105q-93 0 -147.5 -36.5t-54.5 -105.5q0 -59 45 -94.5t145 -62.5l147 -43q162 -45 237 -126.5t75 -183.5q0 -92 -56 -165.5t-167 -118.5v-27
q157 -101 157 -281q0 -159 -119.5 -252.5t-312.5 -93.5q-235 0 -385 138l129 157q110 -104 260 -104q94 0 149.5 38.5t55.5 106.5q0 62 -45.5 99.5t-144.5 64.5l-148 41q-162 47 -235.5 126.5t-73.5 180.5zM340 598q0 -66 43 -112t145 -74l148 -41q22 -6 65 -23
q95 92 95 189q0 68 -44 115t-147 75l-145 41q-34 9 -66 20q-94 -88 -94 -190z" />
    <glyph glyph-name="dieresis" unicode="&#xa8;" horiz-adv-x="1228" 
d="M258 1358v43q0 117 143 117q74 0 108 -32t34 -85v-43q0 -53 -34 -85t-108 -32q-143 0 -143 117zM686 1358v43q0 117 141 117q75 0 109.5 -32t34.5 -85v-43q0 -53 -34.5 -85t-109.5 -32q-141 0 -141 117z" />
    <glyph glyph-name="copyright" unicode="&#xa9;" horiz-adv-x="1611" 
d="M102 715q0 168 53.5 307.5t147 234t222.5 146t280 51.5q152 0 281.5 -51.5t223 -146t146.5 -234t53 -307.5t-53 -308t-146.5 -234t-223 -146t-281.5 -52q-151 0 -280 52t-222.5 146t-147 234t-53.5 308zM250 647q0 -232 157 -387.5t398 -155.5t399 155.5t158 387.5v135
q0 232 -158 387.5t-399 155.5t-398 -155.5t-157 -387.5v-135zM424 715q0 195 105.5 310.5t291.5 115.5q249 0 338 -213l-176 -88q-27 58 -64 87t-98 29q-74 0 -115.5 -44.5t-41.5 -120.5v-154q0 -75 41.5 -120.5t115.5 -45.5q114 0 178 121l175 -88q-44 -97 -131 -156
t-222 -59q-186 0 -291.5 115.5t-105.5 310.5z" />
    <glyph glyph-name="ordfeminine" unicode="&#xaa;" horiz-adv-x="884" 
d="M90 893q0 223 320 223h125v45q0 73 -33.5 107.5t-104.5 34.5q-118 0 -180 -97l-104 90q36 66 113 106t190 40q143 0 224 -71t81 -204v-338h78v-139h-105q-125 0 -141 113l-2 10h-8q-20 -64 -78.5 -99.5t-145.5 -35.5q-105 0 -167 58t-62 157zM270 891q0 -86 115 -86
q64 0 107 30.5t43 84.5v88h-121q-69 0 -106.5 -23t-37.5 -67v-27z" />
    <glyph glyph-name="guillemotleft" unicode="&#xab;" horiz-adv-x="1112" 
d="M76 453v225l385 332l76 -164l-258 -281l258 -280l-76 -164zM549 453v225l385 332l74 -164l-256 -281l256 -280l-74 -164z" />
    <glyph glyph-name="logicalnot" unicode="&#xac;" horiz-adv-x="1228" 
d="M117 522v207h975v-569h-213v362h-762z" />
    <glyph glyph-name="uni00AD" unicode="&#xad;" horiz-adv-x="823" 
d="M119 496v256h583v-256h-583z" />
    <glyph glyph-name="registered" unicode="&#xae;" horiz-adv-x="958" 
d="M68 1032q0 180 119.5 301t291.5 121t292 -121t120 -301t-120 -301t-292 -121t-291.5 121t-119.5 301zM172 1004q0 -132 88 -217t219 -85t219 85t88 217v57q0 132 -88 216.5t-219 84.5t-219 -84.5t-88 -216.5v-57zM309 817v428h201q75 0 114.5 -38t39.5 -101
q0 -98 -78 -131l92 -158h-125l-74 137h-55v-137h-115zM424 1040h68q53 0 53 45v25q0 47 -53 47h-68v-117z" />
    <glyph glyph-name="macron" unicode="&#xaf;" horiz-adv-x="1228" 
d="M309 1286v189h611v-189h-611z" />
    <glyph glyph-name="degree" unicode="&#xb0;" horiz-adv-x="960" 
d="M113 1079q0 161 105.5 268t262.5 107q156 0 261.5 -107t105.5 -268q0 -159 -105.5 -265.5t-261.5 -106.5q-157 0 -262.5 106.5t-105.5 265.5zM299 1079q0 -86 50 -143t132 -57t131.5 57t49.5 143q0 88 -49.5 144.5t-131.5 56.5t-132 -56.5t-50 -144.5z" />
    <glyph glyph-name="plusminus" unicode="&#xb1;" horiz-adv-x="1228" 
d="M137 0v209h955v-209h-955zM137 719v209h365v360h225v-360h365v-209h-365v-365h-225v365h-365z" />
    <glyph glyph-name="uni00B2" unicode="&#xb2;" horiz-adv-x="710" 
d="M53 1247q30 88 106 141.5t197 53.5q131 0 206 -64t75 -166q0 -92 -58 -161t-161 -133l-148 -97h381v-147h-579v160l237 184q76 59 104.5 96t28.5 84v6q0 42 -29 63t-73 21q-96 0 -129 -100z" />
    <glyph glyph-name="uni00B3" unicode="&#xb3;" horiz-adv-x="706" 
d="M23 809l135 102q58 -108 168 -108q57 0 88.5 26t31.5 70v8q0 80 -135 80h-73v148h73q61 0 91 19.5t30 51.5v8q0 38 -28 62t-76 24q-101 0 -166 -90l-115 105q50 62 118 94.5t167 32.5q135 0 215 -55.5t80 -147.5q0 -69 -45.5 -113.5t-112.5 -54.5v-8q76 -12 123 -58.5
t47 -119.5q0 -102 -86 -162.5t-227 -60.5q-209 0 -303 147z" />
    <glyph glyph-name="acute" unicode="&#xb4;" horiz-adv-x="1228" 
d="M485 1266l193 381l219 -109l-256 -348z" />
    <glyph glyph-name="uni00B5" unicode="&#xb5;" horiz-adv-x="1212" 
d="M152 -410v1479h258v-651q0 -230 180 -230q90 0 152.5 46.5t62.5 127.5v707h256v-1069h-256v178h-10q-31 -90 -94.5 -146.5t-161.5 -56.5q-120 0 -166 93h-11l48 -244v-234h-258z" />
    <glyph glyph-name="paragraph" unicode="&#xb6;" horiz-adv-x="1370" 
d="M78 995q0 179 123 307t297 128h743v-191h-135v-1544h-199v1544h-211v-1544h-198v864q-174 0 -297 128.5t-123 307.5z" />
    <glyph glyph-name="periodcentered" unicode="&#xb7;" horiz-adv-x="710" 
d="M195 604v35q0 68 40.5 108.5t120.5 40.5t121 -40.5t41 -108.5v-35q0 -68 -41 -108.5t-121 -40.5t-120.5 40.5t-40.5 108.5z" />
    <glyph glyph-name="cedilla" unicode="&#xb8;" horiz-adv-x="1228" 
d="M406 -342l88 104q48 -59 131 -59q40 0 65 14t25 41q0 68 -148 82l-49 6l43 209h127l-37 -172l8 -8q54 14 93 14q65 0 105 -35t40 -104q0 -92 -73 -136t-183 -44q-164 0 -235 88z" />
    <glyph glyph-name="uni00B9" unicode="&#xb9;" horiz-adv-x="714" 
d="M33 1202l186 228h268v-615h177v-141h-560v141h201v471h-12l-143 -174z" />
    <glyph glyph-name="ordmasculine" unicode="&#xba;" horiz-adv-x="862" 
d="M82 1059q0 179 93 281t257 102t257 -102t93 -281q0 -177 -93 -279t-257 -102t-257 102t-93 279zM274 999q0 -86 41.5 -133t116.5 -47t116.5 47t41.5 133v121q0 86 -41.5 133t-116.5 47t-116.5 -47t-41.5 -133v-121z" />
    <glyph glyph-name="guillemotright" unicode="&#xbb;" horiz-adv-x="1112" 
d="M104 285l256 280l-256 281l74 164l385 -332v-225l-385 -332zM575 285l259 280l-259 281l76 164l385 -332v-225l-385 -332z" />
    <glyph glyph-name="onequarter" unicode="&#xbc;" horiz-adv-x="1720" 
d="M33 1202l186 228h268v-615h177v-141h-560v141h201v471h-12l-143 -174zM272 0l1055 1430h193l-1055 -1430h-193zM1049 145v152l315 459h215v-475h102v-136h-102v-145h-174v145h-356zM1194 281h211v286h-12z" />
    <glyph glyph-name="onehalf" unicode="&#xbd;" horiz-adv-x="1767" 
d="M33 1202l186 228h268v-615h177v-141h-560v141h201v471h-12l-143 -174zM272 0l1055 1430h193l-1055 -1430h-193zM1112 573q30 88 106 141.5t197 53.5q131 0 206 -63.5t75 -165.5q0 -92 -58.5 -161t-162.5 -134l-146 -97h381v-147h-580v160l238 184q74 58 103.5 96.5
t29.5 83.5v6q0 42 -29.5 63t-72.5 21q-100 0 -129 -100z" />
    <glyph glyph-name="threequarters" unicode="&#xbe;" horiz-adv-x="1693" 
d="M23 809l135 102q58 -108 168 -108q57 0 88.5 26t31.5 70v8q0 80 -135 80h-73v148h73q61 0 91 19.5t30 51.5v8q0 38 -28 62t-76 24q-101 0 -166 -90l-115 105q50 62 118 94.5t167 32.5q135 0 215 -55.5t80 -147.5q0 -69 -45.5 -113.5t-112.5 -54.5v-8q76 -12 123 -58.5
t47 -119.5q0 -102 -86 -162.5t-227 -60.5q-209 0 -303 147zM244 0l1054 1430h193l-1053 -1430h-194zM1022 145v152l315 459h215v-475h101v-136h-101v-145h-176v145h-354zM1167 281h209v286h-12z" />
    <glyph glyph-name="questiondown" unicode="&#xbf;" horiz-adv-x="993" 
d="M61 25q0 88 30.5 161.5t82 123.5t116 82t136.5 44v172h244v-319q-166 -8 -250 -66t-84 -174v-29q0 -87 51.5 -135.5t138.5 -48.5q89 0 149 54.5t81 142.5l217 -88q-19 -66 -54 -123t-89 -104.5t-134.5 -75t-177.5 -27.5q-206 0 -331.5 113t-125.5 297zM385 909v41
q0 65 40 104.5t122 39.5t123 -39.5t41 -104.5v-41q0 -66 -40.5 -104.5t-123.5 -38.5t-122.5 38.5t-39.5 104.5z" />
    <glyph glyph-name="Agrave" unicode="&#xc0;" horiz-adv-x="1372" 
d="M43 0l481 1430h330l475 -1430h-274l-117 367h-510l-117 -367h-268zM403 1874l220 108l192 -380l-156 -76zM489 594h383l-186 594h-10z" />
    <glyph glyph-name="Aacute" unicode="&#xc1;" horiz-adv-x="1372" 
d="M43 0l481 1430h330l475 -1430h-274l-117 367h-510l-117 -367h-268zM489 594h383l-186 594h-10zM555 1602l193 380l219 -108l-256 -348z" />
    <glyph glyph-name="Acircumflex" unicode="&#xc2;" horiz-adv-x="1372" 
d="M43 0l481 1430h330l475 -1430h-274l-117 367h-510l-117 -367h-268zM311 1628l256 316h238l256 -316l-129 -100l-246 237l-246 -237zM489 594h383l-186 594h-10z" />
    <glyph glyph-name="Atilde" unicode="&#xc3;" horiz-adv-x="1372" 
d="M43 0l481 1430h330l475 -1430h-274l-117 367h-510l-117 -367h-268zM311 1733q83 125 221 125q31 0 62.5 -8t46.5 -14.5t51 -23.5q99 -47 154 -47q33 0 59.5 12.5t61.5 41.5l94 -121q-81 -123 -221 -123q-31 0 -62 7.5t-47.5 14.5t-50.5 23q-102 45 -154 45
q-34 0 -60 -11.5t-60 -39.5zM489 594h383l-186 594h-10z" />
    <glyph glyph-name="Adieresis" unicode="&#xc4;" horiz-adv-x="1372" 
d="M43 0l481 1430h330l475 -1430h-274l-117 367h-510l-117 -367h-268zM330 1696v41q0 118 143 118t143 -118v-41q0 -55 -34.5 -87t-108.5 -32q-143 0 -143 119zM489 594h383l-186 594h-10zM756 1696v41q0 118 143 118t143 -118v-41q0 -119 -143 -119q-74 0 -108.5 32
t-34.5 87z" />
    <glyph glyph-name="Aring" unicode="&#xc5;" horiz-adv-x="1372" 
d="M43 0l481 1430h330l475 -1430h-274l-117 367h-510l-117 -367h-268zM406 1765q0 118 80.5 195.5t199.5 77.5t200 -77.5t81 -195.5q0 -119 -80.5 -196.5t-200.5 -77.5q-119 0 -199.5 77.5t-80.5 196.5zM489 594h383l-186 594h-10zM578 1735q0 -51 28 -80t80 -29t80.5 29
t28.5 80v61q0 50 -28.5 78.5t-80.5 28.5t-80 -28.5t-28 -78.5v-61z" />
    <glyph glyph-name="AE" unicode="&#xc6;" horiz-adv-x="1941" 
d="M2 0l709 1430h1112v-236h-678v-354h600v-234h-600v-370h678v-236h-940v367h-439l-176 -367h-266zM551 594h332v600h-41z" />
    <glyph glyph-name="Ccedilla" unicode="&#xc7;" horiz-adv-x="1312" 
d="M109 705q0 357 163 553t449 196q373 0 520 -328l-225 -120q-72 213 -295 213q-153 0 -242.5 -105.5t-89.5 -290.5v-223q0 -184 89 -286.5t243 -102.5q117 0 195 62t116 165l215 -127q-155 -327 -504 -336l-18 -92l6 -8q54 14 92 14q65 0 106.5 -35t41.5 -104
q0 -92 -73 -136t-183 -44q-90 0 -149.5 26t-88.5 62l88 104q48 -59 133 -59q40 0 65 14t25 41q0 67 -149 82l-47 6l26 138q-242 30 -375.5 214.5t-133.5 506.5z" />
    <glyph glyph-name="Egrave" unicode="&#xc8;" horiz-adv-x="1226" 
d="M168 0v1430h940v-236h-674v-354h598v-234h-598v-370h674v-236h-940zM356 1874l219 108l193 -380l-156 -76z" />
    <glyph glyph-name="Eacute" unicode="&#xc9;" horiz-adv-x="1226" 
d="M168 0v1430h940v-236h-674v-354h598v-234h-598v-370h674v-236h-940zM508 1602l192 380l220 -108l-256 -348z" />
    <glyph glyph-name="Ecircumflex" unicode="&#xca;" horiz-adv-x="1226" 
d="M168 0v1430h940v-236h-674v-354h598v-234h-598v-370h674v-236h-940zM264 1628l256 316h238l256 -316l-129 -100l-246 237l-246 -237z" />
    <glyph glyph-name="Edieresis" unicode="&#xcb;" horiz-adv-x="1226" 
d="M168 0v1430h940v-236h-674v-354h598v-234h-598v-370h674v-236h-940zM283 1696v41q0 118 143 118t143 -118v-41q0 -55 -34.5 -87t-108.5 -32q-143 0 -143 119zM709 1696v41q0 118 143 118t143 -118v-41q0 -119 -143 -119q-74 0 -108.5 32t-34.5 87z" />
    <glyph glyph-name="Igrave" unicode="&#xcc;" horiz-adv-x="862" 
d="M109 0v213h190v1004h-190v213h645v-213h-191v-1004h191v-213h-645zM150 1874l219 108l192 -380l-155 -76z" />
    <glyph glyph-name="Iacute" unicode="&#xcd;" horiz-adv-x="862" 
d="M109 0v213h190v1004h-190v213h645v-213h-191v-1004h191v-213h-645zM301 1602l193 380l219 -108l-256 -348z" />
    <glyph glyph-name="Icircumflex" unicode="&#xce;" horiz-adv-x="862" 
d="M57 1628l256 316h238l256 -316l-129 -100l-246 237l-246 -237zM109 0v213h190v1004h-190v213h645v-213h-191v-1004h191v-213h-645z" />
    <glyph glyph-name="Idieresis" unicode="&#xcf;" horiz-adv-x="862" 
d="M76 1696v41q0 118 143 118t143 -118v-41q0 -55 -34.5 -87t-108.5 -32q-143 0 -143 119zM109 0v213h190v1004h-190v213h645v-213h-191v-1004h191v-213h-645zM502 1696v41q0 118 143 118t143 -118v-41q0 -119 -143 -119q-74 0 -108.5 32t-34.5 87z" />
    <glyph glyph-name="Eth" unicode="&#xd0;" horiz-adv-x="1419" 
d="M20 635v201h158v594h518q285 0 450 -183.5t165 -531.5t-165 -531.5t-450 -183.5h-518v635h-158zM442 236h254q155 0 244.5 93t89.5 273v225q0 180 -89.5 273.5t-244.5 93.5h-254v-358h256v-201h-256v-399z" />
    <glyph glyph-name="Ntilde" unicode="&#xd1;" horiz-adv-x="1470" 
d="M168 0v1430h293l436 -742l147 -297h7v1039h252v-1430h-293l-435 741l-149 297h-6v-1038h-252zM360 1733q83 125 222 125q62 0 149 -41q2 -1 3.5 -2t3 -1.5t3.5 -1.5q99 -47 154 -47q33 0 59.5 12.5t61.5 41.5l94 -121q-81 -123 -221 -123q-31 0 -62 7.5t-47.5 14.5
t-50.5 23q-102 45 -154 45q-34 0 -60 -11.5t-60 -39.5z" />
    <glyph glyph-name="Ograve" unicode="&#xd2;" horiz-adv-x="1458" 
d="M109 715q0 356 166.5 547.5t453.5 191.5t454 -191.5t167 -547.5t-167 -548t-454 -192t-453.5 192t-166.5 548zM389 604q0 -183 92 -288t248 -105t248 105t92 288v221q0 183 -92 288.5t-248 105.5t-248 -105.5t-92 -288.5v-221zM446 1874l220 108l192 -380l-156 -76z" />
    <glyph glyph-name="Oacute" unicode="&#xd3;" horiz-adv-x="1458" 
d="M109 715q0 356 166.5 547.5t453.5 191.5t454 -191.5t167 -547.5t-167 -548t-454 -192t-453.5 192t-166.5 548zM389 604q0 -183 92 -288t248 -105t248 105t92 288v221q0 183 -92 288.5t-248 105.5t-248 -105.5t-92 -288.5v-221zM598 1602l193 380l219 -108l-256 -348z" />
    <glyph glyph-name="Ocircumflex" unicode="&#xd4;" horiz-adv-x="1458" 
d="M109 715q0 356 166.5 547.5t453.5 191.5t454 -191.5t167 -547.5t-167 -548t-454 -192t-453.5 192t-166.5 548zM354 1628l256 316h238l256 -316l-129 -100l-246 237l-246 -237zM389 604q0 -183 92 -288t248 -105t248 105t92 288v221q0 183 -92 288.5t-248 105.5
t-248 -105.5t-92 -288.5v-221z" />
    <glyph glyph-name="Otilde" unicode="&#xd5;" horiz-adv-x="1458" 
d="M109 715q0 356 166.5 547.5t453.5 191.5t454 -191.5t167 -547.5t-167 -548t-454 -192t-453.5 192t-166.5 548zM354 1733q83 125 221 125q31 0 62.5 -8t46.5 -14.5t51 -23.5q99 -47 154 -47q33 0 59.5 12.5t61.5 41.5l94 -121q-81 -123 -221 -123q-31 0 -62 7.5
t-47.5 14.5t-50.5 23q-102 45 -154 45q-34 0 -60 -11.5t-60 -39.5zM389 604q0 -183 92 -288t248 -105t248 105t92 288v221q0 183 -92 288.5t-248 105.5t-248 -105.5t-92 -288.5v-221z" />
    <glyph glyph-name="Odieresis" unicode="&#xd6;" horiz-adv-x="1458" 
d="M109 715q0 356 166.5 547.5t453.5 191.5t454 -191.5t167 -547.5t-167 -548t-454 -192t-453.5 192t-166.5 548zM373 1696v41q0 118 143 118t143 -118v-41q0 -55 -34.5 -87t-108.5 -32q-143 0 -143 119zM389 604q0 -183 92 -288t248 -105t248 105t92 288v221
q0 183 -92 288.5t-248 105.5t-248 -105.5t-92 -288.5v-221zM799 1696v41q0 118 143 118t143 -118v-41q0 -119 -143 -119q-74 0 -108.5 32t-34.5 87z" />
    <glyph glyph-name="multiply" unicode="&#xd7;" horiz-adv-x="1228" 
d="M170 305l299 311l-299 312l145 145l299 -311l299 311l146 -145l-299 -312l299 -311l-146 -145l-299 311l-299 -311z" />
    <glyph glyph-name="Oslash" unicode="&#xd8;" horiz-adv-x="1458" 
d="M109 715q0 356 166.5 547.5t453.5 191.5q182 0 324 -82l112 164l164 -104l-129 -191q150 -192 150 -526q0 -356 -167 -548t-454 -192q-181 0 -323 82l-113 -163l-164 104l129 190q-149 191 -149 527zM379 600q0 -114 39 -203l510 779q-77 57 -199 57q-161 0 -255.5 -108
t-94.5 -296v-229zM530 254q77 -57 199 -57q161 0 255.5 107.5t94.5 295.5v229q0 114 -39 203z" />
    <glyph glyph-name="Ugrave" unicode="&#xd9;" horiz-adv-x="1411" 
d="M160 586v844h260v-879q0 -173 66.5 -256.5t218.5 -83.5q153 0 219.5 83.5t66.5 256.5v879h260v-844q0 -320 -126.5 -465.5t-422.5 -145.5q-294 0 -418 145t-124 466zM422 1874l219 108l193 -380l-156 -76z" />
    <glyph glyph-name="Uacute" unicode="&#xda;" horiz-adv-x="1411" 
d="M160 586v844h260v-879q0 -173 66.5 -256.5t218.5 -83.5q153 0 219.5 83.5t66.5 256.5v879h260v-844q0 -320 -126.5 -465.5t-422.5 -145.5q-294 0 -418 145t-124 466zM573 1602l193 380l219 -108l-256 -348z" />
    <glyph glyph-name="Ucircumflex" unicode="&#xdb;" horiz-adv-x="1411" 
d="M160 586v844h260v-879q0 -173 66.5 -256.5t218.5 -83.5q153 0 219.5 83.5t66.5 256.5v879h260v-844q0 -320 -126.5 -465.5t-422.5 -145.5q-294 0 -418 145t-124 466zM330 1628l256 316h237l256 -316l-129 -100l-245 237l-246 -237z" />
    <glyph glyph-name="Udieresis" unicode="&#xdc;" horiz-adv-x="1411" 
d="M160 586v844h260v-879q0 -173 66.5 -256.5t218.5 -83.5q153 0 219.5 83.5t66.5 256.5v879h260v-844q0 -320 -126.5 -465.5t-422.5 -145.5q-294 0 -418 145t-124 466zM348 1696v41q0 118 144 118q143 0 143 -118v-41q0 -55 -34.5 -87t-108.5 -32q-144 0 -144 119z
M774 1696v41q0 54 35 86t109 32q143 0 143 -118v-41q0 -119 -143 -119q-74 0 -109 32t-35 87z" />
    <glyph glyph-name="Yacute" unicode="&#xdd;" horiz-adv-x="1290" 
d="M20 1430h299l332 -609h4l324 609h291l-492 -865v-565h-266v561zM516 1602l193 380l219 -108l-256 -348z" />
    <glyph glyph-name="Thorn" unicode="&#xde;" horiz-adv-x="1308" 
d="M168 0v1430h266v-263h375q194 0 308 -121.5t114 -318.5q0 -199 -114 -320.5t-308 -121.5h-375v-285h-266zM434 516h350q80 0 126 43.5t46 120.5v94q0 77 -46 119.5t-126 42.5h-350v-420z" />
    <glyph glyph-name="germandbls" unicode="&#xdf;" horiz-adv-x="1382" 
d="M49 864v205h158v8q0 214 134 338.5t359 124.5q226 0 358 -122.5t132 -336.5v-174h-109q-107 0 -157 -27.5t-50 -91.5q0 -55 32 -82t108 -51l63 -18q127 -36 189.5 -107.5t62.5 -191.5q0 -166 -106.5 -264.5t-282.5 -98.5q-251 0 -375 160l152 150q96 -113 225 -113
q70 0 110 35.5t40 99.5q0 55 -32.5 88.5t-107.5 55.5l-63 18q-122 35 -187 104.5t-65 194.5q0 127 83 208t230 103v6q0 132 -60 195t-183 63t-183.5 -63t-60.5 -195v-1085h-256v864h-158z" />
    <glyph glyph-name="agrave" unicode="&#xe0;" horiz-adv-x="1140" 
d="M76 291q0 161 118.5 244t340.5 83h182v80q0 191 -203 191q-152 0 -244 -137l-151 137q129 205 413 205q214 0 327.5 -98.5t113.5 -282.5v-508h108v-205h-143q-77 0 -127.5 44t-65.5 118l-4 20h-12q-27 -100 -109 -153.5t-202 -53.5q-162 0 -252 85.5t-90 230.5zM256 1538
l219 109l193 -381l-156 -76zM338 293q0 -64 43 -97.5t121 -33.5q94 0 154.5 41.5t60.5 115.5v144h-170q-209 0 -209 -135v-35z" />
    <glyph glyph-name="aacute" unicode="&#xe1;" horiz-adv-x="1140" 
d="M76 291q0 161 118.5 244t340.5 83h182v80q0 191 -203 191q-152 0 -244 -137l-151 137q129 205 413 205q214 0 327.5 -98.5t113.5 -282.5v-508h108v-205h-143q-77 0 -127.5 44t-65.5 118l-4 20h-12q-27 -100 -109 -153.5t-202 -53.5q-162 0 -252 85.5t-90 230.5zM338 293
q0 -64 43 -97.5t121 -33.5q94 0 154.5 41.5t60.5 115.5v144h-170q-209 0 -209 -135v-35zM410 1266l192 381l219 -109l-256 -348z" />
    <glyph glyph-name="acircumflex" unicode="&#xe2;" horiz-adv-x="1140" 
d="M76 291q0 161 118.5 244t340.5 83h182v80q0 191 -203 191q-152 0 -244 -137l-151 137q129 205 413 205q214 0 327.5 -98.5t113.5 -282.5v-508h108v-205h-143q-77 0 -127.5 44t-65.5 118l-4 20h-12q-27 -100 -109 -153.5t-202 -53.5q-162 0 -252 85.5t-90 230.5zM164 1292
l256 316h237l256 -316l-129 -100l-245 238l-246 -238zM338 293q0 -64 43 -97.5t121 -33.5q94 0 154.5 41.5t60.5 115.5v144h-170q-209 0 -209 -135v-35z" />
    <glyph glyph-name="atilde" unicode="&#xe3;" horiz-adv-x="1140" 
d="M76 291q0 161 118.5 244t340.5 83h182v80q0 191 -203 191q-152 0 -244 -137l-151 137q129 205 413 205q214 0 327.5 -98.5t113.5 -282.5v-508h108v-205h-143q-77 0 -127.5 44t-65.5 118l-4 20h-12q-27 -100 -109 -153.5t-202 -53.5q-162 0 -252 85.5t-90 230.5zM164 1397
q83 125 221 125q31 0 62 -7.5t47.5 -14.5t50.5 -23q99 -47 153 -47q33 0 59.5 12.5t61.5 40.5l94 -121q-81 -123 -221 -123q-31 0 -62 7.5t-47.5 14.5t-50.5 23q-102 45 -153 45q-34 0 -60.5 -11.5t-60.5 -39.5zM338 293q0 -64 43 -97.5t121 -33.5q94 0 154.5 41.5
t60.5 115.5v144h-170q-209 0 -209 -135v-35z" />
    <glyph glyph-name="adieresis" unicode="&#xe4;" horiz-adv-x="1140" 
d="M76 291q0 161 118.5 244t340.5 83h182v80q0 191 -203 191q-152 0 -244 -137l-151 137q129 205 413 205q214 0 327.5 -98.5t113.5 -282.5v-508h108v-205h-143q-77 0 -127.5 44t-65.5 118l-4 20h-12q-27 -100 -109 -153.5t-202 -53.5q-162 0 -252 85.5t-90 230.5zM182 1358
v43q0 53 34.5 85t109.5 32q141 0 141 -117v-43q0 -117 -141 -117q-75 0 -109.5 32t-34.5 85zM338 293q0 -64 43 -97.5t121 -33.5q94 0 154.5 41.5t60.5 115.5v144h-170q-209 0 -209 -135v-35zM610 1358v43q0 53 34 85t108 32q143 0 143 -117v-43q0 -117 -143 -117
q-74 0 -108 32t-34 85z" />
    <glyph glyph-name="aring" unicode="&#xe5;" horiz-adv-x="1140" 
d="M76 291q0 161 118.5 244t340.5 83h182v80q0 191 -203 191q-152 0 -244 -137l-151 137q129 205 413 205q214 0 327.5 -98.5t113.5 -282.5v-508h108v-205h-143q-77 0 -127.5 44t-65.5 118l-4 20h-12q-27 -100 -109 -153.5t-202 -53.5q-162 0 -252 85.5t-90 230.5zM258 1430
q0 118 81 195t200 77t199.5 -77t80.5 -195q0 -119 -80.5 -197t-199.5 -78t-200 78t-81 197zM338 293q0 -64 43 -97.5t121 -33.5q94 0 154.5 41.5t60.5 115.5v144h-170q-209 0 -209 -135v-35zM430 1399q0 -51 28.5 -80t80.5 -29t80 29t28 80v61q0 51 -28 79t-80 28t-80.5 -28
t-28.5 -79v-61z" />
    <glyph glyph-name="ae" unicode="&#xe6;" horiz-adv-x="1769" 
d="M76 293q0 164 122.5 250t336.5 86h182v69q0 92 -49.5 141.5t-151.5 49.5q-87 0 -145 -36.5t-101 -100.5l-151 137q129 205 413 205q220 0 314 -181h12q40 79 135 130t221 51q119 0 211.5 -42.5t149 -117t85 -170.5t28.5 -209v-86h-715v-27q0 -117 71.5 -187.5
t196.5 -70.5q169 0 275 144l139 -154q-66 -93 -179 -146t-255 -53q-149 0 -260.5 65.5t-147.5 154.5h-12q-32 -91 -129 -155.5t-254 -64.5q-160 0 -251 88t-91 230zM338 301q0 -67 42.5 -103t123.5 -36q92 0 152.5 41.5t60.5 115.5v150h-170q-101 -2 -155 -36.5t-54 -98.5
v-33zM975 629h446v20q0 114 -57 182t-158 68q-104 0 -167.5 -70.5t-63.5 -183.5v-16z" />
    <glyph glyph-name="ccedilla" unicode="&#xe7;" horiz-adv-x="1048" 
d="M82 535q0 260 128.5 409.5t362.5 149.5q156 0 262.5 -71.5t155.5 -197.5l-209 -96q-21 72 -74 114t-135 42q-108 0 -165.5 -68.5t-57.5 -185.5v-195q0 -117 57.5 -184.5t165.5 -67.5q88 0 142 44t88 124l196 -96q-51 -133 -152.5 -204t-244.5 -77l-20 -92l8 -8
q54 14 92 14q65 0 105 -35t40 -104q0 -92 -73 -136t-183 -44q-164 0 -235 88l88 104q48 -59 131 -59q40 0 65 14t25 41q0 68 -147 82l-49 6l28 138q-189 29 -292 174.5t-103 376.5z" />
    <glyph glyph-name="egrave" unicode="&#xe8;" horiz-adv-x="1142" 
d="M82 535q0 257 131 408t362 151q121 0 215.5 -42.5t152.5 -117t88 -170.5t30 -209v-86h-713v-27q0 -120 67 -190t195 -70q164 0 273 146l141 -154q-68 -93 -181.5 -146t-258.5 -53q-234 0 -368 151.5t-134 408.5zM299 1538l219 109l193 -381l-156 -76zM348 629h445v20
q0 114 -56 182t-157 68q-104 0 -168 -70.5t-64 -183.5v-16z" />
    <glyph glyph-name="eacute" unicode="&#xe9;" horiz-adv-x="1142" 
d="M82 535q0 257 131 408t362 151q121 0 215.5 -42.5t152.5 -117t88 -170.5t30 -209v-86h-713v-27q0 -120 67 -190t195 -70q164 0 273 146l141 -154q-68 -93 -181.5 -146t-258.5 -53q-234 0 -368 151.5t-134 408.5zM348 629h445v20q0 114 -56 182t-157 68q-104 0 -168 -70.5
t-64 -183.5v-16zM453 1266l192 381l219 -109l-256 -348z" />
    <glyph glyph-name="ecircumflex" unicode="&#xea;" horiz-adv-x="1142" 
d="M82 535q0 257 131 408t362 151q121 0 215.5 -42.5t152.5 -117t88 -170.5t30 -209v-86h-713v-27q0 -120 67 -190t195 -70q164 0 273 146l141 -154q-68 -93 -181.5 -146t-258.5 -53q-234 0 -368 151.5t-134 408.5zM207 1292l256 316h237l256 -316l-129 -100l-245 238
l-246 -238zM348 629h445v20q0 114 -56 182t-157 68q-104 0 -168 -70.5t-64 -183.5v-16z" />
    <glyph glyph-name="edieresis" unicode="&#xeb;" horiz-adv-x="1142" 
d="M82 535q0 257 131 408t362 151q121 0 215.5 -42.5t152.5 -117t88 -170.5t30 -209v-86h-713v-27q0 -120 67 -190t195 -70q164 0 273 146l141 -154q-68 -93 -181.5 -146t-258.5 -53q-234 0 -368 151.5t-134 408.5zM225 1358v43q0 53 34.5 85t109.5 32q141 0 141 -117v-43
q0 -117 -141 -117q-75 0 -109.5 32t-34.5 85zM348 629h445v20q0 114 -56 182t-157 68q-104 0 -168 -70.5t-64 -183.5v-16zM653 1358v43q0 53 34 85t108 32q143 0 143 -117v-43q0 -117 -143 -117q-74 0 -108 32t-34 85z" />
    <glyph glyph-name="igrave" unicode="&#xec;" horiz-adv-x="561" 
d="M-2 1538l219 109l193 -381l-156 -76zM152 0v1069h258v-1069h-258z" />
    <glyph glyph-name="iacute" unicode="&#xed;" horiz-adv-x="561" 
d="M152 0v1069h258v-1069h-258zM152 1266l192 381l219 -109l-256 -348z" />
    <glyph glyph-name="icircumflex" unicode="&#xee;" horiz-adv-x="561" 
d="M-94 1292l256 316h237l256 -316l-129 -100l-245 238l-246 -238zM152 0v1069h258v-1069h-258z" />
    <glyph glyph-name="idieresis" unicode="&#xef;" horiz-adv-x="561" 
d="M-76 1358v43q0 53 34.5 85t109.5 32q141 0 141 -117v-43q0 -117 -141 -117q-75 0 -109.5 32t-34.5 85zM152 0v1069h258v-1069h-258zM352 1358v43q0 53 34 85t108 32q143 0 143 -117v-43q0 -117 -143 -117q-74 0 -108 32t-34 85z" />
    <glyph glyph-name="eth" unicode="&#xf0;" horiz-adv-x="1202" 
d="M88 514q0 231 116.5 371.5t309.5 140.5q211 0 303 -201l12 6q-50 197 -241 381l-174 -110l-92 110l157 99q-133 108 -307 205h393q45 -28 113 -82l170 108l92 -110l-154 -99q148 -152 232 -346.5t84 -421.5q0 -294 -135 -442t-367 -148q-238 0 -375 146t-137 393z
M356 440q0 -125 64.5 -196.5t175.5 -71.5q110 0 175 71.5t65 196.5v119q0 125 -65 196.5t-175 71.5q-111 0 -175.5 -71.5t-64.5 -196.5v-119z" />
    <glyph glyph-name="ntilde" unicode="&#xf1;" horiz-adv-x="1202" 
d="M152 0v1069h258v-178h10q76 203 299 203q164 0 253 -109.5t89 -308.5v-676h-256v649q0 117 -43 174.5t-137 57.5q-89 0 -152 -44.5t-63 -127.5v-709h-258zM229 1393q83 125 222 125q31 0 62 -7.5t46.5 -14.5t50.5 -23q101 -48 154 -48q33 0 59.5 12.5t61.5 41.5l94 -121
q-81 -123 -221 -123q-31 0 -62 7.5t-47.5 14.5t-50.5 23q-102 45 -154 45q-34 0 -60 -11.5t-60 -39.5z" />
    <glyph glyph-name="ograve" unicode="&#xf2;" horiz-adv-x="1153" 
d="M82 535q0 258 133 408.5t360 150.5q229 0 362.5 -150.5t133.5 -408.5q0 -257 -134 -408.5t-362 -151.5q-227 0 -360 151.5t-133 408.5zM293 1536l219 109l193 -381l-156 -76zM350 436q0 -121 60.5 -186.5t164.5 -65.5q106 0 167 65.5t61 186.5v197q0 121 -61 186.5
t-167 65.5q-104 0 -164.5 -65.5t-60.5 -186.5v-197z" />
    <glyph glyph-name="oacute" unicode="&#xf3;" horiz-adv-x="1153" 
d="M82 535q0 258 133 408.5t360 150.5q229 0 362.5 -150.5t133.5 -408.5q0 -257 -134 -408.5t-362 -151.5q-227 0 -360 151.5t-133 408.5zM350 436q0 -121 60.5 -186.5t164.5 -65.5q106 0 167 65.5t61 186.5v197q0 121 -61 186.5t-167 65.5q-104 0 -164.5 -65.5
t-60.5 -186.5v-197zM446 1264l193 381l219 -109l-256 -348z" />
    <glyph glyph-name="ocircumflex" unicode="&#xf4;" horiz-adv-x="1153" 
d="M82 535q0 258 133 408.5t360 150.5q229 0 362.5 -150.5t133.5 -408.5q0 -257 -134 -408.5t-362 -151.5q-227 0 -360 151.5t-133 408.5zM201 1290l256 316h237l256 -316l-129 -100l-246 237l-245 -237zM350 436q0 -121 60.5 -186.5t164.5 -65.5q106 0 167 65.5t61 186.5
v197q0 121 -61 186.5t-167 65.5q-104 0 -164.5 -65.5t-60.5 -186.5v-197z" />
    <glyph glyph-name="otilde" unicode="&#xf5;" horiz-adv-x="1153" 
d="M82 535q0 258 133 408.5t360 150.5q229 0 362.5 -150.5t133.5 -408.5q0 -257 -134 -408.5t-362 -151.5q-227 0 -360 151.5t-133 408.5zM201 1395q83 125 221 125q31 0 62 -7.5t47.5 -14.5t50.5 -23q101 -48 153 -48q33 0 59.5 12.5t61.5 41.5l94 -121q-81 -123 -221 -123
q-31 0 -62 7.5t-47.5 14.5t-50.5 23q-102 45 -153 45q-34 0 -60.5 -11.5t-60.5 -39.5zM350 436q0 -121 60.5 -186.5t164.5 -65.5q106 0 167 65.5t61 186.5v197q0 121 -61 186.5t-167 65.5q-104 0 -164.5 -65.5t-60.5 -186.5v-197z" />
    <glyph glyph-name="odieresis" unicode="&#xf6;" horiz-adv-x="1153" 
d="M82 535q0 258 133 408.5t360 150.5q229 0 362.5 -150.5t133.5 -408.5q0 -257 -134 -408.5t-362 -151.5q-227 0 -360 151.5t-133 408.5zM219 1356v43q0 117 143 117q74 0 108 -32t34 -85v-43q0 -53 -34 -85t-108 -32q-143 0 -143 117zM350 436q0 -121 60.5 -186.5
t164.5 -65.5q106 0 167 65.5t61 186.5v197q0 121 -61 186.5t-167 65.5q-104 0 -164.5 -65.5t-60.5 -186.5v-197zM647 1356v43q0 117 141 117q75 0 109.5 -32t34.5 -85v-43q0 -53 -34.5 -85t-109.5 -32q-141 0 -141 117z" />
    <glyph glyph-name="divide" unicode="&#xf7;" horiz-adv-x="1228" 
d="M137 522v207h953v-207h-953zM453 201v47q0 57 39 92t122 35t122.5 -35t39.5 -92v-47q0 -57 -39.5 -92t-122.5 -35t-122 35t-39 92zM453 1001v48q0 57 39 92t122 35t122.5 -35t39.5 -92v-48q0 -57 -39.5 -92t-122.5 -35t-122 35t-39 92z" />
    <glyph glyph-name="oslash" unicode="&#xf8;" horiz-adv-x="1169" 
d="M43 10l137 170q-90 140 -90 355q0 258 133.5 408.5t360.5 150.5q156 0 278 -80l123 151l141 -106l-139 -172q92 -140 92 -352q0 -258 -133 -409t-362 -151q-156 0 -277 78l-125 -149zM352 541q0 -93 10 -154l375 457q-59 53 -153 53q-107 0 -169.5 -72t-62.5 -198v-86z
M430 225q59 -53 154 -53q108 0 170.5 71.5t62.5 198.5v103q0 69 -10 137z" />
    <glyph glyph-name="ugrave" unicode="&#xf9;" horiz-adv-x="1200" 
d="M139 393v676h256v-649q0 -232 185 -232q85 0 148 45.5t63 126.5v709h258v-1069h-258v178h-9q-75 -203 -301 -203q-163 0 -252.5 109.5t-89.5 308.5zM311 1538l219 109l193 -381l-156 -76z" />
    <glyph glyph-name="uacute" unicode="&#xfa;" horiz-adv-x="1200" 
d="M139 393v676h256v-649q0 -232 185 -232q85 0 148 45.5t63 126.5v709h258v-1069h-258v178h-9q-75 -203 -301 -203q-163 0 -252.5 109.5t-89.5 308.5zM465 1266l192 381l220 -109l-256 -348z" />
    <glyph glyph-name="ucircumflex" unicode="&#xfb;" horiz-adv-x="1200" 
d="M139 393v676h256v-649q0 -232 185 -232q85 0 148 45.5t63 126.5v709h258v-1069h-258v178h-9q-75 -203 -301 -203q-163 0 -252.5 109.5t-89.5 308.5zM219 1292l256 316h238l256 -316l-129 -100l-246 238l-246 -238z" />
    <glyph glyph-name="udieresis" unicode="&#xfc;" horiz-adv-x="1200" 
d="M139 393v676h256v-649q0 -232 185 -232q85 0 148 45.5t63 126.5v709h258v-1069h-258v178h-9q-75 -203 -301 -203q-163 0 -252.5 109.5t-89.5 308.5zM238 1358v43q0 117 143 117q141 0 141 -117v-43q0 -117 -141 -117q-143 0 -143 117zM666 1358v43q0 117 141 117
q143 0 143 -117v-43q0 -117 -143 -117q-141 0 -141 117z" />
    <glyph glyph-name="yacute" unicode="&#xfd;" horiz-adv-x="1069" 
d="M20 1069h254l191 -573l67 -267h13l71 267l191 573h244l-435 -1262q-41 -118 -107 -167.5t-194 -49.5h-153v205h190l51 154zM410 1266l192 381l219 -109l-256 -348z" />
    <glyph glyph-name="thorn" unicode="&#xfe;" horiz-adv-x="1226" 
d="M152 -410v1926h258v-625h8q29 93 110 148t187 55q201 0 309.5 -146t108.5 -413q0 -266 -109 -413t-309 -147q-105 0 -185 55t-112 148h-8v-588h-258zM410 365q0 -81 62.5 -129t160.5 -48q103 0 167 69.5t64 184.5v185q0 115 -64 184.5t-167 69.5q-97 0 -160 -47.5
t-63 -124.5v-344z" />
    <glyph glyph-name="ydieresis" unicode="&#xff;" horiz-adv-x="1069" 
d="M20 1069h254l191 -573l67 -267h13l71 267l191 573h244l-435 -1262q-41 -118 -107 -167.5t-194 -49.5h-153v205h190l51 154zM182 1358v43q0 53 34.5 85t109.5 32q141 0 141 -117v-43q0 -117 -141 -117q-75 0 -109.5 32t-34.5 85zM610 1358v43q0 53 34 85t108 32
q143 0 143 -117v-43q0 -117 -143 -117q-74 0 -108 32t-34 85z" />
    <glyph glyph-name="Amacron" unicode="&#x100;" horiz-adv-x="1372" 
d="M43 0l481 1430h330l475 -1430h-274l-117 367h-510l-117 -367h-268zM381 1622v188h610v-188h-610zM489 594h383l-186 594h-10z" />
    <glyph glyph-name="amacron" unicode="&#x101;" horiz-adv-x="1140" 
d="M76 291q0 161 118.5 244t340.5 83h182v80q0 191 -203 191q-152 0 -244 -137l-151 137q129 205 413 205q214 0 327.5 -98.5t113.5 -282.5v-508h108v-205h-143q-77 0 -127.5 44t-65.5 118l-4 20h-12q-27 -100 -109 -153.5t-202 -53.5q-162 0 -252 85.5t-90 230.5zM233 1286
v189h611v-189h-611zM338 293q0 -64 43 -97.5t121 -33.5q94 0 154.5 41.5t60.5 115.5v144h-170q-209 0 -209 -135v-35z" />
    <glyph glyph-name="Abreve" unicode="&#x102;" horiz-adv-x="1372" 
d="M43 0l481 1430h330l475 -1430h-274l-117 367h-510l-117 -367h-268zM324 1851l141 72l39 -65q45 -75 83.5 -108.5t98.5 -33.5t99.5 34t82.5 108l41 65l140 -72q-104 -317 -363 -317q-67 0 -123 20.5t-92.5 51t-67 75.5t-47 83.5t-32.5 86.5zM489 594h383l-186 594h-10z
" />
    <glyph glyph-name="abreve" unicode="&#x103;" horiz-adv-x="1140" 
d="M76 291q0 161 118.5 244t340.5 83h182v80q0 191 -203 191q-152 0 -244 -137l-151 137q129 205 413 205q214 0 327.5 -98.5t113.5 -282.5v-508h108v-205h-143q-77 0 -127.5 44t-65.5 118l-4 20h-12q-27 -100 -109 -153.5t-202 -53.5q-162 0 -252 85.5t-90 230.5zM176 1516
l141 71l41 -67q42 -71 82.5 -105.5t98.5 -34.5q57 0 97.5 34t84.5 106l41 67l139 -71q-104 -318 -362 -318q-67 0 -123 20.5t-92.5 51t-67.5 76t-47.5 84t-32.5 86.5zM338 293q0 -64 43 -97.5t121 -33.5q94 0 154.5 41.5t60.5 115.5v144h-170q-209 0 -209 -135v-35z" />
    <glyph glyph-name="Aogonek" unicode="&#x104;" horiz-adv-x="1372" 
d="M43 0l481 1430h330l475 -1430q-135 -96 -178 -142.5t-43 -84.5q0 -66 72 -66q63 0 108 55l101 -96q-54 -96 -228 -96q-103 0 -168 40t-65 128q0 78 57 135t174 119l-2 8h-102l-117 367h-510l-117 -367h-268zM489 594h383l-186 594h-10z" />
    <glyph glyph-name="aogonek" unicode="&#x105;" horiz-adv-x="1140" 
d="M76 291q0 161 118.5 244t340.5 83h182v80q0 191 -203 191q-152 0 -244 -137l-151 137q129 205 413 205q214 0 327.5 -98.5t113.5 -282.5v-506h108v-207q-136 -95 -179.5 -142t-43.5 -85q0 -66 74 -66q61 0 106 55l101 -96q-24 -45 -82.5 -70.5t-145.5 -25.5
q-103 0 -168 40t-65 128q0 77 58 135.5t173 120.5l-2 8l-12 2q-62 12 -101 56t-51 112l-2 10h-12q-27 -100 -109 -153.5t-202 -53.5q-162 0 -252 85.5t-90 230.5zM338 293q0 -64 43 -97.5t121 -33.5q94 0 154.5 41.5t60.5 115.5v144h-170q-209 0 -209 -135v-35z" />
    <glyph glyph-name="Cacute" unicode="&#x106;" horiz-adv-x="1312" 
d="M109 705q0 357 163 553t449 196q373 0 520 -328l-225 -120q-72 213 -295 213q-153 0 -242.5 -105.5t-89.5 -290.5v-223q0 -184 89 -286.5t243 -102.5q117 0 195 62t116 165l215 -127q-159 -336 -526 -336q-288 0 -450 187.5t-162 542.5zM590 1602l192 380l219 -108
l-256 -348z" />
    <glyph glyph-name="cacute" unicode="&#x107;" horiz-adv-x="1048" 
d="M82 535q0 260 128.5 409.5t362.5 149.5q156 0 263 -71.5t155 -199.5l-209 -94q-21 72 -74 114t-135 42q-108 0 -165.5 -68.5t-57.5 -185.5v-195q0 -117 57.5 -184.5t165.5 -67.5q88 0 142 44t88 124l196 -96q-109 -281 -426 -281q-234 0 -362.5 150t-128.5 410zM434 1264
l193 381l219 -109l-256 -348z" />
    <glyph glyph-name="Ccircumflex" unicode="&#x108;" horiz-adv-x="1312" 
d="M109 705q0 357 163 553t449 196q373 0 520 -328l-225 -120q-72 213 -295 213q-153 0 -242.5 -105.5t-89.5 -290.5v-223q0 -184 89 -286.5t243 -102.5q117 0 195 62t116 165l215 -127q-159 -336 -526 -336q-288 0 -450 187.5t-162 542.5zM346 1628l256 316h238l256 -316
l-129 -100l-246 237l-246 -237z" />
    <glyph glyph-name="ccircumflex" unicode="&#x109;" horiz-adv-x="1048" 
d="M82 535q0 260 128.5 409.5t362.5 149.5q156 0 263 -71.5t155 -199.5l-209 -94q-21 72 -74 114t-135 42q-108 0 -165.5 -68.5t-57.5 -185.5v-195q0 -117 57.5 -184.5t165.5 -67.5q88 0 142 44t88 124l196 -96q-109 -281 -426 -281q-234 0 -362.5 150t-128.5 410zM188 1290
l256 316h238l256 -316l-129 -100l-246 237l-246 -237z" />
    <glyph glyph-name="Cdotaccent" unicode="&#x10a;" horiz-adv-x="1312" 
d="M109 705q0 357 163 553t449 196q373 0 520 -328l-225 -120q-72 213 -295 213q-153 0 -242.5 -105.5t-89.5 -290.5v-223q0 -184 89 -286.5t243 -102.5q117 0 195 62t116 165l215 -127q-159 -336 -526 -336q-288 0 -450 187.5t-162 542.5zM561 1692v49q0 60 38.5 95.5
t121.5 35.5t121.5 -35.5t38.5 -95.5v-49q0 -61 -38.5 -97t-121.5 -36t-121.5 36t-38.5 97z" />
    <glyph glyph-name="cdotaccent" unicode="&#x10b;" horiz-adv-x="1048" 
d="M82 535q0 260 128.5 409.5t362.5 149.5q156 0 263 -71.5t155 -199.5l-209 -94q-21 72 -74 114t-135 42q-108 0 -165.5 -68.5t-57.5 -185.5v-195q0 -117 57.5 -184.5t165.5 -67.5q88 0 142 44t88 124l196 -96q-109 -281 -426 -281q-234 0 -362.5 150t-128.5 410zM408 1352
v47q0 127 155 127q156 0 156 -127v-47q0 -58 -38 -92.5t-118 -34.5t-117.5 34.5t-37.5 92.5z" />
    <glyph glyph-name="Ccaron" unicode="&#x10c;" horiz-adv-x="1312" 
d="M109 705q0 357 163 553t449 196q373 0 520 -328l-225 -120q-72 213 -295 213q-153 0 -242.5 -105.5t-89.5 -290.5v-223q0 -184 89 -286.5t243 -102.5q117 0 195 62t116 165l215 -127q-159 -336 -526 -336q-288 0 -450 187.5t-162 542.5zM346 1862l129 100l246 -238
l246 238l129 -100l-256 -316h-238z" />
    <glyph glyph-name="ccaron" unicode="&#x10d;" horiz-adv-x="1048" 
d="M82 535q0 260 128.5 409.5t362.5 149.5q156 0 263 -71.5t155 -199.5l-209 -94q-21 72 -74 114t-135 42q-108 0 -165.5 -68.5t-57.5 -185.5v-195q0 -117 57.5 -184.5t165.5 -67.5q88 0 142 44t88 124l196 -96q-109 -281 -426 -281q-234 0 -362.5 150t-128.5 410zM188 1524
l129 100l246 -238l246 238l129 -100l-256 -316h-238z" />
    <glyph glyph-name="Dcaron" unicode="&#x10e;" horiz-adv-x="1409" 
d="M168 0v1430h520q285 0 450 -183.5t165 -531.5t-165 -531.5t-450 -183.5h-520zM274 1862l129 100l246 -238l246 238l129 -100l-256 -316h-238zM434 236h254q155 0 243.5 93t88.5 273v225q0 180 -88.5 273.5t-243.5 93.5h-254v-958z" />
    <glyph glyph-name="dcaron" unicode="&#x10f;" horiz-adv-x="1230" 
d="M92 535q0 268 109 413.5t311 145.5q106 0 186 -55t109 -148h10v625h256v-1516h-256v178h-10q-31 -93 -110.5 -148t-184.5 -55q-202 0 -311 146.5t-109 413.5zM362 442q0 -115 64.5 -184.5t167.5 -69.5q98 0 160.5 48t62.5 129v344q0 77 -63 124.5t-160 47.5
q-103 0 -167.5 -69.5t-64.5 -184.5v-185zM1198 1096l16 420h279l-127 -420h-168z" />
    <glyph glyph-name="Dcroat" unicode="&#x110;" horiz-adv-x="1419" 
d="M20 635v201h158v594h518q285 0 450 -183.5t165 -531.5t-165 -531.5t-450 -183.5h-518v635h-158zM442 236h254q155 0 244.5 93t89.5 273v225q0 180 -89.5 273.5t-244.5 93.5h-254v-358h256v-201h-256v-399z" />
    <glyph glyph-name="dcroat" unicode="&#x111;" horiz-adv-x="1232" 
d="M92 535q0 268 109 413.5t311 145.5q106 0 186 -55t109 -148h10v330h-295v178h295v117h256v-117h127v-178h-127v-1221h-256v178h-10q-31 -93 -110.5 -148t-184.5 -55q-202 0 -311 146.5t-109 413.5zM362 442q0 -115 64.5 -184.5t167.5 -69.5q98 0 160.5 48t62.5 129v344
q0 77 -63 124.5t-160 47.5q-103 0 -167.5 -69.5t-64.5 -184.5v-185z" />
    <glyph glyph-name="Emacron" unicode="&#x112;" horiz-adv-x="1226" 
d="M168 0v1430h940v-236h-674v-354h598v-234h-598v-370h674v-236h-940zM334 1622v188h610v-188h-610z" />
    <glyph glyph-name="emacron" unicode="&#x113;" horiz-adv-x="1142" 
d="M82 535q0 257 131 408t362 151q121 0 215.5 -42.5t152.5 -117t88 -170.5t30 -209v-86h-713v-27q0 -120 67 -190t195 -70q164 0 273 146l141 -154q-68 -93 -181.5 -146t-258.5 -53q-234 0 -368 151.5t-134 408.5zM276 1286v189h611v-189h-611zM348 629h445v20
q0 114 -56 182t-157 68q-104 0 -168 -70.5t-64 -183.5v-16z" />
    <glyph glyph-name="Ebreve" unicode="&#x114;" horiz-adv-x="1226" 
d="M168 0v1430h940v-236h-674v-354h598v-234h-598v-370h674v-236h-940zM276 1851l142 72l39 -65q45 -75 83.5 -108.5t98.5 -33.5t99.5 34t82.5 108l41 65l139 -72q-15 -47 -33 -86t-48.5 -84t-67.5 -75.5t-92.5 -51t-120.5 -20.5q-67 0 -123 20.5t-92.5 51t-67 75.5
t-47.5 83.5t-33 86.5z" />
    <glyph glyph-name="ebreve" unicode="&#x115;" horiz-adv-x="1142" 
d="M82 535q0 257 131 408t362 151q121 0 215.5 -42.5t152.5 -117t88 -170.5t30 -209v-86h-713v-27q0 -120 67 -190t195 -70q164 0 273 146l141 -154q-68 -93 -181.5 -146t-258.5 -53q-234 0 -368 151.5t-134 408.5zM219 1516l141 71l41 -67q42 -71 82.5 -105.5t98.5 -34.5
q57 0 97.5 34t84.5 106l41 67l139 -71q-104 -318 -362 -318q-67 0 -123 20.5t-92.5 51t-67.5 76t-47.5 84t-32.5 86.5zM348 629h445v20q0 114 -56 182t-157 68q-104 0 -168 -70.5t-64 -183.5v-16z" />
    <glyph glyph-name="Edotaccent" unicode="&#x116;" horiz-adv-x="1226" 
d="M168 0v1430h940v-236h-674v-354h598v-234h-598v-370h674v-236h-940zM479 1692v49q0 60 38.5 95.5t121.5 35.5t121.5 -35.5t38.5 -95.5v-49q0 -61 -38.5 -97t-121.5 -36t-121.5 36t-38.5 97z" />
    <glyph glyph-name="edotaccent" unicode="&#x117;" horiz-adv-x="1142" 
d="M82 535q0 257 131 408t362 151q121 0 215.5 -42.5t152.5 -117t88 -170.5t30 -209v-86h-713v-27q0 -120 67 -190t195 -70q164 0 273 146l141 -154q-68 -93 -181.5 -146t-258.5 -53q-234 0 -368 151.5t-134 408.5zM348 629h445v20q0 114 -56 182t-157 68q-104 0 -168 -70.5
t-64 -183.5v-16zM426 1354v47q0 127 156 127q155 0 155 -127v-47q0 -58 -37.5 -92.5t-117.5 -34.5t-118 34.5t-38 92.5z" />
    <glyph glyph-name="Eogonek" unicode="&#x118;" horiz-adv-x="1226" 
d="M168 0v1430h940v-236h-674v-354h598v-234h-598v-370h674v-236q-136 -95 -178.5 -141.5t-42.5 -85.5q0 -66 74 -66q61 0 106 55l100 -96q-50 -96 -227 -96q-103 0 -168 40t-65 128q0 78 58 136t173 118l-2 8h-768z" />
    <glyph glyph-name="eogonek" unicode="&#x119;" horiz-adv-x="1142" 
d="M82 535q0 257 131 408t362 151q121 0 215.5 -42.5t152.5 -117t88 -170.5t30 -209v-86h-713v-27q0 -120 67.5 -190t196.5 -70q169 0 273 146l139 -154q-29 -40 -168 -151q-10 -9 -34.5 -30l-35 -30t-31 -27.5t-30 -28.5t-24.5 -26.5t-22 -28t-15.5 -26t-11.5 -27.5t-3 -26
q0 -33 21 -49.5t53 -16.5q61 0 106 55l99 -96q-54 -96 -226 -96q-102 0 -166.5 40t-64.5 126q0 82 58 139t167 109l-4 8q-63 -17 -114 -17q-231 0 -363.5 151.5t-132.5 408.5zM348 629h445v20q0 114 -56 182t-157 68q-104 0 -168 -70.5t-64 -183.5v-16z" />
    <glyph glyph-name="Ecaron" unicode="&#x11a;" horiz-adv-x="1226" 
d="M168 0v1430h940v-236h-674v-354h598v-234h-598v-370h674v-236h-940zM264 1862l129 100l246 -238l246 238l129 -100l-256 -316h-238z" />
    <glyph glyph-name="ecaron" unicode="&#x11b;" horiz-adv-x="1142" 
d="M82 535q0 257 131 408t362 151q121 0 215.5 -42.5t152.5 -117t88 -170.5t30 -209v-86h-713v-27q0 -120 67 -190t195 -70q164 0 273 146l141 -154q-68 -93 -181.5 -146t-258.5 -53q-234 0 -368 151.5t-134 408.5zM207 1526l129 100l246 -237l245 237l129 -100l-256 -316
h-237zM348 629h445v20q0 114 -56 182t-157 68q-104 0 -168 -70.5t-64 -183.5v-16z" />
    <glyph glyph-name="Gcircumflex" unicode="&#x11c;" horiz-adv-x="1456" 
d="M109 711q0 353 171.5 548t460.5 195q190 0 327.5 -84t213.5 -242l-215 -124q-41 99 -122 157t-204 58q-162 0 -257 -101.5t-95 -288.5v-229q0 -186 96 -287.5t263 -101.5q134 0 221.5 64.5t87.5 181.5v96h-283v223h537v-776h-230v221h-8q-19 -108 -119.5 -177t-257.5 -69
q-127 0 -233.5 48.5t-185.5 139.5t-123.5 231.5t-44.5 316.5zM356 1628l256 316h238l256 -316l-129 -100l-246 237l-246 -237z" />
    <glyph glyph-name="gcircumflex" unicode="&#x11d;" horiz-adv-x="1130" 
d="M59 -180q0 86 50 138t141 67v22q-65 15 -100 61.5t-35 112.5q0 77 54 123.5t140 65.5v8q-96 44 -145 124.5t-49 188.5q0 165 114.5 264t323.5 99q112 0 188 -25h349v-178h-142q47 -68 47 -160q0 -165 -114.5 -262.5t-325.5 -97.5q-77 0 -162 18q-78 -33 -78 -96
q0 -82 140 -82h282q375 0 375 -301q0 -174 -130 -259t-427 -85q-260 0 -378 64.5t-118 189.5zM180 1292l256 316h238l256 -316l-129 -100l-246 238l-246 -238zM266 -123q0 -66 54 -99.5t174 -33.5h131q127 0 187 32.5t60 100.5q0 55 -43 83t-141 28h-362q-60 -40 -60 -111z
M360 715q0 -83 49.5 -125.5t145.5 -42.5q94 0 144.5 42.5t50.5 125.5v35q0 81 -50.5 123t-144.5 42q-96 0 -145.5 -42t-49.5 -123v-35z" />
    <glyph glyph-name="Gbreve" unicode="&#x11e;" horiz-adv-x="1456" 
d="M109 711q0 353 171.5 548t460.5 195q190 0 327.5 -84t213.5 -242l-215 -124q-41 99 -122 157t-204 58q-162 0 -257 -101.5t-95 -288.5v-229q0 -186 96 -287.5t263 -101.5q134 0 221.5 64.5t87.5 181.5v96h-283v223h537v-776h-230v221h-8q-19 -108 -119.5 -177t-257.5 -69
q-127 0 -233.5 48.5t-185.5 139.5t-123.5 231.5t-44.5 316.5zM369 1851l141 72l39 -65q45 -75 83.5 -108.5t98.5 -33.5t99.5 34t82.5 108l41 65l140 -72q-104 -317 -363 -317q-67 0 -123 20.5t-92.5 51t-67 75.5t-47 83.5t-32.5 86.5z" />
    <glyph glyph-name="gbreve" unicode="&#x11f;" horiz-adv-x="1130" 
d="M59 -180q0 86 50 138t141 67v22q-65 15 -100 61.5t-35 112.5q0 77 54 123.5t140 65.5v8q-96 44 -145 124.5t-49 188.5q0 165 114.5 264t323.5 99q112 0 188 -25h349v-178h-142q47 -68 47 -160q0 -165 -114.5 -262.5t-325.5 -97.5q-77 0 -162 18q-78 -33 -78 -96
q0 -82 140 -82h282q375 0 375 -301q0 -174 -130 -259t-427 -85q-260 0 -378 64.5t-118 189.5zM190 1516l142 71l43 -67q43 -72 82 -106t98 -34q57 0 97.5 34t82.5 106l43 67l140 -71q-16 -48 -34 -86.5t-49 -84t-67.5 -76t-92 -51t-120.5 -20.5q-68 0 -124 21t-92.5 51
t-67.5 76t-47.5 83.5t-33.5 86.5zM266 -123q0 -66 54 -99.5t174 -33.5h131q127 0 187 32.5t60 100.5q0 55 -43 83t-141 28h-362q-60 -40 -60 -111zM360 715q0 -83 49.5 -125.5t145.5 -42.5q94 0 144.5 42.5t50.5 125.5v35q0 81 -50.5 123t-144.5 42q-96 0 -145.5 -42
t-49.5 -123v-35z" />
    <glyph glyph-name="Gdotaccent" unicode="&#x120;" horiz-adv-x="1456" 
d="M109 711q0 353 171.5 548t460.5 195q190 0 327.5 -84t213.5 -242l-215 -124q-41 99 -122 157t-204 58q-162 0 -257 -101.5t-95 -288.5v-229q0 -186 96 -287.5t263 -101.5q134 0 221.5 64.5t87.5 181.5v96h-283v223h537v-776h-230v221h-8q-19 -108 -119.5 -177t-257.5 -69
q-127 0 -233.5 48.5t-185.5 139.5t-123.5 231.5t-44.5 316.5zM571 1692v49q0 60 38.5 95.5t121.5 35.5t121.5 -35.5t38.5 -95.5v-49q0 -61 -38.5 -97t-121.5 -36t-121.5 36t-38.5 97z" />
    <glyph glyph-name="gdotaccent" unicode="&#x121;" horiz-adv-x="1130" 
d="M59 -180q0 86 50 138t141 67v22q-65 15 -100 61.5t-35 112.5q0 77 54 123.5t140 65.5v8q-96 44 -145 124.5t-49 188.5q0 165 114.5 264t323.5 99q112 0 188 -25h349v-178h-142q47 -68 47 -160q0 -165 -114.5 -262.5t-325.5 -97.5q-77 0 -162 18q-78 -33 -78 -96
q0 -82 140 -82h282q375 0 375 -301q0 -174 -130 -259t-427 -85q-260 0 -378 64.5t-118 189.5zM266 -123q0 -66 54 -99.5t174 -33.5h131q127 0 187 32.5t60 100.5q0 55 -43 83t-141 28h-362q-60 -40 -60 -111zM360 715q0 -83 49.5 -125.5t145.5 -42.5q94 0 144.5 42.5
t50.5 125.5v35q0 81 -50.5 123t-144.5 42q-96 0 -145.5 -42t-49.5 -123v-35zM399 1354v47q0 127 156 127t156 -127v-47q0 -58 -38 -92.5t-118 -34.5t-118 34.5t-38 92.5z" />
    <glyph glyph-name="uni0122" unicode="&#x122;" horiz-adv-x="1456" 
d="M109 711q0 353 171.5 548t460.5 195q190 0 327.5 -84t213.5 -242l-215 -124q-41 99 -122 157t-204 58q-162 0 -257 -101.5t-95 -288.5v-229q0 -186 96 -287.5t263 -101.5q134 0 221.5 64.5t87.5 181.5v96h-283v223h537v-776h-230v221h-8q-19 -108 -119.5 -177t-257.5 -69
q-127 0 -233.5 48.5t-185.5 139.5t-123.5 231.5t-44.5 316.5zM555 -543q93 83 121 189q-48 6 -70 37t-22 75v23q0 56 34 86.5t95 30.5q63 0 97 -30.5t34 -86.5v-27q0 -84 -37.5 -165t-95.5 -132h-156z" />
    <glyph glyph-name="uni0123" unicode="&#x123;" horiz-adv-x="1130" 
d="M59 -180q0 86 50 138t141 67v22q-65 15 -100 61.5t-35 112.5q0 77 54 123.5t140 65.5v8q-96 44 -145 124.5t-49 188.5q0 165 114.5 264t323.5 99q112 0 188 -25h349v-178h-142q47 -68 47 -160q0 -165 -114.5 -262.5t-325.5 -97.5q-77 0 -162 18q-78 -33 -78 -96
q0 -82 140 -82h282q375 0 375 -301q0 -174 -130 -259t-427 -85q-260 0 -378 64.5t-118 189.5zM266 -123q0 -66 54 -99.5t174 -33.5h131q127 0 187 32.5t60 100.5q0 55 -43 83t-141 28h-362q-60 -40 -60 -111zM360 715q0 -83 49.5 -125.5t145.5 -42.5q94 0 144.5 42.5
t50.5 125.5v35q0 81 -50.5 123t-144.5 42q-96 0 -145.5 -42t-49.5 -123v-35zM426 1309v26q0 85 37.5 165t95.5 132h156q-94 -81 -119 -188q48 -4 70 -35.5t22 -77.5v-22q0 -55 -34.5 -86t-96.5 -31t-96.5 31t-34.5 86z" />
    <glyph glyph-name="Hcircumflex" unicode="&#x124;" horiz-adv-x="1470" 
d="M168 0v1430h266v-590h604v590h265v-1430h-265v606h-604v-606h-266zM360 1628l256 316h238l256 -316l-129 -100l-246 237l-246 -237z" />
    <glyph glyph-name="hcircumflex" unicode="&#x125;" horiz-adv-x="1202" 
d="M-94 1616l256 315h237l256 -315l-129 -100l-245 237l-246 -237zM152 0v1516h258v-625h10q76 203 299 203q164 0 253 -109.5t89 -308.5v-676h-256v649q0 117 -43 174.5t-137 57.5q-89 0 -152 -44.5t-63 -127.5v-709h-258z" />
    <glyph glyph-name="Hbar" unicode="&#x126;" horiz-adv-x="1488" 
d="M29 1044v199h149v187h264v-187h605v187h264v-187h149v-199h-149v-1044h-264v606h-605v-606h-264v1044h-149zM442 840h605v204h-605v-204z" />
    <glyph glyph-name="hbar" unicode="&#x127;" horiz-adv-x="1202" 
d="M25 1221v178h127v117h258v-117h292v-178h-292v-330h10q76 203 299 203q164 0 253 -109.5t89 -308.5v-676h-256v649q0 117 -43 174.5t-137 57.5q-89 0 -152 -44.5t-63 -127.5v-709h-258v1221h-127z" />
    <glyph glyph-name="Itilde" unicode="&#x128;" horiz-adv-x="862" 
d="M57 1733q83 125 222 125q62 0 149 -41q7 -3 10 -5q99 -47 154 -47q33 0 59.5 12.5t61.5 41.5l94 -121q-81 -123 -221 -123q-31 0 -62 7.5t-47.5 14.5t-50.5 23q-102 45 -154 45q-34 0 -60 -11.5t-60 -39.5zM109 0v213h190v1004h-190v213h645v-213h-191v-1004h191v-213
h-645z" />
    <glyph glyph-name="itilde" unicode="&#x129;" horiz-adv-x="561" 
d="M-94 1397q83 125 221 125q31 0 62 -7.5t47.5 -14.5t50.5 -23q99 -47 153 -47q33 0 59.5 12.5t61.5 40.5l94 -121q-81 -123 -221 -123q-31 0 -62 7.5t-47.5 14.5t-50.5 23q-102 45 -153 45q-34 0 -60.5 -11.5t-60.5 -39.5zM152 0v1069h258v-1069h-258z" />
    <glyph glyph-name="Imacron" unicode="&#x12a;" horiz-adv-x="862" 
d="M109 0v213h190v1004h-190v213h645v-213h-191v-1004h191v-213h-645zM127 1622v188h610v-188h-610z" />
    <glyph glyph-name="imacron" unicode="&#x12b;" horiz-adv-x="561" 
d="M-25 1286v189h611v-189h-611zM152 0v1069h258v-1069h-258z" />
    <glyph glyph-name="Ibreve" unicode="&#x12c;" horiz-adv-x="862" 
d="M70 1851l141 72l39 -65q45 -75 83.5 -108.5t98.5 -33.5t99.5 34t82.5 108l41 65l140 -72q-104 -317 -363 -317q-67 0 -123 20.5t-92.5 51t-67 75.5t-47 83.5t-32.5 86.5zM109 0v213h190v1004h-190v213h645v-213h-191v-1004h191v-213h-645z" />
    <glyph glyph-name="ibreve" unicode="&#x12d;" horiz-adv-x="561" 
d="M-82 1516l141 71l41 -67q42 -71 82.5 -105.5t98.5 -34.5q57 0 97.5 34t84.5 106l41 67l139 -71q-104 -318 -362 -318q-67 0 -123 20.5t-92.5 51t-67.5 76t-47.5 84t-32.5 86.5zM152 0v1069h258v-1069h-258z" />
    <glyph glyph-name="Iogonek" unicode="&#x12e;" horiz-adv-x="862" 
d="M109 0v213h190v1004h-190v213h647v-213h-193v-1004h193v-213q-137 -96 -180.5 -142.5t-43.5 -84.5q0 -66 74 -66q62 0 107 55l100 -96q-50 -96 -227 -96q-66 0 -116.5 15.5t-84 54t-33.5 98.5q0 78 56.5 134.5t175.5 119.5l-2 8h-473z" />
    <glyph glyph-name="iogonek" unicode="&#x12f;" horiz-adv-x="561" 
d="M6 -262q0 77 57.5 134t174.5 120l-2 8h-84v1069h258v-1069q-137 -96 -180.5 -142.5t-43.5 -84.5q0 -66 74 -66q62 0 107 55l100 -96q-50 -96 -227 -96q-66 0 -116.5 15.5t-84 54t-33.5 98.5zM129 1358v39q0 60 38.5 95.5t113.5 35.5t113 -35.5t38 -95.5v-39
q0 -59 -38 -94t-113 -35t-113.5 35t-38.5 94z" />
    <glyph glyph-name="Idotaccent" unicode="&#x130;" horiz-adv-x="862" 
d="M109 0v213h190v1004h-190v213h645v-213h-191v-1004h191v-213h-645zM272 1692v49q0 60 38.5 95.5t121.5 35.5t121.5 -35.5t38.5 -95.5v-49q0 -61 -38.5 -97t-121.5 -36t-121.5 36t-38.5 97z" />
    <glyph glyph-name="dotlessi" unicode="&#x131;" horiz-adv-x="561" 
d="M152 0v1069h258v-1069h-258z" />
    <glyph glyph-name="IJ" unicode="&#x132;" horiz-adv-x="1335" 
d="M160 621v809h264v-809h-264zM172 358l246 50q21 -94 84.5 -146.5t167.5 -52.5q108 0 174.5 57.5t66.5 173.5v772h-223v218h488v-990q0 -214 -137.5 -338.5t-368.5 -124.5q-213 0 -339.5 103t-158.5 278z" />
    <glyph glyph-name="ij" unicode="&#x133;" horiz-adv-x="1112" 
d="M129 1358v39q0 60 38.5 95.5t113.5 35.5t113 -35.5t38 -95.5v-39q0 -59 -38 -94t-113 -35t-113.5 35t-38.5 94zM152 0v1069h258v-1069h-258zM539 -205h163v1274h256v-1200q0 -279 -278 -279h-141v205zM680 1358v39q0 60 37.5 95.5t113.5 35.5q75 0 112.5 -35.5
t37.5 -95.5v-39q0 -60 -37.5 -94.5t-112.5 -34.5q-76 0 -113.5 34.5t-37.5 94.5z" />
    <glyph glyph-name="Jcircumflex" unicode="&#x134;" horiz-adv-x="1112" 
d="M53 352l246 51q40 -194 201 -194q85 0 135.5 53.5t50.5 157.5v792h-453v218h719v-1031q0 -193 -122 -307.5t-328 -114.5q-190 0 -303.5 100.5t-145.5 274.5zM221 1628l256 316h238l256 -316l-129 -100l-246 237l-246 -237z" />
    <glyph glyph-name="jcircumflex" unicode="&#x135;" horiz-adv-x="561" 
d="M-94 1292l256 316h237l256 -316l-129 -100l-245 238l-246 -238zM-12 -205h164v1274h258v-1200q0 -279 -279 -279h-143v205z" />
    <glyph glyph-name="uni0136" unicode="&#x136;" horiz-adv-x="1382" 
d="M168 0v1430h266v-707h10l203 266l359 441h305l-498 -596l539 -834h-316l-411 649l-191 -225v-424h-266zM567 -543q93 83 121 189q-48 6 -70 37t-22 75v23q0 56 34 86.5t95 30.5q63 0 97 -30.5t34 -86.5v-27q0 -84 -37.5 -165t-95.5 -132h-156z" />
    <glyph glyph-name="uni0137" unicode="&#x137;" horiz-adv-x="1146" 
d="M152 0v1516h258v-918h10l143 193l242 278h291l-369 -414l410 -655h-308l-278 483l-141 -155v-328h-258zM481 -543q93 83 121 189q-48 6 -70 37t-22 75v23q0 56 34 86.5t95 30.5q63 0 97 -30.5t34 -86.5v-27q0 -84 -37.5 -165t-95.5 -132h-156z" />
    <glyph glyph-name="kgreenlandic" unicode="&#x138;" horiz-adv-x="1146" 
d="M152 0v1069h258v-469h10l149 186l254 283h293l-385 -418l406 -651h-303l-283 479l-141 -151v-328h-258z" />
    <glyph glyph-name="Lacute" unicode="&#x139;" horiz-adv-x="1064" 
d="M168 0v1430h266v-1194h565v-236h-831zM176 1602l193 380l219 -108l-256 -348z" />
    <glyph glyph-name="lacute" unicode="&#x13a;" horiz-adv-x="600" 
d="M152 254v1262h258v-1311h141v-205h-139q-130 0 -195 66t-65 188zM164 1675l192 381l219 -108l-256 -349z" />
    <glyph glyph-name="uni013B" unicode="&#x13b;" horiz-adv-x="1064" 
d="M168 0v1430h266v-1194h565v-236h-831zM434 -543q93 83 121 189q-48 6 -70 37t-22 75v23q0 56 34 86.5t95 30.5q63 0 97 -30.5t34 -86.5v-27q0 -84 -37.5 -165t-95.5 -132h-156z" />
    <glyph glyph-name="uni013C" unicode="&#x13c;" horiz-adv-x="600" 
d="M152 254v1262h258v-1311h141v-205h-139q-130 0 -195 66t-65 188zM190 -543q93 83 121 189q-48 6 -70 37t-22 75v23q0 56 34 86.5t95 30.5q63 0 97 -30.5t34 -86.5v-27q0 -84 -37.5 -165t-95.5 -132h-156z" />
    <glyph glyph-name="Lcaron" unicode="&#x13d;" horiz-adv-x="1064" 
d="M168 0v1430h266v-1194h565v-236h-831zM584 1098l16 420h279l-125 -420h-170z" />
    <glyph glyph-name="lcaron" unicode="&#x13e;" horiz-adv-x="677" 
d="M152 254v1262h258v-1311h141v-205h-139q-130 0 -195 66t-65 188zM532 1096l17 420h278l-127 -420h-168z" />
    <glyph glyph-name="Ldot" unicode="&#x13f;" horiz-adv-x="1064" 
d="M168 0v1430h266v-1194h565v-236h-831zM672 764v47q0 127 155 127q158 0 158 -127v-47q0 -58 -38 -92.5t-120 -34.5q-80 0 -117.5 34.5t-37.5 92.5z" />
    <glyph glyph-name="ldot" unicode="&#x140;" horiz-adv-x="856" 
d="M152 254v1262h258v-1311h141v-205h-139q-130 0 -195 66t-65 188zM547 672v47q0 127 155 127q158 0 158 -127v-47q0 -58 -38 -92.5t-120 -34.5q-80 0 -117.5 34.5t-37.5 92.5z" />
    <glyph glyph-name="Lslash" unicode="&#x141;" horiz-adv-x="1083" 
d="M-14 455v198l192 64v713h264v-627l340 110v-202l-340 -111v-364h566v-236h-830v516z" />
    <glyph glyph-name="lslash" unicode="&#x142;" horiz-adv-x="618" 
d="M10 575v195l152 49v697h258v-613l211 70v-195l-211 -69v-504h141v-205h-139q-130 0 -195 66t-65 188v371z" />
    <glyph glyph-name="Nacute" unicode="&#x143;" horiz-adv-x="1470" 
d="M168 0v1430h293l436 -742l147 -297h7v1039h252v-1430h-293l-435 741l-149 297h-6v-1038h-252zM604 1602l193 380l219 -108l-256 -348z" />
    <glyph glyph-name="nacute" unicode="&#x144;" horiz-adv-x="1202" 
d="M152 0v1069h258v-178h10q76 203 299 203q164 0 253 -109.5t89 -308.5v-676h-256v649q0 117 -43 174.5t-137 57.5q-89 0 -152 -44.5t-63 -127.5v-709h-258zM475 1262l193 380l219 -108l-256 -348z" />
    <glyph glyph-name="uni0145" unicode="&#x145;" horiz-adv-x="1470" 
d="M168 0v1430h293l436 -742l147 -297h7v1039h252v-1430h-293l-435 741l-149 297h-6v-1038h-252zM575 -543q93 83 121 189q-48 6 -70 37t-22 75v23q0 56 34 86.5t95 30.5q63 0 97 -30.5t34 -86.5v-27q0 -84 -37.5 -165t-95.5 -132h-156z" />
    <glyph glyph-name="uni0146" unicode="&#x146;" horiz-adv-x="1202" 
d="M152 0v1069h258v-178h10q76 203 299 203q164 0 253 -109.5t89 -308.5v-676h-256v649q0 117 -43 174.5t-137 57.5q-89 0 -152 -44.5t-63 -127.5v-709h-258zM442 -543q93 83 121 189q-48 6 -70 37t-22 75v23q0 56 34 86.5t95 30.5q63 0 97 -30.5t34 -86.5v-27
q0 -84 -37.5 -165t-95.5 -132h-156z" />
    <glyph glyph-name="Ncaron" unicode="&#x147;" horiz-adv-x="1470" 
d="M168 0v1430h293l436 -742l147 -297h7v1039h252v-1430h-293l-435 741l-149 297h-6v-1038h-252zM360 1862l129 100l246 -238l246 238l129 -100l-256 -316h-238z" />
    <glyph glyph-name="ncaron" unicode="&#x148;" horiz-adv-x="1202" 
d="M152 0v1069h258v-178h10q76 203 299 203q164 0 253 -109.5t89 -308.5v-676h-256v649q0 117 -43 174.5t-137 57.5q-89 0 -152 -44.5t-63 -127.5v-709h-258zM229 1522l129 100l246 -238l246 238l129 -100l-256 -316h-238z" />
    <glyph glyph-name="napostrophe" unicode="&#x149;" horiz-adv-x="1763" 
d="M80 956q137 127 176 263q-55 10 -83 46.5t-28 88.5v43q0 63 40 101t120 38t119 -38t39 -101v-37q0 -107 -59 -219.5t-152 -184.5h-172zM715 0v1069h256v-178h12q76 203 299 203q163 0 252.5 -110t89.5 -308v-676h-258v649q0 117 -43 174.5t-135 57.5q-90 0 -153.5 -44.5
t-63.5 -127.5v-709h-256z" />
    <glyph glyph-name="Eng" unicode="&#x14a;" horiz-adv-x="1470" 
d="M168 0v1430h293l436 -742l147 -297h7v1039h252v-1557q0 -137 -69.5 -210t-211.5 -73h-143v207h172v203h-41l-435 741l-149 297h-6v-1038h-252z" />
    <glyph glyph-name="eng" unicode="&#x14b;" horiz-adv-x="1202" 
d="M152 0v1069h258v-178h10q76 203 299 203q164 0 253 -109.5t89 -308.5v-809q0 -134 -68.5 -205.5t-208.5 -71.5h-143v205h164v854q0 117 -43 174.5t-137 57.5q-89 0 -152 -44.5t-63 -127.5v-709h-258z" />
    <glyph glyph-name="Omacron" unicode="&#x14c;" horiz-adv-x="1458" 
d="M109 715q0 356 166.5 547.5t453.5 191.5t454 -191.5t167 -547.5t-167 -548t-454 -192t-453.5 192t-166.5 548zM389 604q0 -183 92 -288t248 -105t248 105t92 288v221q0 183 -92 288.5t-248 105.5t-248 -105.5t-92 -288.5v-221zM424 1622v188h610v-188h-610z" />
    <glyph glyph-name="omacron" unicode="&#x14d;" horiz-adv-x="1153" 
d="M82 535q0 258 133 408.5t360 150.5q229 0 362.5 -150.5t133.5 -408.5q0 -257 -134 -408.5t-362 -151.5q-227 0 -360 151.5t-133 408.5zM270 1284v189h611v-189h-611zM350 436q0 -121 60.5 -186.5t164.5 -65.5q106 0 167 65.5t61 186.5v197q0 121 -61 186.5t-167 65.5
q-104 0 -164.5 -65.5t-60.5 -186.5v-197z" />
    <glyph glyph-name="Obreve" unicode="&#x14e;" horiz-adv-x="1458" 
d="M109 715q0 356 166.5 547.5t453.5 191.5t454 -191.5t167 -547.5t-167 -548t-454 -192t-453.5 192t-166.5 548zM367 1851l141 72l39 -65q45 -75 83.5 -108.5t98.5 -33.5t99.5 34t82.5 108l41 65l140 -72q-104 -317 -363 -317q-67 0 -123 20.5t-92.5 51t-67 75.5t-47 83.5
t-32.5 86.5zM389 604q0 -183 92 -288t248 -105t248 105t92 288v221q0 183 -92 288.5t-248 105.5t-248 -105.5t-92 -288.5v-221z" />
    <glyph glyph-name="obreve" unicode="&#x14f;" horiz-adv-x="1153" 
d="M82 535q0 258 133 408.5t360 150.5q229 0 362.5 -150.5t133.5 -408.5q0 -257 -134 -408.5t-362 -151.5q-227 0 -360 151.5t-133 408.5zM213 1513l141 72l41 -67q42 -72 82.5 -106t97.5 -34t98 34t85 106l41 67l139 -72q-104 -317 -363 -317q-67 0 -123 20.5t-92.5 51
t-67 75.5t-47 83.5t-32.5 86.5zM350 436q0 -121 60.5 -186.5t164.5 -65.5q106 0 167 65.5t61 186.5v197q0 121 -61 186.5t-167 65.5q-104 0 -164.5 -65.5t-60.5 -186.5v-197z" />
    <glyph glyph-name="Ohungarumlaut" unicode="&#x150;" horiz-adv-x="1458" 
d="M109 715q0 356 166.5 547.5t453.5 191.5t454 -191.5t167 -547.5t-167 -548t-454 -192t-453.5 192t-166.5 548zM389 604q0 -183 92 -288t248 -105t248 105t92 288v221q0 183 -92 288.5t-248 105.5t-248 -105.5t-92 -288.5v-221zM414 1595l192 381l205 -100l-254 -350z
M803 1595l192 381l205 -100l-254 -350z" />
    <glyph glyph-name="ohungarumlaut" unicode="&#x151;" horiz-adv-x="1153" 
d="M82 535q0 258 133 408.5t360 150.5q229 0 362.5 -150.5t133.5 -408.5q0 -257 -134 -408.5t-362 -151.5q-227 0 -360 151.5t-133 408.5zM260 1257l193 381l204 -100l-254 -350zM350 436q0 -121 60.5 -186.5t164.5 -65.5q106 0 167 65.5t61 186.5v197q0 121 -61 186.5
t-167 65.5q-104 0 -164.5 -65.5t-60.5 -186.5v-197zM649 1257l193 381l205 -100l-254 -350z" />
    <glyph glyph-name="OE" unicode="&#x152;" horiz-adv-x="2035" 
d="M109 715q0 356 168 547.5t460 191.5q142 0 256 -24h924v-236h-678v-354h600v-234h-600v-370h678v-236h-934q-103 -25 -246 -25q-292 0 -460 191.5t-168 548.5zM389 604q0 -186 92.5 -289.5t263.5 -103.5q117 0 230 25v956q-121 27 -230 27q-171 0 -263.5 -104t-92.5 -290
v-221z" />
    <glyph glyph-name="oe" unicode="&#x153;" horiz-adv-x="1865" 
d="M82 539q0 257 132.5 406t360.5 149q260 0 357 -181h12q42 84 136.5 132.5t224.5 48.5q226 0 352.5 -146t126.5 -393v-86h-715v-27q0 -120 69.5 -190t198.5 -70q92 0 157.5 38t117.5 108l139 -154q-66 -93 -178.5 -146t-257.5 -53q-136 0 -235.5 50.5t-137.5 130.5h-10
q-43 -85 -136.5 -133t-220.5 -48q-227 0 -360 153.5t-133 410.5zM350 436q0 -121 60.5 -186.5t164.5 -65.5q106 0 167 65.5t61 186.5v197q0 121 -61 186.5t-167 65.5q-104 0 -164.5 -65.5t-60.5 -186.5v-197zM1069 629h447v20q0 114 -56.5 182t-156.5 68
q-105 0 -169.5 -70.5t-64.5 -183.5v-16z" />
    <glyph glyph-name="Racute" unicode="&#x154;" horiz-adv-x="1357" 
d="M168 0v1430h643q193 0 306.5 -119.5t113.5 -321.5q0 -150 -68 -255.5t-200 -149.5l297 -584h-297l-269 555h-260v-555h-266zM434 778h350q80 0 126 42.5t46 119.5v96q0 77 -46 119.5t-126 42.5h-350v-420zM526 1602l193 380l219 -108l-256 -348z" />
    <glyph glyph-name="racute" unicode="&#x155;" horiz-adv-x="802" 
d="M152 0v1069h258v-221h10q24 95 95 158t190 63h55v-244h-82q-268 0 -268 -168v-657h-258zM326 1264l192 381l219 -109l-256 -348z" />
    <glyph glyph-name="uni0156" unicode="&#x156;" horiz-adv-x="1357" 
d="M168 0v1430h643q193 0 306.5 -119.5t113.5 -321.5q0 -150 -68 -255.5t-200 -149.5l297 -584h-297l-269 555h-260v-555h-266zM434 778h350q80 0 126 42.5t46 119.5v96q0 77 -46 119.5t-126 42.5h-350v-420zM545 -543q93 83 121 189q-48 6 -70.5 37t-22.5 75v23
q0 56 34 86.5t95 30.5q63 0 97.5 -30.5t34.5 -86.5v-27q0 -83 -38 -164t-96 -133h-155z" />
    <glyph glyph-name="uni0157" unicode="&#x157;" horiz-adv-x="802" 
d="M123 -543q93 83 121 189q-48 6 -70 37t-22 75v23q0 56 34 86.5t95 30.5q63 0 97 -30.5t34 -86.5v-27q0 -84 -37.5 -165t-95.5 -132h-156zM152 0v1069h258v-221h10q24 95 95 158t190 63h55v-244h-82q-268 0 -268 -168v-657h-258z" />
    <glyph glyph-name="Rcaron" unicode="&#x158;" horiz-adv-x="1357" 
d="M168 0v1430h643q193 0 306.5 -119.5t113.5 -321.5q0 -150 -68 -255.5t-200 -149.5l297 -584h-297l-269 555h-260v-555h-266zM281 1862l129 100l245 -238l246 238l129 -100l-256 -316h-237zM434 778h350q80 0 126 42.5t46 119.5v96q0 77 -46 119.5t-126 42.5h-350v-420z
" />
    <glyph glyph-name="rcaron" unicode="&#x159;" horiz-adv-x="802" 
d="M80 1524l129 100l246 -238l245 238l129 -100l-256 -316h-237zM152 0v1069h258v-221h10q24 95 95 158t190 63h55v-244h-82q-268 0 -268 -168v-657h-258z" />
    <glyph glyph-name="Sacute" unicode="&#x15a;" horiz-adv-x="1249" 
d="M80 213l180 174q146 -178 367 -178q125 0 190.5 54.5t65.5 150.5q0 76 -44.5 120.5t-154.5 63.5l-133 20q-217 35 -322.5 138t-105.5 278q0 192 139.5 306t376.5 114q310 0 487 -211l-180 -172q-120 150 -321 150q-115 0 -176.5 -44t-61.5 -126q0 -81 47.5 -121.5
t155.5 -61.5l133 -24q218 -38 321 -139t103 -277q0 -206 -143 -329.5t-394 -123.5q-326 0 -530 238zM492 1602l192 380l219 -108l-256 -348z" />
    <glyph glyph-name="sacute" unicode="&#x15b;" horiz-adv-x="1019" 
d="M59 172l158 152q127 -146 295 -146q180 0 180 127q0 96 -133 115l-106 14q-355 45 -355 322q0 156 110.5 247t293.5 91q147 0 240 -41t176 -127l-154 -152q-47 53 -113.5 85t-142.5 32q-82 0 -123 -31t-41 -84q0 -55 33 -83t110 -40l107 -14q174 -25 259 -103t85 -212
q0 -155 -119.5 -252t-316.5 -97q-146 0 -252.5 50t-190.5 147zM377 1264l192 381l219 -109l-256 -348z" />
    <glyph glyph-name="Scircumflex" unicode="&#x15c;" horiz-adv-x="1249" 
d="M80 213l180 174q146 -178 367 -178q125 0 190.5 54.5t65.5 150.5q0 76 -44.5 120.5t-154.5 63.5l-133 20q-217 35 -322.5 138t-105.5 278q0 192 139.5 306t376.5 114q310 0 487 -211l-180 -172q-120 150 -321 150q-115 0 -176.5 -44t-61.5 -126q0 -81 47.5 -121.5
t155.5 -61.5l133 -24q218 -38 321 -139t103 -277q0 -206 -143 -329.5t-394 -123.5q-326 0 -530 238zM248 1628l256 316h237l256 -316l-129 -100l-245 237l-246 -237z" />
    <glyph glyph-name="scircumflex" unicode="&#x15d;" horiz-adv-x="1019" 
d="M59 172l158 152q127 -146 295 -146q180 0 180 127q0 96 -133 115l-106 14q-355 45 -355 322q0 156 110.5 247t293.5 91q147 0 240 -41t176 -127l-154 -152q-47 53 -113.5 85t-142.5 32q-82 0 -123 -31t-41 -84q0 -55 33 -83t110 -40l107 -14q174 -25 259 -103t85 -212
q0 -155 -119.5 -252t-316.5 -97q-146 0 -252.5 50t-190.5 147zM131 1290l256 316h238l256 -316l-129 -100l-246 237l-246 -237z" />
    <glyph glyph-name="Scedilla" unicode="&#x15e;" horiz-adv-x="1249" 
d="M80 213l180 174q146 -178 367 -178q125 0 190.5 54.5t65.5 150.5q0 76 -44.5 120.5t-154.5 63.5l-133 20q-217 35 -322.5 138t-105.5 278q0 192 139.5 306t376.5 114q310 0 487 -211l-180 -172q-120 150 -321 150q-115 0 -176.5 -44t-61.5 -126q0 -81 47.5 -121.5
t155.5 -61.5l133 -24q218 -38 321 -139t103 -277q0 -193 -126 -314.5t-351 -136.5l-21 -94l8 -8q54 14 93 14q65 0 105 -35t40 -104q0 -92 -73 -136t-183 -44q-165 0 -236 88l89 104q48 -59 131 -59q40 0 65 14t25 41q0 68 -148 82l-49 6l27 131q-282 22 -463 236z" />
    <glyph glyph-name="scedilla" unicode="&#x15f;" horiz-adv-x="1019" 
d="M59 172l158 152q127 -146 295 -146q180 0 180 127q0 96 -133 115l-106 14q-355 45 -355 322q0 156 110.5 247t293.5 91q147 0 240 -41t176 -127l-154 -152q-47 53 -113.5 85t-142.5 32q-82 0 -123 -31t-41 -84q0 -55 33 -83t110 -40l107 -14q174 -25 259 -103t85 -212
q0 -143 -103 -237.5t-276 -109.5l-18 -94l6 -8q54 14 92 14q65 0 106 -35t41 -104q0 -92 -73 -136t-183 -44q-166 0 -237 88l88 104q48 -59 133 -59q40 0 65 14t25 41q0 67 -149 82l-47 6l26 134q-229 19 -375 192z" />
    <glyph glyph-name="Scaron" unicode="&#x160;" horiz-adv-x="1249" 
d="M80 213l180 174q146 -178 367 -178q125 0 190.5 54.5t65.5 150.5q0 76 -44.5 120.5t-154.5 63.5l-133 20q-217 35 -322.5 138t-105.5 278q0 192 139.5 306t376.5 114q310 0 487 -211l-180 -172q-120 150 -321 150q-115 0 -176.5 -44t-61.5 -126q0 -81 47.5 -121.5
t155.5 -61.5l133 -24q218 -38 321 -139t103 -277q0 -206 -143 -329.5t-394 -123.5q-326 0 -530 238zM248 1862l129 100l246 -238l245 238l129 -100l-256 -316h-237z" />
    <glyph glyph-name="scaron" unicode="&#x161;" horiz-adv-x="1019" 
d="M59 172l158 152q127 -146 295 -146q180 0 180 127q0 96 -133 115l-106 14q-355 45 -355 322q0 156 110.5 247t293.5 91q147 0 240 -41t176 -127l-154 -152q-47 53 -113.5 85t-142.5 32q-82 0 -123 -31t-41 -84q0 -55 33 -83t110 -40l107 -14q174 -25 259 -103t85 -212
q0 -155 -119.5 -252t-316.5 -97q-146 0 -252.5 50t-190.5 147zM131 1524l129 100l246 -238l246 238l129 -100l-256 -316h-238z" />
    <glyph glyph-name="uni0162" unicode="&#x162;" horiz-adv-x="1187" 
d="M51 1194v236h1086v-236h-410v-1194h-266v1194h-410zM434 -543q93 83 121 189q-48 6 -70 37t-22 75v23q0 56 34 86.5t95 30.5q63 0 97 -30.5t34 -86.5v-27q0 -84 -37.5 -165t-95.5 -132h-156z" />
    <glyph glyph-name="uni0163" unicode="&#x163;" horiz-adv-x="761" 
d="M51 864v205h84q57 0 79 25.5t22 83.5v182h231v-291h219v-205h-219v-659h203v-205h-189q-131 0 -200.5 69t-69.5 197v598h-160zM299 -543q93 83 121 189q-48 6 -70 37t-22 75v23q0 56 34 86.5t95 30.5q63 0 97 -30.5t34 -86.5v-27q0 -84 -37.5 -165t-95.5 -132h-156z" />
    <glyph glyph-name="Tcaron" unicode="&#x164;" horiz-adv-x="1187" 
d="M51 1194v236h1086v-236h-410v-1194h-266v1194h-410zM219 1862l129 100l246 -238l246 238l129 -100l-256 -316h-238z" />
    <glyph glyph-name="tcaron" unicode="&#x165;" horiz-adv-x="770" 
d="M51 864v205h84q57 0 79 25.5t22 83.5v182h231v-291h219v-205h-219v-659h203v-205h-189q-131 0 -200.5 69t-69.5 197v598h-160zM600 1174l16 419h279l-127 -419h-168z" />
    <glyph glyph-name="Tbar" unicode="&#x166;" horiz-adv-x="1208" 
d="M61 1194v236h1086v-236h-410v-389h301v-201h-301v-604h-266v604h-301v201h301v389h-410z" />
    <glyph glyph-name="tbar" unicode="&#x167;" horiz-adv-x="778" 
d="M59 864v205h82q57 0 80 26t23 83v182h231v-291h219v-205h-219v-215h178v-178h-178v-266h203v-205h-189q-133 0 -202.5 69t-69.5 197v205h-131v178h131v215h-158z" />
    <glyph glyph-name="Utilde" unicode="&#x168;" horiz-adv-x="1411" 
d="M160 586v844h260v-879q0 -173 66.5 -256.5t218.5 -83.5q153 0 219.5 83.5t66.5 256.5v879h260v-844q0 -320 -126.5 -465.5t-422.5 -145.5q-294 0 -418 145t-124 466zM330 1733q83 125 221 125q31 0 62.5 -8t46.5 -14.5t51 -23.5q99 -47 153 -47q33 0 59.5 12.5t61.5 41.5
l94 -121q-81 -123 -221 -123q-31 0 -62 7.5t-47.5 14.5t-50.5 23q-102 45 -153 45q-34 0 -60.5 -11.5t-60.5 -39.5z" />
    <glyph glyph-name="utilde" unicode="&#x169;" horiz-adv-x="1200" 
d="M139 393v676h256v-649q0 -232 185 -232q85 0 148 45.5t63 126.5v709h258v-1069h-258v178h-9q-75 -203 -301 -203q-163 0 -252.5 109.5t-89.5 308.5zM219 1397q83 125 221 125q31 0 62 -7.5t47.5 -14.5t50.5 -23q99 -47 154 -47q33 0 59 12t61 41l95 -121
q-81 -123 -221 -123q-31 0 -62 7.5t-47.5 14.5t-50.5 23q-102 45 -154 45q-34 0 -60.5 -11.5t-60.5 -39.5z" />
    <glyph glyph-name="Umacron" unicode="&#x16a;" horiz-adv-x="1411" 
d="M160 586v844h260v-879q0 -173 66.5 -256.5t218.5 -83.5q153 0 219.5 83.5t66.5 256.5v879h260v-844q0 -320 -126.5 -465.5t-422.5 -145.5q-294 0 -418 145t-124 466zM399 1622v188h611v-188h-611z" />
    <glyph glyph-name="umacron" unicode="&#x16b;" horiz-adv-x="1200" 
d="M139 393v676h256v-649q0 -232 185 -232q85 0 148 45.5t63 126.5v709h258v-1069h-258v178h-9q-75 -203 -301 -203q-163 0 -252.5 109.5t-89.5 308.5zM289 1286v189h610v-189h-610z" />
    <glyph glyph-name="Ubreve" unicode="&#x16c;" horiz-adv-x="1411" 
d="M160 586v844h260v-879q0 -173 66.5 -256.5t218.5 -83.5q153 0 219.5 83.5t66.5 256.5v879h260v-844q0 -320 -126.5 -465.5t-422.5 -145.5q-294 0 -418 145t-124 466zM342 1851l141 72l39 -65q45 -74 84 -108t99 -34t99.5 34t82.5 108l41 65l139 -72q-15 -47 -33 -86
t-48.5 -84t-67.5 -75.5t-92.5 -51t-120.5 -20.5q-67 0 -123 20.5t-92.5 51t-67 75.5t-47.5 83.5t-33 86.5z" />
    <glyph glyph-name="ubreve" unicode="&#x16d;" horiz-adv-x="1200" 
d="M139 393v676h256v-649q0 -232 185 -232q85 0 148 45.5t63 126.5v709h258v-1069h-258v178h-9q-75 -203 -301 -203q-163 0 -252.5 109.5t-89.5 308.5zM231 1516l142 71l41 -67q42 -72 82.5 -106t97.5 -34t97.5 34t84.5 106l41 67l139 -71q-104 -318 -362 -318
q-67 0 -123 20.5t-92.5 51t-67.5 76t-47.5 84t-32.5 86.5z" />
    <glyph glyph-name="Uring" unicode="&#x16e;" horiz-adv-x="1411" 
d="M160 586v844h260v-879q0 -173 66.5 -256.5t218.5 -83.5q153 0 219.5 83.5t66.5 256.5v879h260v-844q0 -320 -126.5 -465.5t-422.5 -145.5q-294 0 -418 145t-124 466zM424 1765q0 118 81 195.5t200 77.5t199.5 -77.5t80.5 -195.5q0 -119 -80.5 -196.5t-199.5 -77.5
q-120 0 -200.5 77.5t-80.5 196.5zM596 1735q0 -51 28.5 -80t80.5 -29t80 29t28 80v61q0 50 -28 78.5t-80 28.5t-80.5 -28.5t-28.5 -78.5v-61z" />
    <glyph glyph-name="uring" unicode="&#x16f;" horiz-adv-x="1200" 
d="M139 393v676h256v-649q0 -232 185 -232q85 0 148 45.5t63 126.5v709h258v-1069h-258v178h-9q-75 -203 -301 -203q-163 0 -252.5 109.5t-89.5 308.5zM313 1430q0 118 81 195t200 77t199.5 -77t80.5 -195q0 -119 -80.5 -197t-199.5 -78t-200 78t-81 197zM485 1399
q0 -51 28.5 -80t80.5 -29t80 29t28 80v61q0 51 -28 79t-80 28t-80.5 -28t-28.5 -79v-61z" />
    <glyph glyph-name="Uhungarumlaut" unicode="&#x170;" horiz-adv-x="1411" 
d="M160 586v844h260v-879q0 -173 66.5 -256.5t218.5 -83.5q153 0 219.5 83.5t66.5 256.5v879h260v-844q0 -320 -126.5 -465.5t-422.5 -145.5q-294 0 -418 145t-124 466zM389 1595l193 381l204 -100l-254 -350zM778 1595l193 381l205 -100l-254 -350z" />
    <glyph glyph-name="uhungarumlaut" unicode="&#x171;" horiz-adv-x="1200" 
d="M139 393v676h256v-649q0 -232 185 -232q85 0 148 45.5t63 126.5v709h258v-1069h-258v178h-9q-75 -203 -301 -203q-163 0 -252.5 109.5t-89.5 308.5zM279 1260l192 380l205 -100l-254 -350zM668 1260l192 380l205 -100l-254 -350z" />
    <glyph glyph-name="Uogonek" unicode="&#x172;" horiz-adv-x="1411" 
d="M160 586v844h260v-879q0 -173 66.5 -256.5t218.5 -83.5q153 0 219.5 83.5t66.5 256.5v879h260v-844q0 -218 -52 -352.5t-193 -249.5q-23 -20 -59.5 -48.5t-56.5 -45t-42 -38t-31.5 -41t-9.5 -40.5q0 -32 21 -48t53 -16q61 0 106 55l100 -96q-54 -96 -225 -96
q-102 0 -167.5 40t-65.5 124q0 79 57.5 131t183.5 117l-6 10q-69 -17 -162 -17q-294 0 -418 145t-124 466z" />
    <glyph glyph-name="uogonek" unicode="&#x173;" horiz-adv-x="1202" 
d="M141 393v676h256v-649q0 -232 183 -232q86 0 149.5 45.5t63.5 126.5v709h256v-1069q-136 -95 -179 -141.5t-43 -85.5q0 -66 72 -66q64 0 109 55l100 -96q-54 -96 -227 -96q-66 0 -116.5 15.5t-84 54t-33.5 98.5q0 78 58 136t174 118l-2 8h-84v178h-11
q-31 -90 -104 -146.5t-195 -56.5q-164 0 -253 109t-89 309z" />
    <glyph glyph-name="Wcircumflex" unicode="&#x174;" horiz-adv-x="1937" 
d="M53 1430h266l142 -687l90 -444h4l104 444l166 687h293l164 -687l102 -442h7l92 442l145 687h256l-344 -1430h-299l-182 754l-90 383h-6l-93 -383l-184 -754h-301zM594 1628l256 316h237l256 -316l-129 -100l-245 237l-246 -237z" />
    <glyph glyph-name="wcircumflex" unicode="&#x175;" horiz-adv-x="1673" 
d="M47 1069h248l108 -442l86 -373h7l100 373l127 442h233l129 -442l103 -373h6l86 373l106 442h240l-293 -1069h-278l-137 473l-80 293h-7l-79 -293l-136 -473h-274zM463 1292l256 316h237l256 -316l-129 -100l-245 238l-246 -238z" />
    <glyph glyph-name="Ycircumflex" unicode="&#x176;" horiz-adv-x="1290" 
d="M20 1430h299l332 -609h4l324 609h291l-492 -865v-565h-266v561zM272 1628l256 316h238l256 -316l-129 -100l-246 237l-246 -237z" />
    <glyph glyph-name="ycircumflex" unicode="&#x177;" horiz-adv-x="1069" 
d="M20 1069h254l191 -573l67 -267h13l71 267l191 573h244l-435 -1262q-41 -118 -107 -167.5t-194 -49.5h-153v205h190l51 154zM164 1292l256 316h237l256 -316l-129 -100l-245 238l-246 -238z" />
    <glyph glyph-name="Ydieresis" unicode="&#x178;" horiz-adv-x="1290" 
d="M20 1430h299l332 -609h4l324 609h291l-492 -865v-565h-266v561zM291 1696v41q0 118 143 118q74 0 109 -32t35 -86v-41q0 -55 -35 -87t-109 -32q-143 0 -143 119zM717 1696v41q0 118 143 118q144 0 144 -118v-41q0 -119 -144 -119q-74 0 -108.5 32t-34.5 87z" />
    <glyph glyph-name="Zacute" unicode="&#x179;" horiz-adv-x="1224" 
d="M78 0v236l745 958h-708v236h1011v-236l-747 -958h768v-236h-1069zM487 1602l193 380l219 -108l-256 -348z" />
    <glyph glyph-name="zacute" unicode="&#x17a;" horiz-adv-x="1024" 
d="M76 0v205l557 659h-539v205h840v-199l-563 -665h577v-205h-872zM383 1266l192 381l220 -109l-256 -348z" />
    <glyph glyph-name="Zdotaccent" unicode="&#x17b;" horiz-adv-x="1224" 
d="M78 0v236l745 958h-708v236h1011v-236l-747 -958h768v-236h-1069zM459 1692v49q0 60 38 95.5t121 35.5t121.5 -35.5t38.5 -95.5v-49q0 -61 -38.5 -97t-121.5 -36q-159 0 -159 133z" />
    <glyph glyph-name="zdotaccent" unicode="&#x17c;" horiz-adv-x="1024" 
d="M76 0v205l557 659h-539v205h840v-199l-563 -665h577v-205h-872zM356 1354v47q0 127 156 127t156 -127v-47q0 -58 -38 -92.5t-118 -34.5t-118 34.5t-38 92.5z" />
    <glyph glyph-name="Zcaron" unicode="&#x17d;" horiz-adv-x="1224" 
d="M78 0v236l745 958h-708v236h1011v-236l-747 -958h768v-236h-1069zM244 1862l129 100l245 -238l246 238l129 -100l-256 -316h-237z" />
    <glyph glyph-name="zcaron" unicode="&#x17e;" horiz-adv-x="1024" 
d="M76 0v205l557 659h-539v205h840v-199l-563 -665h577v-205h-872zM137 1526l129 100l246 -237l246 237l129 -100l-256 -316h-238z" />
    <glyph glyph-name="uni018F" unicode="&#x18f;" horiz-adv-x="1458" 
d="M109 715v84h960v24q0 186 -90.5 291t-245.5 105q-257 0 -336 -246l-235 90q61 175 207 283t364 108q289 0 453 -193t164 -546t-166.5 -546.5t-454.5 -193.5q-290 0 -455 191t-165 549zM389 565q10 -164 102.5 -259t237.5 -95q144 0 236.5 95t101.5 259l2 15h-680v-15z
" />
    <glyph glyph-name="florin" unicode="&#x192;" horiz-adv-x="991" 
d="M4 -274l23 204h256l63 619h-244l23 213h242l39 379q13 131 95 210t226 79h231l-20 -205h-268l-47 -463h286l-18 -213h-289l-55 -537q-12 -131 -94 -208.5t-228 -77.5h-221z" />
    <glyph glyph-name="Ohorn" unicode="&#x1a0;" horiz-adv-x="1458" 
d="M109 715q0 356 166.5 547.5t453.5 191.5q103 0 189 -24h247v221h217v-197q0 -91 -37 -135.5t-133 -44.5h-43q181 -196 181 -559q0 -356 -167 -548t-454 -192t-453.5 192t-166.5 548zM389 604q0 -183 92 -288t248 -105t248 105t92 288v221q0 183 -92 288.5t-248 105.5
t-248 -105.5t-92 -288.5v-221z" />
    <glyph glyph-name="ohorn" unicode="&#x1a1;" horiz-adv-x="1153" 
d="M82 539q0 257 132.5 406t360.5 149q88 0 168 -25h146v221h217v-194q0 -82 -29.5 -125.5t-97.5 -50.5l-23 -2q115 -145 115 -379q0 -257 -134 -410.5t-362 -153.5q-227 0 -360 153.5t-133 410.5zM350 436q0 -121 60.5 -186.5t164.5 -65.5q106 0 167 65.5t61 186.5v197
q0 121 -61 186.5t-167 65.5q-104 0 -164.5 -65.5t-60.5 -186.5v-197z" />
    <glyph glyph-name="Uhorn" unicode="&#x1af;" horiz-adv-x="1411" 
d="M160 586v844h260v-879q0 -173 66.5 -256.5t218.5 -83.5q153 0 219.5 83.5t66.5 256.5v879h168v221h217v-199q0 -72 -24 -113.5t-84 -54.5l-17 -2v-696q0 -320 -126.5 -465.5t-422.5 -145.5q-294 0 -418 145t-124 466z" />
    <glyph glyph-name="uhorn" unicode="&#x1b0;" horiz-adv-x="1202" 
d="M141 393v676h256v-649q0 -232 183 -232q86 0 149.5 45.5t63.5 126.5v709h182v221h217v-198q0 -78 -28 -121.5t-95 -52.5l-20 -3v-915h-256v178h-11q-31 -90 -104 -146.5t-195 -56.5q-164 0 -253 109t-89 309z" />
    <glyph glyph-name="uni01B3" unicode="&#x1b3;" horiz-adv-x="1290" 
d="M20 1430h299l332 -609h4l324 609h291l-492 -865v-565h-266v561zM426 1765v187h270q96 0 138.5 -38t42.5 -99q0 -106 -111 -244l-55 -66l-133 64l96 196h-248z" />
    <glyph glyph-name="uni01B4" unicode="&#x1b4;" horiz-adv-x="1069" 
d="M20 1069h254l191 -573l67 -267h13l71 267l191 573h244l-435 -1262q-41 -118 -107 -167.5t-194 -49.5h-153v205h190l51 154zM317 1442v186h271q96 0 138 -37.5t42 -99.5q0 -106 -111 -244l-55 -65l-133 63l96 197h-248z" />
    <glyph glyph-name="Aringacute" unicode="&#x1fa;" horiz-adv-x="1372" 
d="M43 0l481 1430h330l475 -1430h-274l-117 367h-510l-117 -367h-268zM399 1735q0 110 82 175.5t205 65.5t205 -65.5t82 -175.5t-82 -176t-205 -66t-205 66t-82 176zM489 594h383l-186 594h-10zM571 1720q0 -98 115 -98t115 98v29q0 98 -115 98t-115 -98v-29zM582 2097
l225 238l149 -129l-270 -199z" />
    <glyph glyph-name="aringacute" unicode="&#x1fb;" horiz-adv-x="1140" 
d="M76 291q0 161 118.5 244t340.5 83h182v80q0 191 -203 191q-152 0 -244 -137l-151 137q129 205 413 205q214 0 327.5 -98.5t113.5 -282.5v-508h108v-205h-143q-77 0 -127.5 44t-65.5 118l-4 20h-12q-27 -100 -109 -153.5t-202 -53.5q-162 0 -252 85.5t-90 230.5zM252 1403
q0 110 81.5 176t205.5 66q123 0 204.5 -66t81.5 -176t-81.5 -176t-204.5 -66q-124 0 -205.5 66t-81.5 176zM338 293q0 -64 43 -97.5t121 -33.5q94 0 154.5 41.5t60.5 115.5v144h-170q-209 0 -209 -135v-35zM424 1389q0 -99 115 -99q114 0 114 99v28q0 99 -114 99
q-115 0 -115 -99v-28zM434 1765l225 238l150 -129l-270 -199z" />
    <glyph glyph-name="AEacute" unicode="&#x1fc;" horiz-adv-x="1941" 
d="M2 0l709 1430h1112v-236h-678v-354h600v-234h-600v-370h678v-236h-940v367h-439l-176 -367h-266zM551 594h332v600h-41zM934 1602l192 380l220 -108l-256 -348z" />
    <glyph glyph-name="aeacute" unicode="&#x1fd;" horiz-adv-x="1769" 
d="M76 293q0 164 122.5 250t336.5 86h182v69q0 92 -49.5 141.5t-151.5 49.5q-87 0 -145 -36.5t-101 -100.5l-151 137q129 205 413 205q220 0 314 -181h12q40 79 135 130t221 51q119 0 211.5 -42.5t149 -117t85 -170.5t28.5 -209v-86h-715v-27q0 -117 71.5 -187.5
t196.5 -70.5q169 0 275 144l139 -154q-66 -93 -179 -146t-255 -53q-149 0 -260.5 65.5t-147.5 154.5h-12q-32 -91 -129 -155.5t-254 -64.5q-160 0 -251 88t-91 230zM338 301q0 -67 42.5 -103t123.5 -36q92 0 152.5 41.5t60.5 115.5v150h-170q-101 -2 -155 -36.5t-54 -98.5
v-33zM743 1278l193 381l219 -109l-256 -348zM975 629h446v20q0 114 -57 182t-158 68q-104 0 -167.5 -70.5t-63.5 -183.5v-16z" />
    <glyph glyph-name="Oslashacute" unicode="&#x1fe;" horiz-adv-x="1458" 
d="M109 715q0 356 166.5 547.5t453.5 191.5q182 0 324 -82l112 164l164 -104l-129 -191q150 -192 150 -526q0 -356 -167 -548t-454 -192q-181 0 -323 82l-113 -163l-164 104l129 190q-149 191 -149 527zM379 600q0 -114 39 -203l510 779q-77 57 -199 57q-161 0 -255.5 -108
t-94.5 -296v-229zM530 254q77 -57 199 -57q161 0 255.5 107.5t94.5 295.5v229q0 114 -39 203zM598 1602l193 380l219 -108l-256 -348z" />
    <glyph glyph-name="oslashacute" unicode="&#x1ff;" horiz-adv-x="1169" 
d="M43 10l137 170q-90 140 -90 355q0 258 133.5 408.5t360.5 150.5q156 0 278 -80l123 151l141 -106l-139 -172q92 -140 92 -352q0 -258 -133 -409t-362 -151q-156 0 -277 78l-125 -149zM352 541q0 -93 10 -154l375 457q-59 53 -153 53q-107 0 -169.5 -72t-62.5 -198v-86z
M430 225q59 -53 154 -53q108 0 170.5 71.5t62.5 198.5v103q0 69 -10 137zM455 1264l192 381l219 -109l-256 -348z" />
    <glyph glyph-name="uni0218" unicode="&#x218;" horiz-adv-x="1249" 
d="M80 213l180 174q146 -178 367 -178q125 0 190.5 54.5t65.5 150.5q0 76 -44.5 120.5t-154.5 63.5l-133 20q-217 35 -322.5 138t-105.5 278q0 192 139.5 306t376.5 114q310 0 487 -211l-180 -172q-120 150 -321 150q-115 0 -176.5 -44t-61.5 -126q0 -81 47.5 -121.5
t155.5 -61.5l133 -24q218 -38 321 -139t103 -277q0 -206 -143 -329.5t-394 -123.5q-326 0 -530 238zM463 -543q93 83 121 189q-48 6 -70 37t-22 75v23q0 56 34 86.5t95 30.5q63 0 97 -30.5t34 -86.5v-27q0 -83 -38 -164t-96 -133h-155z" />
    <glyph glyph-name="uni0219" unicode="&#x219;" horiz-adv-x="1019" 
d="M59 172l158 152q127 -146 295 -146q180 0 180 127q0 96 -133 115l-106 14q-355 45 -355 322q0 156 110.5 247t293.5 91q147 0 240 -41t176 -127l-154 -152q-47 53 -113.5 85t-142.5 32q-82 0 -123 -31t-41 -84q0 -55 33 -83t110 -40l107 -14q174 -25 259 -103t85 -212
q0 -155 -119.5 -252t-316.5 -97q-146 0 -252.5 50t-190.5 147zM344 -543q93 83 121 189q-48 6 -70 37t-22 75v23q0 56 34 86.5t95 30.5q63 0 97 -30.5t34 -86.5v-27q0 -84 -37.5 -165t-95.5 -132h-156z" />
    <glyph glyph-name="uni021A" unicode="&#x21a;" horiz-adv-x="1187" 
d="M51 1194v236h1086v-236h-410v-1194h-266v1194h-410zM434 -543q93 83 121 189q-48 6 -70 37t-22 75v23q0 56 34 86.5t95 30.5q63 0 97 -30.5t34 -86.5v-27q0 -84 -37.5 -165t-95.5 -132h-156z" />
    <glyph glyph-name="uni021B" unicode="&#x21b;" horiz-adv-x="761" 
d="M51 864v205h84q57 0 79 25.5t22 83.5v182h231v-291h219v-205h-219v-659h203v-205h-189q-131 0 -200.5 69t-69.5 197v598h-160zM299 -543q93 83 121 189q-48 6 -70 37t-22 75v23q0 56 34 86.5t95 30.5q63 0 97 -30.5t34 -86.5v-27q0 -84 -37.5 -165t-95.5 -132h-156z" />
    <glyph glyph-name="uni0237" unicode="&#x237;" horiz-adv-x="561" 
d="M-12 -205h164v1274h258v-1200q0 -279 -279 -279h-143v205z" />
    <glyph glyph-name="uni0259" unicode="&#x259;" horiz-adv-x="1142" 
d="M82 514v86h713v27q0 120 -65.5 190t-190.5 70q-167 0 -269 -146l-141 154q68 93 180 146t256 53q232 0 364 -151t132 -408t-131.5 -408.5t-362.5 -151.5q-121 0 -215.5 42.5t-152.5 117t-87.5 170.5t-29.5 209zM348 420q0 -114 57 -182t158 -68q104 0 168 70.5t64 183.5
v16h-447v-20z" />
    <glyph glyph-name="uni02BB" unicode="&#x2bb;" horiz-adv-x="1228" 
d="M485 1309v26q0 85 37.5 165t95.5 132h156q-94 -81 -119 -188q48 -4 70.5 -35.5t22.5 -77.5v-22q0 -55 -35 -86t-97 -31t-96.5 31t-34.5 86z" />
    <glyph glyph-name="uni02BC" unicode="&#x2bc;" horiz-adv-x="1228" 
d="M391 1096l17 420h278l-125 -420h-170z" />
    <glyph glyph-name="circumflex" unicode="&#x2c6;" horiz-adv-x="1228" 
d="M240 1292l256 316h237l256 -316l-129 -100l-246 238l-245 -238z" />
    <glyph glyph-name="caron" unicode="&#x2c7;" horiz-adv-x="1228" 
d="M240 1526l129 100l245 -237l246 237l129 -100l-256 -316h-237z" />
    <glyph glyph-name="breve" unicode="&#x2d8;" horiz-adv-x="1228" 
d="M252 1516l141 71l41 -67q42 -72 82.5 -106t97.5 -34t98 34t85 106l41 67l139 -71q-104 -318 -363 -318q-56 0 -104 13.5t-83.5 39t-63.5 54.5t-49.5 68t-35 71.5t-26.5 71.5z" />
    <glyph glyph-name="dotaccent" unicode="&#x2d9;" horiz-adv-x="1228" 
d="M459 1354v47q0 127 155 127q156 0 156 -127v-47q0 -58 -38 -92.5t-118 -34.5t-117.5 34.5t-37.5 92.5z" />
    <glyph glyph-name="ring" unicode="&#x2da;" horiz-adv-x="1228" 
d="M334 1430q0 118 80.5 195t199.5 77t200 -77t81 -195q0 -119 -81 -197t-200 -78t-199.5 78t-80.5 197zM506 1399q0 -51 28 -80t80 -29t80.5 29t28.5 80v61q0 51 -28.5 79t-80.5 28t-80 -28t-28 -79v-61z" />
    <glyph glyph-name="ogonek" unicode="&#x2db;" horiz-adv-x="1228" 
d="M231 -262q0 79 57 137t177 123l-14 47h163l19 -45q-135 -96 -178 -142.5t-43 -84.5q0 -66 71 -66q64 0 109 55l100 -96q-54 -96 -227 -96q-66 0 -116.5 15.5t-84 54t-33.5 98.5z" />
    <glyph glyph-name="tilde" unicode="&#x2dc;" horiz-adv-x="1228" 
d="M240 1397q83 125 221 125q31 0 62 -7.5t47.5 -14.5t50.5 -23q99 -47 153 -47q33 0 59.5 12.5t61.5 40.5l94 -121q-81 -123 -221 -123q-31 0 -62 7.5t-47.5 14.5t-50.5 23q-102 45 -153 45q-34 0 -60.5 -11.5t-60.5 -39.5z" />
    <glyph glyph-name="hungarumlaut" unicode="&#x2dd;" horiz-adv-x="1228" 
d="M299 1260l193 380l204 -100l-254 -350zM688 1260l193 380l204 -100l-254 -350z" />
    <glyph glyph-name="gravecomb" unicode="&#x300;" 
d="M-283 1538l220 109l192 -381l-156 -76z" />
    <glyph glyph-name="acutecomb" unicode="&#x301;" 
d="M-129 1266l192 381l220 -109l-256 -348z" />
    <glyph glyph-name="uni0302" unicode="&#x302;" 
d="M-375 1292l256 316h238l256 -316l-129 -100l-246 238l-246 -238z" />
    <glyph glyph-name="tildecomb" unicode="&#x303;" 
d="M-375 1397q83 125 221 125q31 0 62 -7.5t47.5 -14.5t50.5 -23q99 -47 154 -47q33 0 59.5 12.5t61.5 40.5l94 -121q-81 -123 -221 -123q-31 0 -62 7.5t-47.5 14.5t-50.5 23q-102 45 -154 45q-34 0 -60.5 -11.5t-60.5 -39.5z" />
    <glyph glyph-name="uni0304" unicode="&#x304;" 
d="M-305 1286v189h610v-189h-610z" />
    <glyph glyph-name="uni0306" unicode="&#x306;" 
d="M-362 1516l141 71l41 -67q42 -72 82.5 -106t97.5 -34t97.5 34t84.5 106l41 67l139 -71q-104 -318 -362 -318q-56 0 -104 13.5t-83.5 39t-63.5 54.5t-49.5 68t-35 71.5t-26.5 71.5z" />
    <glyph glyph-name="uni0307" unicode="&#x307;" 
d="M-156 1354v47q0 127 156 127t156 -127v-47q0 -58 -38 -92.5t-118 -34.5t-118 34.5t-38 92.5z" />
    <glyph glyph-name="uni0308" unicode="&#x308;" 
d="M-356 1358v43q0 117 143 117q141 0 141 -117v-43q0 -117 -141 -117q-143 0 -143 117zM72 1358v43q0 117 141 117q143 0 143 -117v-43q0 -117 -143 -117q-141 0 -141 117z" />
    <glyph glyph-name="hookabovecomb" unicode="&#x309;" 
d="M-221 1432v186h270q96 0 138 -37.5t42 -99.5q0 -107 -110 -244l-56 -66l-133 64l97 197h-248z" />
    <glyph glyph-name="uni030A" unicode="&#x30a;" 
d="M-281 1430q0 118 81 195t200 77t200 -77t81 -195q0 -119 -81 -197t-200 -78t-200 78t-81 197zM-109 1399q0 -51 28.5 -80t80.5 -29t80.5 29t28.5 80v61q0 51 -28.5 79t-80.5 28t-80.5 -28t-28.5 -79v-61z" />
    <glyph glyph-name="uni030B" unicode="&#x30b;" 
d="M-315 1260l192 380l205 -100l-254 -350zM74 1260l192 380l205 -100l-254 -350z" />
    <glyph glyph-name="uni030C" unicode="&#x30c;" 
d="M-375 1526l129 100l246 -237l246 237l129 -100l-256 -316h-238z" />
    <glyph glyph-name="uni0312" unicode="&#x312;" 
d="M-129 1309v26q0 85 37.5 165t95.5 132h156q-94 -81 -119 -188q48 -4 70 -35.5t22 -77.5v-22q0 -55 -34.5 -86t-96.5 -31t-96.5 31t-34.5 86z" />
    <glyph glyph-name="uni0315" unicode="&#x315;" 
d="M0 1096l16 420h279l-127 -420h-168z" />
    <glyph glyph-name="uni031B" unicode="&#x31b;" 
d="M-223 911v158h229v221h217v-198q0 -92 -39 -136.5t-141 -44.5h-266z" />
    <glyph glyph-name="dotbelowcomb" unicode="&#x323;" 
d="M-145 -233q0 116 145 116t145 -116v-43q0 -54 -35 -85.5t-110 -31.5t-110 31.5t-35 85.5v43z" />
    <glyph glyph-name="uni0326" unicode="&#x326;" 
d="M-160 -543q93 83 121 189q-48 6 -70 37t-22 75v23q0 56 34 86.5t95 30.5q63 0 97 -30.5t34 -86.5v-27q0 -84 -37.5 -165t-95.5 -132h-156z" />
    <glyph glyph-name="uni0327" unicode="&#x327;" 
d="M-209 -342l88 104q48 -59 131 -59q40 0 65 14t25 41q0 68 -147 82l-49 6l43 209h127l-37 -172l8 -8q54 14 92 14q65 0 105.5 -35t40.5 -104q0 -92 -73 -136t-183 -44q-165 0 -236 88z" />
    <glyph glyph-name="uni0328" unicode="&#x328;" 
d="M-403 -262q0 79 57.5 137t177.5 123l-14 47h164l18 -45q-136 -95 -179.5 -142t-43.5 -85q0 -66 73 -66q61 0 109 55l98 -96q-24 -45 -81.5 -70.5t-143.5 -25.5q-105 0 -170 40t-65 128z" />
    <glyph glyph-name="uni037E" unicode="&#x37e;" horiz-adv-x="649" 
d="M96 -291q73 70 118 134t67 139q-58 10 -87.5 48.5t-29.5 94.5v37q0 68 41 108.5t121 40.5t120.5 -40.5t40.5 -108.5v-37q0 -112 -57 -227t-151 -189h-183zM162 903v35q0 68 41 108.5t121 40.5t120.5 -40.5t40.5 -108.5v-35q0 -68 -40.5 -108.5t-120.5 -40.5t-121 40.5
t-41 108.5z" />
    <glyph glyph-name="tonos" unicode="&#x384;" horiz-adv-x="1228" 
d="M541 1214l67 433l238 -35l-135 -422z" />
    <glyph glyph-name="dieresistonos" unicode="&#x385;" horiz-adv-x="1228" 
d="M256 1358v41q0 54 30.5 83t88.5 29t88.5 -28.5t30.5 -81.5v-41q0 -54 -30.5 -83.5t-88.5 -29.5t-88.5 29t-30.5 82zM551 1210l67 437l187 -31l-135 -426zM817 1358v41q0 54 30.5 83t88.5 29t88.5 -28.5t30.5 -81.5v-41q0 -54 -30.5 -83.5t-88.5 -29.5t-88.5 29t-30.5 82z
" />
    <glyph glyph-name="Alphatonos" unicode="&#x386;" horiz-adv-x="1372" 
d="M43 0l481 1430h330l475 -1430h-274l-117 367h-510l-117 -367h-268zM78 1214l67 433l238 -35l-135 -422zM489 594h383l-186 594h-10z" />
    <glyph glyph-name="anoteleia" unicode="&#x387;" horiz-adv-x="649" 
d="M164 903v35q0 68 41 108.5t121 40.5t120.5 -40.5t40.5 -108.5v-35q0 -68 -40.5 -108.5t-120.5 -40.5t-121 40.5t-41 108.5z" />
    <glyph glyph-name="Epsilontonos" unicode="&#x388;" horiz-adv-x="1376" 
d="M-39 1214l68 433l235 -35l-135 -422zM317 0v1430h940v-236h-675v-354h598v-234h-598v-370h675v-236h-940z" />
    <glyph glyph-name="Etatonos" unicode="&#x389;" horiz-adv-x="1619" 
d="M-39 1214l68 433l235 -35l-135 -422zM317 0v1430h265v-590h604v590h266v-1430h-266v606h-604v-606h-265z" />
    <glyph glyph-name="Iotatonos" unicode="&#x38a;" horiz-adv-x="1071" 
d="M6 1214l68 433l235 -35l-135 -422zM317 0v213h191v1004h-191v213h646v-213h-191v-1004h191v-213h-646z" />
    <glyph glyph-name="Omicrontonos" unicode="&#x38c;" horiz-adv-x="1517" 
d="M-41 1214l68 433l237 -35l-135 -422zM168 715q0 356 166.5 547.5t453.5 191.5q288 0 455.5 -191.5t167.5 -547.5t-167.5 -548t-455.5 -192q-287 0 -453.5 192t-166.5 548zM449 604q0 -183 91.5 -288t247.5 -105t248 105t92 288v221q0 183 -92 288.5t-248 105.5
t-247.5 -105t-91.5 -289v-221z" />
    <glyph glyph-name="Upsilontonos" unicode="&#x38e;" horiz-adv-x="1544" 
d="M-39 1214l68 433l235 -35l-135 -422zM274 1430h299l332 -609h4l324 609h291l-492 -865v-565h-266v561z" />
    <glyph glyph-name="Omegatonos" unicode="&#x38f;" horiz-adv-x="1536" 
d="M-37 1214l68 433l235 -35l-135 -422zM166 0v233h326v21q-149 72 -232.5 210.5t-83.5 340.5q0 132 40.5 248.5t117 206.5t196 142t267.5 52q119 0 221 -34t175 -94t124.5 -142t76.5 -178t25 -201q0 -203 -83.5 -341t-233.5 -210v-21h325v-233h-524v356q98 31 167 133.5
t69 221.5v172q0 86 -40 161.5t-120 125t-182 49.5t-181.5 -49.5t-119 -125t-39.5 -161.5v-172q0 -119 68.5 -221.5t164.5 -133.5v-356h-524z" />
    <glyph glyph-name="iotadieresistonos" unicode="&#x390;" horiz-adv-x="651" 
d="M-94 1358v41q0 54 30.5 83t88.5 29t88 -28.5t30 -81.5v-41q0 -55 -30 -84t-88 -29t-88.5 29t-30.5 82zM152 266v803h258v-864h202v-205h-188q-133 0 -202.5 69t-69.5 197zM201 1210l67 437l187 -31l-136 -426zM467 1358v41q0 54 30.5 83t88.5 29t88.5 -28.5t30.5 -81.5
v-41q0 -54 -30.5 -83.5t-88.5 -29.5t-88.5 29t-30.5 82z" />
    <glyph glyph-name="Alpha" unicode="&#x391;" horiz-adv-x="1372" 
d="M43 0l481 1430h330l475 -1430h-274l-117 367h-510l-117 -367h-268zM489 594h383l-186 594h-10z" />
    <glyph glyph-name="Beta" unicode="&#x392;" horiz-adv-x="1355" 
d="M168 0v1430h659q176 0 277.5 -100t101.5 -267q0 -78 -21.5 -137.5t-58.5 -94t-81 -53t-95 -22.5v-13q40 -1 80.5 -12t82.5 -36.5t74 -62.5t52.5 -94.5t20.5 -127.5q0 -173 -106 -291.5t-263 -118.5h-723zM434 225h379q79 0 123.5 42t44.5 118v70q0 76 -44.5 117.5
t-123.5 41.5h-379v-389zM434 834h338q74 0 117 40t43 113v64q0 72 -43 112.5t-117 40.5h-338v-370z" />
    <glyph glyph-name="Gamma" unicode="&#x393;" horiz-adv-x="1042" 
d="M168 0v1430h819v-236h-553v-1194h-266z" />
    <glyph glyph-name="uni0394" unicode="&#x394;" horiz-adv-x="1372" 
d="M96 0v217l426 1213h330l424 -1213v-217h-1180zM367 236h630l-311 952h-10z" />
    <glyph glyph-name="Epsilon" unicode="&#x395;" horiz-adv-x="1226" 
d="M168 0v1430h940v-236h-674v-354h598v-234h-598v-370h674v-236h-940z" />
    <glyph glyph-name="Zeta" unicode="&#x396;" horiz-adv-x="1224" 
d="M78 0v236l745 958h-708v236h1011v-236l-747 -958h768v-236h-1069z" />
    <glyph glyph-name="Eta" unicode="&#x397;" horiz-adv-x="1470" 
d="M168 0v1430h266v-590h604v590h265v-1430h-265v606h-604v-606h-266z" />
    <glyph glyph-name="Theta" unicode="&#x398;" horiz-adv-x="1472" 
d="M109 715q0 357 167 548t459 191q294 0 461.5 -191t167.5 -548t-168 -548.5t-461 -191.5q-292 0 -459 191.5t-167 548.5zM389 604q0 -184 92 -288.5t254 -104.5t255 104.5t93 288.5v221q0 184 -93 289t-255 105q-161 0 -253.5 -105t-92.5 -289v-221zM502 606v234h469v-234
h-469z" />
    <glyph glyph-name="Iota" unicode="&#x399;" horiz-adv-x="862" 
d="M109 0v213h190v1004h-190v213h645v-213h-191v-1004h191v-213h-645z" />
    <glyph glyph-name="Kappa" unicode="&#x39a;" horiz-adv-x="1382" 
d="M168 0v1430h266v-707h10l203 266l359 441h305l-498 -596l539 -834h-316l-411 649l-191 -225v-424h-266z" />
    <glyph glyph-name="Lambda" unicode="&#x39b;" horiz-adv-x="1345" 
d="M43 0l473 1430h318l469 -1430h-277l-219 698l-135 482h-8l-132 -482l-221 -698h-268z" />
    <glyph glyph-name="Mu" unicode="&#x39c;" horiz-adv-x="1673" 
d="M168 0v1430h297l371 -703h6l366 703h295v-1430h-250v1026h-8l-110 -219l-299 -545l-295 545l-113 229h-8v-1036h-252z" />
    <glyph glyph-name="Nu" unicode="&#x39d;" horiz-adv-x="1470" 
d="M168 0v1430h293l436 -742l147 -297h7v1039h252v-1430h-293l-435 741l-149 297h-6v-1038h-252z" />
    <glyph glyph-name="Xi" unicode="&#x39e;" horiz-adv-x="1224" 
d="M119 0v236h987v-236h-987zM119 1194v236h987v-236h-987zM229 606v234h766v-234h-766z" />
    <glyph glyph-name="Omicron" unicode="&#x39f;" horiz-adv-x="1458" 
d="M109 715q0 356 166.5 547.5t453.5 191.5t454 -191.5t167 -547.5t-167 -548t-454 -192t-453.5 192t-166.5 548zM389 604q0 -183 92 -288t248 -105t248 105t92 288v221q0 183 -92 288.5t-248 105.5t-248 -105.5t-92 -288.5v-221z" />
    <glyph glyph-name="Pi" unicode="&#x3a0;" horiz-adv-x="1441" 
d="M168 0v1430h1104v-1430h-264v1194h-574v-1194h-266z" />
    <glyph glyph-name="Rho" unicode="&#x3a1;" horiz-adv-x="1308" 
d="M168 0v1430h641q195 0 308.5 -120.5t113.5 -320.5t-113.5 -321t-308.5 -121h-375v-547h-266zM434 778h350q80 0 126 42.5t46 119.5v96q0 77 -46 119.5t-126 42.5h-350v-420z" />
    <glyph glyph-name="Sigma" unicode="&#x3a3;" horiz-adv-x="1222" 
d="M88 0v236l471 483l-453 475v236h1004v-234h-678l447 -469l-482 -494h713v-233h-1022z" />
    <glyph glyph-name="Tau" unicode="&#x3a4;" horiz-adv-x="1187" 
d="M51 1194v236h1086v-236h-410v-1194h-266v1194h-410z" />
    <glyph glyph-name="Upsilon" unicode="&#x3a5;" horiz-adv-x="1290" 
d="M20 1430h299l332 -609h4l324 609h291l-492 -865v-565h-266v561z" />
    <glyph glyph-name="Phi" unicode="&#x3a6;" horiz-adv-x="1738" 
d="M92 723q0 300 166.5 480.5t452.5 180.5h24v121h269v-121h26q286 0 452.5 -179.5t166.5 -477.5q0 -300 -166.5 -480.5t-452.5 -180.5h-26v-146h-269v146h-24q-286 0 -452.5 179.5t-166.5 477.5zM367 662q0 -168 99.5 -273.5t248.5 -105.5h26v884h-26q-149 0 -248.5 -105.5
t-99.5 -273.5v-126zM997 283h29q148 0 248 106t100 273v126q0 167 -100 273t-248 106h-29v-884z" />
    <glyph glyph-name="Chi" unicode="&#x3a7;" horiz-adv-x="1337" 
d="M39 0l461 735l-443 695h312l305 -512h4l311 512h289l-447 -697l467 -733h-309l-330 551h-6l-325 -551h-289z" />
    <glyph glyph-name="Psi" unicode="&#x3a8;" horiz-adv-x="1685" 
d="M137 961v469h264v-469q0 -195 79 -279t229 -84v832h268v-832q149 0 228 84t79 279v469h266v-469q0 -280 -147 -431t-426 -151v-379h-268v379q-279 0 -425.5 151t-146.5 431z" />
    <glyph glyph-name="uni03A9" unicode="&#x3a9;" horiz-adv-x="1476" 
d="M109 0v233h325v21q-150 72 -233.5 210t-83.5 341q0 105 25 201t76.5 178t124.5 142t175 94t221 34q148 0 267.5 -52t196 -142t117 -206.5t40.5 -248.5q0 -202 -83.5 -340.5t-232.5 -210.5v-21h326v-233h-524v356q96 31 164.5 133.5t68.5 221.5v172q0 86 -39.5 161.5
t-119 125t-181.5 49.5t-182 -49.5t-120 -125t-40 -161.5v-172q0 -119 69 -221.5t167 -133.5v-356h-524z" />
    <glyph glyph-name="Iotadieresis" unicode="&#x3aa;" horiz-adv-x="862" 
d="M76 1696v41q0 118 143 118t143 -118v-41q0 -55 -34.5 -87t-108.5 -32q-143 0 -143 119zM109 0v213h190v1004h-190v213h645v-213h-191v-1004h191v-213h-645zM502 1696v41q0 118 143 118t143 -118v-41q0 -119 -143 -119q-74 0 -108.5 32t-34.5 87z" />
    <glyph glyph-name="Upsilondieresis" unicode="&#x3ab;" horiz-adv-x="1290" 
d="M20 1430h299l332 -609h4l324 609h291l-492 -865v-565h-266v561zM291 1696v41q0 118 143 118q74 0 109 -32t35 -86v-41q0 -55 -35 -87t-109 -32q-143 0 -143 119zM717 1696v41q0 118 143 118q144 0 144 -118v-41q0 -119 -144 -119q-74 0 -108.5 32t-34.5 87z" />
    <glyph glyph-name="alphatonos" unicode="&#x3ac;" horiz-adv-x="1349" 
d="M92 535q0 263 114.5 411t311.5 148q154 0 249 -86t142 -267h9l45 172l49 156h262l-234 -528l125 -336h115v-205h-113q-108 0 -161.5 44.5t-75.5 154.5l-23 129h-8q-47 -179 -138 -266t-243 -87q-197 0 -311.5 148.5t-114.5 411.5zM362 457q0 -134 47 -201.5t128 -67.5
q65 0 112 46.5t86 154.5l51 146l-51 145q-39 108 -86 154.5t-112 46.5q-81 0 -128 -67.5t-47 -201.5v-155zM520 1235l68 432l237 -35l-135 -422z" />
    <glyph glyph-name="epsilontonos" unicode="&#x3ad;" horiz-adv-x="1075" 
d="M96 295q0 112 66 176t190 82v10q-231 27 -231 225q0 135 116 220.5t320 85.5q294 0 451 -181l-156 -151q-98 125 -281 125q-93 0 -140.5 -32.5t-47.5 -84.5v-22q0 -54 38 -82.5t109 -28.5h224v-180h-242q-154 0 -154 -117v-23q0 -135 220 -135q190 0 307 142l139 -154
q-153 -195 -473 -195q-214 0 -334.5 86.5t-120.5 233.5zM463 1235l67 432l238 -35l-135 -422z" />
    <glyph glyph-name="etatonos" unicode="&#x3ae;" horiz-adv-x="1224" 
d="M68 864v205h149q182 0 209 -172l2 -14h12q74 211 301 211q164 0 253 -109.5t89 -308.5v-1086h-256v1059q0 117 -43 174.5t-137 57.5q-89 0 -152 -44.5t-63 -127.5v-709h-258v864h-106zM530 1235l68 432l238 -35l-136 -422z" />
    <glyph glyph-name="iotatonos" unicode="&#x3af;" horiz-adv-x="651" 
d="M152 266v803h258v-864h202v-205h-188q-133 0 -202.5 69t-69.5 197zM195 1214l67 433l238 -35l-135 -422z" />
    <glyph glyph-name="upsilondieresistonos" unicode="&#x3b0;" horiz-adv-x="1181" 
d="M135 494v575h256v-623q0 -134 48.5 -198t152.5 -64t151.5 64t47.5 198v623h256v-575q0 -519 -455 -519q-457 0 -457 519zM213 1358v41q0 112 117 112q58 0 88.5 -28.5t30.5 -81.5v-41q0 -54 -30.5 -83.5t-88.5 -29.5t-87.5 29t-29.5 82zM506 1210l67 437l187 -31
l-135 -426zM774 1358v41q0 112 117 112q58 0 88.5 -28.5t30.5 -81.5v-41q0 -54 -30.5 -83.5t-88.5 -29.5t-87.5 29t-29.5 82z" />
    <glyph glyph-name="alpha" unicode="&#x3b1;" horiz-adv-x="1349" 
d="M92 535q0 263 114.5 411t311.5 148q154 0 249 -86t142 -267h9l45 172l49 156h262l-234 -528l125 -336h115v-205h-113q-108 0 -161.5 44.5t-75.5 154.5l-23 129h-8q-47 -179 -138 -266t-243 -87q-197 0 -311.5 148.5t-114.5 411.5zM362 457q0 -134 47 -201.5t128 -67.5
q65 0 112 46.5t86 154.5l51 146l-51 145q-39 108 -86 154.5t-112 46.5q-81 0 -128 -67.5t-47 -201.5v-155z" />
    <glyph glyph-name="beta" unicode="&#x3b2;" horiz-adv-x="1230" 
d="M152 -410v1418q0 257 116.5 394.5t343.5 137.5q221 0 338 -106.5t117 -276.5q0 -140 -68.5 -228t-185.5 -120v-10q146 -18 233 -108.5t87 -250.5q0 -207 -111 -336t-307 -129q-106 0 -186 51.5t-111 135.5h-8v-572h-258zM410 346q0 -75 62 -118.5t161 -43.5
q113 0 175 59.5t62 168.5v61q0 101 -63 158t-172 57h-88v205h76q84 0 133 50t49 134v58q0 92 -49 144t-146 52q-96 0 -148 -63t-52 -183v-739z" />
    <glyph glyph-name="gamma" unicode="&#x3b3;" horiz-adv-x="1079" 
d="M18 864v205h101q105 0 161.5 -41t86.5 -145l92 -305l78 -316h14l92 316l168 491h244l-389 -1069v-410h-256v410l-289 864h-103z" />
    <glyph glyph-name="delta" unicode="&#x3b4;" horiz-adv-x="1153" 
d="M82 512q0 121 32.5 219.5t87.5 161.5t126.5 97t152.5 34v12l-278 226v254h768v-205h-353l-176 18v-8l242 -166q210 -141 298.5 -287.5t88.5 -330.5q0 -261 -133.5 -411.5t-362.5 -150.5q-224 0 -358.5 149.5t-134.5 387.5zM350 438q0 -122 60 -188t165 -66q106 0 167 66
t61 188v68q0 140 -41 231t-158 197q-118 -15 -186 -103t-68 -229v-164z" />
    <glyph glyph-name="epsilon" unicode="&#x3b5;" horiz-adv-x="1075" 
d="M96 295q0 112 66 176t190 82v10q-231 27 -231 225q0 135 116 220.5t320 85.5q294 0 451 -181l-156 -151q-98 125 -281 125q-93 0 -140.5 -32.5t-47.5 -84.5v-22q0 -54 38 -82.5t109 -28.5h224v-180h-242q-154 0 -154 -117v-23q0 -135 220 -135q190 0 307 142l139 -154
q-153 -195 -473 -195q-214 0 -334.5 86.5t-120.5 233.5z" />
    <glyph glyph-name="zeta" unicode="&#x3b6;" horiz-adv-x="890" 
d="M82 428q0 134 51 250.5t205 304.5l276 334v10l-155 -16h-336v205h751v-199l-352 -461q-94 -123 -133 -211.5t-39 -167.5v-28q0 -83 46 -135t145 -78l151 -41q78 -21 119 -71t41 -118q0 -46 -21 -98l-94 -256l-215 76l88 247l-149 39q-205 54 -292 153t-87 261z" />
    <glyph glyph-name="eta" unicode="&#x3b7;" horiz-adv-x="1224" 
d="M68 864v205h149q182 0 209 -172l2 -14h12q74 211 301 211q164 0 253 -109.5t89 -308.5v-1086h-256v1059q0 117 -43 174.5t-137 57.5q-89 0 -152 -44.5t-63 -127.5v-709h-258v864h-106z" />
    <glyph glyph-name="theta" unicode="&#x3b8;" horiz-adv-x="1169" 
d="M96 758q0 217 33 370t98.5 242.5t153 129.5t205.5 40t205 -40t152.5 -129.5t98.5 -243t33 -369.5q0 -174 -22 -307t-62.5 -223t-102 -146.5t-135 -81.5t-167.5 -25t-168.5 25t-135.5 81.5t-101.5 146.5t-62.5 223t-22 307zM365 541q0 -134 26 -214.5t73 -112.5t122 -32
q111 0 165 80.5t54 278.5v114h-440v-114zM365 860h440v115q0 101 -14 171t-43 111t-68 58.5t-94 17.5q-113 0 -167 -80t-54 -278v-115z" />
    <glyph glyph-name="iota" unicode="&#x3b9;" horiz-adv-x="651" 
d="M152 266v803h258v-864h202v-205h-188q-133 0 -202.5 69t-69.5 197z" />
    <glyph glyph-name="kappa" unicode="&#x3ba;" horiz-adv-x="1150" 
d="M152 0v1069h258v-479h10l125 160l213 233q43 50 87 68t116 18h104v-205h-125l-223 -231l403 -633h-301l-274 467l-135 -139v-328h-258z" />
    <glyph glyph-name="lambda" unicode="&#x3bb;" horiz-adv-x="1081" 
d="M10 0l398 1069l-80 242h-189v205h187q102 0 155 -39t84 -134l371 -1138h127v-205h-125q-102 0 -155.5 39t-84.5 133l-102 315l-70 291h-18l-80 -291l-174 -487h-244z" />
    <glyph glyph-name="uni03BC" unicode="&#x3bc;" horiz-adv-x="1234" 
d="M152 -410v1479h258v-651q0 -230 180 -230q90 0 152.5 46.5t62.5 127.5v707h256v-864h106v-205h-104q-208 0 -248 174l-4 14h-10q-54 -213 -234 -213q-142 0 -213 142h-10l64 -293v-234h-256z" />
    <glyph glyph-name="nu" unicode="&#x3bd;" horiz-adv-x="1085" 
d="M18 864v205h101q105 0 162 -42t86 -146l94 -330l78 -326h14l94 326l170 518h244l-369 -1069h-303l-268 864h-103z" />
    <glyph glyph-name="xi" unicode="&#x3be;" horiz-adv-x="913" 
d="M76 1311v205h815v-205h-268q-100 0 -155.5 -54t-55.5 -155v-31q0 -88 57 -139t156 -51h125v-205h-189q-96 0 -149.5 -52t-53.5 -141v-45q0 -82 44 -128t147 -74l147 -41q78 -21 119 -71t41 -118q0 -46 -18 -98l-95 -256l-217 76l90 247l-147 39q-205 54 -289 153t-84 271
q0 134 83.5 230t226.5 116v11q-248 49 -248 266q0 82 44.5 144.5t123.5 88.5v17h-250z" />
    <glyph glyph-name="omicron" unicode="&#x3bf;" horiz-adv-x="1153" 
d="M82 535q0 258 133 408.5t360 150.5q229 0 362.5 -150.5t133.5 -408.5q0 -257 -134 -408.5t-362 -151.5q-227 0 -360 151.5t-133 408.5zM350 436q0 -121 60.5 -186.5t164.5 -65.5q106 0 167 65t61 187v197q0 121 -61 186.5t-167 65.5q-104 0 -164.5 -65.5t-60.5 -186.5
v-197z" />
    <glyph glyph-name="pi" unicode="&#x3c0;" horiz-adv-x="1318" 
d="M47 864v205h1204v-205h-200v-659h133v-205h-119q-131 0 -200.5 68.5t-69.5 195.5v600h-316v-864h-258v864h-174z" />
    <glyph glyph-name="rho" unicode="&#x3c1;" horiz-adv-x="1165" 
d="M104 -410v971q0 254 120.5 393.5t361.5 139.5q485 0 485 -555q0 -271 -106 -417.5t-303 -146.5q-101 0 -181.5 51.5t-109.5 133.5h-9v-570h-258zM362 346q0 -74 62.5 -118t153.5 -44q104 0 164.5 68t60.5 194v187q0 120 -58.5 186t-162.5 66t-162 -66t-58 -186v-287z" />
    <glyph glyph-name="uni03C2" unicode="&#x3c2;" horiz-adv-x="1021" 
d="M82 561q0 242 129.5 387.5t353.5 145.5q153 0 258.5 -71t153.5 -200l-209 -94q-19 72 -71.5 114t-133.5 42q-101 0 -157 -69t-56 -185v-125q0 -207 236 -270l149 -41q78 -21 119 -71t41 -118q0 -46 -18 -98l-95 -256l-217 76l90 247l-170 45q-216 58 -309.5 180.5
t-93.5 360.5z" />
    <glyph glyph-name="sigma" unicode="&#x3c3;" horiz-adv-x="1198" 
d="M82 522q0 256 132.5 401.5t369.5 145.5h567v-205h-252v-16q88 -48 130 -129t42 -209q0 -240 -134.5 -387.5t-361.5 -147.5q-226 0 -359.5 149t-133.5 398zM350 436q0 -121 60.5 -186.5t164.5 -65.5q106 0 167 65.5t61 186.5v180q0 154 -105 248h-114q-111 0 -172.5 -63.5
t-61.5 -184.5v-180z" />
    <glyph glyph-name="tau" unicode="&#x3c4;" horiz-adv-x="1007" 
d="M41 864v205h907v-205h-342v-659h223v-205h-208q-131 0 -201 69t-70 197v598h-309z" />
    <glyph glyph-name="upsilon" unicode="&#x3c5;" horiz-adv-x="1181" 
d="M135 494v575h256v-623q0 -134 48.5 -198t152.5 -64t151.5 64t47.5 198v623h256v-575q0 -519 -455 -519q-457 0 -457 519z" />
    <glyph glyph-name="phi" unicode="&#x3c6;" horiz-adv-x="1544" 
d="M92 532q0 202 69 346t208 216l159 -160q-166 -108 -166 -342v-127q0 -140 76 -212.5t197 -72.5v428q0 237 99.5 361.5t299.5 124.5q210 0 313 -126.5t103 -408.5q0 -281 -148 -432.5t-415 -151.5v-385h-252v385q-247 0 -395 149t-148 408zM887 180q137 0 215 71t78 214
v190q0 126 -36.5 180t-109.5 54q-75 0 -111 -53.5t-36 -180.5v-475z" />
    <glyph glyph-name="chi" unicode="&#x3c7;" horiz-adv-x="1083" 
d="M29 -410l366 754l-223 520h-137v205h135q100 0 152 -36t86 -126l143 -362h8l223 524h273l-355 -717l234 -557h137v-205h-135q-101 0 -154 36.5t-86 125.5l-151 402h-8l-236 -564h-272z" />
    <glyph glyph-name="psi" unicode="&#x3c8;" horiz-adv-x="1531" 
d="M135 522v547h256v-606q0 -283 248 -283v1274h254v-1274q248 0 248 283v606h256v-547q0 -270 -129 -408.5t-375 -138.5v-385h-254v385q-246 0 -375 138.5t-129 408.5z" />
    <glyph glyph-name="omega" unicode="&#x3c9;" horiz-adv-x="1554" 
d="M94 506q0 446 277 588l159 -160q-168 -107 -168 -342v-174q0 -127 35.5 -180.5t108.5 -53.5t108 53.5t35 180.5v323h256v-323q0 -127 35 -180.5t109 -53.5q73 0 107 53.5t34 180.5v174q0 227 -166 342l160 160q139 -70 207.5 -211.5t68.5 -376.5q0 -264 -101 -397.5
t-278 -133.5q-239 0 -301 275h-8q-28 -133 -103.5 -204t-197.5 -71q-176 0 -276.5 133.5t-100.5 397.5z" />
    <glyph glyph-name="iotadieresis" unicode="&#x3ca;" horiz-adv-x="651" 
d="M-63 1358v43q0 53 34.5 85t108.5 32t108.5 -32t34.5 -85v-43q0 -53 -34.5 -85t-108.5 -32t-108.5 32t-34.5 85zM152 266v803h258v-864h202v-205h-188q-133 0 -202.5 69t-69.5 197zM365 1358v43q0 117 143 117q141 0 141 -117v-43q0 -117 -141 -117q-143 0 -143 117z" />
    <glyph glyph-name="upsilondieresis" unicode="&#x3cb;" horiz-adv-x="1181" 
d="M135 494v575h256v-623q0 -134 48.5 -198t152.5 -64t151.5 64t47.5 198v623h256v-575q0 -519 -455 -519q-457 0 -457 519zM242 1358v43q0 117 143 117q141 0 141 -117v-43q0 -117 -141 -117q-143 0 -143 117zM670 1358v43q0 117 141 117q143 0 143 -117v-43
q0 -117 -143 -117q-141 0 -141 117z" />
    <glyph glyph-name="omicrontonos" unicode="&#x3cc;" horiz-adv-x="1153" 
d="M82 535q0 258 133 408.5t360 150.5q229 0 362.5 -150.5t133.5 -408.5q0 -257 -134 -408.5t-362 -151.5q-227 0 -360 151.5t-133 408.5zM350 436q0 -121 60.5 -186.5t164.5 -65.5q106 0 167 65t61 187v197q0 121 -61 186.5t-167 65.5q-104 0 -164.5 -65.5t-60.5 -186.5
v-197zM477 1214l68 433l237 -35l-135 -422z" />
    <glyph glyph-name="upsilontonos" unicode="&#x3cd;" horiz-adv-x="1181" 
d="M135 494v575h256v-623q0 -134 48.5 -198t152.5 -64t151.5 64t47.5 198v623h256v-575q0 -519 -455 -519q-457 0 -457 519zM508 1214l67 433l236 -35l-135 -422z" />
    <glyph glyph-name="omegatonos" unicode="&#x3ce;" horiz-adv-x="1554" 
d="M94 506q0 446 277 588l159 -160q-168 -107 -168 -342v-174q0 -127 35.5 -180.5t108.5 -53.5t108 53.5t35 180.5v323h256v-323q0 -127 35 -180.5t109 -53.5q73 0 107 53.5t34 180.5v174q0 227 -166 342l160 160q139 -70 207.5 -211.5t68.5 -376.5q0 -264 -101 -397.5
t-278 -133.5q-239 0 -301 275h-8q-28 -133 -103.5 -204t-197.5 -71q-176 0 -276.5 133.5t-100.5 397.5zM682 1212l68 433l237 -35l-135 -422z" />
    <glyph glyph-name="uni0400" unicode="&#x400;" horiz-adv-x="1226" 
d="M168 0v1430h940v-236h-674v-354h598v-234h-598v-370h674v-236h-940zM356 1874l219 108l193 -380l-156 -76z" />
    <glyph glyph-name="uni0401" unicode="&#x401;" horiz-adv-x="1226" 
d="M168 0v1430h940v-236h-674v-354h598v-234h-598v-370h674v-236h-940zM283 1696v41q0 118 143 118t143 -118v-41q0 -55 -34.5 -87t-108.5 -32q-143 0 -143 119zM709 1696v41q0 118 143 118t143 -118v-41q0 -119 -143 -119q-74 0 -108.5 32t-34.5 87z" />
    <glyph glyph-name="uni0402" unicode="&#x402;" horiz-adv-x="1638" 
d="M51 1194v236h1086v-236h-410v-334h10q110 47 277 47q512 0 512 -520v-258q0 -244 -111.5 -367.5t-320.5 -123.5h-103v241h199q70 80 70 258v258q0 283 -269 283q-171 0 -264 -41v-637h-266v1194h-410z" />
    <glyph glyph-name="uni0403" unicode="&#x403;" horiz-adv-x="1042" 
d="M168 0v1430h819v-236h-553v-1194h-266zM446 1602l193 380l219 -108l-256 -348z" />
    <glyph glyph-name="uni0404" unicode="&#x404;" horiz-adv-x="1347" 
d="M109 705q0 360 165 554.5t465 194.5q194 0 321.5 -79t213.5 -238l-221 -127q-41 102 -114 155.5t-200 53.5q-162 0 -252 -97.5t-98 -273.5v-8h516v-234h-516v-20q5 -181 95 -278t255 -97q245 0 328 223l213 -133q-157 -326 -541 -326q-302 0 -466 186.5t-164 543.5z" />
    <glyph glyph-name="uni0405" unicode="&#x405;" horiz-adv-x="1249" 
d="M80 213l180 174q146 -178 367 -178q125 0 190.5 54.5t65.5 150.5q0 76 -44.5 120.5t-154.5 63.5l-133 20q-217 35 -322.5 138t-105.5 278q0 192 139.5 306t376.5 114q310 0 487 -211l-180 -172q-120 150 -321 150q-115 0 -176.5 -44t-61.5 -126q0 -81 47.5 -121.5
t155.5 -61.5l133 -24q218 -38 321 -139t103 -277q0 -206 -143 -329.5t-394 -123.5q-326 0 -530 238z" />
    <glyph glyph-name="uni0406" unicode="&#x406;" horiz-adv-x="862" 
d="M109 0v213h190v1004h-190v213h645v-213h-191v-1004h191v-213h-645z" />
    <glyph glyph-name="uni0407" unicode="&#x407;" horiz-adv-x="862" 
d="M76 1696v41q0 118 143 118t143 -118v-41q0 -55 -34.5 -87t-108.5 -32q-143 0 -143 119zM109 0v213h190v1004h-190v213h645v-213h-191v-1004h191v-213h-645zM502 1696v41q0 118 143 118t143 -118v-41q0 -119 -143 -119q-74 0 -108.5 32t-34.5 87z" />
    <glyph glyph-name="uni0408" unicode="&#x408;" horiz-adv-x="1112" 
d="M53 352l246 51q40 -194 201 -194q85 0 135.5 53.5t50.5 157.5v792h-453v218h719v-1031q0 -193 -122 -307.5t-328 -114.5q-190 0 -303.5 100.5t-145.5 274.5z" />
    <glyph glyph-name="uni0409" unicode="&#x409;" horiz-adv-x="2121" 
d="M35 -8v244h162q79 81 115 247.5t36 511.5v435h907v-535h371q196 0 310 -122.5t114 -326.5t-113.5 -325t-310.5 -121h-635v1194h-387v-231q0 -378 -48 -575.5t-140 -289.5q-57 -57 -123.5 -81.5t-163.5 -24.5h-94zM1255 231h347q81 0 126.5 43t45.5 125v97q0 82 -45.5 125
t-126.5 43h-347v-433z" />
    <glyph glyph-name="uni040A" unicode="&#x40a;" horiz-adv-x="2127" 
d="M168 0v1430h266v-590h563v590h265v-535h370q196 0 310 -122.5t114 -326.5t-113.5 -325t-310.5 -121h-635v606h-563v-606h-266zM1262 231h346q81 0 126.5 43t45.5 125v97q0 82 -45.5 125t-126.5 43h-346v-433z" />
    <glyph glyph-name="uni040B" unicode="&#x40b;" horiz-adv-x="1658" 
d="M51 1194v236h1086v-236h-410v-334h10q110 47 287 47q264 0 393 -129.5t129 -390.5v-387h-266v395q0 144 -69 213.5t-210 69.5q-181 0 -274 -41v-637h-266v1194h-410z" />
    <glyph glyph-name="uni040C" unicode="&#x40c;" horiz-adv-x="1374" 
d="M168 0v1430h266v-590h230l237 428q46 86 102 124t138 38h114v-236h-127l-182 -330q-32 -56 -63.5 -83.5t-77.5 -41.5v-12q52 -9 89 -39t69 -90l200 -362h127v-236h-149q-76 0 -128 35t-102 125l-247 446h-230v-606h-266zM573 1602l193 380l219 -108l-256 -348z" />
    <glyph glyph-name="uni040D" unicode="&#x40d;" horiz-adv-x="1470" 
d="M168 0v1430h258v-764l-27 -299h7l141 268l518 795h238v-1430h-259v764l27 299h-6l-141 -268l-518 -795h-238zM457 1874l219 108l192 -380l-155 -76z" />
    <glyph glyph-name="uni040E" unicode="&#x40e;" horiz-adv-x="1267" 
d="M31 1430h280l236 -515l115 -272h8l100 277l203 510h262l-502 -1235q-46 -111 -110.5 -153t-188.5 -42h-174v236h236l43 108zM274 1835l205 80l68 -195q30 -12 96 -12t96 12l68 195l205 -80l-41 -96q-94 -205 -328 -205t-328 205z" />
    <glyph glyph-name="uni040F" unicode="&#x40f;" horiz-adv-x="1441" 
d="M168 0v1430h266v-1194h574v1194h264v-1430h-428v-307h-248v307h-428z" />
    <glyph glyph-name="uni0410" unicode="&#x410;" horiz-adv-x="1372" 
d="M43 0l481 1430h330l475 -1430h-274l-117 367h-510l-117 -367h-268zM489 594h383l-186 594h-10z" />
    <glyph glyph-name="uni0411" unicode="&#x411;" horiz-adv-x="1331" 
d="M168 0v1430h936v-236h-670v-320h385q195 0 308.5 -120t113.5 -318q0 -197 -113.5 -316.5t-308.5 -119.5h-651zM434 231h361q81 0 125.5 43t44.5 125v76q0 83 -44.5 126.5t-125.5 43.5h-361v-414z" />
    <glyph glyph-name="uni0412" unicode="&#x412;" horiz-adv-x="1355" 
d="M168 0v1430h659q176 0 277.5 -100t101.5 -267q0 -78 -21.5 -137.5t-58.5 -94t-81 -53t-95 -22.5v-13q40 -1 80.5 -12t82.5 -36.5t74 -62.5t52.5 -94.5t20.5 -127.5q0 -173 -106 -291.5t-263 -118.5h-723zM434 225h379q79 0 123.5 42t44.5 118v70q0 76 -44.5 117.5
t-123.5 41.5h-379v-389zM434 834h338q74 0 117 40t43 113v64q0 72 -43 112.5t-117 40.5h-338v-370z" />
    <glyph glyph-name="uni0413" unicode="&#x413;" horiz-adv-x="1042" 
d="M168 0v1430h819v-236h-553v-1194h-266z" />
    <glyph glyph-name="uni0414" unicode="&#x414;" horiz-adv-x="1607" 
d="M31 236h153q83 97 128.5 273.5t45.5 477.5v443h971v-1194h221v-543h-247v307h-1024v-307h-248v543zM485 236h578v960h-449v-242q0 -283 -32.5 -449.5t-96.5 -262.5v-6z" />
    <glyph glyph-name="uni0415" unicode="&#x415;" horiz-adv-x="1226" 
d="M168 0v1430h940v-236h-674v-354h598v-234h-598v-370h674v-236h-940z" />
    <glyph glyph-name="uni0416" unicode="&#x416;" horiz-adv-x="2041" 
d="M84 0v236h127l178 364q29 59 65.5 88.5t88.5 38.5v12q-48 13 -83 43.5t-63 89.5l-153 322h-127v236h121q82 0 140 -39t99 -125l203 -426h209v590h264v-590h209l205 426q41 86 97.5 125t139.5 39h119v-236h-127l-154 -322q-28 -60 -62 -90.5t-81 -42.5v-12
q52 -9 88.5 -38.5t65.5 -88.5l178 -364h127v-236h-154q-79 0 -132 37t-97 131l-213 438h-209v-606h-264v606h-209l-215 -438q-44 -94 -97 -131t-132 -37h-152z" />
    <glyph glyph-name="uni0417" unicode="&#x417;" horiz-adv-x="1234" 
d="M66 201l178 172q137 -162 338 -162q132 0 203 50t71 145v20q0 92 -58 137t-180 45h-237v234h225q114 0 168.5 46.5t54.5 141.5v17q0 172 -237 172q-97 0 -179 -37.5t-137 -104.5l-170 160q179 217 486 217q245 0 381.5 -104.5t136.5 -286.5q0 -140 -78.5 -218.5
t-210.5 -96.5v-11q135 -10 225.5 -92t90.5 -231q0 -197 -150 -318t-405 -121q-321 0 -516 226z" />
    <glyph glyph-name="uni0418" unicode="&#x418;" horiz-adv-x="1470" 
d="M168 0v1430h258v-764l-27 -299h7l141 268l518 795h238v-1430h-259v764l27 299h-6l-141 -268l-518 -795h-238z" />
    <glyph glyph-name="uni0419" unicode="&#x419;" horiz-adv-x="1470" 
d="M168 0v1430h258v-764l-27 -299h7l141 268l518 795h238v-1430h-259v764l27 299h-6l-141 -268l-518 -795h-238zM369 1835l204 80l68 -195q30 -12 96 -12q67 0 97 12l67 195l205 -80l-41 -96q-94 -205 -328 -205q-123 0 -202 52t-125 153z" />
    <glyph glyph-name="uni041A" unicode="&#x41a;" horiz-adv-x="1374" 
d="M168 0v1430h266v-590h230l237 428q46 86 102 124t138 38h114v-236h-127l-182 -330q-32 -56 -63.5 -83.5t-77.5 -41.5v-12q52 -9 89 -39t69 -90l200 -362h127v-236h-149q-76 0 -128 35t-102 125l-247 446h-230v-606h-266z" />
    <glyph glyph-name="uni041B" unicode="&#x41b;" horiz-adv-x="1476" 
d="M35 -8v244h162q79 81 115 247.5t36 511.5v435h959v-1430h-265v1194h-438v-231q0 -378 -48 -575.5t-140 -289.5q-57 -57 -123.5 -81.5t-163.5 -24.5h-94z" />
    <glyph glyph-name="uni041C" unicode="&#x41c;" horiz-adv-x="1673" 
d="M168 0v1430h297l371 -703h6l366 703h295v-1430h-250v1026h-8l-110 -219l-299 -545l-295 545l-113 229h-8v-1036h-252z" />
    <glyph glyph-name="uni041D" unicode="&#x41d;" horiz-adv-x="1470" 
d="M168 0v1430h266v-590h604v590h265v-1430h-265v606h-604v-606h-266z" />
    <glyph glyph-name="uni041E" unicode="&#x41e;" horiz-adv-x="1458" 
d="M109 715q0 356 166.5 547.5t453.5 191.5t454 -191.5t167 -547.5t-167 -548t-454 -192t-453.5 192t-166.5 548zM389 604q0 -183 92 -288t248 -105t248 105t92 288v221q0 183 -92 288.5t-248 105.5t-248 -105.5t-92 -288.5v-221z" />
    <glyph glyph-name="uni041F" unicode="&#x41f;" horiz-adv-x="1441" 
d="M168 0v1430h1104v-1430h-264v1194h-574v-1194h-266z" />
    <glyph glyph-name="uni0420" unicode="&#x420;" horiz-adv-x="1308" 
d="M168 0v1430h641q195 0 308.5 -120.5t113.5 -320.5t-113.5 -321t-308.5 -121h-375v-547h-266zM434 778h350q80 0 126 42.5t46 119.5v96q0 77 -46 119.5t-126 42.5h-350v-420z" />
    <glyph glyph-name="uni0421" unicode="&#x421;" horiz-adv-x="1312" 
d="M109 705q0 357 163 553t449 196q373 0 520 -328l-225 -120q-72 213 -295 213q-153 0 -242.5 -105.5t-89.5 -290.5v-223q0 -184 89 -286.5t243 -102.5q117 0 195 62t116 165l215 -127q-159 -336 -526 -336q-288 0 -450 187.5t-162 542.5z" />
    <glyph glyph-name="uni0422" unicode="&#x422;" horiz-adv-x="1187" 
d="M51 1194v236h1086v-236h-410v-1194h-266v1194h-410z" />
    <glyph glyph-name="uni0423" unicode="&#x423;" horiz-adv-x="1267" 
d="M31 1430h280l236 -515l115 -272h8l100 277l203 510h262l-502 -1235q-46 -111 -110.5 -153t-188.5 -42h-174v236h236l43 108z" />
    <glyph glyph-name="uni0424" unicode="&#x424;" horiz-adv-x="1810" 
d="M82 711q0 172 74 310t214.5 219t323.5 81h78v184h266v-184h78q183 0 324 -81t215 -219t74 -310t-75 -309.5t-215.5 -217.5t-322.5 -80h-78v-184h-266v184h-78q-136 0 -251.5 46.5t-194 128t-122.5 193t-44 239.5zM356 649q0 -144 89.5 -234.5t248.5 -90.5h82v778h-82
q-160 0 -249 -91.5t-89 -234.5v-127zM1034 324h82q157 0 247.5 91t90.5 234v127q0 143 -89 234.5t-249 91.5h-82v-778z" />
    <glyph glyph-name="uni0425" unicode="&#x425;" horiz-adv-x="1337" 
d="M39 0l461 735l-443 695h312l305 -512h4l311 512h289l-447 -697l467 -733h-309l-330 551h-6l-325 -551h-289z" />
    <glyph glyph-name="uni0426" unicode="&#x426;" horiz-adv-x="1552" 
d="M168 0v1430h266v-1194h574v1194h264v-1194h221v-543h-248v307h-1077z" />
    <glyph glyph-name="uni0427" unicode="&#x427;" horiz-adv-x="1366" 
d="M113 997v433h266v-441q0 -142 68.5 -211t209.5 -69q182 0 275 41v680h266v-1430h-266v524h-10q-110 -47 -287 -47q-522 0 -522 520z" />
    <glyph glyph-name="uni0428" unicode="&#x428;" horiz-adv-x="2058" 
d="M168 0v1430h266v-1194h465v1194h264v-1194h463v1194h264v-1430h-1722z" />
    <glyph glyph-name="uni0429" unicode="&#x429;" horiz-adv-x="2170" 
d="M168 0v1430h266v-1194h463v1194h264v-1194h465v1194h264v-1194h221v-543h-247v307h-1696z" />
    <glyph glyph-name="uni042A" unicode="&#x42a;" horiz-adv-x="1540" 
d="M45 1194v236h596v-535h406q195 0 308 -122.5t113 -326.5t-113 -325t-308 -121h-672v1194h-330zM641 231h381q81 0 125.5 43t44.5 125v97q0 82 -44.5 125t-125.5 43h-381v-433z" />
    <glyph glyph-name="uni042B" unicode="&#x42b;" horiz-adv-x="1871" 
d="M168 0v1430h266v-535h385q195 0 308.5 -122.5t113.5 -326.5t-113.5 -325t-308.5 -121h-651zM434 231h361q81 0 125.5 43t44.5 125v97q0 82 -44.5 125t-125.5 43h-361v-433zM1438 0v1430h264v-1430h-264z" />
    <glyph glyph-name="uni042C" unicode="&#x42c;" horiz-adv-x="1333" 
d="M168 0v1430h266v-535h406q195 0 308.5 -122.5t113.5 -326.5t-113.5 -325t-308.5 -121h-672zM434 231h381q81 0 125.5 43t44.5 125v97q0 82 -44.5 125t-125.5 43h-381v-433z" />
    <glyph glyph-name="uni042D" unicode="&#x42d;" horiz-adv-x="1347" 
d="M66 301l215 133q83 -223 329 -223q162 0 255 99.5t93 275.5v20h-516v234h516v14q-1 173 -93.5 269t-254.5 96q-127 0 -200.5 -53.5t-114.5 -155.5l-219 127q84 159 212 238t322 79q300 0 464.5 -186t164.5 -543q0 -359 -165.5 -554.5t-463.5 -195.5q-387 0 -544 326z" />
    <glyph glyph-name="uni042E" unicode="&#x42e;" horiz-adv-x="2041" 
d="M168 0v1430h266v-590h279q24 296 186.5 455t421.5 159q287 0 450.5 -190t163.5 -549t-163.5 -549.5t-450.5 -190.5q-266 0 -425 162t-187 469h-275v-606h-266zM987 604q0 -186 89 -289.5t245 -103.5t244 103t88 290v221q0 187 -88 290.5t-244 103.5t-245 -104t-89 -290
v-221z" />
    <glyph glyph-name="uni042F" unicode="&#x42f;" horiz-adv-x="1361" 
d="M86 0v236h125l137 235q28 49 58 74t81 35v10q-168 12 -262 118.5t-94 280.5q0 202 114 321.5t308 119.5h641v-1430h-264v555h-232l-239 -408q-52 -86 -102.5 -116.5t-127.5 -30.5h-143zM408 942q0 -79 45 -121.5t125 -42.5h352v420h-352q-80 0 -125 -42.5t-45 -119.5v-94
z" />
    <glyph glyph-name="uni0430" unicode="&#x430;" horiz-adv-x="1140" 
d="M76 291q0 161 118.5 244t340.5 83h182v80q0 191 -203 191q-152 0 -244 -137l-151 137q129 205 413 205q214 0 327.5 -98.5t113.5 -282.5v-508h108v-205h-143q-77 0 -127.5 44t-65.5 118l-4 20h-12q-27 -100 -109 -153.5t-202 -53.5q-162 0 -252 85.5t-90 230.5zM338 293
q0 -64 43 -97.5t121 -33.5q94 0 154.5 41.5t60.5 115.5v144h-170q-209 0 -209 -135v-35z" />
    <glyph glyph-name="uni0431" unicode="&#x431;" horiz-adv-x="1159" 
d="M90 653q0 423 134.5 623.5t434.5 228.5l342 33v-250l-350 -33q-83 -8 -135 -30.5t-87 -72t-51 -124t-22 -192.5h11q39 108 108.5 160.5t183.5 52.5q184 0 301 -139.5t117 -379.5q0 -254 -132.5 -404.5t-360.5 -150.5q-494 0 -494 678zM358 438q0 -123 60.5 -188.5
t169.5 -65.5q103 0 163 65t60 183v154q0 123 -61 188.5t-168 65.5q-108 0 -166 -61t-58 -169v-172z" />
    <glyph glyph-name="uni0432" unicode="&#x432;" horiz-adv-x="1167" 
d="M152 0v1069h585q139 0 217 -73.5t78 -196.5q0 -203 -221 -232v-8q127 -12 193.5 -76t66.5 -170q0 -140 -86 -226.5t-235 -86.5h-598zM403 188h293q53 0 83 28t30 79v59q0 51 -30 80t-83 29h-293v-275zM403 627h263q49 0 76.5 26.5t27.5 73.5v53q0 47 -27.5 74t-76.5 27
h-263v-254z" />
    <glyph glyph-name="uni0433" unicode="&#x433;" horiz-adv-x="903" 
d="M152 0v1069h708v-205h-450v-864h-258z" />
    <glyph glyph-name="uni0434" unicode="&#x434;" horiz-adv-x="1306" 
d="M18 205h136q118 174 118 559v305h813v-864h183v-492h-234v287h-782v-287h-234v492zM424 205h405v659h-311v-114q0 -375 -94 -545z" />
    <glyph glyph-name="uni0435" unicode="&#x435;" horiz-adv-x="1142" 
d="M82 535q0 257 131 408t362 151q121 0 215.5 -42.5t152.5 -117t88 -170.5t30 -209v-86h-713v-27q0 -120 67 -190t195 -70q164 0 273 146l141 -154q-68 -93 -181.5 -146t-258.5 -53q-234 0 -368 151.5t-134 408.5zM348 629h445v20q0 114 -56 182t-157 68q-104 0 -168 -70.5
t-64 -183.5v-16z" />
    <glyph glyph-name="uni0436" unicode="&#x436;" horiz-adv-x="1708" 
d="M82 0v205h115l114 241q42 85 123 101v8q-79 22 -119 104l-98 205h-115v205h117q77 0 129 -33.5t90 -109.5l135 -279h152v422h258v-422h152l135 279q38 76 90 109.5t129 33.5h117v-205h-115l-98 -205q-40 -82 -119 -104v-8q81 -16 123 -101l114 -241h115v-205h-131
q-77 0 -128.5 34t-90.5 116l-141 294h-152v-444h-258v444h-152l-141 -294q-39 -82 -90.5 -116t-128.5 -34h-131z" />
    <glyph glyph-name="uni0437" unicode="&#x437;" horiz-adv-x="1067" 
d="M51 174l160 154q111 -146 293 -146q101 0 153 36t52 99v23q0 117 -150 117h-233v180h209q149 0 149 111v22q0 56 -47 86.5t-141 30.5q-88 0 -157.5 -36.5t-109.5 -100.5l-155 137q148 207 440 207q211 0 321.5 -79t110.5 -212q0 -202 -219 -236v-10q116 -14 180 -77.5
t64 -164.5q0 -159 -125 -249.5t-344 -90.5q-154 0 -261 49.5t-190 149.5z" />
    <glyph glyph-name="uni0438" unicode="&#x438;" horiz-adv-x="1236" 
d="M152 0v1069h251v-483l-22 -252h6l127 229l340 506h231v-1069h-251v483l22 252h-6l-127 -229l-340 -506h-231z" />
    <glyph glyph-name="uni0439" unicode="&#x439;" horiz-adv-x="1236" 
d="M152 0v1069h251v-483l-22 -252h6l127 229l340 506h231v-1069h-251v483l22 252h-6l-127 -229l-340 -506h-231zM252 1499l205 80l67 -195q30 -12 97 -12q66 0 96 12l67 195l205 -80l-41 -96q-46 -101 -125 -153t-202 -52q-234 0 -328 205z" />
    <glyph glyph-name="uni043A" unicode="&#x43a;" horiz-adv-x="1181" 
d="M152 0v1069h258v-422h174l161 283q44 77 93 108t125 31h116v-205h-114l-117 -202q-28 -51 -54.5 -73.5t-64.5 -33.5v-8q40 -8 69.5 -30.5t55.5 -70.5l135 -241h115v-205h-135q-74 0 -124.5 33t-94.5 112l-166 299h-174v-444h-258z" />
    <glyph glyph-name="uni043B" unicode="&#x43b;" horiz-adv-x="1220" 
d="M27 -8v213h139q46 66 70 190t24 346v328h807v-1069h-256v864h-305v-135q0 -505 -148 -653q-45 -45 -104 -64.5t-145 -19.5h-82z" />
    <glyph glyph-name="uni043C" unicode="&#x43c;" horiz-adv-x="1466" 
d="M152 0v1069h290l287 -477h8l287 477h291v-1069h-250v752h-8l-74 -138l-250 -411l-250 411l-73 138h-9v-752h-249z" />
    <glyph glyph-name="uni043D" unicode="&#x43d;" horiz-adv-x="1236" 
d="M152 0v1069h258v-422h417v422h258v-1069h-258v442h-417v-442h-258z" />
    <glyph glyph-name="uni043E" unicode="&#x43e;" horiz-adv-x="1153" 
d="M82 535q0 258 133 408.5t360 150.5q229 0 362.5 -150.5t133.5 -408.5q0 -257 -134 -408.5t-362 -151.5q-227 0 -360 151.5t-133 408.5zM350 436q0 -121 60.5 -186.5t164.5 -65.5q106 0 167 65.5t61 186.5v197q0 121 -61 186.5t-167 65.5q-104 0 -164.5 -65.5
t-60.5 -186.5v-197z" />
    <glyph glyph-name="uni043F" unicode="&#x43f;" horiz-adv-x="1206" 
d="M152 0v1069h903v-1069h-258v864h-387v-864h-258z" />
    <glyph glyph-name="uni0440" unicode="&#x440;" horiz-adv-x="1226" 
d="M152 -410v1479h258v-178h8q29 93 110 148t187 55q201 0 309.5 -146t108.5 -413q0 -266 -109 -413t-309 -147q-105 0 -185 55t-112 148h-8v-588h-258zM410 365q0 -81 62.5 -129t160.5 -48q103 0 167 69.5t64 184.5v185q0 115 -64 184.5t-167 69.5q-97 0 -160 -47.5
t-63 -124.5v-344z" />
    <glyph glyph-name="uni0441" unicode="&#x441;" horiz-adv-x="1048" 
d="M82 535q0 260 128.5 409.5t362.5 149.5q156 0 263 -71.5t155 -199.5l-209 -94q-21 72 -74 114t-135 42q-108 0 -165.5 -68.5t-57.5 -185.5v-195q0 -117 57.5 -184.5t165.5 -67.5q88 0 142 44t88 124l196 -96q-109 -281 -426 -281q-234 0 -362.5 150t-128.5 410z" />
    <glyph glyph-name="uni0442" unicode="&#x442;" horiz-adv-x="993" 
d="M41 864v205h911v-205h-327v-864h-256v864h-328z" />
    <glyph glyph-name="uni0443" unicode="&#x443;" horiz-adv-x="1069" 
d="M20 1069h254l191 -573l67 -267h13l71 267l191 573h244l-435 -1262q-41 -118 -107 -167.5t-194 -49.5h-153v205h190l51 154z" />
    <glyph glyph-name="uni0444" unicode="&#x444;" horiz-adv-x="1609" 
d="M90 535q0 292 83.5 425.5t262.5 133.5q152 0 232 -142h8v502h258v-502h8q80 142 232 142q179 0 262.5 -133.5t83.5 -425.5q0 -293 -83.5 -426.5t-262.5 -133.5q-154 0 -232 138h-8v-523h-258v523h-8q-78 -138 -232 -138q-179 0 -262.5 133.5t-83.5 426.5zM356 434
q0 -140 40.5 -203t133.5 -63q74 0 111 33.5t37 93.5v479q0 60 -37 93.5t-111 33.5q-93 0 -133.5 -63t-40.5 -203v-201zM932 295q0 -127 147 -127q93 0 133.5 63t40.5 203v201q0 140 -40.5 203t-133.5 63q-147 0 -147 -127v-479z" />
    <glyph glyph-name="uni0445" unicode="&#x445;" horiz-adv-x="1110" 
d="M39 0l367 543l-359 526h293l223 -356h8l224 356h272l-360 -530l364 -539h-293l-229 371h-8l-232 -371h-270z" />
    <glyph glyph-name="uni0446" unicode="&#x446;" horiz-adv-x="1273" 
d="M152 0v1069h258v-864h387v864h258v-864h180v-492h-231v287h-852z" />
    <glyph glyph-name="uni0447" unicode="&#x447;" horiz-adv-x="1157" 
d="M102 694v375h256v-360q0 -86 45 -126t140 -40q96 0 150.5 30.5t54.5 83.5v412h256v-1069h-256v467h-11q-92 -137 -288 -137q-175 0 -261 90t-86 274z" />
    <glyph glyph-name="uni0448" unicode="&#x448;" horiz-adv-x="1697" 
d="M152 0v1069h258v-864h311v864h256v-864h311v864h256v-1069h-1392z" />
    <glyph glyph-name="uni0449" unicode="&#x449;" horiz-adv-x="1765" 
d="M152 0v1069h258v-864h311v864h256v-864h311v864h256v-864h182v-492h-233v287h-1341z" />
    <glyph glyph-name="uni044A" unicode="&#x44a;" horiz-adv-x="1275" 
d="M41 864v205h522v-340h289q162 0 262 -97t100 -267q0 -171 -100 -268t-262 -97h-545v864h-266zM563 190h238q72 0 111.5 34t39.5 100v82q0 131 -151 131h-238v-347z" />
    <glyph glyph-name="uni044B" unicode="&#x44b;" horiz-adv-x="1599" 
d="M152 0v1069h258v-340h266q162 0 262 -97t100 -267q0 -171 -100 -268t-262 -97h-524zM410 190h215q72 0 111.5 34t39.5 100v82q0 131 -151 131h-215v-347zM1190 0v1069h256v-1069h-256z" />
    <glyph glyph-name="uni044C" unicode="&#x44c;" horiz-adv-x="1120" 
d="M152 0v1069h258v-340h288q161 0 262 -97.5t101 -266.5q0 -171 -100.5 -268t-262.5 -97h-546zM410 190h237q72 0 112 34t40 100v82q0 66 -40 98.5t-112 32.5h-237v-347z" />
    <glyph glyph-name="uni044D" unicode="&#x44d;" horiz-adv-x="1079" 
d="M53 238l201 104q31 -81 87 -120.5t148 -39.5q121 0 180.5 65.5t59.5 188.5v17h-377v180h377v8q0 112 -60.5 179t-174.5 67q-97 0 -153 -39t-85 -117l-201 111q121 252 439 252q243 0 373 -149t130 -410t-131.5 -410.5t-376.5 -149.5q-166 0 -266 63.5t-170 199.5z" />
    <glyph glyph-name="uni044E" unicode="&#x44e;" horiz-adv-x="1654" 
d="M152 0v1069h258v-422h204q26 212 151 329.5t327 117.5q227 0 355 -149t128 -410q0 -260 -128.5 -410t-354.5 -150q-206 0 -332 123.5t-148 345.5h-202v-444h-258zM877 436q0 -125 55.5 -188.5t159.5 -63.5t158.5 63.5t54.5 188.5v197q0 125 -54.5 188.5t-158.5 63.5
t-159.5 -63.5t-55.5 -188.5v-197z" />
    <glyph glyph-name="uni044F" unicode="&#x44f;" horiz-adv-x="1163" 
d="M86 0v205h115l55 117q41 83 119 92v10q-128 14 -200.5 90.5t-72.5 206.5q0 159 101 253.5t262 94.5h547v-1069h-256v385h-203l-113 -233q-39 -83 -91 -117.5t-130 -34.5h-133zM365 700q0 -59 41 -92t112 -33h238v304h-238q-72 0 -112.5 -34t-40.5 -100v-45z" />
    <glyph glyph-name="uni0450" unicode="&#x450;" horiz-adv-x="1142" 
d="M82 535q0 257 131 408t362 151q121 0 215.5 -42.5t152.5 -117t88 -170.5t30 -209v-86h-713v-27q0 -120 67 -190t195 -70q164 0 273 146l141 -154q-68 -93 -181.5 -146t-258.5 -53q-234 0 -368 151.5t-134 408.5zM299 1538l219 109l193 -381l-156 -76zM348 629h445v20
q0 114 -56 182t-157 68q-104 0 -168 -70.5t-64 -183.5v-16z" />
    <glyph glyph-name="uni0451" unicode="&#x451;" horiz-adv-x="1142" 
d="M82 535q0 257 131 408t362 151q121 0 215.5 -42.5t152.5 -117t88 -170.5t30 -209v-86h-713v-27q0 -120 67 -190t195 -70q164 0 273 146l141 -154q-68 -93 -181.5 -146t-258.5 -53q-234 0 -368 151.5t-134 408.5zM225 1358v43q0 53 34.5 85t109.5 32q141 0 141 -117v-43
q0 -117 -141 -117q-75 0 -109.5 32t-34.5 85zM348 629h445v20q0 114 -56 182t-157 68q-104 0 -168 -70.5t-64 -183.5v-16zM653 1358v43q0 53 34 85t108 32q143 0 143 -117v-43q0 -117 -143 -117q-74 0 -108 32t-34 85z" />
    <glyph glyph-name="uni0452" unicode="&#x452;" horiz-adv-x="1210" 
d="M25 1221v178h127v117h258v-117h292v-178h-292v-330h10q76 203 299 203q164 0 253 -109.5t89 -308.5v-809q0 -134 -68.5 -205.5t-210.5 -71.5h-141v205h164v854q0 117 -43 174.5t-137 57.5q-89 0 -152 -44.5t-63 -127.5v-709h-258v1221h-127z" />
    <glyph glyph-name="uni0453" unicode="&#x453;" horiz-adv-x="903" 
d="M152 0v1069h708v-205h-450v-864h-258zM367 1266l192 381l219 -109l-256 -348z" />
    <glyph glyph-name="uni0454" unicode="&#x454;" horiz-adv-x="1079" 
d="M82 535q0 261 130 410t374 149q170 0 273.5 -65t162.5 -187l-207 -107q-26 75 -80 113.5t-149 38.5q-115 0 -174.5 -66.5t-61.5 -179.5v-8h377v-180h-377v-17q0 -119 59.5 -186.5t180.5 -67.5q93 0 151.5 40t94.5 124l192 -106q-69 -138 -171.5 -201.5t-266.5 -63.5
q-246 0 -377 149.5t-131 410.5z" />
    <glyph glyph-name="uni0455" unicode="&#x455;" horiz-adv-x="1019" 
d="M59 172l158 152q127 -146 295 -146q180 0 180 127q0 96 -133 115l-106 14q-355 45 -355 322q0 156 110.5 247t293.5 91q147 0 240 -41t176 -127l-154 -152q-47 53 -113.5 85t-142.5 32q-82 0 -123 -31t-41 -84q0 -55 33 -83t110 -40l107 -14q174 -25 259 -103t85 -212
q0 -155 -119.5 -252t-316.5 -97q-146 0 -252.5 50t-190.5 147z" />
    <glyph glyph-name="uni0456" unicode="&#x456;" horiz-adv-x="561" 
d="M129 1358v39q0 60 38.5 95.5t113.5 35.5t113 -35.5t38 -95.5v-39q0 -59 -38 -94t-113 -35t-113.5 35t-38.5 94zM152 0v1069h258v-1069h-258z" />
    <glyph glyph-name="uni0457" unicode="&#x457;" horiz-adv-x="561" 
d="M-76 1358v43q0 53 34.5 85t109.5 32q141 0 141 -117v-43q0 -117 -141 -117q-75 0 -109.5 32t-34.5 85zM152 0v1069h258v-1069h-258zM352 1358v43q0 53 34 85t108 32q143 0 143 -117v-43q0 -117 -143 -117q-74 0 -108 32t-34 85z" />
    <glyph glyph-name="uni0458" unicode="&#x458;" horiz-adv-x="561" 
d="M-12 -205h164v1274h258v-1200q0 -279 -279 -279h-143v205zM129 1358v39q0 60 38.5 95.5t113.5 35.5t113 -35.5t38 -95.5v-39q0 -59 -38 -94t-113 -35t-113.5 35t-38.5 94z" />
    <glyph glyph-name="uni0459" unicode="&#x459;" horiz-adv-x="1728" 
d="M27 -8v213h139q46 66 70 190t24 346v328h778v-340h267q162 0 262 -97t100 -267q0 -171 -100 -268t-262 -97h-525v864h-274v-135q0 -505 -148 -653q-45 -45 -104 -64.5t-145 -19.5h-82zM1038 190h215q72 0 112 34t40 100v82q0 66 -40 98.5t-112 32.5h-215v-347z" />
    <glyph glyph-name="uni045A" unicode="&#x45a;" horiz-adv-x="1755" 
d="M152 0v1069h258v-422h397v422h258v-340h266q162 0 262.5 -97t100.5 -267q0 -171 -100.5 -268t-262.5 -97h-524v442h-397v-442h-258zM1065 190h215q72 0 112 34t40 100v82q0 66 -40 98.5t-112 32.5h-215v-347z" />
    <glyph glyph-name="uni045B" unicode="&#x45b;" horiz-adv-x="1202" 
d="M25 1221v178h127v117h258v-117h292v-178h-292v-330h10q76 203 299 203q164 0 253 -109.5t89 -308.5v-676h-256v649q0 117 -43 174.5t-137 57.5q-89 0 -152 -44.5t-63 -127.5v-709h-258v1221h-127z" />
    <glyph glyph-name="uni045C" unicode="&#x45c;" horiz-adv-x="1181" 
d="M152 0v1069h258v-422h174l161 283q44 77 93 108t125 31h116v-205h-114l-117 -202q-28 -51 -54.5 -73.5t-64.5 -33.5v-8q40 -8 69.5 -30.5t55.5 -70.5l135 -241h115v-205h-135q-74 0 -124.5 33t-94.5 112l-166 299h-174v-444h-258zM473 1266l193 381l219 -109l-256 -348z
" />
    <glyph glyph-name="uni045D" unicode="&#x45d;" horiz-adv-x="1236" 
d="M152 0v1069h251v-483l-22 -252h6l127 229l340 506h231v-1069h-251v483l22 252h-6l-127 -229l-340 -506h-231zM338 1538l219 109l193 -381l-156 -76z" />
    <glyph glyph-name="uni045E" unicode="&#x45e;" horiz-adv-x="1069" 
d="M20 1069h254l191 -573l67 -267h13l71 267l191 573h244l-435 -1262q-41 -118 -107 -167.5t-194 -49.5h-153v205h190l51 154zM170 1499l205 80l67 -195q30 -12 97 -12q66 0 96 12l67 195l205 -80l-41 -96q-46 -101 -125 -153t-202 -52q-234 0 -328 205z" />
    <glyph glyph-name="uni045F" unicode="&#x45f;" horiz-adv-x="1208" 
d="M152 0v1069h258v-864h389v864h256v-1069h-334v-287h-234v287h-335z" />
    <glyph glyph-name="uni0472" unicode="&#x472;" horiz-adv-x="1458" 
d="M109 715q0 356 166.5 547.5t453.5 191.5t454 -191.5t167 -547.5t-167 -548t-454 -192t-453.5 192t-166.5 548zM375 604l2 -39q7 -173 102.5 -270.5t249.5 -97.5q155 0 250 98.5t102 271.5l2 37h-708zM375 838h708l-2 30q-9 171 -104 268t-248 97q-154 0 -249.5 -97.5
t-102.5 -269.5z" />
    <glyph glyph-name="uni0473" unicode="&#x473;" horiz-adv-x="1153" 
d="M82 535q0 258 133 408.5t360 150.5q229 0 362.5 -150.5t133.5 -408.5q0 -257 -134 -408.5t-362 -151.5q-227 0 -360 151.5t-133 408.5zM336 430q0 -125 64.5 -192.5t174.5 -67.5q111 0 175.5 67.5t64.5 192.5v21h-479v-21zM336 627h479v12q0 125 -64.5 192.5t-175.5 67.5
q-110 0 -174.5 -67.5t-64.5 -192.5v-12z" />
    <glyph glyph-name="uni0490" unicode="&#x490;" horiz-adv-x="1042" 
d="M168 0v1430h571v307h248v-543h-553v-1194h-266z" />
    <glyph glyph-name="uni0491" unicode="&#x491;" horiz-adv-x="903" 
d="M152 0v1069h475v287h233v-492h-450v-864h-258z" />
    <glyph glyph-name="uni0492" unicode="&#x492;" horiz-adv-x="1097" 
d="M39 616v199h186v615h819v-236h-555v-379h371v-199h-371v-616h-264v616h-186z" />
    <glyph glyph-name="uni0493" unicode="&#x493;" horiz-adv-x="937" 
d="M49 436v176h139v457h707v-205h-451v-252h281v-176h-281v-436h-256v436h-139z" />
    <glyph glyph-name="uni0494" unicode="&#x494;" horiz-adv-x="1345" 
d="M168 0v1430h819v-236h-553v-426h10q110 47 277 47q512 0 512 -520v-137q0 -255 -123 -387.5t-334 -132.5h-102v241h196q97 87 97 289v135q0 281 -269 281q-169 0 -264 -39v-545h-266z" />
    <glyph glyph-name="uni0495" unicode="&#x495;" horiz-adv-x="1150" 
d="M152 0v1069h708v-205h-450v-370h10q89 137 289 137q179 0 262.5 -95t83.5 -305v-233q0 -208 -90 -308t-269 -100h-125v205h174q52 61 52 228v194q0 112 -42 156.5t-141 44.5q-96 0 -150 -32t-54 -85v-301h-258z" />
    <glyph glyph-name="uni0496" unicode="&#x496;" horiz-adv-x="2078" 
d="M84 0v236h127l178 364q29 59 65.5 88.5t88.5 38.5v12q-48 13 -83 43.5t-63 89.5l-153 322h-127v236h121q82 0 140 -39t99 -125l203 -426h209v590h264v-590h209l205 426q41 86 97.5 125t139.5 39h119v-236h-127l-154 -322q-28 -60 -62 -90.5t-81 -42.5v-12
q52 -9 88.5 -38.5t65.5 -88.5l178 -364h221v-543h-248v307l-32 2q-63 3 -110.5 42t-86.5 124l-213 438h-209v-606h-264v606h-209l-215 -438q-44 -94 -97 -131t-132 -37h-152z" />
    <glyph glyph-name="uni0497" unicode="&#x497;" horiz-adv-x="1722" 
d="M82 0v205h115l114 241q42 85 123 101v8q-79 22 -119 104l-98 205h-115v205h117q77 0 129 -33.5t90 -109.5l135 -279h152v422h258v-422h152l135 279q38 76 90 109.5t129 33.5h117v-205h-115l-98 -205q-40 -82 -119 -104v-8q81 -16 123 -101l114 -241h183v-492h-234v289
l-14 2q-56 8 -96.5 42t-73.5 104l-141 294h-152v-444h-258v444h-152l-141 -294q-39 -82 -90.5 -116t-128.5 -34h-131z" />
    <glyph glyph-name="uni0498" unicode="&#x498;" horiz-adv-x="1234" 
d="M66 201l178 172q137 -162 338 -162q132 0 203 50t71 145v20q0 92 -58 137t-180 45h-237v234h225q114 0 168.5 46.5t54.5 141.5v17q0 172 -237 172q-97 0 -179 -37.5t-137 -104.5l-170 160q179 217 486 217q245 0 381.5 -104.5t136.5 -286.5q0 -140 -78.5 -218.5
t-210.5 -96.5v-11q135 -10 225.5 -92t90.5 -231q0 -171 -114.5 -285.5t-313.5 -142.5v-293h-248v293q-239 30 -395 215z" />
    <glyph glyph-name="uni0499" unicode="&#x499;" horiz-adv-x="1067" 
d="M51 174l160 154q111 -146 293 -146q101 0 153 36t52 99v23q0 117 -150 117h-233v180h209q149 0 149 111v22q0 56 -47 86.5t-141 30.5q-88 0 -157.5 -36.5t-109.5 -100.5l-155 137q148 207 440 207q211 0 321.5 -79t110.5 -212q0 -202 -219 -236v-10q116 -14 180 -77.5
t64 -164.5q0 -135 -92.5 -222t-257.5 -109v-271h-234v273q-204 27 -336 188z" />
    <glyph glyph-name="uni049A" unicode="&#x49a;" horiz-adv-x="1411" 
d="M168 0v1430h266v-590h230l237 428q46 86 102 124t138 38h114v-236h-127l-182 -330q-32 -56 -63.5 -83.5t-77.5 -41.5v-12q52 -9 89 -39t69 -90l200 -362h221v-543h-247v307l-27 2q-61 5 -107.5 40.5t-91.5 117.5l-247 446h-230v-606h-266z" />
    <glyph glyph-name="uni049B" unicode="&#x49b;" horiz-adv-x="1200" 
d="M152 0v1069h258v-422h174l161 283q44 77 93 108t125 31h116v-205h-114l-117 -202q-28 -51 -54.5 -73.5t-64.5 -33.5v-8q40 -8 69.5 -30.5t55.5 -70.5l135 -241h182v-492h-233v289l-18 2q-53 4 -93.5 38.5t-76.5 102.5l-166 299h-174v-444h-258z" />
    <glyph glyph-name="uni049C" unicode="&#x49c;" horiz-adv-x="1503" 
d="M168 0v1430h266v-590h96v286h199v-286h86l217 428q44 85 100.5 123.5t137.5 38.5h116v-236h-129l-165 -326q-26 -54 -58 -84t-78 -45v-12q51 -11 88 -41.5t68 -93.5l182 -356h125v-236h-149q-78 0 -132 36t-98 126l-225 444h-86v-287h-199v287h-96v-606h-266z" />
    <glyph glyph-name="uni049D" unicode="&#x49d;" horiz-adv-x="1312" 
d="M152 0v1069h258v-422h86v236h168v-236h69l137 266q42 87 92.5 121.5t131.5 34.5h114v-205h-114l-105 -202q-27 -52 -50.5 -74t-59.5 -33v-8q43 -10 70 -30.5t50 -70.5l119 -241h115v-205h-133q-78 0 -130.5 35.5t-90.5 116.5l-146 292h-69v-235h-168v235h-86v-444h-258z
" />
    <glyph glyph-name="uni04A0" unicode="&#x4a0;" horiz-adv-x="1581" 
d="M45 1194v236h596v-590h229l238 428q46 86 102 124t138 38h114v-236h-127l-182 -330q-32 -56 -63.5 -83.5t-77.5 -41.5v-12q52 -9 88.5 -38.5t68.5 -90.5l201 -362h127v-236h-149q-76 0 -128 35t-102 125l-248 446h-229v-606h-266v1194h-330z" />
    <glyph glyph-name="uni04A1" unicode="&#x4a1;" horiz-adv-x="1337" 
d="M41 864v205h522v-422h174l162 283q44 77 93 108t126 31h115v-205h-115l-117 -202q-29 -52 -54 -74t-64 -33v-8q41 -8 71 -30.5t56 -70.5l133 -241h114v-205h-133q-76 0 -126.5 33t-94.5 112l-166 299h-174v-444h-256v864h-266z" />
    <glyph glyph-name="uni04A2" unicode="&#x4a2;" horiz-adv-x="1583" 
d="M168 0v1430h266v-590h604v590h265v-1194h221v-543h-248v307h-238v606h-604v-606h-266z" />
    <glyph glyph-name="uni04A3" unicode="&#x4a3;" horiz-adv-x="1304" 
d="M152 0v1069h258v-422h417v422h258v-864h181v-492h-232v287h-207v442h-417v-442h-258z" />
    <glyph glyph-name="uni04A4" unicode="&#x4a4;" horiz-adv-x="1869" 
d="M168 0v1430h266v-590h563v590h820v-236h-555v-1194h-265v606h-563v-606h-266z" />
    <glyph glyph-name="uni04A5" unicode="&#x4a5;" horiz-adv-x="1558" 
d="M152 0v1069h258v-422h397v422h709v-205h-451v-864h-258v442h-397v-442h-258z" />
    <glyph glyph-name="uni04AA" unicode="&#x4aa;" horiz-adv-x="1312" 
d="M109 705q0 357 163 553t449 196q373 0 520 -328l-225 -120q-72 213 -295 213q-153 0 -242.5 -105.5t-89.5 -290.5v-223q0 -184 89 -286.5t243 -102.5q117 0 195 62t116 165l215 -127q-133 -275 -399 -323v-295h-248v293q-234 36 -362.5 220t-128.5 499z" />
    <glyph glyph-name="uni04AB" unicode="&#x4ab;" horiz-adv-x="1048" 
d="M82 535q0 260 128.5 409.5t362.5 149.5q156 0 263 -71.5t155 -199.5l-209 -94q-21 72 -74 114t-135 42q-108 0 -165.5 -68.5t-57.5 -185.5v-195q0 -117 57.5 -185.5t165.5 -68.5q88 0 142 44.5t88 125.5l196 -96q-87 -224 -309 -268v-275h-233v275q-180 33 -277.5 177.5
t-97.5 369.5z" />
    <glyph glyph-name="uni04AE" unicode="&#x4ae;" horiz-adv-x="1290" 
d="M20 1430h299l332 -609h4l324 609h291l-492 -865v-565h-266v561z" />
    <glyph glyph-name="uni04AF" unicode="&#x4af;" horiz-adv-x="1071" 
d="M25 1069h254l157 -465l99 -342h14l98 342l156 465h244l-383 -1069v-410h-256v410z" />
    <glyph glyph-name="uni04B0" unicode="&#x4b0;" horiz-adv-x="1290" 
d="M20 1430h299l332 -611h4l324 611h291l-492 -869h299v-199h-299v-362h-266v362h-303v199h303z" />
    <glyph glyph-name="uni04B1" unicode="&#x4b1;" horiz-adv-x="1071" 
d="M25 1069h254l157 -465l99 -342h14l98 342l156 465h244l-383 -1069h247v-176h-247v-234h-256v234h-250v176h250z" />
    <glyph glyph-name="uni04B2" unicode="&#x4b2;" horiz-adv-x="1388" 
d="M39 0l461 735l-443 695h312l305 -512h4l311 512h289l-447 -697l318 -497h221v-543h-248v307h-133l-330 551h-6l-325 -551h-289z" />
    <glyph glyph-name="uni04B3" unicode="&#x4b3;" horiz-adv-x="1144" 
d="M39 0l367 543l-359 526h293l223 -356h8l224 356h272l-360 -530l227 -334h194v-492h-233v287h-117l-229 371h-8l-232 -371h-270z" />
    <glyph glyph-name="uni04B6" unicode="&#x4b6;" horiz-adv-x="1476" 
d="M113 997v433h266v-441q0 -142 68.5 -211t209.5 -69q182 0 275 41v680h266v-1194h221v-543h-248v307h-239v524h-10q-110 -47 -287 -47q-522 0 -522 520z" />
    <glyph glyph-name="uni04B7" unicode="&#x4b7;" horiz-adv-x="1224" 
d="M102 694v375h256v-360q0 -86 45 -126t140 -40q96 0 150.5 30.5t54.5 83.5v412h256v-864h182v-492h-234v287h-204v467h-11q-92 -137 -288 -137q-175 0 -261 90t-86 274z" />
    <glyph glyph-name="uni04B8" unicode="&#x4b8;" horiz-adv-x="1392" 
d="M113 997v433h266v-441q0 -237 196 -274v309h201v-313q100 6 185 39v680h264v-1430h-264v524h-11q-81 -31 -174 -39v-266h-201v260q-234 15 -348 144t-114 374z" />
    <glyph glyph-name="uni04B9" unicode="&#x4b9;" horiz-adv-x="1183" 
d="M102 694v375h256v-360q0 -137 123 -158v285h170v-285q53 3 88 31.5t35 68.5v418h258v-1069h-258v442h-10q-42 -63 -113 -94v-188h-170v170q-193 0 -286 89.5t-93 274.5z" />
    <glyph glyph-name="uni04BA" unicode="&#x4ba;" horiz-adv-x="1366" 
d="M168 0v1430h266v-525h10q110 47 287 47q522 0 522 -520v-432h-266v440q0 143 -68.5 212t-209.5 69q-182 0 -275 -41v-680h-266z" />
    <glyph glyph-name="uni04BB" unicode="&#x4bb;" horiz-adv-x="1202" 
d="M152 0v1516h258v-625h10q76 203 299 203q164 0 253 -109.5t89 -308.5v-676h-256v649q0 117 -43 174.5t-137 57.5q-89 0 -152 -44.5t-63 -127.5v-709h-258z" />
    <glyph glyph-name="uni04C0" unicode="&#x4c0;" horiz-adv-x="862" 
d="M109 0v213h190v1004h-190v213h645v-213h-191v-1004h191v-213h-645z" />
    <glyph glyph-name="uni04C1" unicode="&#x4c1;" horiz-adv-x="2041" 
d="M84 0v236h127l178 364q29 59 65.5 88.5t88.5 38.5v12q-48 13 -83 43.5t-63 89.5l-153 322h-127v236h121q82 0 140 -39t99 -125l203 -426h209v590h264v-590h209l205 426q41 86 97.5 125t139.5 39h119v-236h-127l-154 -322q-28 -60 -62 -90.5t-81 -42.5v-12
q52 -9 88.5 -38.5t65.5 -88.5l178 -364h127v-236h-154q-79 0 -132 37t-97 131l-213 438h-209v-606h-264v606h-209l-215 -438q-44 -94 -97 -131t-132 -37h-152zM649 1835l205 80l68 -195q30 -12 96 -12t96 12l68 195l204 -80l-40 -96q-94 -205 -328 -205t-328 205z" />
    <glyph glyph-name="uni04C2" unicode="&#x4c2;" horiz-adv-x="1708" 
d="M82 0v205h115l114 241q42 85 123 101v8q-79 22 -119 104l-98 205h-115v205h117q77 0 129 -33.5t90 -109.5l135 -279h152v422h258v-422h152l135 279q38 76 90 109.5t129 33.5h117v-205h-115l-98 -205q-40 -82 -119 -104v-8q81 -16 123 -101l114 -241h115v-205h-131
q-77 0 -128.5 34t-90.5 116l-141 294h-152v-444h-258v444h-152l-141 -294q-39 -82 -90.5 -116t-128.5 -34h-131zM485 1499l205 80l68 -195q30 -12 96 -12t96 12l68 195l205 -80l-41 -96q-94 -205 -328 -205t-328 205z" />
    <glyph glyph-name="uni04CF" unicode="&#x4cf;" horiz-adv-x="561" 
d="M152 0v1516h258v-1516h-258z" />
    <glyph glyph-name="uni04D0" unicode="&#x4d0;" horiz-adv-x="1372" 
d="M43 0l481 1430h330l475 -1430h-274l-117 367h-510l-117 -367h-268zM315 1835l205 80l68 -195q30 -12 96 -12t96 12l68 195l205 -80l-41 -96q-94 -205 -328 -205t-328 205zM489 594h383l-186 594h-10z" />
    <glyph glyph-name="uni04D1" unicode="&#x4d1;" horiz-adv-x="1140" 
d="M76 291q0 161 118.5 244t340.5 83h182v80q0 191 -203 191q-152 0 -244 -137l-151 137q129 205 413 205q214 0 327.5 -98.5t113.5 -282.5v-508h108v-205h-143q-77 0 -127.5 44t-65.5 118l-4 20h-12q-27 -100 -109 -153.5t-202 -53.5q-162 0 -252 85.5t-90 230.5zM170 1499
l205 80l67 -195q30 -12 97 -12q66 0 96 12l67 195l205 -80l-41 -96q-46 -101 -125 -153t-202 -52q-234 0 -328 205zM338 293q0 -64 43 -97.5t121 -33.5q94 0 154.5 41.5t60.5 115.5v144h-170q-209 0 -209 -135v-35z" />
    <glyph glyph-name="uni04D2" unicode="&#x4d2;" horiz-adv-x="1372" 
d="M43 0l481 1430h330l475 -1430h-274l-117 367h-510l-117 -367h-268zM330 1696v41q0 118 143 118t143 -118v-41q0 -55 -34.5 -87t-108.5 -32q-143 0 -143 119zM489 594h383l-186 594h-10zM756 1696v41q0 118 143 118t143 -118v-41q0 -119 -143 -119q-74 0 -108.5 32
t-34.5 87z" />
    <glyph glyph-name="uni04D3" unicode="&#x4d3;" horiz-adv-x="1140" 
d="M76 291q0 161 118.5 244t340.5 83h182v80q0 191 -203 191q-152 0 -244 -137l-151 137q129 205 413 205q214 0 327.5 -98.5t113.5 -282.5v-508h108v-205h-143q-77 0 -127.5 44t-65.5 118l-4 20h-12q-27 -100 -109 -153.5t-202 -53.5q-162 0 -252 85.5t-90 230.5zM182 1358
v43q0 53 34.5 85t109.5 32q141 0 141 -117v-43q0 -117 -141 -117q-75 0 -109.5 32t-34.5 85zM338 293q0 -64 43 -97.5t121 -33.5q94 0 154.5 41.5t60.5 115.5v144h-170q-209 0 -209 -135v-35zM610 1358v43q0 53 34 85t108 32q143 0 143 -117v-43q0 -117 -143 -117
q-74 0 -108 32t-34 85z" />
    <glyph glyph-name="uni04D4" unicode="&#x4d4;" horiz-adv-x="1941" 
d="M2 0l709 1430h1112v-236h-678v-354h600v-234h-600v-370h678v-236h-940v367h-439l-176 -367h-266zM551 594h332v600h-41z" />
    <glyph glyph-name="uni04D5" unicode="&#x4d5;" horiz-adv-x="1769" 
d="M76 293q0 164 122.5 250t336.5 86h182v69q0 92 -49.5 141.5t-151.5 49.5q-87 0 -145 -36.5t-101 -100.5l-151 137q129 205 413 205q220 0 314 -181h12q40 79 135 130t221 51q119 0 211.5 -42.5t149 -117t85 -170.5t28.5 -209v-86h-715v-27q0 -117 71.5 -187.5
t196.5 -70.5q169 0 275 144l139 -154q-66 -93 -179 -146t-255 -53q-149 0 -260.5 65.5t-147.5 154.5h-12q-32 -91 -129 -155.5t-254 -64.5q-160 0 -251 88t-91 230zM338 301q0 -67 42.5 -103t123.5 -36q92 0 152.5 41.5t60.5 115.5v150h-170q-101 -2 -155 -36.5t-54 -98.5
v-33zM975 629h446v20q0 114 -57 182t-158 68q-104 0 -167.5 -70.5t-63.5 -183.5v-16z" />
    <glyph glyph-name="uni04D6" unicode="&#x4d6;" horiz-adv-x="1226" 
d="M168 0v1430h940v-236h-674v-354h598v-234h-598v-370h674v-236h-940zM268 1835l205 80l68 -195q30 -12 96 -12t96 12l68 195l205 -80l-41 -96q-94 -205 -328 -205t-328 205z" />
    <glyph glyph-name="uni04D7" unicode="&#x4d7;" horiz-adv-x="1142" 
d="M82 535q0 257 131 408t362 151q121 0 215.5 -42.5t152.5 -117t88 -170.5t30 -209v-86h-713v-27q0 -120 67 -190t195 -70q164 0 273 146l141 -154q-68 -93 -181.5 -146t-258.5 -53q-234 0 -368 151.5t-134 408.5zM213 1499l205 80l67 -195q30 -12 97 -12q66 0 96 12
l67 195l205 -80l-41 -96q-46 -101 -125 -153t-202 -52q-234 0 -328 205zM348 629h445v20q0 114 -56 182t-157 68q-104 0 -168 -70.5t-64 -183.5v-16z" />
    <glyph glyph-name="uni04D8" unicode="&#x4d8;" horiz-adv-x="1458" 
d="M109 715v84h960v24q0 186 -90.5 291t-245.5 105q-257 0 -336 -246l-235 90q61 175 207 283t364 108q289 0 453 -193t164 -546t-166.5 -546.5t-454.5 -193.5q-290 0 -455 191t-165 549zM389 565q10 -164 102.5 -259t237.5 -95q144 0 236.5 95t101.5 259l2 15h-680v-15z
" />
    <glyph glyph-name="uni04D9" unicode="&#x4d9;" horiz-adv-x="1142" 
d="M82 514v86h713v27q0 120 -65.5 190t-190.5 70q-167 0 -269 -146l-141 154q68 93 180 146t256 53q232 0 364 -151t132 -408t-131.5 -408.5t-362.5 -151.5q-121 0 -215.5 42.5t-152.5 117t-87.5 170.5t-29.5 209zM348 420q0 -114 57 -182t158 -68q104 0 168 70.5t64 183.5
v16h-447v-20z" />
    <glyph glyph-name="uni04DC" unicode="&#x4dc;" horiz-adv-x="2041" 
d="M84 0v236h127l178 364q29 59 65.5 88.5t88.5 38.5v12q-48 13 -83 43.5t-63 89.5l-153 322h-127v236h121q82 0 140 -39t99 -125l203 -426h209v590h264v-590h209l205 426q41 86 97.5 125t139.5 39h119v-236h-127l-154 -322q-28 -60 -62 -90.5t-81 -42.5v-12
q52 -9 88.5 -38.5t65.5 -88.5l178 -364h127v-236h-154q-79 0 -132 37t-97 131l-213 438h-209v-606h-264v606h-209l-215 -438q-44 -94 -97 -131t-132 -37h-152zM664 1696v41q0 118 143 118t143 -118v-41q0 -55 -34.5 -87t-108.5 -32q-143 0 -143 119zM1090 1696v41
q0 118 143 118t143 -118v-41q0 -119 -143 -119q-74 0 -108.5 32t-34.5 87z" />
    <glyph glyph-name="uni04DD" unicode="&#x4dd;" horiz-adv-x="1708" 
d="M82 0v205h115l114 241q42 85 123 101v8q-79 22 -119 104l-98 205h-115v205h117q77 0 129 -33.5t90 -109.5l135 -279h152v422h258v-422h152l135 279q38 76 90 109.5t129 33.5h117v-205h-115l-98 -205q-40 -82 -119 -104v-8q81 -16 123 -101l114 -241h115v-205h-131
q-77 0 -128.5 34t-90.5 116l-141 294h-152v-444h-258v444h-152l-141 -294q-39 -82 -90.5 -116t-128.5 -34h-131zM498 1358v43q0 117 143 117q141 0 141 -117v-43q0 -117 -141 -117q-143 0 -143 117zM926 1358v43q0 117 141 117q143 0 143 -117v-43q0 -117 -143 -117
q-141 0 -141 117z" />
    <glyph glyph-name="uni04DE" unicode="&#x4de;" horiz-adv-x="1234" 
d="M66 201l178 172q137 -162 338 -162q132 0 203 50t71 145v20q0 92 -58 137t-180 45h-237v234h225q114 0 168.5 46.5t54.5 141.5v17q0 172 -237 172q-97 0 -179 -37.5t-137 -104.5l-170 160q179 217 486 217q245 0 381.5 -104.5t136.5 -286.5q0 -140 -78.5 -218.5
t-210.5 -96.5v-11q135 -10 225.5 -92t90.5 -231q0 -197 -150 -318t-405 -121q-321 0 -516 226zM236 1696v41q0 118 143 118t143 -118v-41q0 -55 -34.5 -87t-108.5 -32q-143 0 -143 119zM662 1696v41q0 118 143 118t143 -118v-41q0 -119 -143 -119q-74 0 -108.5 32t-34.5 87z
" />
    <glyph glyph-name="uni04DF" unicode="&#x4df;" horiz-adv-x="1067" 
d="M51 174l160 154q111 -146 293 -146q101 0 153 36t52 99v23q0 117 -150 117h-233v180h209q149 0 149 111v22q0 56 -47 86.5t-141 30.5q-88 0 -157.5 -36.5t-109.5 -100.5l-155 137q148 207 440 207q211 0 321.5 -79t110.5 -212q0 -202 -219 -236v-10q116 -14 180 -77.5
t64 -164.5q0 -159 -125 -249.5t-344 -90.5q-154 0 -261 49.5t-190 149.5zM156 1358v43q0 117 143 117q141 0 141 -117v-43q0 -117 -141 -117q-143 0 -143 117zM584 1358v43q0 117 141 117q143 0 143 -117v-43q0 -117 -143 -117q-141 0 -141 117z" />
    <glyph glyph-name="uni04E2" unicode="&#x4e2;" horiz-adv-x="1470" 
d="M168 0v1430h258v-764l-27 -299h7l141 268l518 795h238v-1430h-259v764l27 299h-6l-141 -268l-518 -795h-238zM434 1622v188h610v-188h-610z" />
    <glyph glyph-name="uni04E3" unicode="&#x4e3;" horiz-adv-x="1236" 
d="M152 0v1069h251v-483l-22 -252h6l127 229l340 506h231v-1069h-251v483l22 252h-6l-127 -229l-340 -506h-231zM315 1286v189h611v-189h-611z" />
    <glyph glyph-name="uni04E4" unicode="&#x4e4;" horiz-adv-x="1470" 
d="M168 0v1430h258v-764l-27 -299h7l141 268l518 795h238v-1430h-259v764l27 299h-6l-141 -268l-518 -795h-238zM383 1696v41q0 118 143 118q74 0 109 -32t35 -86v-41q0 -55 -35 -87t-109 -32q-143 0 -143 119zM809 1696v41q0 118 143 118q144 0 144 -118v-41
q0 -119 -144 -119q-74 0 -108.5 32t-34.5 87z" />
    <glyph glyph-name="uni04E5" unicode="&#x4e5;" horiz-adv-x="1236" 
d="M152 0v1069h251v-483l-22 -252h6l127 229l340 506h231v-1069h-251v483l22 252h-6l-127 -229l-340 -506h-231zM264 1358v43q0 53 34.5 85t109.5 32q141 0 141 -117v-43q0 -117 -141 -117q-75 0 -109.5 32t-34.5 85zM692 1358v43q0 53 34 85t108 32q143 0 143 -117v-43
q0 -117 -143 -117q-74 0 -108 32t-34 85z" />
    <glyph glyph-name="uni04E6" unicode="&#x4e6;" horiz-adv-x="1458" 
d="M109 715q0 356 166.5 547.5t453.5 191.5t454 -191.5t167 -547.5t-167 -548t-454 -192t-453.5 192t-166.5 548zM373 1696v41q0 118 143 118t143 -118v-41q0 -55 -34.5 -87t-108.5 -32q-143 0 -143 119zM389 604q0 -183 92 -288t248 -105t248 105t92 288v221
q0 183 -92 288.5t-248 105.5t-248 -105.5t-92 -288.5v-221zM799 1696v41q0 118 143 118t143 -118v-41q0 -119 -143 -119q-74 0 -108.5 32t-34.5 87z" />
    <glyph glyph-name="uni04E7" unicode="&#x4e7;" horiz-adv-x="1153" 
d="M82 535q0 258 133 408.5t360 150.5q229 0 362.5 -150.5t133.5 -408.5q0 -257 -134 -408.5t-362 -151.5q-227 0 -360 151.5t-133 408.5zM219 1356v43q0 117 143 117q74 0 108 -32t34 -85v-43q0 -53 -34 -85t-108 -32q-143 0 -143 117zM350 436q0 -121 60.5 -186.5
t164.5 -65.5q106 0 167 65.5t61 186.5v197q0 121 -61 186.5t-167 65.5q-104 0 -164.5 -65.5t-60.5 -186.5v-197zM647 1356v43q0 117 141 117q75 0 109.5 -32t34.5 -85v-43q0 -53 -34.5 -85t-109.5 -32q-141 0 -141 117z" />
    <glyph glyph-name="uni04E8" unicode="&#x4e8;" horiz-adv-x="1458" 
d="M109 715q0 356 166.5 547.5t453.5 191.5t454 -191.5t167 -547.5t-167 -548t-454 -192t-453.5 192t-166.5 548zM375 604l2 -39q7 -173 102.5 -270.5t249.5 -97.5q155 0 250 98.5t102 271.5l2 37h-708zM375 838h708l-2 30q-9 171 -104 268t-248 97q-154 0 -249.5 -97.5
t-102.5 -269.5z" />
    <glyph glyph-name="uni04E9" unicode="&#x4e9;" horiz-adv-x="1153" 
d="M82 535q0 258 133 408.5t360 150.5q229 0 362.5 -150.5t133.5 -408.5q0 -257 -134 -408.5t-362 -151.5q-227 0 -360 151.5t-133 408.5zM336 430q0 -125 64.5 -192.5t174.5 -67.5q111 0 175.5 67.5t64.5 192.5v21h-479v-21zM336 627h479v12q0 125 -64.5 192.5t-175.5 67.5
q-110 0 -174.5 -67.5t-64.5 -192.5v-12z" />
    <glyph glyph-name="uni04EE" unicode="&#x4ee;" horiz-adv-x="1267" 
d="M31 1430h280l236 -515l115 -272h8l100 277l203 510h262l-502 -1235q-46 -111 -110.5 -153t-188.5 -42h-174v236h236l43 108zM340 1622v188h610v-188h-610z" />
    <glyph glyph-name="uni04EF" unicode="&#x4ef;" horiz-adv-x="1069" 
d="M20 1069h254l191 -573l67 -267h13l71 267l191 573h244l-435 -1262q-41 -118 -107 -167.5t-194 -49.5h-153v205h190l51 154zM233 1286v189h611v-189h-611z" />
    <glyph glyph-name="uni04F0" unicode="&#x4f0;" horiz-adv-x="1267" 
d="M31 1430h280l236 -515l115 -272h8l100 277l203 510h262l-502 -1235q-46 -111 -110.5 -153t-188.5 -42h-174v236h236l43 108zM289 1696v41q0 118 143 118t143 -118v-41q0 -55 -34.5 -87t-108.5 -32q-143 0 -143 119zM715 1696v41q0 118 143 118t143 -118v-41
q0 -119 -143 -119q-74 0 -108.5 32t-34.5 87z" />
    <glyph glyph-name="uni04F1" unicode="&#x4f1;" horiz-adv-x="1069" 
d="M20 1069h254l191 -573l67 -267h13l71 267l191 573h244l-435 -1262q-41 -118 -107 -167.5t-194 -49.5h-153v205h190l51 154zM182 1358v43q0 53 34.5 85t109.5 32q141 0 141 -117v-43q0 -117 -141 -117q-75 0 -109.5 32t-34.5 85zM610 1358v43q0 53 34 85t108 32
q143 0 143 -117v-43q0 -117 -143 -117q-74 0 -108 32t-34 85z" />
    <glyph glyph-name="uni04F2" unicode="&#x4f2;" horiz-adv-x="1267" 
d="M31 1430h280l236 -515l115 -272h8l100 277l203 510h262l-502 -1235q-46 -111 -110.5 -153t-188.5 -42h-174v236h236l43 108zM330 1595l192 381l205 -100l-254 -350zM719 1595l192 381l205 -100l-254 -350z" />
    <glyph glyph-name="uni04F3" unicode="&#x4f3;" horiz-adv-x="1069" 
d="M20 1069h254l191 -573l67 -267h13l71 267l191 573h244l-435 -1262q-41 -118 -107 -167.5t-194 -49.5h-153v205h190l51 154zM223 1260l193 380l205 -100l-254 -350zM612 1260l193 380l205 -100l-254 -350z" />
    <glyph glyph-name="uni04F4" unicode="&#x4f4;" horiz-adv-x="1366" 
d="M113 997v433h266v-441q0 -142 68.5 -211t209.5 -69q182 0 275 41v680h266v-1430h-266v524h-10q-110 -47 -287 -47q-522 0 -522 520zM299 1696v41q0 118 143 118q74 0 109 -32t35 -86v-41q0 -55 -35 -87t-109 -32q-143 0 -143 119zM725 1696v41q0 118 143 118
q144 0 144 -118v-41q0 -119 -144 -119q-74 0 -108.5 32t-34.5 87z" />
    <glyph glyph-name="uni04F5" unicode="&#x4f5;" horiz-adv-x="1157" 
d="M102 694v375h256v-360q0 -86 45 -126t140 -40q96 0 150.5 30.5t54.5 83.5v412h256v-1069h-256v467h-11q-92 -137 -288 -137q-175 0 -261 90t-86 274zM197 1358v43q0 117 143 117q141 0 141 -117v-43q0 -117 -141 -117q-143 0 -143 117zM625 1358v43q0 117 141 117
q143 0 143 -117v-43q0 -117 -143 -117q-141 0 -141 117z" />
    <glyph glyph-name="uni04F8" unicode="&#x4f8;" horiz-adv-x="1871" 
d="M168 0v1430h266v-535h385q195 0 308.5 -122.5t113.5 -326.5t-113.5 -325t-308.5 -121h-651zM434 231h361q81 0 125.5 43t44.5 125v97q0 82 -44.5 125t-125.5 43h-361v-433zM580 1696v41q0 118 143 118t143 -118v-41q0 -55 -34.5 -87t-108.5 -32q-143 0 -143 119z
M1006 1696v41q0 118 143 118t143 -118v-41q0 -119 -143 -119q-74 0 -108.5 32t-34.5 87zM1438 0v1430h264v-1430h-264z" />
    <glyph glyph-name="uni04F9" unicode="&#x4f9;" horiz-adv-x="1599" 
d="M152 0v1069h258v-340h266q162 0 262 -97t100 -267q0 -171 -100 -268t-262 -97h-524zM410 190h215q72 0 111.5 34t39.5 100v82q0 131 -151 131h-215v-347zM442 1358v43q0 53 34.5 85t109.5 32q141 0 141 -117v-43q0 -117 -141 -117q-75 0 -109.5 32t-34.5 85zM870 1358v43
q0 53 34 85t108 32q143 0 143 -117v-43q0 -117 -143 -117q-74 0 -108 32t-34 85zM1190 0v1069h256v-1069h-256z" />
    <glyph glyph-name="uni0E01" unicode="&#xe01;" horiz-adv-x="1275" 
d="M125 627v94q0 227 134.5 352t369.5 125q247 0 374 -126.5t127 -358.5v-713h-262v725q0 126 -63.5 192t-183.5 66q-215 0 -242 -182h235v-180q-101 -6 -146.5 -69.5t-45.5 -209.5v-342h-262v315q0 130 69 205t172 96v11h-276z" />
    <glyph glyph-name="uni0E02" unicode="&#xe02;" horiz-adv-x="1183" 
d="M113 969v205h223q124 0 181.5 -53t57.5 -158v-15q0 -71 -19 -129.5t-46 -99.5t-54 -81.5t-46 -96t-19 -121.5q0 -115 47 -169t144 -54q190 0 190 227v750h260v-723q0 -244 -108 -360t-342 -116q-229 0 -341 113t-112 309q0 77 15 140t37 100.5t48.5 73t48.5 62t37 64.5
t15 81v51h-217z" />
    <glyph glyph-name="uni0E03" unicode="&#xe03;" horiz-adv-x="1216" 
d="M74 1028v146h213v-168q57 0 94 41t37 98v29h231v-222q0 -55 -12.5 -101.5t-32.5 -80.5t-44 -65t-48 -60.5t-44 -61t-32 -73t-12 -90.5q0 -115 47 -169t143 -54q191 0 191 227v750h262v-723q0 -243 -109 -359.5t-344 -116.5q-228 0 -339 113t-111 309q0 77 20 140.5
t49.5 103t64.5 77.5t64.5 67.5t49.5 70.5t20 88v78h-10q-11 -82 -58.5 -133t-119.5 -51q-82 0 -126 49t-44 141z" />
    <glyph glyph-name="uni0E04" unicode="&#xe04;" horiz-adv-x="1292" 
d="M145 0v713q0 231 129 358t373 127q242 0 371 -127t129 -358v-713h-260v723q0 124 -62 189t-178 65q-117 0 -178 -65t-61 -189v-231h8q50 198 248 198h71v-227h-104q-223 0 -223 -180v-283h-263z" />
    <glyph glyph-name="uni0E05" unicode="&#xe05;" horiz-adv-x="1310" 
d="M150 0v801q0 189 101 293t281 104l121 -127h4l121 127q181 0 282 -104.5t101 -292.5v-801h-260v770q0 108 -22 153.5t-78 49.5l-144 -142h-4l-143 142q-56 -4 -78 -49.5t-22 -153.5v-289h10q22 94 84 145.5t162 51.5h73v-225h-106q-223 0 -223 -183v-270h-260z" />
    <glyph glyph-name="uni0E06" unicode="&#xe06;" horiz-adv-x="1304" 
d="M82 1028v146h211v-168q65 0 106 40.5t41 98.5v29h230v-234q0 -59 -12 -108t-31 -82.5t-42 -62.5t-45.5 -55t-41.5 -54t-31 -66t-12 -84v-22q0 -97 71 -150t168 -53q107 0 153 63.5t46 198.5v709h262v-766q0 -208 -93.5 -320.5t-275.5 -112.5q-244 0 -321 211h-10v-186
h-260v416q0 63 14 117t37 91.5t50.5 70.5t55 61t50.5 55t37 61t14 72v78h-9q-12 -82 -64 -133t-130 -51q-80 0 -124 49t-44 141z" />
    <glyph glyph-name="uni0E07" unicode="&#xe07;" horiz-adv-x="1167" 
d="M53 1174h258l252 -963h33q91 0 134.5 73.5t43.5 233.5v438h-192v218h202q120 0 184 -77.5t64 -222.5v-301q0 -295 -109.5 -434t-328.5 -139h-207z" />
    <glyph glyph-name="uni0E08" unicode="&#xe08;" horiz-adv-x="1144" 
d="M84 981q143 217 451 217q258 0 383.5 -147.5t125.5 -446.5q0 -315 -117 -459.5t-366 -144.5h-162l-112 475h-152v219h187q78 0 116.5 -38t63.5 -142l73 -303h17q87 0 138.5 72.5t51.5 218.5v219q0 122 -63 189t-187 67q-181 0 -282 -146z" />
    <glyph glyph-name="uni0E09" unicode="&#xe09;" horiz-adv-x="1251" 
d="M92 963q75 115 194 175t300 60q246 0 375 -120t129 -347v-524h116v-207h-141q-91 0 -145 51t-66 152h-12q-44 -112 -117.5 -170t-192.5 -58q-140 0 -215 80.5t-75 233.5v174h-125v209h172q99 0 143.5 -47t44.5 -148v-135q0 -139 125 -139q56 0 105.5 20t85.5 69.5
t36 121.5v305q0 254 -258 254q-109 0 -182.5 -43t-130.5 -121z" />
    <glyph glyph-name="uni0E0A" unicode="&#xe0a;" horiz-adv-x="1142" 
d="M100 969v205h207q236 0 236 -211v-15q-1 -71 -18 -129.5t-40 -99t-45.5 -80.5t-38.5 -94t-16 -119q0 -118 48.5 -173.5t148.5 -55.5q97 0 144.5 55.5t47.5 171.5v49q0 98 -35 140t-118 42h-29v195h20q150 0 150 213v111h262v-35q0 -235 -201 -289v-10q209 -40 209 -353
v-63q0 -225 -109.5 -337t-342.5 -112q-229 0 -341 112.5t-112 309.5q0 91 18 161.5t43.5 112t51 76.5t43.5 77.5t18 93.5v51h-201z" />
    <glyph glyph-name="uni0E0B" unicode="&#xe0b;" horiz-adv-x="1193" 
d="M61 1028v146h211v-168q59 0 96.5 41t37.5 98v29h229v-222q0 -74 -20.5 -133.5t-50 -100t-59 -80t-50 -93.5t-19.5 -119q0 -118 48.5 -173.5t148.5 -55.5q97 0 144.5 55.5t47.5 171.5v49q0 98 -31 140t-102 42h-26v195h16q141 0 141 213v111h264v-35q0 -236 -198 -289v-10
q98 -28 145 -113.5t47 -239.5v-63q0 -225 -108.5 -337t-341.5 -112q-229 0 -340 112t-111 310q0 77 17.5 140t44 102.5t57.5 78t57.5 67.5t44 70.5t17.5 88.5v78h-8q-12 -82 -60.5 -133t-120.5 -51q-80 0 -124 49t-44 141z" />
    <glyph glyph-name="uni0E0C" unicode="&#xe0c;" horiz-adv-x="1902" 
d="M121 627v94q0 229 128 353t363 124q242 0 369 -127t127 -358v-340q0 -81 63.5 -125.5t147.5 -44.5q89 0 131.5 54t42.5 175v742h260v-785q0 -203 -88.5 -308.5t-247.5 -105.5q-221 0 -299 211h-10v-186h-252v725q0 125 -64 191.5t-180 66.5q-213 0 -241 -182h237v-180
q-113 -6 -161 -69t-48 -210v-131h187v-211h-166q-139 0 -210 71.5t-71 207.5v36q0 250 240 301v11h-258z" />
    <glyph glyph-name="uni0E0D" unicode="&#xe0d;" horiz-adv-x="1902" 
d="M121 627v94q0 228 130 352.5t367 124.5q234 0 362 -127.5t128 -357.5v-244q0 -121 41.5 -175t130.5 -54q84 0 147.5 44.5t63.5 125.5v764h260v-1143q0 -209 -119.5 -320.5t-339.5 -111.5q-312 0 -458 221l170 149q98 -149 278 -149q102 0 156.5 57.5t54.5 165.5v180h-12
q-77 -196 -299 -196q-155 0 -241.5 98.5t-86.5 288.5v311q0 125 -63 191.5t-179 66.5q-213 0 -241 -182h237v-180q-113 -6 -161 -69t-48 -210v-131h187v-211h-166q-139 0 -210 71.5t-71 207.5v36q0 250 240 301v11h-258z" />
    <glyph glyph-name="uni0E0E" unicode="&#xe0e;" horiz-adv-x="1296" 
d="M84 0v207h147v131q0 124 53 196t148 91v10h-301v86q0 228 133.5 352.5t376.5 124.5q251 0 379.5 -126.5t128.5 -358.5v-1149h-262q-122 131 -295 131q-91 0 -163.5 -40t-117.5 -112l-170 148q66 105 167 161t214 56q228 0 357 -213h10v1030q0 125 -66.5 191.5
t-189.5 66.5q-226 0 -250 -182h246v-172q-86 -4 -119 -60.5t-33 -189.5v-125q0 -139 -56 -196.5t-190 -57.5h-147z" />
    <glyph glyph-name="uni0E0F" unicode="&#xe0f;" horiz-adv-x="1296" 
d="M84 0v207h147v131q0 124 53 196t148 91v10h-301v86q0 228 133.5 352.5t376.5 124.5q251 0 379.5 -126.5t128.5 -358.5v-766q0 -208 -89.5 -295.5t-287.5 -87.5l-151 129h-7q-61 -139 -213 -139q-90 0 -159 49.5t-109 142.5l170 133q25 -61 59 -89t84 -28q51 0 91 34
t81 112h7l161 -127q54 3 78.5 34t24.5 99v811q0 125 -66.5 191.5t-189.5 66.5q-226 0 -250 -182h246v-172q-86 -4 -119 -60.5t-33 -189.5v-125q0 -139 -56 -196.5t-190 -57.5h-147z" />
    <glyph glyph-name="uni0E10" unicode="&#xe10;" horiz-adv-x="1208" 
d="M84 975q143 217 446 217q199 0 308 -90q1 70 36 102.5t107 32.5h170v-197h-207v-36q100 -135 100 -406q0 -598 -483 -598h-162l-112 475h-152v219h187q78 0 116.5 -38t63.5 -142l73 -303h17q87 0 138.5 72.5t51.5 218.5v198q0 131 -66.5 201t-187.5 70q-182 0 -278 -146z
M137 -244h211l45 142h201q15 -174 133 -174q42 0 65 28t23 80v66h225v-129q0 -116 -58 -179t-157 -63q-98 0 -166 61t-88 170h-8l-14 -49q-23 -92 -69.5 -127t-141.5 -35h-201v209z" />
    <glyph glyph-name="uni0E11" unicode="&#xe11;" horiz-adv-x="1316" 
d="M55 1028v146h211v-168q58 0 95.5 41t37.5 98v29h230v-216h8q56 119 124 179.5t165 60.5q233 0 233 -328v-870h-260v834q0 137 -92 137q-53 0 -101 -48t-131 -184q-74 -120 -101.5 -190.5t-27.5 -147.5v-401h-260v416q0 88 20.5 145t82.5 146q66 95 94.5 153.5t28.5 114.5
v47h-9q-12 -82 -60 -133t-120 -51q-80 0 -124 49t-44 141z" />
    <glyph glyph-name="uni0E12" unicode="&#xe12;" horiz-adv-x="1875" 
d="M98 608q0 305 94.5 447.5t294.5 142.5l121 -149h4l117 149q164 0 258 -94t94 -283v-448q0 -81 63.5 -125.5t147.5 -44.5q89 0 130.5 54t41.5 175v742h260v-785q0 -203 -87 -308.5t-246 -105.5q-220 0 -301 211h-11v-186h-252v770q0 106 -19.5 147.5t-74.5 45.5l-121 -140
h-4l-123 140q-127 0 -127 -256v-203q0 -158 48.5 -221.5t173.5 -63.5h51v-219h-88q-245 0 -345 138.5t-100 469.5z" />
    <glyph glyph-name="uni0E13" unicode="&#xe13;" horiz-adv-x="1912" 
d="M121 627v94q0 229 128 353t363 124q244 0 370 -126.5t126 -358.5v-281q0 -121 41.5 -175t130.5 -54q84 0 147.5 44.5t63.5 125.5v801h260v-1174h-258v186h-12q-78 -211 -299 -211q-155 0 -241.5 106t-86.5 308v336q0 125 -63 191.5t-179 66.5q-213 0 -241 -182h237v-180
q-113 -6 -161 -69t-48 -210v-131h187v-211h-166q-139 0 -210 71.5t-71 207.5v36q0 250 240 301v11h-258z" />
    <glyph glyph-name="uni0E14" unicode="&#xe14;" horiz-adv-x="1245" 
d="M96 567q0 631 516 631q237 0 361.5 -126.5t124.5 -358.5v-713h-260v713q0 127 -60 193.5t-174 66.5q-116 0 -177.5 -71t-61.5 -204v-192q0 -151 52 -215t173 -64h53v-227h-84q-243 0 -353 134t-110 433z" />
    <glyph glyph-name="uni0E15" unicode="&#xe15;" horiz-adv-x="1269" 
d="M98 604q0 594 402 594l129 -160h4l129 160q162 0 261 -95t99 -282v-821h-262v770q0 104 -21.5 146.5t-76.5 46.5l-129 -148h-4l-127 148q-67 0 -103.5 -70.5t-36.5 -194.5v-200q0 -156 49.5 -217.5t174.5 -61.5h82v-219h-119q-246 0 -348.5 137.5t-102.5 466.5z" />
    <glyph glyph-name="uni0E16" unicode="&#xe16;" horiz-adv-x="1273" 
d="M121 627v94q0 228 133 352.5t373 124.5q247 0 374 -126.5t127 -358.5v-713h-260v725q0 125 -64.5 191.5t-185.5 66.5q-217 0 -245 -182h237v-180q-114 -6 -162.5 -69.5t-48.5 -209.5v-131h189v-211h-166q-140 0 -210.5 71.5t-70.5 207.5v36q0 251 240 301v11h-260z" />
    <glyph glyph-name="uni0E17" unicode="&#xe17;" horiz-adv-x="1284" 
d="M162 0v1174h260v-195h10q84 219 330 219q178 0 275.5 -117.5t97.5 -332.5v-748h-261v713q0 131 -49 194.5t-155 63.5q-101 0 -174.5 -50.5t-73.5 -142.5v-778h-260z" />
    <glyph glyph-name="uni0E18" unicode="&#xe18;" horiz-adv-x="1124" 
d="M121 829v23q0 158 120 252t330 94q308 0 455 -192l-172 -152q-57 63 -124.5 95t-160.5 32q-100 0 -152 -36t-52 -103v-47l294 -37q200 -31 288.5 -119.5t88.5 -259.5q0 -200 -115 -302t-333 -102q-275 0 -438 123v400h233v-262q93 -41 201 -41q107 0 158 44t51 140
q0 87 -40.5 126.5t-142.5 53.5l-231 27q-258 41 -258 243z" />
    <glyph glyph-name="uni0E19" unicode="&#xe19;" horiz-adv-x="1280" 
d="M150 426v748h262v-713q0 -131 48.5 -194.5t153.5 -63.5q99 0 171.5 50t72.5 142v779h260v-1174h-260v195h-10q-36 -98 -116 -159t-210 -61q-177 0 -274.5 118t-97.5 333z" />
    <glyph glyph-name="uni0E1A" unicode="&#xe1a;" horiz-adv-x="1265" 
d="M150 485v689h262v-719q0 -130 53.5 -194t167.5 -64t167.5 64t53.5 194v719h260v-689q0 -261 -114.5 -385.5t-366.5 -124.5q-253 0 -368 124.5t-115 385.5z" />
    <glyph glyph-name="uni0E1B" unicode="&#xe1b;" horiz-adv-x="1265" 
d="M150 485v689h262v-719q0 -130 53.5 -194t167.5 -64t167.5 64t53.5 194v1142h260v-1112q0 -261 -114.5 -385.5t-366.5 -124.5q-253 0 -368 124.5t-115 385.5z" />
    <glyph glyph-name="uni0E1C" unicode="&#xe1c;" horiz-adv-x="1335" 
d="M154 0v877q0 158 58 227.5t200 69.5h196v-211h-196v-695l250 377h4l249 -377v906h259v-1174h-269l-239 369h-4l-240 -369h-268z" />
    <glyph glyph-name="uni0E1D" unicode="&#xe1d;" horiz-adv-x="1335" 
d="M154 0v870q0 158 58 227.5t200 69.5h196v-211h-194v-686l248 373h4l247 -373v1327h261v-1597h-271l-237 367h-4l-238 -367h-270z" />
    <glyph glyph-name="uni0E1E" unicode="&#xe1e;" horiz-adv-x="1513" 
d="M102 1174h248l84 -916h4l197 916h244l194 -916h6l84 916h248l-166 -1174h-297l-188 877h-6l-189 -877h-299z" />
    <glyph glyph-name="uni0E1F" unicode="&#xe1f;" horiz-adv-x="1443" 
d="M96 1174h246l86 -916h6l187 916h243l183 -916h6l100 1339h248l-182 -1597h-297l-177 877h-6l-180 -877h-297z" />
    <glyph glyph-name="uni0E20" unicode="&#xe20;" horiz-adv-x="1296" 
d="M84 0v207h147v131q0 124 53 196t148 91v10h-301v86q0 228 133.5 352.5t376.5 124.5q251 0 379.5 -126.5t128.5 -358.5v-713h-260v725q0 125 -66.5 191.5t-189.5 66.5q-226 0 -250 -182h246v-172q-86 -4 -119 -61.5t-33 -188.5v-125q0 -139 -56 -196.5t-190 -57.5h-147z
" />
    <glyph glyph-name="uni0E21" unicode="&#xe21;" horiz-adv-x="1286" 
d="M162 0v1174h260v-777q0 -94 72.5 -144t175.5 -50q106 0 155 64.5t49 197.5v709h261v-766q0 -207 -96 -320t-279 -113q-251 0 -328 211h-10v-186h-260z" />
    <glyph glyph-name="uni0E22" unicode="&#xe22;" horiz-adv-x="1230" 
d="M113 393v35q0 130 66 213.5t175 83.5h21v10q-105 13 -172.5 72.5t-67.5 155.5v8q0 93 62 148t178 55h211v-205h-207v-27q0 -88 50 -146.5t138 -58.5h37v-200h-229v-99q0 -118 56.5 -179.5t168.5 -61.5q113 0 167 64t54 194v719h260v-689q0 -261 -114.5 -385.5
t-366.5 -124.5q-234 0 -360.5 109.5t-126.5 308.5z" />
    <glyph glyph-name="uni0E23" unicode="&#xe23;" horiz-adv-x="1087" 
d="M80 207l170 155q132 -167 315 -167q81 0 132 37.5t51 101.5q0 123 -175 149l-73 13q-182 29 -272.5 109.5t-90.5 228.5q0 92 33 163t91.5 114t133 65t162.5 22q275 0 422 -192l-172 -152q-111 127 -256 127q-78 0 -124 -36.5t-46 -96.5q0 -119 170 -139l86 -13
q183 -24 267.5 -112t84.5 -238q0 -175 -117 -273t-315 -98q-294 0 -477 232z" />
    <glyph glyph-name="uni0E24" unicode="&#xe24;" horiz-adv-x="1273" 
d="M121 627v94q0 228 133 352.5t373 124.5q247 0 374 -126.5t127 -358.5v-1149h-260v1161q0 125 -64.5 191.5t-185.5 66.5q-217 0 -245 -182h237v-180q-114 -6 -162.5 -69.5t-48.5 -209.5v-131h189v-211h-166q-140 0 -210.5 71.5t-70.5 207.5v36q0 251 240 301v11h-260z" />
    <glyph glyph-name="uni0E25" unicode="&#xe25;" horiz-adv-x="1191" 
d="M92 348q0 165 107.5 253.5t312.5 88.5h276v62q0 112 -56.5 168.5t-176.5 56.5q-173 0 -283 -156l-161 148q66 107 183 168t277 61q236 0 356 -110.5t120 -327.5v-760h-259v500h-264q-86 0 -130 -32.5t-44 -92.5v-33q0 -62 41 -93.5t117 -31.5h110v-217h-141
q-183 0 -284 89.5t-101 258.5z" />
    <glyph glyph-name="uni0E26" unicode="&#xe26;" horiz-adv-x="1296" 
d="M84 0v207h147v131q0 124 53 196t148 91v10h-301v86q0 228 133.5 352.5t376.5 124.5q251 0 379.5 -126.5t128.5 -358.5v-1149h-260v1161q0 125 -66.5 191.5t-189.5 66.5q-226 0 -250 -182h246v-172q-86 -4 -119 -60.5t-33 -189.5v-125q0 -139 -56 -196.5t-190 -57.5h-147z
" />
    <glyph glyph-name="uni0E27" unicode="&#xe27;" horiz-adv-x="1093" 
d="M68 274l221 99q32 -84 81 -129t138 -45q103 0 161 71t58 201v234q0 128 -58 199t-161 71q-160 0 -207 -164l-229 102q53 134 167.5 209.5t276.5 75.5q235 0 357 -153.5t122 -456.5q0 -304 -121.5 -458.5t-355.5 -154.5q-162 0 -278.5 76t-171.5 223z" />
    <glyph glyph-name="uni0E28" unicode="&#xe28;" horiz-adv-x="1333" 
d="M145 0v707q0 230 128.5 357.5t369.5 127.5q197 0 311 -94v4q0 135 140 135h174v-197h-209v-34q88 -107 88 -299v-707h-260v711q0 124 -62 189t-178 65q-117 0 -178 -65t-61 -189v-219h8q50 198 248 198h71v-227h-104q-223 0 -223 -180v-283h-263z" />
    <glyph glyph-name="uni0E29" unicode="&#xe29;" horiz-adv-x="1298" 
d="M150 461v713h262v-717q0 -124 59 -189t170 -65q110 0 169.5 65t59.5 189v125h-229v221h229v371h252v-373h146v-219h-146v-121q0 -230 -125 -358t-360 -128q-234 0 -360.5 128.5t-126.5 357.5z" />
    <glyph glyph-name="uni0E2A" unicode="&#xe2a;" horiz-adv-x="1243" 
d="M100 348q0 167 109 254.5t323 87.5h263v55q0 226 -232 226q-174 0 -282 -156l-164 148q66 106 183 167.5t275 61.5q189 0 289 -84q3 129 142 129h172v-197h-207v-34q82 -88 82 -283v-723h-258v500h-265q-84 0 -128 -32.5t-44 -92.5v-33q0 -125 156 -125h111v-217h-140
q-184 0 -284.5 89.5t-100.5 258.5z" />
    <glyph glyph-name="uni0E2B" unicode="&#xe2b;" horiz-adv-x="1239" 
d="M162 0v1174h260v-402h205q105 0 154.5 57t49.5 156v189h267v-111q0 -119 -68.5 -191t-171.5 -98v-10q122 -22 187 -111t65 -239v-414h-254v360q0 107 -45 159t-137 52h-252v-571h-260z" />
    <glyph glyph-name="uni0E2C" unicode="&#xe2c;" horiz-adv-x="1470" 
d="M102 1174h248l84 -916h4l197 776h244l194 -776h6l70 700q8 83 -22 126.5t-97 43.5h-131v201h111q107 0 170 58.5t98 209.5h229q-17 -93 -39 -153.5t-53 -96t-65.5 -51.5t-85.5 -22v-8q74 -33 99.5 -107t10.5 -198l-129 -961h-297l-188 780h-6l-189 -780h-299z" />
    <glyph glyph-name="uni0E2D" unicode="&#xe2d;" horiz-adv-x="1193" 
d="M100 426v14q0 120 60 182t174 62h213v-205h-195v-43q0 -250 234 -250q115 0 175 66t60 194v254q0 132 -62 206.5t-179 74.5q-172 0 -244 -164l-225 113q59 131 177.5 199.5t286.5 68.5q256 0 388.5 -156t132.5 -444q0 -302 -129.5 -462.5t-380.5 -160.5
q-225 0 -355.5 120t-130.5 331z" />
    <glyph glyph-name="uni0E2E" unicode="&#xe2e;" horiz-adv-x="1245" 
d="M98 420v16q0 248 234 248h215v-205h-197v-43q0 -250 234 -250q116 0 176.5 66.5t60.5 193.5v254q0 132 -63 206.5t-180 74.5q-174 0 -242 -164l-227 113q58 130 174.5 199t275.5 69q206 0 324 -104q0 75 34 109t109 34h162v-197h-199v-49q107 -122 107 -393
q0 -302 -130 -462.5t-382 -160.5q-224 0 -355 118.5t-131 326.5z" />
    <glyph glyph-name="uni0E2F" unicode="&#xe2f;" horiz-adv-x="1142" 
d="M43 803q0 168 104 269.5t275 101.5h172v-205h-131q-75 0 -119.5 -41t-44.5 -113t45 -112.5t133 -40.5q113 0 179.5 83t66.5 242v187h258v-1174h-260l2 690h-12q-31 -100 -113 -168.5t-205 -68.5q-160 0 -255 94t-95 256z" />
    <glyph glyph-name="uni0E30" unicode="&#xe30;" horiz-adv-x="866" 
d="M125 340v158l250 2v-191h385v-227h-381q-123 0 -188.5 64.5t-65.5 193.5zM125 938v158l250 2v-191h385v-227h-381q-123 0 -188.5 64.5t-65.5 193.5z" />
    <glyph glyph-name="uni0E31" unicode="&#xe31;" 
d="M-625 1593v90h234v-163h440v-195h-399q-138 0 -206.5 65t-68.5 203z" />
    <glyph glyph-name="uni0E32" unicode="&#xe32;" horiz-adv-x="1015" 
d="M8 979q137 219 434 219q204 0 315 -106t111 -304v-788h-262v776q0 201 -178 201q-155 0 -254 -148z" />
    <glyph glyph-name="uni0E33" unicode="&#xe33;" horiz-adv-x="1013" 
d="M-510 1507v58q0 86 55 137t166 51q112 0 167.5 -51t55.5 -137v-58q0 -86 -55.5 -137t-167.5 -51q-111 0 -166 51t-55 137zM-367 1536q0 -82 78 -82q76 0 76 82q0 84 -76 84q-78 0 -78 -84zM6 979q137 219 434 219q204 0 315 -106t111 -304v-788h-260v776q0 201 -180 201
q-155 0 -254 -148z" />
    <glyph glyph-name="uni0E34" unicode="&#xe34;" 
d="M-1022 1325v195h870v-195h-870z" />
    <glyph glyph-name="uni0E35" unicode="&#xe35;" 
d="M-1012 1325v195h635v213h236v-152q0 -256 -252 -256h-619z" />
    <glyph glyph-name="uni0E36" unicode="&#xe36;" 
d="M-1024 1325v195h492v36q0 84 52 134.5t158 50.5q108 0 162 -50.5t54 -134.5v-49q0 -83 -54 -132.5t-162 -49.5h-2h-700zM-395 1534q0 -41 17.5 -60.5t55.5 -19.5q72 0 72 80t-72 80q-73 0 -73 -80z" />
    <glyph glyph-name="uni0E37" unicode="&#xe37;" 
d="M-1022 1325v195h350v213h209v-213h94v213h217v-152q0 -256 -251 -256h-619z" />
    <glyph glyph-name="uni0E38" unicode="&#xe38;" 
d="M-526 -139h164q109 0 159.5 -50t50.5 -157v-260h-208l-2 270h-164v197z" />
    <glyph glyph-name="uni0E39" unicode="&#xe39;" 
d="M-762 -139h125q94 0 138 -43.5t44 -136.5v-125h109l-2 305h196v-291q0 -83 -43.5 -126.5t-128.5 -43.5h-153q-85 0 -129.5 43.5t-44.5 126.5v106h-111v185z" />
    <glyph glyph-name="uni0E3A" unicode="&#xe3a;" 
d="M-440 -281q0 64 38.5 102t118.5 38t120 -38.5t40 -101.5v-38q0 -63 -40 -101.5t-120 -38.5t-118.5 38t-38.5 102v38z" />
    <glyph glyph-name="uni0E3F" unicode="&#xe3f;" horiz-adv-x="1347" 
d="M168 41v1348h403v208h199v-208h66q168 0 265 -94.5t97 -252.5q0 -135 -63.5 -202.5t-190.5 -85.5v-13q63 -6 115.5 -25t96.5 -54.5t68.5 -95t24.5 -138.5q0 -162 -101.5 -274.5t-252.5 -112.5h-125v-219h-199v219h-403zM420 258h166v363h-166v-363zM420 825h166v346h-166
v-346zM756 258h67q78 0 122 38.5t44 109.5v65q0 71 -44.5 110.5t-121.5 39.5h-67v-363zM756 825h32q72 0 111 36.5t39 105.5v63q0 69 -39 105t-111 36h-32v-346z" />
    <glyph glyph-name="uni0E40" unicode="&#xe40;" horiz-adv-x="649" 
d="M168 254v920h260v-955h184v-219h-186q-128 0 -193 66t-65 188z" />
    <glyph glyph-name="uni0E41" unicode="&#xe41;" horiz-adv-x="1236" 
d="M162 254v920h260v-955h184v-219h-186q-130 0 -194 65.5t-64 188.5zM754 254v920h262v-955h182v-219h-184q-130 0 -195 66t-65 188z" />
    <glyph glyph-name="uni0E42" unicode="&#xe42;" horiz-adv-x="745" 
d="M-4 1624v221h809v-217h-574v-8q271 -68 271 -528v-873h198v-219h-200q-128 0 -193 66t-65 188v973q0 181 -64 281.5t-182 115.5z" />
    <glyph glyph-name="uni0E43" unicode="&#xe43;" horiz-adv-x="761" 
d="M-31 1614q38 130 142 209.5t270 79.5q178 0 282.5 -96.5t104.5 -256.5q0 -136 -75.5 -227t-194.5 -117v-987h198v-219h-198q-130 0 -194 65.5t-64 188.5v1081q138 6 207 52.5t69 140.5v24q0 67 -39 104.5t-104 37.5q-143 0 -185 -183z" />
    <glyph glyph-name="uni0E44" unicode="&#xe44;" horiz-adv-x="735" 
d="M66 1628v217h710v-221q-140 -15 -217.5 -123.5t-77.5 -281.5v-1000h197v-219h-199q-130 0 -194 65.5t-64 188.5v844q0 226 81 356t233 166v8h-469z" />
    <glyph glyph-name="uni0E45" unicode="&#xe45;" horiz-adv-x="1024" 
d="M8 979q141 219 430 219q214 0 326.5 -110t112.5 -312v-1212h-263v1202q0 107 -45.5 156t-138.5 49q-151 0 -250 -148z" />
    <glyph glyph-name="uni0E46" unicode="&#xe46;" horiz-adv-x="1132" 
d="M76 803v28q0 367 348 367l86 -98h6l86 98q182 0 271.5 -81t89.5 -261v-1114h-261v1110q0 82 -17.5 113t-63.5 34l-107 -106h-4l-109 106q-42 0 -66 -32.5t-24 -92.5v-57q0 -66 31 -99.5t107 -33.5h65v-211h-88q-350 0 -350 330z" />
    <glyph glyph-name="uni0E47" unicode="&#xe47;" 
d="M-946 1534q0 103 65 165t172 62h453v-147h-440q-41 0 -62.5 -24t-21.5 -66q0 -84 73 -90l33 106h131q0 -102 62 -102q51 0 51 63v51h149v-96q0 -74 -37.5 -111.5t-97.5 -37.5q-64 0 -104 42t-47 119h-2l-9 -41q-18 -120 -149 -120q-102 0 -160.5 61.5t-58.5 165.5z" />
    <glyph glyph-name="uni0E48" unicode="&#xe48;" 
d="M-410 1325v404h244v-404h-244z" />
    <glyph glyph-name="uni0E49" unicode="&#xe49;" 
d="M-758 1540v197h125q128 0 178.5 -46t57.5 -171h323v-195h-530v215h-154z" />
    <glyph glyph-name="uni0E4A" unicode="&#xe4a;" 
d="M-831 1552q0 96 63 159t156 69l118 -82h2l121 82q89 -9 144 -65.5t55 -153.5v-62h135v-168h-309v217q0 60 -47 70l-94 -68l-105 68q-25 -4 -40 -24t-15 -46q0 -34 28.5 -53.5t77.5 -19.5h80v-144h-119q-122 0 -186.5 59t-64.5 162z" />
    <glyph glyph-name="uni0E4B" unicode="&#xe4b;" 
d="M-481 1423v260h59v60h301v-60h60v-260h-60v-59h-301v59h-59z" />
    <glyph glyph-name="uni0E4C" unicode="&#xe4c;" 
d="M-682 1337v99q0 138 68 203t206 65h215v-195h-264v-172h-225z" />
    <glyph glyph-name="uni0E4D" unicode="&#xe4d;" 
d="M-512 1501v58q0 84 55.5 136t165.5 52t165.5 -52t55.5 -136v-58q0 -86 -55 -138t-166 -52t-166 52t-55 138zM-365 1530q0 -80 74 -80q70 0 70 80t-70 80q-74 0 -74 -80z" />
    <glyph glyph-name="uni0E4E" unicode="&#xe4e;" 
d="M-627 1325v127q0 172 158 172h49v16q0 160 176 160h160v-172h-166v-170h-174v-133h-203z" />
    <glyph glyph-name="uni0E4F" unicode="&#xe4f;" horiz-adv-x="1144" 
d="M96 553q0 223 133 367.5t344 144.5t344.5 -144.5t133.5 -367.5t-133.5 -367.5t-344.5 -144.5t-344 144.5t-133 367.5zM305 471q0 -117 74 -184.5t194 -67.5q119 0 193 67.5t74 184.5v164q0 117 -74 184.5t-193 67.5q-120 0 -194 -67.5t-74 -184.5v-164zM393 508v90
q0 82 49.5 128t130.5 46q80 0 129.5 -46t49.5 -128v-90q0 -82 -49.5 -128t-129.5 -46q-81 0 -130.5 46t-49.5 128z" />
    <glyph glyph-name="uni0E50" unicode="&#xe50;" horiz-adv-x="1153" 
d="M82 535q0 258 133 408.5t360 150.5q229 0 362.5 -150.5t133.5 -408.5q0 -257 -134 -408.5t-362 -151.5q-227 0 -360 151.5t-133 408.5zM350 436q0 -121 60.5 -186.5t164.5 -65.5q106 0 167 65.5t61 186.5v197q0 121 -61 186.5t-167 65.5q-104 0 -164.5 -65.5
t-60.5 -186.5v-197z" />
    </font>
</defs>
</svg>
