<?xml version="1.0" standalone="no"?>
<!DOCTYPE svg PUBLIC "-//W3C//DTD SVG 1.1//EN" "http://www.w3.org/Graphics/SVG/1.1/DTD/svg11.dtd" >
<svg xmlns="http://www.w3.org/2000/svg" xmlns:xlink="http://www.w3.org/1999/xlink" version="1.1">
<metadata>
Created by FontForge 20201107 at Mon Feb 12 13:19:48 2024
 By 
Copyright (c) 2019 by Mike Abbink, Paul van der Laan, Pieter van Rosmalen, Mint Tantisuwanna. All rights reserved.
</metadata>
<defs>
<font id="Anuphan-Medium" horiz-adv-x="0" >
  <font-face 
    font-family="Anuphan Medium"
    font-weight="500"
    font-stretch="normal"
    units-per-em="2048"
    panose-1="2 11 5 3 5 2 3 0 2 3"
    ascent="1597"
    descent="-451"
    x-height="1063"
    cap-height="1430"
    bbox="-1221 -575 2603 2312"
    underline-thickness="149"
    underline-position="-244"
    unicode-range="U+0020-FB02"
  />
<missing-glyph horiz-adv-x="966" 
d="M66 0v1597h835v-1597h-835zM215 150h537v1298h-537v-1298z" />
    <glyph glyph-name="fi" unicode="fi" horiz-adv-x="1216" 
d="M53 889v174h166v184q0 127 67 198t195 71h172v-175h-223v-278h623v-1063h-211v889h-412v-889h-211v889h-166zM821 1378v33q0 52 31.5 81.5t95.5 29.5q62 0 93.5 -30t31.5 -81v-33q0 -52 -31.5 -82t-93.5 -30q-64 0 -95.5 30t-31.5 82z" />
    <glyph glyph-name="fl" unicode="fl" horiz-adv-x="1267" 
d="M53 889v174h166v184q0 127 67 198t195 71h172v-175h-223v-278h223v-174h-223v-889h-211v889h-166zM852 211v1305h211v-1342h147v-174h-141q-107 0 -162 56t-55 155z" />
    <glyph glyph-name="uni0E240E45" unicode="&#xe24;&#xe45;" horiz-adv-x="2045" 
d="M125 651v99q0 213 127.5 329.5t357.5 116.5q174 0 288.5 -66t164.5 -190h12q36 111 139 183.5t252 72.5q200 0 312 -121t112 -334v-1165h-215v1133q0 148 -72.5 225.5t-213.5 77.5q-130 0 -209.5 -69t-79.5 -200v-1167h-215v1157q0 136 -72.5 208.5t-206.5 72.5
q-123 0 -192.5 -54.5t-81.5 -160.5h254v-154q-119 -5 -172.5 -68t-53.5 -202v-197h197v-178h-147q-260 0 -260 276v58q0 135 61.5 210.5t165.5 98.5v8h-252z" />
    <glyph glyph-name="uni0E260E45" unicode="&#xe26;&#xe45;" horiz-adv-x="2074" 
d="M84 0v174h147v176q0 129 56.5 202t148.5 95v8h-299v95q0 213 130 329.5t362 116.5q182 0 298.5 -66t164.5 -190h12q36 111 139 183.5t252 72.5q200 0 312 -121t112 -334v-1165h-215v1133q0 148 -73 225.5t-214 77.5q-130 0 -209.5 -69t-79.5 -200v-12v-1155h-215v1157
q0 135 -75 208t-213 73q-131 0 -200 -52.5t-81 -162.5h268v-148q-97 -4 -136.5 -68t-39.5 -190v-141q0 -144 -51 -198t-182 -54h-119z" />
    <glyph glyph-name=".notdef" horiz-adv-x="966" 
d="M66 0v1597h835v-1597h-835zM215 150h537v1298h-537v-1298z" />
    <glyph glyph-name=".null" 
 />
    <glyph glyph-name="nonmarkingreturn" horiz-adv-x="682" 
 />
    <glyph glyph-name="space" unicode=" " horiz-adv-x="483" 
 />
    <glyph glyph-name="exclam" unicode="!" horiz-adv-x="606" 
d="M160 106v35q0 60 35.5 95.5t107.5 35.5t107.5 -35.5t35.5 -95.5v-35q0 -61 -35.5 -96t-107.5 -35t-107.5 35t-35.5 96zM190 1020v410h228v-410l-66 -617h-96z" />
    <glyph glyph-name="quotedbl" unicode="&#x22;" horiz-adv-x="909" 
d="M162 911v605h188v-605h-188zM557 911v605h188v-605h-188z" />
    <glyph glyph-name="numbersign" unicode="#" horiz-adv-x="1404" 
d="M90 397v144h268l58 348h-242v143h268l68 398h152l-70 -398h319l70 398h152l-70 -398h244v-143h-269l-59 -348h244v-144h-269l-69 -397h-150l70 397h-320l-69 -397h-152l70 397h-244zM508 541h319l60 348h-320z" />
    <glyph glyph-name="dollar" unicode="$" horiz-adv-x="1226" 
d="M92 242l144 127q132 -164 313 -189v473q-215 47 -314.5 142.5t-99.5 251.5q0 160 108 257.5t296 116.5v176h163v-174q255 -26 402 -217l-146 -119q-101 135 -266 160v-432q226 -51 326 -142.5t100 -250.5q0 -169 -110 -279t-306 -133v-178h-163v174q-274 21 -447 236z
M338 1057q0 -86 49.5 -132.5t161.5 -78.5v403q-100 -14 -155.5 -63.5t-55.5 -128.5zM692 182q104 17 163.5 77t59.5 149q0 85 -50.5 136t-172.5 81v-443z" />
    <glyph glyph-name="percent" unicode="%" horiz-adv-x="1931" 
d="M123 1049q0 197 87.5 301t250.5 104q164 0 252 -104t88 -301t-88 -301.5t-252 -104.5q-163 0 -250.5 104.5t-87.5 301.5zM309 989q0 -217 152 -217q153 0 153 217v119q0 217 -153 217q-152 0 -152 -217v-119zM373 0l991 1430h195l-992 -1430h-194zM1130 381
q0 197 87.5 301t250.5 104q164 0 252 -104t88 -301t-88 -301.5t-252 -104.5q-163 0 -250.5 104.5t-87.5 301.5zM1317 322q0 -218 151 -218q154 0 154 218v118q0 217 -154 217q-151 0 -151 -217v-118z" />
    <glyph glyph-name="ampersand" unicode="&#x26;" horiz-adv-x="1439" 
d="M133 373q0 75 22.5 137t66.5 110t90.5 83t111.5 71q-162 173 -162 336q0 148 107.5 246t281.5 98q162 0 264.5 -86t102.5 -227q0 -67 -23.5 -125t-69.5 -105.5t-97 -84t-123 -76.5l288 -312q56 141 66 326h299v-176h-139q-29 -157 -97 -287l281 -301h-264l-140 152
q-163 -177 -413 -177q-213 0 -333 112t-120 286zM348 377q0 -101 70 -161t192 -60q167 0 277 116l-357 385q-60 -34 -95.5 -63t-61 -77.5t-25.5 -110.5v-29zM467 1100q0 -53 31.5 -107.5t97.5 -128.5q102 57 161.5 117t59.5 131v18q0 71 -50.5 113.5t-123.5 42.5
q-76 0 -126 -48t-50 -120v-18z" />
    <glyph glyph-name="quotesingle" unicode="'" horiz-adv-x="514" 
d="M162 911v605h188v-605h-188z" />
    <glyph glyph-name="parenleft" unicode="(" horiz-adv-x="688" 
d="M139 639q0 287 102.5 533t264.5 384h199q-169 -154 -269 -380.5t-100 -456.5v-164q0 -232 101 -459.5t268 -376.5h-201q-158 135 -261.5 383.5t-103.5 536.5z" />
    <glyph glyph-name="parenright" unicode=")" horiz-adv-x="688" 
d="M-16 -281q167 148 267.5 376t100.5 460v164q0 230 -99.5 456.5t-268.5 380.5h198q162 -138 264.5 -384t102.5 -533q0 -288 -103.5 -536.5t-261.5 -383.5h-200z" />
    <glyph glyph-name="asterisk" unicode="*" horiz-adv-x="1024" 
d="M72 1149l55 170l307 -119l-14 330h184l-14 -330l307 119l57 -170l-319 -90l211 -262l-148 -105l-186 279l-186 -279l-148 105l211 262z" />
    <glyph glyph-name="plus" unicode="+" horiz-adv-x="1228" 
d="M137 539v174h381v409h193v-409h381v-174h-381v-412h-193v412h-381z" />
    <glyph glyph-name="comma" unicode="," horiz-adv-x="583" 
d="M80 -283q68 70 108.5 131.5t59.5 133.5q-98 20 -98 124v33q0 62 36 98.5t107 36.5t107 -36.5t36 -98.5v-33q0 -99 -53.5 -207t-142.5 -182h-160z" />
    <glyph glyph-name="hyphen" unicode="-" horiz-adv-x="819" 
d="M131 516v215h559v-215h-559z" />
    <glyph glyph-name="period" unicode="." horiz-adv-x="583" 
d="M147 111v30q0 61 36.5 97t107.5 36t107 -36t36 -97v-30q0 -61 -36 -98.5t-107 -37.5t-107.5 37.5t-36.5 98.5z" />
    <glyph glyph-name="slash" unicode="index.html" horiz-adv-x="837" 
d="M14 -309l559 1825h183l-559 -1825h-183z" />
    <glyph glyph-name="zero" unicode="0" horiz-adv-x="1228" 
d="M102 715q0 358 126.5 548.5t385.5 190.5t385.5 -190.5t126.5 -548.5t-126.5 -549t-385.5 -191t-385.5 191t-126.5 549zM334 592q0 -430 280 -430q281 0 281 430v246q0 430 -281 430q-280 0 -280 -430v-246z" />
    <glyph glyph-name="one" unicode="1" horiz-adv-x="1228" 
d="M94 1042l367 388h336v-1246h346v-184h-959v184h396v1086h-17l-338 -350z" />
    <glyph glyph-name="two" unicode="2" horiz-adv-x="1228" 
d="M123 1108q23 71 60.5 130t94.5 109t140.5 78.5t185.5 28.5q212 0 333.5 -116.5t121.5 -303.5q0 -83 -24 -157t-74 -142.5t-103.5 -123t-134.5 -124.5l-346 -301h727v-186h-963v211l459 412q112 102 169.5 195t57.5 188v24q0 106 -63.5 170t-173.5 64q-212 0 -275 -230z
" />
    <glyph glyph-name="three" unicode="3" horiz-adv-x="1228" 
d="M68 229l161 125q58 -95 131.5 -143.5t190.5 -48.5q134 0 206 62t72 177v17q0 112 -74 172.5t-212 60.5h-156v187h148q131 0 199.5 57.5t68.5 151.5v14q0 98 -64 152.5t-172 54.5q-192 0 -293 -174l-149 125q160 235 448 235q203 0 331 -98.5t128 -268.5q0 -131 -77 -216
t-197 -113v-10q130 -25 214.5 -116t84.5 -239q0 -187 -139 -302.5t-365 -115.5q-94 0 -172.5 20.5t-136 58.5t-98.5 79.5t-78 95.5z" />
    <glyph glyph-name="four" unicode="4" horiz-adv-x="1228" 
d="M72 279v188l585 963h291v-977h199v-174h-199v-279h-207v279h-669zM262 453h479v782h-12z" />
    <glyph glyph-name="five" unicode="5" horiz-adv-x="1228" 
d="M137 229l160 125q60 -97 126.5 -144.5t180.5 -47.5q134 0 204.5 72t70.5 202v19q0 128 -70.5 199t-200.5 71q-84 0 -140 -31t-106 -84l-180 25l51 795h803v-191h-635l-36 -514h14q36 60 71 96.5t92.5 60t135.5 23.5q188 0 309 -120t121 -326q0 -216 -135 -350t-369 -134
q-90 0 -165 20.5t-131 58.5t-95.5 79.5t-75.5 95.5z" />
    <glyph glyph-name="six" unicode="6" horiz-adv-x="1228" 
d="M121 530q0 149 46 292.5t122.5 257t162.5 201t179 149.5h289q-127 -92 -215.5 -169.5t-163 -166t-121.5 -186t-74 -212.5l12 -4q112 207 336 207q184 0 302 -120t118 -320q0 -215 -136.5 -349.5t-359.5 -134.5q-232 0 -364.5 149t-132.5 406zM346 428q0 -130 71 -201
t199 -71q129 0 201 71t72 201v23q0 131 -71.5 202.5t-201.5 71.5q-128 0 -199 -71.5t-71 -202.5v-23z" />
    <glyph glyph-name="seven" unicode="7" horiz-adv-x="1228" 
d="M131 983v447h963v-191l-510 -1239h-232l525 1247h-555v-264h-191z" />
    <glyph glyph-name="eight" unicode="8" horiz-adv-x="1228" 
d="M106 389q0 138 76.5 226.5t210.5 125.5v17q-113 39 -178 125.5t-65 206.5q0 165 123 264.5t341 99.5t341.5 -99.5t123.5 -264.5q0 -120 -65 -206.5t-178 -125.5v-17q134 -37 210 -125.5t76 -226.5q0 -183 -134 -298.5t-374 -115.5t-374 115.5t-134 298.5zM336 385
q0 -109 72.5 -170t205.5 -61t206 61t73 170v43q0 109 -73 170t-206 61t-205.5 -61t-72.5 -170v-43zM365 1036q0 -99 64 -153t185 -54t185.5 54t64.5 153v33q0 99 -64.5 153t-185.5 54t-185 -54t-64 -153v-33z" />
    <glyph glyph-name="nine" unicode="9" horiz-adv-x="1228" 
d="M115 971q0 215 136 349t359 134q233 0 365.5 -149t132.5 -406q0 -120 -31 -238t-81 -213.5t-118 -183t-137.5 -151.5t-142.5 -113h-289q256 185 389.5 348t184.5 385l-13 4q-112 -207 -335 -207q-184 0 -302 120.5t-118 320.5zM340 979q0 -131 71 -202.5t201 -71.5
q128 0 199.5 71.5t71.5 202.5v22q0 130 -71.5 201.5t-199.5 71.5q-129 0 -200.5 -71.5t-71.5 -201.5v-22z" />
    <glyph glyph-name="colon" unicode=":" horiz-adv-x="624" 
d="M168 111v30q0 61 36 97t107 36t107.5 -36t36.5 -97v-30q0 -61 -36.5 -98.5t-107.5 -37.5t-107 37.5t-36 98.5zM168 922v30q0 61 36 98t107 37t107.5 -37t36.5 -98v-30q0 -61 -36.5 -97.5t-107.5 -36.5t-107 36.5t-36 97.5z" />
    <glyph glyph-name="semicolon" unicode=";" horiz-adv-x="624" 
d="M100 -283q68 70 108.5 131.5t59.5 133.5q-98 20 -98 124v33q0 62 36 98.5t107 36.5t107.5 -36.5t36.5 -98.5v-33q0 -99 -54 -207t-143 -182h-160zM168 922v30q0 61 36 98t107 37t107.5 -37t36.5 -98v-30q0 -61 -36.5 -97.5t-107.5 -36.5t-107 36.5t-36 97.5z" />
    <glyph glyph-name="less" unicode="&#x3c;" horiz-adv-x="1228" 
d="M193 500v168l843 518v-217l-635 -377v-17l635 -376v-217z" />
    <glyph glyph-name="equal" unicode="=" horiz-adv-x="1228" 
d="M137 324v174h955v-174h-955zM137 756v172h955v-172h-955z" />
    <glyph glyph-name="greater" unicode="&#x3e;" horiz-adv-x="1228" 
d="M193 -18v217l634 376v17l-634 377v217l843 -516v-170z" />
    <glyph glyph-name="question" unicode="?" horiz-adv-x="993" 
d="M41 1124q41 143 153 236.5t295 93.5q198 0 316.5 -108.5t118.5 -290.5q0 -90 -31.5 -165t-85.5 -124.5t-118 -81t-136 -45.5v-197h-201v330q167 6 256.5 72.5t89.5 189.5v29q0 95 -58.5 150t-156.5 55q-102 0 -168 -59.5t-90 -157.5zM311 106v35q0 60 36 95.5t108 35.5
t107.5 -35.5t35.5 -95.5v-35q0 -61 -35.5 -96t-107.5 -35t-108 35t-36 96z" />
    <glyph glyph-name="at" unicode="@" horiz-adv-x="1832" 
d="M131 592q0 252 98.5 446.5t282.5 303t426 108.5q158 0 295 -48t243.5 -141.5t168 -245t61.5 -345.5q0 -152 -38.5 -267t-123 -184t-205.5 -69q-99 0 -156.5 49t-66.5 133h-8q-73 -180 -248 -180q-148 0 -245 114.5t-97 327.5q0 212 97 326t245 114q86 0 142 -43t83 -114
h11v139h170v-598q0 -69 25 -97t79 -28q86 0 134 91t48 257v82q0 264 -174 425t-442 161q-191 0 -340 -86t-230 -236.5t-81 -337.5v-106q0 -287 177 -467t466 -180h458v-144h-460q-241 0 -421.5 104.5t-277 295t-96.5 440.5zM711 516q0 -98 50.5 -155.5t145.5 -57.5
q88 0 138.5 47.5t50.5 126.5v246q0 70 -50.5 115t-138.5 45q-95 0 -145.5 -57t-50.5 -154v-156z" />
    <glyph glyph-name="A" unicode="A" horiz-adv-x="1343" 
d="M45 0l490 1430h274l489 -1430h-229l-129 395h-545l-129 -395h-221zM449 584h438l-215 645h-10z" />
    <glyph glyph-name="B" unicode="B" horiz-adv-x="1347" 
d="M180 0v1430h623q176 0 277.5 -100.5t101.5 -268.5q0 -77 -21.5 -136t-58 -93t-77 -52t-85.5 -22v-13q46 -2 94 -21t94 -56t75.5 -104t29.5 -152q0 -174 -105.5 -293t-263.5 -119h-684zM397 188h404q95 0 149 50t54 141v70q0 91 -54 140.5t-149 49.5h-404v-451zM397 821
h367q89 0 138.5 46.5t49.5 129.5v68q0 84 -49 130t-139 46h-367v-420z" />
    <glyph glyph-name="C" unicode="C" horiz-adv-x="1292" 
d="M113 707q0 356 158.5 551.5t437.5 195.5q358 0 505 -321l-182 -103q-40 109 -120.5 169.5t-202.5 60.5q-168 0 -265.5 -119t-97.5 -322v-219q0 -202 97 -316t266 -114q124 0 210 66t128 178l176 -107q-74 -159 -203.5 -245.5t-310.5 -86.5q-281 0 -438.5 188.5
t-157.5 543.5z" />
    <glyph glyph-name="D" unicode="D" horiz-adv-x="1392" 
d="M180 0v1430h498q280 0 440 -182.5t160 -532.5t-160 -532.5t-440 -182.5h-498zM397 193h281q168 0 268.5 106.5t100.5 300.5v229q0 194 -100.5 301t-268.5 107h-281v-1044z" />
    <glyph glyph-name="E" unicode="E" horiz-adv-x="1210" 
d="M180 0v1430h905v-193h-688v-418h629v-192h-629v-434h688v-193h-905z" />
    <glyph glyph-name="F" unicode="F" horiz-adv-x="1163" 
d="M180 0v1430h883v-193h-666v-418h596v-192h-596v-627h-217z" />
    <glyph glyph-name="G" unicode="G" horiz-adv-x="1439" 
d="M113 713q0 352 168 546.5t454 194.5q186 0 321 -83.5t210 -235.5l-181 -107q-44 108 -133.5 170t-216.5 62q-176 0 -282.5 -115.5t-106.5 -313.5v-231q0 -200 107 -315t292 -115q146 0 241 73t95 208v116h-299v189h510v-756h-192v215h-8q-24 -106 -126.5 -173t-260.5 -67
q-129 0 -237 48.5t-187 140t-123.5 232.5t-44.5 317z" />
    <glyph glyph-name="H" unicode="H" horiz-adv-x="1460" 
d="M180 0v1430h217v-611h664v611h219v-1430h-219v627h-664v-627h-217z" />
    <glyph glyph-name="I" unicode="I" horiz-adv-x="841" 
d="M117 0v178h194v1073h-194v179h608v-179h-195v-1073h195v-178h-608z" />
    <glyph glyph-name="J" unicode="J" horiz-adv-x="1077" 
d="M55 328l201 43q41 -201 223 -201q99 0 155 60.5t56 179.5v835h-473v185h690v-1045q0 -186 -117.5 -298t-312.5 -112q-176 0 -284 94.5t-138 258.5z" />
    <glyph glyph-name="K" unicode="K" horiz-adv-x="1341" 
d="M180 0v1430h217v-734h9l204 258l396 476h258l-516 -605l555 -825h-265l-442 676l-199 -225v-451h-217z" />
    <glyph glyph-name="L" unicode="L" horiz-adv-x="1046" 
d="M180 0v1430h217v-1237h588v-193h-805z" />
    <glyph glyph-name="M" unicode="M" horiz-adv-x="1667" 
d="M180 0v1430h262l389 -738h9l391 738h258v-1430h-211v1116h-8l-115 -229l-321 -584l-320 582l-117 235h-8v-1120h-209z" />
    <glyph glyph-name="N" unicode="N" horiz-adv-x="1460" 
d="M180 0v1430h246l477 -807l162 -308h6v1115h209v-1430h-246l-479 807l-160 307h-6v-1114h-209z" />
    <glyph glyph-name="O" unicode="O" horiz-adv-x="1454" 
d="M113 715q0 355 164.5 547t449.5 192t449.5 -192t164.5 -547t-164.5 -547.5t-449.5 -192.5t-449.5 192.5t-164.5 547.5zM346 600q0 -197 105 -313.5t276 -116.5t276 116.5t105 313.5v229q0 197 -105 314t-276 117t-276 -117t-105 -314v-229z" />
    <glyph glyph-name="P" unicode="P" horiz-adv-x="1275" 
d="M180 0v1430h604q193 0 302.5 -115.5t109.5 -310.5t-109.5 -309.5t-302.5 -114.5h-387v-580h-217zM397 770h375q91 0 142 47.5t51 136.5v101q0 89 -51 136.5t-142 47.5h-375v-469z" />
    <glyph glyph-name="Q" unicode="Q" horiz-adv-x="1454" 
d="M113 715q0 355 164.5 547t449.5 192t449.5 -192t164.5 -547q0 -316 -132 -504t-365 -225v-156h219v-180h-205q-108 0 -163.5 57t-55.5 156v117q-246 30 -386 220t-140 515zM346 600q0 -197 105 -313.5t276 -116.5t276 116.5t105 313.5v229q0 197 -105 314t-276 117
t-276 -117t-105 -314v-229z" />
    <glyph glyph-name="R" unicode="R" horiz-adv-x="1333" 
d="M180 0v1430h604q192 0 302 -112t110 -310q0 -155 -71.5 -259.5t-206.5 -140.5l311 -608h-244l-291 584h-297v-584h-217zM397 770h375q91 0 142 47.5t51 136.5v101q0 89 -51 136.5t-142 47.5h-375v-469z" />
    <glyph glyph-name="S" unicode="S" horiz-adv-x="1218" 
d="M84 219l152 139q152 -190 376 -190q137 0 211 64t74 174q0 89 -52.5 139t-178.5 76l-125 24q-207 39 -310.5 138t-103.5 266q0 189 134 297t360 108q310 0 481 -223l-156 -131q-122 162 -338 162q-126 0 -195 -52.5t-69 -150.5q0 -90 56 -136.5t180 -72.5l125 -25
q212 -44 310.5 -142t98.5 -265q0 -202 -136 -322.5t-376 -120.5q-328 0 -518 244z" />
    <glyph glyph-name="T" unicode="T" horiz-adv-x="1179" 
d="M49 1237v193h1081v-193h-432v-1237h-217v1237h-432z" />
    <glyph glyph-name="U" unicode="U" horiz-adv-x="1398" 
d="M170 586v844h215v-883q0 -192 73 -284.5t242 -92.5q168 0 241 93t73 284v883h215v-844q0 -319 -123 -465t-410 -146t-406.5 145t-119.5 466z" />
    <glyph glyph-name="V" unicode="V" horiz-adv-x="1275" 
d="M37 1430h227l230 -709l141 -508h10l143 508l230 709h221l-477 -1430h-254z" />
    <glyph glyph-name="W" unicode="W" horiz-adv-x="1880" 
d="M47 1430h223l252 -1176h6l119 487l172 689h244l170 -689l119 -487h6l106 487l154 689h215l-354 -1430h-246l-184 733l-111 455h-4l-115 -455l-186 -733h-246z" />
    <glyph glyph-name="X" unicode="X" horiz-adv-x="1296" 
d="M43 0l465 731l-449 699h258l332 -541h6l338 541h244l-453 -697l469 -733h-258l-354 575h-4l-350 -575h-244z" />
    <glyph glyph-name="Y" unicode="Y" horiz-adv-x="1253" 
d="M25 1430h245l357 -650h6l352 650h244l-496 -863v-567h-219v563z" />
    <glyph glyph-name="Z" unicode="Z" horiz-adv-x="1206" 
d="M76 0v197l784 1040h-743v193h989v-197l-787 -1040h811v-193h-1054z" />
    <glyph glyph-name="bracketleft" unicode="[" horiz-adv-x="661" 
d="M180 -283v1839h365v-157h-178v-1524h178v-158h-365z" />
    <glyph glyph-name="backslash" unicode="\" horiz-adv-x="837" 
d="M80 1516h180l557 -1825h-180z" />
    <glyph glyph-name="bracketright" unicode="]" horiz-adv-x="661" 
d="M117 -125h176v1524h-176v157h364v-1839h-364v158z" />
    <glyph glyph-name="asciicircum" unicode="^" horiz-adv-x="1228" 
d="M96 676l420 754h199l418 -754l-164 -82l-353 625h-8l-352 -625z" />
    <glyph glyph-name="underscore" unicode="_" horiz-adv-x="1150" 
d="M61 -176h1029v-178h-1029v178z" />
    <glyph glyph-name="grave" unicode="`" horiz-adv-x="1228" 
d="M358 1532l183 88l184 -365l-131 -61z" />
    <glyph glyph-name="a" unicode="a" horiz-adv-x="1118" 
d="M84 293q0 157 114.5 237t338.5 80h196v92q0 211 -225 211q-165 0 -256 -147l-127 115q118 206 395 206q202 0 313 -96.5t111 -271.5v-545h113v-174h-117q-155 0 -186 160l-4 18h-11q-30 -99 -111 -151t-198 -52q-163 0 -254.5 86t-91.5 232zM299 287q0 -71 49.5 -109.5
t136.5 -38.5q107 0 177.5 48.5t70.5 125.5v158h-194q-240 0 -240 -145v-39z" />
    <glyph glyph-name="b" unicode="b" horiz-adv-x="1206" 
d="M164 0v1516h209v-627h10q35 95 114 146.5t187 51.5q201 0 313.5 -147.5t112.5 -407.5q0 -261 -112.5 -409t-313.5 -148q-106 0 -184 52t-117 147h-10v-174h-209zM373 352q0 -91 70.5 -143.5t177.5 -52.5q121 0 193.5 78t72.5 206v183q0 128 -72.5 206t-193.5 78
q-104 0 -176 -53t-72 -135v-367z" />
    <glyph glyph-name="c" unicode="c" horiz-adv-x="1040" 
d="M88 532q0 257 127 406t354 149q155 0 258 -68.5t150 -189.5l-174 -81q-24 76 -84 119.5t-150 43.5q-124 0 -191 -78t-67 -208v-187q0 -130 67 -208t191 -78q182 0 258 176l158 -86q-52 -129 -158 -198t-258 -69q-227 0 -354 150t-127 407z" />
    <glyph glyph-name="d" unicode="d" horiz-adv-x="1206" 
d="M98 532q0 260 112.5 407.5t311.5 147.5q108 0 188 -51.5t115 -146.5h9v627h210v-1516h-210v174h-9q-40 -95 -118.5 -147t-184.5 -52q-199 0 -311.5 148t-112.5 409zM319 440q0 -128 73 -206t194 -78q107 0 177.5 52.5t70.5 143.5v367q0 82 -72 135t-176 53
q-121 0 -194 -78t-73 -206v-183z" />
    <glyph glyph-name="e" unicode="e" horiz-adv-x="1132" 
d="M88 532q0 253 131 404t354 151q112 0 202.5 -40.5t148.5 -112t89 -167t31 -206.5v-82h-737v-39q0 -129 77 -209.5t212 -80.5q188 0 283 165l127 -118q-58 -102 -170 -162t-258 -60q-225 0 -357.5 151t-132.5 406zM307 621h516v20q0 127 -67.5 204t-180.5 77
q-119 0 -193.5 -80t-74.5 -207v-14z" />
    <glyph glyph-name="f" unicode="f" horiz-adv-x="688" 
d="M53 889v174h166v184q0 127 67 198t195 71h172v-175h-223v-278h223v-174h-223v-889h-211v889h-166z" />
    <glyph glyph-name="g" unicode="g" horiz-adv-x="1097" 
d="M74 -178q0 165 178 205v22q-115 42 -115 162q0 141 189 186v9q-94 44 -145.5 127t-51.5 190q0 165 112 264.5t308 99.5q110 0 194 -34v26q0 71 34 109.5t102 38.5h161v-170h-213v-49q69 -47 105.5 -120.5t36.5 -164.5q0 -164 -111.5 -262.5t-308.5 -98.5q-73 0 -131 15
q-47 -15 -78 -43t-31 -66q0 -80 152 -80h254q375 0 375 -292q0 -166 -130 -248t-407 -82q-251 0 -365 65t-114 191zM254 -129q0 -69 55 -109.5t172 -40.5h144q266 0 266 154q0 125 -201 125h-358q-78 -46 -78 -129zM338 700q0 -91 55.5 -137.5t155.5 -46.5q101 0 156 46.5
t55 137.5v48q0 92 -55 139t-156 47q-100 0 -155.5 -47t-55.5 -139v-48z" />
    <glyph glyph-name="h" unicode="h" horiz-adv-x="1181" 
d="M164 0v1516h209v-629h10q80 200 299 200q164 0 256 -108t92 -303v-676h-211v649q0 258 -209 258q-98 0 -167.5 -48.5t-69.5 -137.5v-721h-209z" />
    <glyph glyph-name="i" unicode="i" horiz-adv-x="536" 
d="M143 1378v33q0 52 30.5 81.5t94.5 29.5t94.5 -29.5t30.5 -81.5v-33q0 -52 -31 -82t-94 -30t-94 30t-31 82zM164 0v1063h209v-1063h-209z" />
    <glyph glyph-name="j" unicode="j" horiz-adv-x="536" 
d="M-4 -236h168v1299h209v-1210q0 -124 -63 -193.5t-191 -69.5h-123v174zM143 1378v33q0 52 30.5 81.5t94.5 29.5t94.5 -29.5t30.5 -81.5v-33q0 -52 -31 -82t-94 -30t-94 30t-31 82z" />
    <glyph glyph-name="k" unicode="k" horiz-adv-x="1114" 
d="M164 0v1516h209v-938h10l152 186l272 299h244l-381 -416l420 -647h-252l-314 510l-151 -158v-352h-209z" />
    <glyph glyph-name="l" unicode="l" horiz-adv-x="577" 
d="M164 211v1305h209v-1342h149v-174h-143q-105 0 -160 56t-55 155z" />
    <glyph glyph-name="m" unicode="m" horiz-adv-x="1802" 
d="M164 0v1063h209v-176h10q38 93 105.5 146.5t181.5 53.5q110 0 193 -54t122 -161h4q31 94 115.5 154.5t208.5 60.5q160 0 249 -107.5t89 -303.5v-676h-211v649q0 258 -203 258q-94 0 -159.5 -48.5t-65.5 -137.5v-721h-211v649q0 258 -201 258q-93 0 -160 -48.5t-67 -137.5
v-721h-209z" />
    <glyph glyph-name="n" unicode="n" horiz-adv-x="1181" 
d="M164 0v1063h209v-176h10q80 200 299 200q164 0 256 -108t92 -303v-676h-211v649q0 258 -209 258q-98 0 -167.5 -48.5t-69.5 -137.5v-721h-209z" />
    <glyph glyph-name="o" unicode="o" horiz-adv-x="1148" 
d="M88 532q0 253 132.5 404t354.5 151q220 0 353 -151t133 -404q0 -254 -133 -405.5t-353 -151.5q-222 0 -354.5 151t-132.5 406zM311 444q0 -143 71 -217.5t193 -74.5q121 0 192 75t71 217v174q0 142 -71 217.5t-192 75.5q-122 0 -193 -75t-71 -218v-174z" />
    <glyph glyph-name="p" unicode="p" horiz-adv-x="1206" 
d="M164 -410v1473h209v-174h10q35 95 114 146.5t187 51.5q201 0 313.5 -147.5t112.5 -407.5q0 -261 -112.5 -409t-313.5 -148q-106 0 -184 52t-117 147h-10v-584h-209zM373 352q0 -91 70.5 -143.5t177.5 -52.5q121 0 193.5 78t72.5 206v183q0 128 -72.5 206t-193.5 78
q-104 0 -176 -53t-72 -135v-367z" />
    <glyph glyph-name="q" unicode="q" horiz-adv-x="1206" 
d="M98 532q0 260 112.5 407.5t311.5 147.5q108 0 188 -51.5t115 -146.5h9v174h210v-1473h-210v584h-9q-40 -95 -118.5 -147t-184.5 -52q-199 0 -311.5 148t-112.5 409zM319 440q0 -128 73 -206t194 -78q107 0 177.5 52.5t70.5 143.5v367q0 82 -72 135t-176 53
q-121 0 -194 -78t-73 -206v-183z" />
    <glyph glyph-name="r" unicode="r" horiz-adv-x="776" 
d="M164 0v1063h209v-207h10q28 89 102 148t193 59h61v-203h-90q-132 0 -204 -45t-72 -127v-688h-209z" />
    <glyph glyph-name="s" unicode="s" horiz-adv-x="1009" 
d="M68 178l137 123q128 -154 303 -154q98 0 149.5 39t51.5 109q0 58 -37 93.5t-123 47.5l-94 13q-168 25 -258.5 99.5t-90.5 215.5q0 152 108 237.5t284 85.5q135 0 226.5 -42.5t164.5 -126.5l-129 -125q-99 122 -264 122q-92 0 -139.5 -36.5t-47.5 -102.5q0 -63 41 -96
t131 -45l97 -14q172 -24 252.5 -100.5t80.5 -205.5q0 -155 -112.5 -247.5t-302.5 -92.5q-269 0 -428 203z" />
    <glyph glyph-name="t" unicode="t" horiz-adv-x="741" 
d="M55 889v174h90q55 0 77 23.5t22 78.5v191h188v-293h225v-174h-225v-715h209v-174h-197q-108 0 -165.5 58.5t-57.5 162.5v668h-166z" />
    <glyph glyph-name="u" unicode="u" horiz-adv-x="1179" 
d="M150 385v678h210v-649q0 -258 211 -258q97 0 166.5 48t69.5 138v721h209v-1063h-209v174h-10q-76 -199 -297 -199q-165 0 -257.5 108t-92.5 302z" />
    <glyph glyph-name="v" unicode="v" horiz-adv-x="1038" 
d="M31 1063h209l168 -494l108 -370h12l111 370l168 494h201l-365 -1063h-248z" />
    <glyph glyph-name="w" unicode="w" horiz-adv-x="1622" 
d="M55 1063h205l109 -449l100 -417h6l115 417l129 449h188l133 -449l117 -417h6l97 417l112 449h195l-285 -1063h-242l-141 489l-88 308h-4l-84 -308l-143 -489h-236z" />
    <glyph glyph-name="x" unicode="x" horiz-adv-x="1075" 
d="M41 0l379 537l-367 526h244l246 -375h6l250 375h229l-369 -520l375 -543h-243l-252 393h-7l-264 -393h-227z" />
    <glyph glyph-name="y" unicode="y" horiz-adv-x="1046" 
d="M27 1063h211l221 -647l59 -217h10l66 217l223 647h201l-453 -1282q-38 -107 -95.5 -149t-178.5 -42h-119v174h178l66 191z" />
    <glyph glyph-name="z" unicode="z" horiz-adv-x="987" 
d="M72 0v172l577 717h-559v174h809v-162l-586 -727h602v-174h-843z" />
    <glyph glyph-name="braceleft" unicode="{" horiz-adv-x="722" 
d="M43 545v184q89 0 144 47.5t55 132.5v467q0 81 47 130.5t129 49.5h188v-157h-176v-488q0 -98 -57 -171.5t-144 -90.5v-24q87 -17 144 -91t57 -172v-487h176v-158h-188q-82 0 -129 50t-47 131v467q0 85 -55 132.5t-144 47.5z" />
    <glyph glyph-name="bar" unicode="|" horiz-adv-x="702" 
d="M262 -283v1839h178v-1839h-178z" />
    <glyph glyph-name="braceright" unicode="}" horiz-adv-x="722" 
d="M117 -125h176v487q0 98 57 172t144 91v24q-87 17 -144 91.5t-57 170.5v488h-176v157h188q81 0 128.5 -50t47.5 -130v-467q0 -85 55 -132.5t144 -47.5v-184q-89 0 -144 -47.5t-55 -132.5v-467q0 -81 -47.5 -131t-128.5 -50h-188v158z" />
    <glyph glyph-name="asciitilde" unicode="~" horiz-adv-x="1228" 
d="M119 666q89 118 254 118q69 0 125.5 -18t136.5 -57q49 -24 76.5 -36t70.5 -23t82 -11q47 0 83 14.5t83 48.5l80 -118q-91 -117 -254 -117q-68 0 -124 18t-138 58q-69 33 -120.5 50t-108.5 17q-48 0 -84 -14t-82 -47z" />
    <glyph glyph-name="uni00A0" unicode="&#xa0;" horiz-adv-x="483" 
 />
    <glyph glyph-name="exclamdown" unicode="&#xa1;" horiz-adv-x="606" 
d="M160 922v34q0 61 35.5 96t107.5 35t107.5 -35t35.5 -96v-34q0 -60 -35.5 -95.5t-107.5 -35.5t-107.5 35.5t-35.5 95.5zM188 43l64 616h98l66 -616v-410h-228v410z" />
    <glyph glyph-name="cent" unicode="&#xa2;" horiz-adv-x="1079" 
d="M92 528q0 228 103 372t288 173v217h170v-213q121 -13 205 -77t129 -166l-160 -89q-52 131 -182 158v-749q136 23 207 165l149 -92q-46 -104 -134 -169t-214 -78v-213h-170v217q-187 29 -289 172.5t-102 371.5zM305 440q0 -108 48 -183t139 -99v741q-90 -23 -138.5 -99
t-48.5 -184v-176z" />
    <glyph glyph-name="sterling" unicode="&#xa3;" horiz-adv-x="1210" 
d="M104 590v176h144q-55 156 -55 260q0 193 130 310.5t355 117.5q299 0 452 -237l-161 -117q-56 82 -126 123t-167 41q-123 0 -191.5 -68t-68.5 -197q0 -41 8.5 -87.5t14.5 -68t24 -77.5h430v-176h-373q4 -50 4 -74q0 -107 -44.5 -190t-108.5 -123v-13h725v-190h-938v229
q79 35 116 106.5t37 164.5q0 51 -8 90h-199z" />
    <glyph glyph-name="currency" unicode="&#xa4;" horiz-adv-x="1263" 
d="M31 233l207 207q-66 117 -66 275q0 157 66 274l-207 207l121 119l202 -203q111 82 279 82q167 0 278 -82l201 203l121 -119l-207 -207q66 -117 66 -274q0 -158 -66 -275l207 -207l-121 -118l-201 202q-110 -81 -278 -81q-169 0 -279 81l-202 -202zM389 651
q0 -122 65.5 -187t178.5 -65q111 0 176 65t65 187v127q0 122 -65 187t-176 65q-113 0 -178.5 -65t-65.5 -187v-127z" />
    <glyph glyph-name="yen" unicode="&#xa5;" horiz-adv-x="1269" 
d="M59 1430h246l334 -619h8l326 619h237l-374 -658h262v-154h-357v-176h357v-153h-357v-289h-217v289h-354v153h354v176h-354v154h260z" />
    <glyph glyph-name="brokenbar" unicode="&#xa6;" horiz-adv-x="702" 
d="M262 -283v729h178v-729h-178zM262 827v729h178v-729h-178z" />
    <glyph glyph-name="section" unicode="&#xa7;" horiz-adv-x="1187" 
d="M137 539q0 95 57.5 169.5t165.5 118.5v23q-153 98 -153 272q0 154 114 243t302 89q222 0 366 -125l-115 -137q-111 96 -256 96q-102 0 -161.5 -42t-59.5 -118q0 -66 49.5 -107.5t151.5 -72.5l139 -39q162 -48 238 -128t76 -183q0 -96 -58 -171.5t-166 -119.5v-18
q154 -98 154 -275q0 -155 -115 -245.5t-303 -90.5q-222 0 -364 125l112 138q108 -97 254 -97q104 0 163.5 43.5t59.5 120.5q0 66 -49 107.5t-151 72.5l-139 41q-160 45 -236 125.5t-76 184.5zM330 598q0 -75 50 -126t163 -83l135 -37q15 -4 67 -22q113 92 113 209
q0 75 -50.5 126t-162.5 83l-137 36q-24 6 -66 23q-112 -88 -112 -209z" />
    <glyph glyph-name="dieresis" unicode="&#xa8;" horiz-adv-x="1228" 
d="M291 1360v31q0 106 121 106q123 0 123 -106v-31q0 -107 -123 -107q-62 0 -91.5 28.5t-29.5 78.5zM694 1360v31q0 106 123 106q121 0 121 -106v-31q0 -50 -29.5 -78.5t-91.5 -28.5q-123 0 -123 107z" />
    <glyph glyph-name="copyright" unicode="&#xa9;" horiz-adv-x="1599" 
d="M106 715q0 167 53 306.5t146 233.5t220.5 145.5t275.5 51.5q147 0 274 -51.5t219.5 -145.5t145.5 -233.5t53 -306.5t-53 -306.5t-145.5 -233.5t-219.5 -146t-274 -52q-148 0 -275.5 52t-220.5 146t-146 233.5t-53 306.5zM250 651q0 -236 155.5 -392.5t395.5 -156.5
t394.5 156.5t154.5 392.5v127q0 236 -154.5 392.5t-394.5 156.5t-395.5 -156.5t-155.5 -392.5v-127zM449 715q0 189 97.5 300t268.5 111q223 0 305 -196l-145 -76q-50 117 -160 117q-80 0 -125 -50.5t-45 -134.5v-143q0 -85 44.5 -134.5t125.5 -49.5q62 0 103 31t73 90
l144 -78q-90 -199 -320 -199q-171 0 -268.5 111.5t-97.5 300.5z" />
    <glyph glyph-name="ordfeminine" unicode="&#xaa;" horiz-adv-x="851" 
d="M86 899q0 217 313 217h136v51q0 152 -146 152q-127 0 -184 -102l-96 81q38 63 111 103.5t181 40.5q135 0 212 -69t77 -197v-345h78v-129h-88q-57 0 -93 27t-40 82v8h-8q-24 -58 -82 -93.5t-144 -35.5q-106 0 -166.5 56.5t-60.5 152.5zM242 899q0 -92 116 -92
q74 0 125.5 33.5t51.5 89.5v86h-138q-75 0 -115 -24t-40 -70v-23z" />
    <glyph glyph-name="guillemotleft" unicode="&#xab;" horiz-adv-x="1081" 
d="M76 479v189l389 336l61 -136l-268 -295l268 -294l-61 -136zM524 479v189l389 336l64 -136l-270 -295l270 -294l-64 -136z" />
    <glyph glyph-name="logicalnot" unicode="&#xac;" horiz-adv-x="1228" 
d="M127 539v174h965v-553h-177v379h-788z" />
    <glyph glyph-name="uni00AD" unicode="&#xad;" horiz-adv-x="819" 
d="M131 516v215h559v-215h-559z" />
    <glyph glyph-name="registered" unicode="&#xae;" horiz-adv-x="966" 
d="M76 1032q0 179 118.5 300.5t288.5 121.5t289 -121.5t119 -300.5t-119 -300.5t-289 -121.5t-288.5 121.5t-118.5 300.5zM170 1006q0 -129 90.5 -219.5t222.5 -90.5q133 0 223.5 91t90.5 219v53q0 128 -90.5 218.5t-223.5 90.5t-223 -90t-90 -219v-53zM322 813v428h192
q67 0 104 -36.5t37 -96.5q0 -95 -77 -129l96 -166h-109l-82 152h-63v-152h-98zM420 1040h82q51 0 51 45v35q0 43 -51 43h-82v-123z" />
    <glyph glyph-name="macron" unicode="&#xaf;" horiz-adv-x="1228" 
d="M319 1296v162h590v-162h-590z" />
    <glyph glyph-name="degree" unicode="&#xb0;" horiz-adv-x="960" 
d="M125 1092q0 155 101.5 258.5t252.5 103.5q152 0 254.5 -103.5t102.5 -258.5q0 -156 -102.5 -260.5t-254.5 -104.5q-151 0 -252.5 104.5t-101.5 260.5zM289 1092q0 -91 52 -151t138 -60t139.5 60t53.5 151q0 90 -53.5 150.5t-139.5 60.5t-138 -60.5t-52 -150.5z" />
    <glyph glyph-name="plusminus" unicode="&#xb1;" horiz-adv-x="1228" 
d="M137 0v174h955v-174h-955zM137 719v174h381v385h193v-385h381v-174h-381v-385h-193v385h-381z" />
    <glyph glyph-name="uni00B2" unicode="&#xb2;" horiz-adv-x="708" 
d="M61 1251q29 84 101.5 137.5t189.5 53.5q128 0 200.5 -63t72.5 -165q0 -45 -15.5 -85.5t-46 -76.5t-64.5 -65t-83 -63l-172 -125h401v-125h-569v137l252 201q70 56 100.5 98t30.5 92v8q0 49 -32.5 76t-86.5 27q-109 0 -143 -111z" />
    <glyph glyph-name="uni00B3" unicode="&#xb3;" horiz-adv-x="708" 
d="M35 803l117 86q31 -51 72 -78t104 -27q66 0 102.5 29t36.5 82v8q0 98 -148 98h-81v125h77q68 0 103 25.5t35 65.5v8q0 43 -32 68.5t-89 25.5q-106 0 -168 -90l-101 86q94 127 275 127q126 0 202 -53.5t76 -145.5q0 -69 -44.5 -114t-112.5 -58v-6q76 -13 123 -59t47 -121
q0 -101 -82 -162t-219 -61q-110 0 -178.5 38t-114.5 103z" />
    <glyph glyph-name="acute" unicode="&#xb4;" horiz-adv-x="1228" 
d="M504 1255l184 365l182 -88l-235 -338z" />
    <glyph glyph-name="uni00B5" unicode="&#xb5;" horiz-adv-x="1193" 
d="M164 -410v1473h209v-651q0 -126 53.5 -191t157.5 -65q98 0 166.5 49.5t68.5 138.5v719h211v-1063h-211v174h-8q-33 -87 -100 -143t-172 -56q-135 0 -189 101h-6l29 -209v-277h-209z" />
    <glyph glyph-name="paragraph" unicode="&#xb6;" horiz-adv-x="1351" 
d="M92 1008q0 113 54 210t149 154.5t207 57.5h702v-166h-137v-1569h-174v1569h-217v-1569h-174v893q-171 0 -290.5 123.5t-119.5 296.5z" />
    <glyph glyph-name="periodcentered" unicode="&#xb7;" horiz-adv-x="690" 
d="M201 606v33q0 61 36 97t107 36t107 -36t36 -97v-33q0 -61 -36 -97t-107 -36t-107 36t-36 97z" />
    <glyph glyph-name="cedilla" unicode="&#xb8;" horiz-adv-x="1228" 
d="M420 -342l84 94q46 -57 129 -57q40 0 65 15t25 44q0 65 -145 84l-52 6l41 203h113l-33 -168l6 -6q44 12 86 12q63 0 103.5 -35.5t40.5 -101.5q0 -88 -69 -132t-173 -44q-82 0 -137.5 25.5t-83.5 60.5z" />
    <glyph glyph-name="uni00B9" unicode="&#xb9;" horiz-adv-x="724" 
d="M49 1210l197 220h229v-633h191v-123h-557v123h213v508h-13l-166 -179z" />
    <glyph glyph-name="ordmasculine" unicode="&#xba;" horiz-adv-x="839" 
d="M86 1067q0 174 89 274.5t245 100.5t245 -100.5t89 -274.5q0 -175 -89 -276t-245 -101t-245 101t-89 276zM252 1004q0 -88 43 -138.5t125 -50.5t125 50.5t43 138.5v124q0 88 -43 138.5t-125 50.5t-125 -50.5t-43 -138.5v-124z" />
    <glyph glyph-name="guillemotright" unicode="&#xbb;" horiz-adv-x="1081" 
d="M104 279l271 294l-271 295l64 136l389 -336v-189l-389 -336zM555 279l268 294l-268 295l61 136l390 -336v-189l-390 -336z" />
    <glyph glyph-name="onequarter" unicode="&#xbc;" horiz-adv-x="1728" 
d="M49 1210l197 220h229v-633h191v-123h-557v123h213v508h-13l-166 -179zM311 0l1024 1430h166l-1024 -1430h-166zM1059 145v129l325 482h195v-492h107v-119h-107v-145h-149v145h-371zM1188 264h242v338h-11z" />
    <glyph glyph-name="onehalf" unicode="&#xbd;" horiz-adv-x="1777" 
d="M49 1210l197 220h229v-633h191v-123h-557v123h213v508h-13l-166 -179zM311 0l1024 1430h166l-1024 -1430h-166zM1128 578q29 84 101.5 137t189.5 53q128 0 200.5 -62.5t72.5 -164.5q0 -86 -53 -153t-154 -138l-174 -125h401v-125h-569v137l252 201q69 55 100 98t31 92v9
q0 49 -32 75.5t-87 26.5q-105 0 -143 -111z" />
    <glyph glyph-name="threequarters" unicode="&#xbe;" horiz-adv-x="1689" 
d="M35 803l117 86q31 -51 72 -78t104 -27q66 0 102.5 29t36.5 82v8q0 98 -148 98h-81v125h77q68 0 103 25.5t35 65.5v8q0 43 -32 68.5t-89 25.5q-106 0 -168 -90l-101 86q94 127 275 127q126 0 202 -53.5t76 -145.5q0 -69 -44.5 -114t-112.5 -58v-6q76 -13 123 -59t47 -121
q0 -101 -82 -162t-219 -61q-110 0 -178.5 38t-114.5 103zM274 0l1024 1430h166l-1026 -1430h-164zM1020 145v129l326 482h194v-492h109v-119h-109v-145h-147v145h-373zM1149 264h244v338h-11z" />
    <glyph glyph-name="questiondown" unicode="&#xbf;" horiz-adv-x="974" 
d="M70 8q0 90 31.5 165t85 124.5t117.5 81t136 45.5v197h201v-330q-168 -6 -258 -72.5t-90 -189.5v-29q0 -94 59.5 -149.5t157.5 -55.5q102 0 168 59.5t90 157.5l184 -73q-43 -144 -154.5 -237t-295.5 -93q-197 0 -314.5 109t-117.5 290zM397 922v34q0 61 36.5 96t109.5 35
q72 0 107.5 -35t35.5 -96v-34q0 -60 -35.5 -95.5t-107.5 -35.5t-109 35.5t-37 95.5z" />
    <glyph glyph-name="Agrave" unicode="&#xc0;" horiz-adv-x="1343" 
d="M45 0l490 1430h274l489 -1430h-229l-129 395h-545l-129 -395h-221zM416 1874l182 88l184 -365l-131 -61zM449 584h438l-215 645h-10z" />
    <glyph glyph-name="Aacute" unicode="&#xc1;" horiz-adv-x="1343" 
d="M45 0l490 1430h274l489 -1430h-229l-129 395h-545l-129 -395h-221zM449 584h438l-215 645h-10zM561 1597l184 365l183 -88l-236 -338z" />
    <glyph glyph-name="Acircumflex" unicode="&#xc2;" horiz-adv-x="1343" 
d="M45 0l490 1430h274l489 -1430h-229l-129 395h-545l-129 -395h-221zM319 1626l242 303h221l242 -303l-111 -82l-241 238l-242 -238zM449 584h438l-215 645h-10z" />
    <glyph glyph-name="Atilde" unicode="&#xc3;" horiz-adv-x="1343" 
d="M45 0l490 1430h274l489 -1430h-229l-129 395h-545l-129 -395h-221zM313 1733q77 114 207 114q32 0 64.5 -8.5t49 -16.5t48.5 -24q96 -47 149 -47q57 0 119 53l80 -100q-79 -117 -207 -117q-32 0 -64 9t-48 16t-49 24q-95 50 -150 50q-53 0 -119 -56zM449 584h438
l-215 645h-10z" />
    <glyph glyph-name="Adieresis" unicode="&#xc4;" horiz-adv-x="1343" 
d="M45 0l490 1430h274l489 -1430h-229l-129 395h-545l-129 -395h-221zM346 1702v35q0 48 30.5 77t92.5 29q63 0 93 -28.5t30 -77.5v-35q0 -49 -30 -78t-93 -29q-62 0 -92.5 29.5t-30.5 77.5zM449 584h438l-215 645h-10zM752 1702v35q0 49 29.5 77.5t92.5 28.5q62 0 92.5 -29
t30.5 -77v-35q0 -48 -30.5 -77.5t-92.5 -29.5q-63 0 -92.5 29t-29.5 78z" />
    <glyph glyph-name="Aring" unicode="&#xc5;" horiz-adv-x="1343" 
d="M45 0l490 1430h274l489 -1430h-229l-129 395h-545l-129 -395h-221zM412 1763q0 110 75 183t185 73t185 -73t75 -183q0 -108 -75.5 -181t-184.5 -73t-184.5 73t-75.5 181zM449 584h438l-215 645h-10zM557 1737q0 -51 30.5 -80t84.5 -29t84 29t30 80v53q0 53 -30 82t-84 29
t-84.5 -29.5t-30.5 -81.5v-53z" />
    <glyph glyph-name="AE" unicode="&#xc6;" horiz-adv-x="1898" 
d="M4 0l721 1430h1049v-193h-689v-418h631v-192h-631v-434h689v-193h-906v393h-450l-193 -393h-221zM508 582h360v655h-32z" />
    <glyph glyph-name="Ccedilla" unicode="&#xc7;" horiz-adv-x="1292" 
d="M113 707q0 356 158.5 551.5t437.5 195.5q358 0 505 -321l-182 -103q-40 109 -120.5 169.5t-202.5 60.5q-168 0 -265.5 -119t-97.5 -322v-219q0 -202 97 -316t266 -114q124 0 210 66t128 178l176 -107q-70 -152 -192.5 -238t-289.5 -92l-20 -98l8 -6q44 12 86 12
q63 0 102 -35t39 -102q0 -88 -68.5 -132t-172.5 -44q-151 0 -219 86l84 94q46 -57 127 -57q40 0 65 15t25 44q0 30 -31 51.5t-113 32.5l-53 6l29 136q-245 25 -380.5 211.5t-135.5 515.5z" />
    <glyph glyph-name="Egrave" unicode="&#xc8;" horiz-adv-x="1210" 
d="M180 0v1430h905v-193h-688v-418h629v-192h-629v-434h688v-193h-905zM375 1874l182 88l184 -365l-131 -61z" />
    <glyph glyph-name="Eacute" unicode="&#xc9;" horiz-adv-x="1210" 
d="M180 0v1430h905v-193h-688v-418h629v-192h-629v-434h688v-193h-905zM520 1597l185 365l182 -88l-236 -338z" />
    <glyph glyph-name="Ecircumflex" unicode="&#xca;" horiz-adv-x="1210" 
d="M180 0v1430h905v-193h-688v-418h629v-192h-629v-434h688v-193h-905zM279 1626l241 303h221l242 -303l-111 -82l-241 238l-242 -238z" />
    <glyph glyph-name="Edieresis" unicode="&#xcb;" horiz-adv-x="1210" 
d="M180 0v1430h905v-193h-688v-418h629v-192h-629v-434h688v-193h-905zM305 1702v35q0 48 30.5 77t92.5 29q63 0 93 -28.5t30 -77.5v-35q0 -49 -30 -78t-93 -29q-62 0 -92.5 29.5t-30.5 77.5zM711 1702v35q0 49 30 77.5t93 28.5q62 0 92 -29t30 -77v-35q0 -49 -30 -78
t-92 -29q-63 0 -93 29t-30 78z" />
    <glyph glyph-name="Igrave" unicode="&#xcc;" horiz-adv-x="841" 
d="M117 0v178h194v1073h-194v179h608v-179h-195v-1073h195v-178h-608zM164 1874l182 88l184 -365l-131 -61z" />
    <glyph glyph-name="Iacute" unicode="&#xcd;" horiz-adv-x="841" 
d="M117 0v178h194v1073h-194v179h608v-179h-195v-1073h195v-178h-608zM309 1597l185 365l182 -88l-236 -338z" />
    <glyph glyph-name="Icircumflex" unicode="&#xce;" horiz-adv-x="841" 
d="M68 1626l241 303h221l242 -303l-110 -82l-242 238l-242 -238zM117 0v178h194v1073h-194v179h608v-179h-195v-1073h195v-178h-608z" />
    <glyph glyph-name="Idieresis" unicode="&#xcf;" horiz-adv-x="841" 
d="M94 1702v35q0 48 30.5 77t92.5 29q63 0 93 -28.5t30 -77.5v-35q0 -49 -30 -78t-93 -29q-62 0 -92.5 29.5t-30.5 77.5zM117 0v178h194v1073h-194v179h608v-179h-195v-1073h195v-178h-608zM500 1702v35q0 49 30 77.5t93 28.5q62 0 92 -29t30 -77v-35q0 -49 -30 -78t-92 -29
q-63 0 -93 29t-30 78z" />
    <glyph glyph-name="Eth" unicode="&#xd0;" horiz-adv-x="1398" 
d="M29 664v163h157v603h500q280 0 440 -182.5t160 -532.5t-160 -532.5t-440 -182.5h-500v664h-157zM406 193h280q168 0 267.5 106.5t99.5 300.5v229q0 194 -99.5 301t-267.5 107h-280v-410h268v-163h-268v-471z" />
    <glyph glyph-name="Ntilde" unicode="&#xd1;" horiz-adv-x="1460" 
d="M180 0v1430h246l477 -807l162 -308h6v1115h209v-1430h-246l-479 807l-160 307h-6v-1114h-209zM371 1733q77 114 207 114q32 0 64 -9t48 -16t49 -24q96 -47 150 -47q57 0 119 53l79 -100q-79 -117 -206 -117q-32 0 -64.5 8.5t-49 16.5t-48.5 24q-95 50 -150 50
q-32 0 -58 -13.5t-60 -42.5z" />
    <glyph glyph-name="Ograve" unicode="&#xd2;" horiz-adv-x="1454" 
d="M113 715q0 355 164.5 547t449.5 192t449.5 -192t164.5 -547t-164.5 -547.5t-449.5 -192.5t-449.5 192.5t-164.5 547.5zM346 600q0 -197 105 -313.5t276 -116.5t276 116.5t105 313.5v229q0 197 -105 314t-276 117t-276 -117t-105 -314v-229zM471 1874l182 88l185 -365
l-131 -61z" />
    <glyph glyph-name="Oacute" unicode="&#xd3;" horiz-adv-x="1454" 
d="M113 715q0 355 164.5 547t449.5 192t449.5 -192t164.5 -547t-164.5 -547.5t-449.5 -192.5t-449.5 192.5t-164.5 547.5zM346 600q0 -197 105 -313.5t276 -116.5t276 116.5t105 313.5v229q0 197 -105 314t-276 117t-276 -117t-105 -314v-229zM616 1597l185 365l182 -88
l-235 -338z" />
    <glyph glyph-name="Ocircumflex" unicode="&#xd4;" horiz-adv-x="1454" 
d="M113 715q0 355 164.5 547t449.5 192t449.5 -192t164.5 -547t-164.5 -547.5t-449.5 -192.5t-449.5 192.5t-164.5 547.5zM346 600q0 -197 105 -313.5t276 -116.5t276 116.5t105 313.5v229q0 197 -105 314t-276 117t-276 -117t-105 -314v-229zM375 1626l241 303h222
l241 -303l-110 -82l-242 238l-242 -238z" />
    <glyph glyph-name="Otilde" unicode="&#xd5;" horiz-adv-x="1454" 
d="M113 715q0 355 164.5 547t449.5 192t449.5 -192t164.5 -547t-164.5 -547.5t-449.5 -192.5t-449.5 192.5t-164.5 547.5zM346 600q0 -197 105 -313.5t276 -116.5t276 116.5t105 313.5v229q0 197 -105 314t-276 117t-276 -117t-105 -314v-229zM369 1733q77 114 206 114
q32 0 64.5 -8.5t49 -16.5t48.5 -24q96 -47 150 -47q57 0 119 53l79 -100q-79 -117 -206 -117q-32 0 -64.5 8.5t-49 16.5t-48.5 24q-95 50 -150 50q-32 0 -58 -13.5t-60 -42.5z" />
    <glyph glyph-name="Odieresis" unicode="&#xd6;" horiz-adv-x="1454" 
d="M113 715q0 355 164.5 547t449.5 192t449.5 -192t164.5 -547t-164.5 -547.5t-449.5 -192.5t-449.5 192.5t-164.5 547.5zM346 600q0 -197 105 -313.5t276 -116.5t276 116.5t105 313.5v229q0 197 -105 314t-276 117t-276 -117t-105 -314v-229zM401 1702v35q0 48 30.5 77
t92.5 29q63 0 93 -28.5t30 -77.5v-35q0 -49 -30 -78t-93 -29q-62 0 -92.5 29.5t-30.5 77.5zM807 1702v35q0 49 30 77.5t93 28.5q62 0 92.5 -29t30.5 -77v-35q0 -48 -30.5 -77.5t-92.5 -29.5q-63 0 -93 29t-30 78z" />
    <glyph glyph-name="multiply" unicode="&#xd7;" horiz-adv-x="1228" 
d="M180 299l312 322l-312 321l123 123l311 -322l312 322l123 -123l-312 -321l312 -322l-123 -123l-312 322l-311 -322z" />
    <glyph glyph-name="Oslash" unicode="&#xd8;" horiz-adv-x="1454" 
d="M113 715q0 355 164.5 547t449.5 192q198 0 338 -96l119 172l141 -92l-135 -193q151 -193 151 -530q0 -355 -164.5 -547.5t-449.5 -192.5q-196 0 -338 97l-119 -172l-141 92l135 192q-151 193 -151 531zM342 598q0 -134 51 -236l565 832q-96 74 -231 74
q-174 0 -279.5 -118.5t-105.5 -318.5v-233zM496 236q96 -74 231 -74q174 0 279.5 118t105.5 318v233q0 134 -51 236z" />
    <glyph glyph-name="Ugrave" unicode="&#xd9;" horiz-adv-x="1398" 
d="M170 586v844h215v-883q0 -192 73 -284.5t242 -92.5q168 0 241 93t73 284v883h215v-844q0 -319 -123 -465t-410 -146t-406.5 145t-119.5 466zM440 1874l183 88l184 -365l-131 -61z" />
    <glyph glyph-name="Uacute" unicode="&#xda;" horiz-adv-x="1398" 
d="M170 586v844h215v-883q0 -192 73 -284.5t242 -92.5q168 0 241 93t73 284v883h215v-844q0 -319 -123 -465t-410 -146t-406.5 145t-119.5 466zM586 1597l184 365l182 -88l-235 -338z" />
    <glyph glyph-name="Ucircumflex" unicode="&#xdb;" horiz-adv-x="1398" 
d="M170 586v844h215v-883q0 -192 73 -284.5t242 -92.5q168 0 241 93t73 284v883h215v-844q0 -319 -123 -465t-410 -146t-406.5 145t-119.5 466zM344 1626l242 303h221l242 -303l-111 -82l-242 238l-241 -238z" />
    <glyph glyph-name="Udieresis" unicode="&#xdc;" horiz-adv-x="1398" 
d="M170 586v844h215v-883q0 -192 73 -284.5t242 -92.5q168 0 241 93t73 284v883h215v-844q0 -319 -123 -465t-410 -146t-406.5 145t-119.5 466zM371 1702v35q0 48 30.5 77t92.5 29q63 0 92.5 -28.5t29.5 -77.5v-35q0 -49 -29.5 -78t-92.5 -29q-62 0 -92.5 29.5t-30.5 77.5z
M776 1702v35q0 49 30 77.5t93 28.5q62 0 92.5 -29t30.5 -77v-35q0 -48 -30.5 -77.5t-92.5 -29.5q-63 0 -93 29t-30 78z" />
    <glyph glyph-name="Yacute" unicode="&#xdd;" horiz-adv-x="1253" 
d="M25 1430h245l357 -650h6l352 650h244l-496 -863v-567h-219v563zM516 1597l184 365l183 -88l-236 -338z" />
    <glyph glyph-name="Thorn" unicode="&#xde;" horiz-adv-x="1275" 
d="M180 0v1430h217v-279h387q193 0 302.5 -116t109.5 -310q0 -193 -109.5 -308.5t-302.5 -115.5h-387v-301h-217zM397 494h375q91 0 142 47.5t51 134.5v98q0 87 -51 135.5t-142 48.5h-375v-464z" />
    <glyph glyph-name="germandbls" unicode="&#xdf;" horiz-adv-x="1345" 
d="M53 889v174h166v10q0 216 125.5 341.5t343.5 125.5q216 0 340.5 -125.5t124.5 -341.5v-149h-102q-121 0 -179.5 -33.5t-58.5 -108.5q0 -64 36 -95.5t114 -51.5l61 -17q139 -36 203.5 -106t64.5 -190q0 -160 -103 -253.5t-276 -93.5q-243 0 -368 166l131 125
q100 -123 244 -123q82 0 128 40.5t46 113.5q0 61 -31.5 97.5t-108.5 56.5l-63 16q-133 34 -205 102.5t-72 198.5q0 134 90 213.5t250 91.5v8q0 149 -65 220t-199 71q-133 0 -196.5 -71t-63.5 -220v-1081h-211v889h-166z" />
    <glyph glyph-name="agrave" unicode="&#xe0;" horiz-adv-x="1118" 
d="M84 293q0 157 114.5 237t338.5 80h196v92q0 211 -225 211q-165 0 -256 -147l-127 115q118 206 395 206q202 0 313 -96.5t111 -271.5v-545h113v-174h-117q-155 0 -186 160l-4 18h-11q-30 -99 -111 -151t-198 -52q-163 0 -254.5 86t-91.5 232zM270 1532l183 88l184 -365
l-131 -61zM299 287q0 -71 49.5 -109.5t136.5 -38.5q107 0 177.5 48.5t70.5 125.5v158h-194q-240 0 -240 -145v-39z" />
    <glyph glyph-name="aacute" unicode="&#xe1;" horiz-adv-x="1118" 
d="M84 293q0 157 114.5 237t338.5 80h196v92q0 211 -225 211q-165 0 -256 -147l-127 115q118 206 395 206q202 0 313 -96.5t111 -271.5v-545h113v-174h-117q-155 0 -186 160l-4 18h-11q-30 -99 -111 -151t-198 -52q-163 0 -254.5 86t-91.5 232zM299 287q0 -71 49.5 -109.5
t136.5 -38.5q107 0 177.5 48.5t70.5 125.5v158h-194q-240 0 -240 -145v-39zM416 1255l184 365l182 -88l-235 -338z" />
    <glyph glyph-name="acircumflex" unicode="&#xe2;" horiz-adv-x="1118" 
d="M84 293q0 157 114.5 237t338.5 80h196v92q0 211 -225 211q-165 0 -256 -147l-127 115q118 206 395 206q202 0 313 -96.5t111 -271.5v-545h113v-174h-117q-155 0 -186 160l-4 18h-11q-30 -99 -111 -151t-198 -52q-163 0 -254.5 86t-91.5 232zM174 1284l242 303h221
l242 -303l-111 -82l-242 238l-241 -238zM299 287q0 -71 49.5 -109.5t136.5 -38.5q107 0 177.5 48.5t70.5 125.5v158h-194q-240 0 -240 -145v-39z" />
    <glyph glyph-name="atilde" unicode="&#xe3;" horiz-adv-x="1118" 
d="M84 293q0 157 114.5 237t338.5 80h196v92q0 211 -225 211q-165 0 -256 -147l-127 115q118 206 395 206q202 0 313 -96.5t111 -271.5v-545h113v-174h-117q-155 0 -186 160l-4 18h-11q-30 -99 -111 -151t-198 -52q-163 0 -254.5 86t-91.5 232zM168 1391q77 114 207 114
q32 0 64.5 -8.5t49 -16.5t48.5 -24q96 -47 149 -47q57 0 119 53l80 -100q-79 -117 -207 -117q-32 0 -64.5 8.5t-49 16.5t-48.5 24q-94 49 -149 49t-119 -55zM299 287q0 -71 49.5 -109.5t136.5 -38.5q107 0 177.5 48.5t70.5 125.5v158h-194q-240 0 -240 -145v-39z" />
    <glyph glyph-name="adieresis" unicode="&#xe4;" horiz-adv-x="1118" 
d="M84 293q0 157 114.5 237t338.5 80h196v92q0 211 -225 211q-165 0 -256 -147l-127 115q118 206 395 206q202 0 313 -96.5t111 -271.5v-545h113v-174h-117q-155 0 -186 160l-4 18h-11q-30 -99 -111 -151t-198 -52q-163 0 -254.5 86t-91.5 232zM203 1360v31q0 106 121 106
q122 0 122 -106v-31q0 -107 -122 -107q-62 0 -91.5 28.5t-29.5 78.5zM299 287q0 -71 49.5 -109.5t136.5 -38.5q107 0 177.5 48.5t70.5 125.5v158h-194q-240 0 -240 -145v-39zM606 1360v31q0 106 123 106q121 0 121 -106v-31q0 -50 -29.5 -78.5t-91.5 -28.5q-123 0 -123 107z
" />
    <glyph glyph-name="aring" unicode="&#xe5;" horiz-adv-x="1118" 
d="M84 293q0 157 114.5 237t338.5 80h196v92q0 211 -225 211q-165 0 -256 -147l-127 115q118 206 395 206q202 0 313 -96.5t111 -271.5v-545h113v-174h-117q-155 0 -186 160l-4 18h-11q-30 -99 -111 -151t-198 -52q-163 0 -254.5 86t-91.5 232zM266 1421q0 110 75 183
t185 73t185 -73t75 -183q0 -108 -75.5 -181t-184.5 -73t-184.5 73t-75.5 181zM299 287q0 -71 49.5 -109.5t136.5 -38.5q107 0 177.5 48.5t70.5 125.5v158h-194q-240 0 -240 -145v-39zM412 1395q0 -52 30 -80.5t84 -28.5t84.5 28.5t30.5 80.5v53q0 52 -30.5 81.5t-84.5 29.5
t-84 -29t-30 -82v-53z" />
    <glyph glyph-name="ae" unicode="&#xe6;" horiz-adv-x="1769" 
d="M84 293q0 158 118 243t335 85h196v81q0 102 -56 156.5t-165 54.5q-93 0 -154.5 -37t-105.5 -108l-127 113q53 94 152 150t245 56q237 0 322 -206h12q33 81 133 143.5t236 62.5q144 0 249 -70.5t156 -188t51 -267.5v-82h-737v-39q0 -129 78 -208.5t213 -79.5
q187 0 281 161l129 -116q-59 -103 -168.5 -162.5t-247.5 -59.5q-151 0 -261.5 72t-140.5 158h-12q-11 -40 -40 -78.5t-75.5 -73.5t-117.5 -56.5t-154 -21.5q-158 0 -251 87t-93 231zM299 289q0 -72 49.5 -111t140.5 -39q103 0 173.5 48.5t70.5 125.5v166h-194
q-240 -6 -240 -151v-39zM944 621h514v20q0 127 -66.5 204t-179.5 77q-119 0 -193.5 -80t-74.5 -207v-14z" />
    <glyph glyph-name="ccedilla" unicode="&#xe7;" horiz-adv-x="1040" 
d="M88 532q0 257 127 406t354 149q155 0 258 -68.5t150 -189.5l-174 -81q-24 76 -84 119.5t-150 43.5q-124 0 -191 -78t-67 -208v-187q0 -130 67 -208t191 -78q182 0 258 176l158 -86q-48 -121 -145 -189.5t-234 -75.5l-18 -98l6 -6q43 12 86 12q63 0 103 -35.5t40 -101.5
q0 -88 -68.5 -132t-172.5 -44q-82 0 -138 25.5t-84 60.5l84 94q46 -57 129 -57q41 0 66 15t25 44q0 64 -146 84l-51 6l27 136q-194 26 -300 172.5t-106 379.5z" />
    <glyph glyph-name="egrave" unicode="&#xe8;" horiz-adv-x="1132" 
d="M88 532q0 253 131 404t354 151q112 0 202.5 -40.5t148.5 -112t89 -167t31 -206.5v-82h-737v-39q0 -129 77 -209.5t212 -80.5q188 0 283 165l127 -118q-58 -102 -170 -162t-258 -60q-225 0 -357.5 151t-132.5 406zM307 621h516v20q0 127 -67.5 204t-180.5 77
q-119 0 -193.5 -80t-74.5 -207v-14zM322 1532l182 88l184 -365l-131 -61z" />
    <glyph glyph-name="eacute" unicode="&#xe9;" horiz-adv-x="1132" 
d="M88 532q0 253 131 404t354 151q112 0 202.5 -40.5t148.5 -112t89 -167t31 -206.5v-82h-737v-39q0 -129 77 -209.5t212 -80.5q188 0 283 165l127 -118q-58 -102 -170 -162t-258 -60q-225 0 -357.5 151t-132.5 406zM307 621h516v20q0 127 -67.5 204t-180.5 77
q-119 0 -193.5 -80t-74.5 -207v-14zM467 1255l184 365l183 -88l-236 -338z" />
    <glyph glyph-name="ecircumflex" unicode="&#xea;" horiz-adv-x="1132" 
d="M88 532q0 253 131 404t354 151q112 0 202.5 -40.5t148.5 -112t89 -167t31 -206.5v-82h-737v-39q0 -129 77 -209.5t212 -80.5q188 0 283 165l127 -118q-58 -102 -170 -162t-258 -60q-225 0 -357.5 151t-132.5 406zM225 1284l242 303h221l242 -303l-111 -82l-241 238
l-242 -238zM307 621h516v20q0 127 -67.5 204t-180.5 77q-119 0 -193.5 -80t-74.5 -207v-14z" />
    <glyph glyph-name="edieresis" unicode="&#xeb;" horiz-adv-x="1132" 
d="M88 532q0 253 131 404t354 151q112 0 202.5 -40.5t148.5 -112t89 -167t31 -206.5v-82h-737v-39q0 -129 77 -209.5t212 -80.5q188 0 283 165l127 -118q-58 -102 -170 -162t-258 -60q-225 0 -357.5 151t-132.5 406zM254 1360v31q0 106 121 106q123 0 123 -106v-31
q0 -107 -123 -107q-62 0 -91.5 28.5t-29.5 78.5zM307 621h516v20q0 127 -67.5 204t-180.5 77q-119 0 -193.5 -80t-74.5 -207v-14zM657 1360v31q0 106 123 106q121 0 121 -106v-31q0 -50 -29.5 -78.5t-91.5 -28.5q-123 0 -123 107z" />
    <glyph glyph-name="igrave" unicode="&#xec;" horiz-adv-x="536" 
d="M12 1532l183 88l184 -365l-131 -61zM164 0v1063h209v-1063h-209z" />
    <glyph glyph-name="iacute" unicode="&#xed;" horiz-adv-x="536" 
d="M158 1255l184 365l182 -88l-235 -338zM164 0v1063h209v-1063h-209z" />
    <glyph glyph-name="icircumflex" unicode="&#xee;" horiz-adv-x="536" 
d="M-84 1284l242 303h221l242 -303l-111 -82l-242 238l-241 -238zM164 0v1063h209v-1063h-209z" />
    <glyph glyph-name="idieresis" unicode="&#xef;" horiz-adv-x="536" 
d="M-55 1360v31q0 106 121 106q122 0 122 -106v-31q0 -107 -122 -107q-62 0 -91.5 28.5t-29.5 78.5zM164 0v1063h209v-1063h-209zM348 1360v31q0 106 123 106q121 0 121 -106v-31q0 -50 -29.5 -78.5t-91.5 -28.5q-123 0 -123 107z" />
    <glyph glyph-name="eth" unicode="&#xf0;" horiz-adv-x="1169" 
d="M92 508q0 233 122.5 377.5t326.5 144.5q101 0 172.5 -53t109.5 -148l11 5q-43 202 -250 403l-170 -113l-76 97l149 100q-132 109 -286 195h321q66 -42 123 -91l174 117l78 -96l-156 -107q148 -148 238 -344.5t90 -435.5q0 -286 -132 -435t-355 -149q-226 0 -358 146
t-132 387zM313 438q0 -135 73 -214t194 -79q122 0 194 78.5t72 214.5v127q0 136 -72 214.5t-194 78.5q-121 0 -194 -79t-73 -214v-127z" />
    <glyph glyph-name="ntilde" unicode="&#xf1;" horiz-adv-x="1181" 
d="M164 0v1063h209v-176h10q80 200 299 200q164 0 256 -108t92 -303v-676h-211v649q0 258 -209 258q-98 0 -167.5 -48.5t-69.5 -137.5v-721h-209zM238 1389q77 114 206 114q32 0 64.5 -8.5t49 -16.5t48.5 -24q96 -47 150 -47q56 0 118 53l80 -100q-79 -117 -206 -117
q-32 0 -64.5 8.5t-49 16.5t-48.5 24q-94 49 -150 49q-55 0 -119 -55z" />
    <glyph glyph-name="ograve" unicode="&#xf2;" horiz-adv-x="1148" 
d="M88 532q0 253 132.5 404t354.5 151q220 0 353 -151t133 -404q0 -254 -133 -405.5t-353 -151.5q-222 0 -354.5 151t-132.5 406zM311 444q0 -143 71 -217.5t193 -74.5q121 0 192 75t71 217v174q0 142 -71 217.5t-192 75.5q-122 0 -193 -75t-71 -218v-174zM319 1528l183 88
l184 -365l-131 -61z" />
    <glyph glyph-name="oacute" unicode="&#xf3;" horiz-adv-x="1148" 
d="M88 532q0 253 132.5 404t354.5 151q220 0 353 -151t133 -404q0 -254 -133 -405.5t-353 -151.5q-222 0 -354.5 151t-132.5 406zM311 444q0 -143 71 -217.5t193 -74.5q121 0 192 75t71 217v174q0 142 -71 217.5t-192 75.5q-122 0 -193 -75t-71 -218v-174zM465 1251l184 365
l182 -88l-235 -338z" />
    <glyph glyph-name="ocircumflex" unicode="&#xf4;" horiz-adv-x="1148" 
d="M88 532q0 253 132.5 404t354.5 151q220 0 353 -151t133 -404q0 -254 -133 -405.5t-353 -151.5q-222 0 -354.5 151t-132.5 406zM223 1280l242 303h221l242 -303l-111 -82l-242 238l-241 -238zM311 444q0 -143 71 -217.5t193 -74.5q121 0 192 75t71 217v174
q0 142 -71 217.5t-192 75.5q-122 0 -193 -75t-71 -218v-174z" />
    <glyph glyph-name="otilde" unicode="&#xf5;" horiz-adv-x="1148" 
d="M88 532q0 253 132.5 404t354.5 151q220 0 353 -151t133 -404q0 -254 -133 -405.5t-353 -151.5q-222 0 -354.5 151t-132.5 406zM217 1386q77 115 207 115q32 0 64.5 -8.5t49 -16.5t48.5 -24q96 -47 149 -47q57 0 119 53l80 -100q-79 -117 -207 -117q-32 0 -64.5 8.5
t-49 16.5t-48.5 24q-94 49 -149 49t-119 -55zM311 444q0 -143 71 -217.5t193 -74.5q121 0 192 75t71 217v174q0 142 -71 217.5t-192 75.5q-122 0 -193 -75t-71 -218v-174z" />
    <glyph glyph-name="odieresis" unicode="&#xf6;" horiz-adv-x="1148" 
d="M88 532q0 253 132.5 404t354.5 151q220 0 353 -151t133 -404q0 -254 -133 -405.5t-353 -151.5q-222 0 -354.5 151t-132.5 406zM252 1356v30q0 50 29.5 78.5t91.5 28.5q123 0 123 -107v-30q0 -107 -123 -107q-62 0 -91.5 28.5t-29.5 78.5zM311 444q0 -143 71 -217.5
t193 -74.5q121 0 192 75t71 217v174q0 142 -71 217.5t-192 75.5q-122 0 -193 -75t-71 -218v-174zM655 1356v30q0 107 123 107q62 0 91.5 -28.5t29.5 -78.5v-30q0 -50 -29.5 -78.5t-91.5 -28.5q-123 0 -123 107z" />
    <glyph glyph-name="divide" unicode="&#xf7;" horiz-adv-x="1228" 
d="M137 539v174h955v-174h-955zM471 203v47q0 50 34.5 81t108.5 31t109 -31t35 -81v-47q0 -50 -35 -81.5t-109 -31.5q-73 0 -108 31.5t-35 81.5zM471 999v48q0 50 34.5 81t108.5 31t109 -31t35 -81v-48q0 -50 -35 -81t-109 -31t-108.5 31t-34.5 81z" />
    <glyph glyph-name="oslash" unicode="&#xf8;" horiz-adv-x="1165" 
d="M57 -2l138 172q-99 148 -99 362q0 253 133 404t355 151q162 0 282 -90l127 154l115 -86l-137 -174q98 -143 98 -361q0 -253 -132.5 -404t-352.5 -151q-168 0 -285 88l-125 -151zM315 496q0 -78 21 -160l424 520q-71 62 -176 62q-123 0 -196 -79t-73 -225v-118zM406 207
q68 -62 178 -62q121 0 193.5 79t72.5 225v126q0 73 -21 152z" />
    <glyph glyph-name="ugrave" unicode="&#xf9;" horiz-adv-x="1179" 
d="M150 385v678h210v-649q0 -258 211 -258q97 0 166.5 48t69.5 138v721h209v-1063h-209v174h-10q-76 -199 -297 -199q-165 0 -257.5 108t-92.5 302zM328 1532l182 88l184 -365l-131 -61z" />
    <glyph glyph-name="uacute" unicode="&#xfa;" horiz-adv-x="1179" 
d="M150 385v678h210v-649q0 -258 211 -258q97 0 166.5 48t69.5 138v721h209v-1063h-209v174h-10q-76 -199 -297 -199q-165 0 -257.5 108t-92.5 302zM473 1255l184 365l183 -88l-236 -338z" />
    <glyph glyph-name="ucircumflex" unicode="&#xfb;" horiz-adv-x="1179" 
d="M150 385v678h210v-649q0 -258 211 -258q97 0 166.5 48t69.5 138v721h209v-1063h-209v174h-10q-76 -199 -297 -199q-165 0 -257.5 108t-92.5 302zM231 1284l242 303h221l242 -303l-111 -82l-241 238l-242 -238z" />
    <glyph glyph-name="udieresis" unicode="&#xfc;" horiz-adv-x="1179" 
d="M150 385v678h210v-649q0 -258 211 -258q97 0 166.5 48t69.5 138v721h209v-1063h-209v174h-10q-76 -199 -297 -199q-165 0 -257.5 108t-92.5 302zM260 1360v31q0 106 121 106q123 0 123 -106v-31q0 -107 -123 -107q-62 0 -91.5 28.5t-29.5 78.5zM664 1360v31
q0 106 122 106q121 0 121 -106v-31q0 -50 -29.5 -78.5t-91.5 -28.5q-122 0 -122 107z" />
    <glyph glyph-name="yacute" unicode="&#xfd;" horiz-adv-x="1046" 
d="M27 1063h211l221 -647l59 -217h10l66 217l223 647h201l-453 -1282q-38 -107 -95.5 -149t-178.5 -42h-119v174h178l66 191zM416 1255l184 365l182 -88l-235 -338z" />
    <glyph glyph-name="thorn" unicode="&#xfe;" horiz-adv-x="1206" 
d="M164 -410v1926h209v-627h10q35 95 114 146.5t187 51.5q201 0 313.5 -147.5t112.5 -407.5q0 -261 -112.5 -409t-313.5 -148q-106 0 -184 52t-117 147h-10v-584h-209zM373 352q0 -91 70.5 -143.5t177.5 -52.5q121 0 193.5 78t72.5 206v183q0 128 -72.5 206t-193.5 78
q-104 0 -176 -53t-72 -135v-367z" />
    <glyph glyph-name="ydieresis" unicode="&#xff;" horiz-adv-x="1046" 
d="M27 1063h211l221 -647l59 -217h10l66 217l223 647h201l-453 -1282q-38 -107 -95.5 -149t-178.5 -42h-119v174h178l66 191zM203 1360v31q0 106 121 106q122 0 122 -106v-31q0 -107 -122 -107q-62 0 -91.5 28.5t-29.5 78.5zM606 1360v31q0 106 123 106q121 0 121 -106v-31
q0 -50 -29.5 -78.5t-91.5 -28.5q-123 0 -123 107z" />
    <glyph glyph-name="Amacron" unicode="&#x100;" horiz-adv-x="1343" 
d="M45 0l490 1430h274l489 -1430h-229l-129 395h-545l-129 -395h-221zM377 1638v162h590v-162h-590zM449 584h438l-215 645h-10z" />
    <glyph glyph-name="amacron" unicode="&#x101;" horiz-adv-x="1118" 
d="M84 293q0 157 114.5 237t338.5 80h196v92q0 211 -225 211q-165 0 -256 -147l-127 115q118 206 395 206q202 0 313 -96.5t111 -271.5v-545h113v-174h-117q-155 0 -186 160l-4 18h-11q-30 -99 -111 -151t-198 -52q-163 0 -254.5 86t-91.5 232zM231 1296v162h590v-162h-590z
M299 287q0 -71 49.5 -109.5t136.5 -38.5q107 0 177.5 48.5t70.5 125.5v158h-194q-240 0 -240 -145v-39z" />
    <glyph glyph-name="Abreve" unicode="&#x102;" horiz-adv-x="1343" 
d="M45 0l490 1430h274l489 -1430h-229l-129 395h-545l-129 -395h-221zM334 1837l117 59l43 -67q37 -62 75 -91.5t103 -29.5t103 29.5t77 91.5l41 67l117 -59q-15 -44 -29.5 -78t-43 -75.5t-62 -68.5t-86.5 -46t-117 -19q-55 0 -100.5 12t-79 35.5t-59 49t-44.5 62t-31 64
t-24 64.5zM449 584h438l-215 645h-10z" />
    <glyph glyph-name="abreve" unicode="&#x103;" horiz-adv-x="1118" 
d="M84 293q0 157 114.5 237t338.5 80h196v92q0 211 -225 211q-165 0 -256 -147l-127 115q118 206 395 206q202 0 313 -96.5t111 -271.5v-545h113v-174h-117q-155 0 -186 160l-4 18h-11q-30 -99 -111 -151t-198 -52q-163 0 -254.5 86t-91.5 232zM188 1495l117 59l43 -67
q39 -63 76 -92t102 -29t103.5 29.5t75.5 91.5l43 67l116 -59q-16 -45 -30.5 -78t-43 -75.5t-62 -69t-86 -45.5t-116.5 -19q-65 0 -118 19t-86.5 45.5t-61.5 69.5t-42 75t-30 78zM299 287q0 -71 49.5 -109.5t136.5 -38.5q107 0 177.5 48.5t70.5 125.5v158h-194
q-240 0 -240 -145v-39z" />
    <glyph glyph-name="Aogonek" unicode="&#x104;" horiz-adv-x="1343" 
d="M45 0l490 1430h274l489 -1430q-130 -104 -171.5 -153t-41.5 -87q0 -63 70 -63q58 0 102 51l91 -88q-21 -39 -74 -63.5t-129 -24.5q-95 0 -155 40t-60 122q0 75 55.5 133t163.5 125l-2 8h-78l-129 395h-545l-129 -395h-221zM449 584h438l-215 645h-10z" />
    <glyph glyph-name="aogonek" unicode="&#x105;" horiz-adv-x="1118" 
d="M84 293q0 157 114.5 237t338.5 80h196v92q0 211 -225 211q-165 0 -256 -147l-127 115q118 206 395 206q202 0 313 -96.5t111 -271.5v-545h113v-174q-129 -104 -170 -153t-41 -87q0 -63 67 -63q61 0 105 51l90 -88q-23 -39 -75.5 -63.5t-127.5 -24.5q-95 0 -155 40
t-60 122q0 75 55.5 133.5t165.5 126.5l-4 8l-12 2q-120 23 -143 160l-2 14h-11q-30 -99 -111 -151t-198 -52q-163 0 -254.5 86t-91.5 232zM299 287q0 -71 49.5 -109.5t136.5 -38.5q107 0 177.5 48.5t70.5 125.5v158h-194q-240 0 -240 -145v-39z" />
    <glyph glyph-name="Cacute" unicode="&#x106;" horiz-adv-x="1292" 
d="M113 707q0 356 158.5 551.5t437.5 195.5q358 0 505 -321l-182 -103q-40 109 -120.5 169.5t-202.5 60.5q-168 0 -265.5 -119t-97.5 -322v-219q0 -202 97 -316t266 -114q124 0 210 66t128 178l176 -107q-74 -159 -203.5 -245.5t-310.5 -86.5q-281 0 -438.5 188.5
t-157.5 543.5zM596 1597l184 365l183 -88l-236 -338z" />
    <glyph glyph-name="cacute" unicode="&#x107;" horiz-adv-x="1040" 
d="M88 532q0 257 127 406t354 149q155 0 258 -68.5t150 -189.5l-174 -81q-24 76 -84 119.5t-150 43.5q-124 0 -191 -78t-67 -208v-187q0 -130 67 -208t191 -78q182 0 258 176l158 -86q-52 -129 -158 -198t-258 -69q-227 0 -354 150t-127 407zM453 1255l184 365l182 -88
l-235 -338z" />
    <glyph glyph-name="Ccircumflex" unicode="&#x108;" horiz-adv-x="1292" 
d="M113 707q0 356 158.5 551.5t437.5 195.5q358 0 505 -321l-182 -103q-40 109 -120.5 169.5t-202.5 60.5q-168 0 -265.5 -119t-97.5 -322v-219q0 -202 97 -316t266 -114q124 0 210 66t128 178l176 -107q-74 -159 -203.5 -245.5t-310.5 -86.5q-281 0 -438.5 188.5
t-157.5 543.5zM354 1626l242 303h221l242 -303l-111 -82l-241 238l-242 -238z" />
    <glyph glyph-name="ccircumflex" unicode="&#x109;" horiz-adv-x="1040" 
d="M88 532q0 257 127 406t354 149q155 0 258 -68.5t150 -189.5l-174 -81q-24 76 -84 119.5t-150 43.5q-124 0 -191 -78t-67 -208v-187q0 -130 67 -208t191 -78q182 0 258 176l158 -86q-52 -129 -158 -198t-258 -69q-227 0 -354 150t-127 407zM211 1284l242 303h221l241 -303
l-110 -82l-242 238l-241 -238z" />
    <glyph glyph-name="Cdotaccent" unicode="&#x10a;" horiz-adv-x="1292" 
d="M113 707q0 356 158.5 551.5t437.5 195.5q358 0 505 -321l-182 -103q-40 109 -120.5 169.5t-202.5 60.5q-168 0 -265.5 -119t-97.5 -322v-219q0 -202 97 -316t266 -114q124 0 210 66t128 178l176 -107q-74 -159 -203.5 -245.5t-310.5 -86.5q-281 0 -438.5 188.5
t-157.5 543.5zM569 1698v39q0 56 34 88.5t104 32.5q69 0 103 -32.5t34 -88.5v-39q0 -55 -34 -87t-103 -32t-103.5 32t-34.5 87z" />
    <glyph glyph-name="cdotaccent" unicode="&#x10b;" horiz-adv-x="1040" 
d="M88 532q0 257 127 406t354 149q155 0 258 -68.5t150 -189.5l-174 -81q-24 76 -84 119.5t-150 43.5q-124 0 -191 -78t-67 -208v-187q0 -130 67 -208t191 -78q182 0 258 176l158 -86q-52 -129 -158 -198t-258 -69q-227 0 -354 150t-127 407zM432 1356v35q0 50 32.5 80
t98.5 30t98.5 -30t32.5 -80v-35q0 -52 -32.5 -81.5t-98.5 -29.5t-98.5 29.5t-32.5 81.5z" />
    <glyph glyph-name="Ccaron" unicode="&#x10c;" horiz-adv-x="1292" 
d="M113 707q0 356 158.5 551.5t437.5 195.5q358 0 505 -321l-182 -103q-40 109 -120.5 169.5t-202.5 60.5q-168 0 -265.5 -119t-97.5 -322v-219q0 -202 97 -316t266 -114q124 0 210 66t128 178l176 -107q-74 -159 -203.5 -245.5t-310.5 -86.5q-281 0 -438.5 188.5
t-157.5 543.5zM354 1864l111 82l242 -238l241 238l111 -82l-242 -303h-221z" />
    <glyph glyph-name="ccaron" unicode="&#x10d;" horiz-adv-x="1040" 
d="M88 532q0 257 127 406t354 149q155 0 258 -68.5t150 -189.5l-174 -81q-24 76 -84 119.5t-150 43.5q-124 0 -191 -78t-67 -208v-187q0 -130 67 -208t191 -78q182 0 258 176l158 -86q-52 -129 -158 -198t-258 -69q-227 0 -354 150t-127 407zM211 1522l111 82l241 -238
l242 238l110 -82l-241 -303h-221z" />
    <glyph glyph-name="Dcaron" unicode="&#x10e;" horiz-adv-x="1392" 
d="M180 0v1430h498q280 0 440 -182.5t160 -532.5t-160 -532.5t-440 -182.5h-498zM287 1864l110 82l242 -238l242 238l110 -82l-241 -303h-222zM397 193h281q168 0 268.5 106.5t100.5 300.5v229q0 194 -100.5 301t-268.5 107h-281v-1044z" />
    <glyph glyph-name="dcaron" unicode="&#x10f;" horiz-adv-x="1232" 
d="M98 532q0 260 112.5 407.5t311.5 147.5q108 0 188 -51.5t115 -146.5h9v627h210v-1516h-210v174h-9q-40 -95 -118.5 -147t-184.5 -52q-199 0 -311.5 148t-112.5 409zM319 440q0 -128 73 -206t194 -78q107 0 177.5 52.5t70.5 143.5v367q0 82 -72 135t-176 53
q-121 0 -194 -78t-73 -206v-183zM1163 1116l21 400h233l-114 -400h-140z" />
    <glyph glyph-name="Dcroat" unicode="&#x110;" horiz-adv-x="1398" 
d="M29 664v163h157v603h500q280 0 440 -182.5t160 -532.5t-160 -532.5t-440 -182.5h-500v664h-157zM406 193h280q168 0 267.5 106.5t99.5 300.5v229q0 194 -99.5 301t-267.5 107h-280v-410h268v-163h-268v-471z" />
    <glyph glyph-name="dcroat" unicode="&#x111;" horiz-adv-x="1212" 
d="M98 532q0 260 112.5 407.5t311.5 147.5q108 0 188 -51.5t115 -146.5h9v344h-302v153h302v130h210v-130h130v-153h-130v-1233h-210v174h-9q-40 -95 -118.5 -147t-184.5 -52q-199 0 -311.5 148t-112.5 409zM319 440q0 -128 73 -206t194 -78q107 0 177.5 52.5t70.5 143.5
v367q0 82 -72 135t-176 53q-121 0 -194 -78t-73 -206v-183z" />
    <glyph glyph-name="Emacron" unicode="&#x112;" horiz-adv-x="1210" 
d="M180 0v1430h905v-193h-688v-418h629v-192h-629v-434h688v-193h-905zM336 1638v162h590v-162h-590z" />
    <glyph glyph-name="emacron" unicode="&#x113;" horiz-adv-x="1132" 
d="M88 532q0 253 131 404t354 151q112 0 202.5 -40.5t148.5 -112t89 -167t31 -206.5v-82h-737v-39q0 -129 77 -209.5t212 -80.5q188 0 283 165l127 -118q-58 -102 -170 -162t-258 -60q-225 0 -357.5 151t-132.5 406zM283 1296v162h589v-162h-589zM307 621h516v20
q0 127 -67.5 204t-180.5 77q-119 0 -193.5 -80t-74.5 -207v-14z" />
    <glyph glyph-name="Ebreve" unicode="&#x114;" horiz-adv-x="1210" 
d="M180 0v1430h905v-193h-688v-418h629v-192h-629v-434h688v-193h-905zM293 1837l117 59l43 -67q37 -62 75 -91.5t103 -29.5t103 29.5t77 91.5l41 67l117 -59q-15 -44 -29.5 -78t-43 -75.5t-62 -68.5t-86.5 -46t-117 -19q-55 0 -100.5 12t-79 35.5t-59 49t-44.5 62t-31 64
t-24 64.5z" />
    <glyph glyph-name="ebreve" unicode="&#x115;" horiz-adv-x="1132" 
d="M88 532q0 253 131 404t354 151q112 0 202.5 -40.5t148.5 -112t89 -167t31 -206.5v-82h-737v-39q0 -129 77 -209.5t212 -80.5q188 0 283 165l127 -118q-58 -102 -170 -162t-258 -60q-225 0 -357.5 151t-132.5 406zM240 1495l116 59l43 -67q39 -63 76.5 -92t102.5 -29
t103 29.5t75 91.5l43 67l116 -59q-16 -45 -30.5 -78t-42.5 -75.5t-61.5 -69t-86 -45.5t-116.5 -19q-65 0 -118 19t-86.5 45.5t-61.5 69.5t-42 75t-30 78zM307 621h516v20q0 127 -67.5 204t-180.5 77q-119 0 -193.5 -80t-74.5 -207v-14z" />
    <glyph glyph-name="Edotaccent" unicode="&#x116;" horiz-adv-x="1210" 
d="M180 0v1430h905v-193h-688v-418h629v-192h-629v-434h688v-193h-905zM494 1698v39q0 56 34 88.5t103 32.5t103 -32.5t34 -88.5v-39q0 -55 -34 -87t-103 -32t-103 32t-34 87z" />
    <glyph glyph-name="edotaccent" unicode="&#x117;" horiz-adv-x="1132" 
d="M88 532q0 253 131 404t354 151q112 0 202.5 -40.5t148.5 -112t89 -167t31 -206.5v-82h-737v-39q0 -129 77 -209.5t212 -80.5q188 0 283 165l127 -118q-58 -102 -170 -162t-258 -60q-225 0 -357.5 151t-132.5 406zM307 621h516v20q0 127 -67.5 204t-180.5 77
q-119 0 -193.5 -80t-74.5 -207v-14zM446 1356v35q0 50 33 80t99 30t98.5 -30t32.5 -80v-35q0 -52 -32.5 -81.5t-98.5 -29.5q-67 0 -99.5 29.5t-32.5 81.5z" />
    <glyph glyph-name="Eogonek" unicode="&#x118;" horiz-adv-x="1210" 
d="M180 0v1430h905v-193h-688v-418h629v-192h-629v-434h688v-193q-129 -104 -170 -153t-41 -87q0 -63 68 -63q61 0 105 51l90 -88q-23 -39 -75.5 -63.5t-127.5 -24.5q-95 0 -155 40t-60 122q0 75 55.5 133.5t163.5 122.5l-2 10h-756z" />
    <glyph glyph-name="eogonek" unicode="&#x119;" horiz-adv-x="1132" 
d="M88 532q0 253 131 404t354 151q112 0 202.5 -40.5t148.5 -112t89 -167t31 -206.5v-82h-737v-39q0 -129 77.5 -209.5t213.5 -80.5q93 0 165 44t116 121l129 -118q-36 -57 -121 -131q-20 -21 -58 -58.5t-63 -63.5t-52 -59t-41 -64.5t-14 -60.5q0 -63 68 -63q58 0 102 51
l89 -88q-22 -39 -73.5 -63.5t-129.5 -24.5q-93 0 -152 40.5t-59 123.5q0 81 57.5 140t159.5 116l-6 10q-59 -27 -142 -27q-224 0 -354.5 150.5t-130.5 406.5zM307 621h516v20q0 127 -67.5 204t-180.5 77q-119 0 -193.5 -80t-74.5 -207v-14z" />
    <glyph glyph-name="Ecaron" unicode="&#x11a;" horiz-adv-x="1210" 
d="M180 0v1430h905v-193h-688v-418h629v-192h-629v-434h688v-193h-905zM279 1864l110 82l242 -238l241 238l111 -82l-242 -303h-221z" />
    <glyph glyph-name="ecaron" unicode="&#x11b;" horiz-adv-x="1132" 
d="M88 532q0 253 131 404t354 151q112 0 202.5 -40.5t148.5 -112t89 -167t31 -206.5v-82h-737v-39q0 -129 77 -209.5t212 -80.5q188 0 283 165l127 -118q-58 -102 -170 -162t-258 -60q-225 0 -357.5 151t-132.5 406zM225 1522l111 82l242 -238l241 238l111 -82l-242 -303
h-221zM307 621h516v20q0 127 -67.5 204t-180.5 77q-119 0 -193.5 -80t-74.5 -207v-14z" />
    <glyph glyph-name="Gcircumflex" unicode="&#x11c;" horiz-adv-x="1439" 
d="M113 713q0 352 168 546.5t454 194.5q186 0 321 -83.5t210 -235.5l-181 -107q-44 108 -133.5 170t-216.5 62q-176 0 -282.5 -115.5t-106.5 -313.5v-231q0 -200 107 -315t292 -115q146 0 241 73t95 208v116h-299v189h510v-756h-192v215h-8q-24 -106 -126.5 -173t-260.5 -67
q-129 0 -237 48.5t-187 140t-123.5 232.5t-44.5 317zM377 1626l241 303h222l241 -303l-110 -82l-242 238l-242 -238z" />
    <glyph glyph-name="gcircumflex" unicode="&#x11d;" horiz-adv-x="1107" 
d="M74 -178q0 165 178 205v22q-115 42 -115 162q0 141 189 186v9q-94 44 -145.5 127t-51.5 190q0 165 112 264.5t308 99.5q95 0 174 -24h338v-156h-154q62 -75 62 -184q0 -164 -111.5 -262.5t-308.5 -98.5q-73 0 -131 15q-47 -15 -78 -43t-31 -66q0 -80 152 -80h254
q375 0 375 -292q0 -166 -130 -248t-407 -82q-251 0 -365 65t-114 191zM199 1284l241 303h222l241 -303l-110 -82l-242 238l-242 -238zM254 -129q0 -69 55 -109.5t172 -40.5h144q266 0 266 154q0 125 -201 125h-358q-78 -46 -78 -129zM338 700q0 -91 55.5 -137.5t155.5 -46.5
q101 0 156 46.5t55 137.5v48q0 92 -55 139t-156 47q-100 0 -155.5 -47t-55.5 -139v-48z" />
    <glyph glyph-name="Gbreve" unicode="&#x11e;" horiz-adv-x="1439" 
d="M113 713q0 352 168 546.5t454 194.5q186 0 321 -83.5t210 -235.5l-181 -107q-44 108 -133.5 170t-216.5 62q-176 0 -282.5 -115.5t-106.5 -313.5v-231q0 -200 107 -315t292 -115q146 0 241 73t95 208v116h-299v189h510v-756h-192v215h-8q-24 -106 -126.5 -173t-260.5 -67
q-129 0 -237 48.5t-187 140t-123.5 232.5t-44.5 317zM391 1837l117 59l43 -67q37 -62 75 -91.5t103 -29.5t103 29.5t77 91.5l41 67l117 -59q-15 -44 -29.5 -78t-43 -75.5t-62 -68.5t-86.5 -46t-117 -19q-55 0 -100.5 12t-79 35.5t-59 49t-44.5 62t-31 64t-24 64.5z" />
    <glyph glyph-name="gbreve" unicode="&#x11f;" horiz-adv-x="1107" 
d="M74 -178q0 165 178 205v22q-115 42 -115 162q0 141 189 186v9q-94 44 -145.5 127t-51.5 190q0 165 112 264.5t308 99.5q95 0 174 -24h338v-156h-154q62 -75 62 -184q0 -164 -111.5 -262.5t-308.5 -98.5q-73 0 -131 15q-47 -15 -78 -43t-31 -66q0 -80 152 -80h254
q375 0 375 -292q0 -166 -130 -248t-407 -82q-251 0 -365 65t-114 191zM211 1495l117 59l41 -67q39 -62 77 -91.5t101 -29.5q65 0 103 29.5t77 91.5l41 67l117 -59q-15 -44 -29.5 -78t-43 -75.5t-62 -68.5t-86.5 -46t-117 -19q-65 0 -117.5 19t-86 45.5t-61.5 69t-42 75.5
t-29 78zM254 -129q0 -69 55 -109.5t172 -40.5h144q266 0 266 154q0 125 -201 125h-358q-78 -46 -78 -129zM338 700q0 -91 55.5 -137.5t155.5 -46.5q101 0 156 46.5t55 137.5v48q0 92 -55 139t-156 47q-100 0 -155.5 -47t-55.5 -139v-48z" />
    <glyph glyph-name="Gdotaccent" unicode="&#x120;" horiz-adv-x="1439" 
d="M113 713q0 352 168 546.5t454 194.5q186 0 321 -83.5t210 -235.5l-181 -107q-44 108 -133.5 170t-216.5 62q-176 0 -282.5 -115.5t-106.5 -313.5v-231q0 -200 107 -315t292 -115q146 0 241 73t95 208v116h-299v189h510v-756h-192v215h-8q-24 -106 -126.5 -173t-260.5 -67
q-129 0 -237 48.5t-187 140t-123.5 232.5t-44.5 317zM592 1698v39q0 56 34 88.5t103 32.5t103 -32.5t34 -88.5v-39q0 -55 -34 -87t-103 -32t-103 32t-34 87z" />
    <glyph glyph-name="gdotaccent" unicode="&#x121;" horiz-adv-x="1107" 
d="M74 -178q0 165 178 205v22q-115 42 -115 162q0 141 189 186v9q-94 44 -145.5 127t-51.5 190q0 165 112 264.5t308 99.5q95 0 174 -24h338v-156h-154q62 -75 62 -184q0 -164 -111.5 -262.5t-308.5 -98.5q-73 0 -131 15q-47 -15 -78 -43t-31 -66q0 -80 152 -80h254
q375 0 375 -292q0 -166 -130 -248t-407 -82q-251 0 -365 65t-114 191zM254 -129q0 -69 55 -109.5t172 -40.5h144q266 0 266 154q0 125 -201 125h-358q-78 -46 -78 -129zM338 700q0 -91 55.5 -137.5t155.5 -46.5q101 0 156 46.5t55 137.5v48q0 92 -55 139t-156 47
q-100 0 -155.5 -47t-55.5 -139v-48zM420 1356v35q0 50 32.5 80t98.5 30t98.5 -30t32.5 -80v-35q0 -52 -32.5 -81.5t-98.5 -29.5t-98.5 29.5t-32.5 81.5z" />
    <glyph glyph-name="uni0122" unicode="&#x122;" horiz-adv-x="1439" 
d="M113 713q0 352 168 546.5t454 194.5q186 0 321 -83.5t210 -235.5l-181 -107q-44 108 -133.5 170t-216.5 62q-176 0 -282.5 -115.5t-106.5 -313.5v-231q0 -200 107 -315t292 -115q146 0 241 73t95 208v116h-299v189h510v-756h-192v215h-8q-24 -106 -126.5 -173t-260.5 -67
q-129 0 -237 48.5t-187 140t-123.5 232.5t-44.5 317zM567 -522q46 45 72 84t39 90q-41 6 -61.5 33.5t-20.5 68.5v21q0 51 31 78.5t88 27.5q56 0 86 -27.5t30 -78.5v-25q0 -76 -35.5 -149t-90.5 -123h-138z" />
    <glyph glyph-name="uni0123" unicode="&#x123;" horiz-adv-x="1107" 
d="M74 -178q0 165 178 205v22q-115 42 -115 162q0 141 189 186v9q-94 44 -145.5 127t-51.5 190q0 165 112 264.5t308 99.5q95 0 174 -24h338v-156h-154q62 -75 62 -184q0 -164 -111.5 -262.5t-308.5 -98.5q-73 0 -131 15q-47 -15 -78 -43t-31 -66q0 -80 152 -80h254
q375 0 375 -292q0 -166 -130 -248t-407 -82q-251 0 -365 65t-114 191zM254 -129q0 -69 55 -109.5t172 -40.5h144q266 0 266 154q0 125 -201 125h-358q-78 -46 -78 -129zM338 700q0 -91 55.5 -137.5t155.5 -46.5q101 0 156 46.5t55 137.5v48q0 92 -55 139t-156 47
q-100 0 -155.5 -47t-55.5 -139v-48zM436 1313v24q0 75 36 149.5t91 123.5h137q-47 -47 -72.5 -85.5t-39.5 -88.5q41 -7 61.5 -35.5t20.5 -67.5v-20q0 -51 -30 -79t-87 -28t-87 28t-30 79z" />
    <glyph glyph-name="Hcircumflex" unicode="&#x124;" horiz-adv-x="1460" 
d="M180 0v1430h217v-611h664v611h219v-1430h-219v627h-664v-627h-217zM379 1626l242 303h221l241 -303l-110 -82l-242 238l-242 -238z" />
    <glyph glyph-name="hcircumflex" unicode="&#x125;" horiz-adv-x="1181" 
d="M-82 1608l242 303h221l242 -303l-111 -82l-242 237l-241 -237zM164 0v1516h209v-629h10q80 200 299 200q164 0 256 -108t92 -303v-676h-211v649q0 258 -209 258q-98 0 -167.5 -48.5t-69.5 -137.5v-721h-209z" />
    <glyph glyph-name="Hbar" unicode="&#x126;" horiz-adv-x="1474" 
d="M43 1053v166h143v211h220v-211h663v211h219v-211h144v-166h-144v-1053h-219v627h-663v-627h-220v1053h-143zM406 819h663v234h-663v-234z" />
    <glyph glyph-name="hbar" unicode="&#x127;" horiz-adv-x="1181" 
d="M33 1233v153h131v130h209v-130h301v-153h-301v-346h10q80 200 299 200q164 0 256 -108t92 -303v-676h-211v649q0 258 -209 258q-98 0 -167.5 -48.5t-69.5 -137.5v-721h-209v1233h-131z" />
    <glyph glyph-name="Itilde" unicode="&#x128;" horiz-adv-x="841" 
d="M61 1733q77 114 207 114q32 0 64.5 -8.5t49 -16.5t48.5 -24q96 -47 150 -47q56 0 118 53l80 -100q-79 -117 -207 -117q-32 0 -64 9t-48 16t-49 24q-95 50 -150 50q-53 0 -119 -56zM117 0v178h194v1073h-194v179h608v-179h-195v-1073h195v-178h-608z" />
    <glyph glyph-name="itilde" unicode="&#x129;" horiz-adv-x="536" 
d="M-90 1391q77 114 207 114q32 0 64.5 -8.5t49 -16.5t48.5 -24q96 -47 149 -47q57 0 119 53l80 -100q-79 -117 -207 -117q-32 0 -64.5 8.5t-49 16.5t-48.5 24q-94 49 -149 49t-119 -55zM164 0v1063h209v-1063h-209z" />
    <glyph glyph-name="Imacron" unicode="&#x12a;" horiz-adv-x="841" 
d="M117 0v178h194v1073h-194v179h608v-179h-195v-1073h195v-178h-608zM125 1638v162h590v-162h-590z" />
    <glyph glyph-name="imacron" unicode="&#x12b;" horiz-adv-x="536" 
d="M-27 1296v162h590v-162h-590zM164 0v1063h209v-1063h-209z" />
    <glyph glyph-name="Ibreve" unicode="&#x12c;" horiz-adv-x="841" 
d="M82 1837l117 59l43 -67q37 -62 75 -91.5t103 -29.5t103 29.5t77 91.5l41 67l117 -59q-15 -44 -29.5 -78t-43 -75.5t-62 -68.5t-86.5 -46t-117 -19q-55 0 -100.5 12t-79 35.5t-59 49t-44.5 62t-31 64t-24 64.5zM117 0v178h194v1073h-194v179h608v-179h-195v-1073h195v-178
h-608z" />
    <glyph glyph-name="ibreve" unicode="&#x12d;" horiz-adv-x="536" 
d="M-70 1495l117 59l43 -67q39 -63 76 -92t102 -29t103 29.5t75 91.5l43 67l117 -59q-16 -45 -30.5 -78t-43 -75.5t-62 -69t-86 -45.5t-116.5 -19q-65 0 -118 19t-86.5 45.5t-61.5 69.5t-42 75t-30 78zM164 0v1063h209v-1063h-209z" />
    <glyph glyph-name="Iogonek" unicode="&#x12e;" horiz-adv-x="841" 
d="M117 0v178h194v1073h-194v179h608v-179h-195v-1073h195v-178q-129 -104 -170 -153t-41 -87q0 -63 68 -63q60 0 104 51l90 -88q-23 -39 -75.5 -63.5t-127.5 -24.5q-95 0 -155 40t-60 122q0 75 53.5 132.5t166.5 123.5l-3 10h-458z" />
    <glyph glyph-name="iogonek" unicode="&#x12f;" horiz-adv-x="536" 
d="M6 -266q0 75 56 133.5t165 124.5l-4 8h-59v1063h209v-1063q-129 -104 -170 -153t-41 -87q0 -63 67 -63q61 0 105 51l90 -88q-23 -39 -75.5 -63.5t-127.5 -24.5q-95 0 -155 40t-60 122zM143 1378v33q0 52 30.5 81.5t94.5 29.5t94.5 -29.5t30.5 -81.5v-33q0 -52 -31 -82
t-94 -30t-94 30t-31 82z" />
    <glyph glyph-name="Idotaccent" unicode="&#x130;" horiz-adv-x="841" 
d="M117 0v178h194v1073h-194v179h608v-179h-195v-1073h195v-178h-608zM283 1698v39q0 56 34 88.5t103 32.5t103 -32.5t34 -88.5v-39q0 -55 -34 -87t-103 -32t-103 32t-34 87z" />
    <glyph glyph-name="dotlessi" unicode="&#x131;" horiz-adv-x="536" 
d="M164 0v1063h209v-1063h-209z" />
    <glyph glyph-name="IJ" unicode="&#x132;" horiz-adv-x="1329" 
d="M170 606v824h219v-824h-219zM182 336l201 45q21 -98 91.5 -154.5t191.5 -56.5q127 0 200.5 65.5t73.5 198.5v809h-268v187h487v-979q0 -220 -133.5 -348t-363.5 -128q-204 0 -326 98t-154 263z" />
    <glyph glyph-name="ij" unicode="&#x133;" horiz-adv-x="1062" 
d="M143 1378v33q0 52 30.5 81.5t94.5 29.5t94.5 -29.5t30.5 -81.5v-33q0 -52 -31 -82t-94 -30t-94 30t-31 82zM164 0v1063h209v-1063h-209zM522 -236h168v1299h211v-1210q0 -124 -63.5 -193.5t-190.5 -69.5h-125v174zM670 1378v33q0 51 31.5 81t93.5 30q64 0 95.5 -29.5
t31.5 -81.5v-33q0 -52 -31.5 -82t-95.5 -30q-62 0 -93.5 30t-31.5 82z" />
    <glyph glyph-name="Jcircumflex" unicode="&#x134;" horiz-adv-x="1077" 
d="M55 328l201 43q41 -201 223 -201q99 0 155 60.5t56 179.5v835h-473v185h690v-1045q0 -186 -117.5 -298t-312.5 -112q-176 0 -284 94.5t-138 258.5zM215 1626l242 303h221l242 -303l-111 -82l-242 238l-241 -238z" />
    <glyph glyph-name="jcircumflex" unicode="&#x135;" horiz-adv-x="536" 
d="M-84 1284l242 303h221l242 -303l-111 -82l-242 238l-241 -238zM-4 -236h168v1299h209v-1210q0 -124 -63 -193.5t-191 -69.5h-123v174z" />
    <glyph glyph-name="uni0136" unicode="&#x136;" horiz-adv-x="1341" 
d="M180 0v1430h217v-734h9l204 258l396 476h258l-516 -605l555 -825h-265l-442 676l-199 -225v-451h-217zM561 -522q46 45 72 84t39 90q-41 6 -61.5 33.5t-20.5 68.5v21q0 51 31 78.5t88 27.5q56 0 86 -27.5t30 -78.5v-25q0 -76 -36 -149t-91 -123h-137z" />
    <glyph glyph-name="uni0137" unicode="&#x137;" horiz-adv-x="1114" 
d="M164 0v1516h209v-938h10l152 186l272 299h244l-381 -416l420 -647h-252l-314 510l-151 -158v-352h-209zM473 -522q46 45 72 84t39 90q-41 6 -61.5 33.5t-20.5 68.5v21q0 51 31 78.5t88 27.5q56 0 86 -27.5t30 -78.5v-25q0 -76 -36 -149t-91 -123h-137z" />
    <glyph glyph-name="kgreenlandic" unicode="&#x138;" horiz-adv-x="1114" 
d="M164 0v1063h209v-483h10l156 184l278 299h248l-393 -416l418 -647h-250l-318 508l-149 -156v-352h-209z" />
    <glyph glyph-name="Lacute" unicode="&#x139;" horiz-adv-x="1046" 
d="M180 0v1430h217v-1237h588v-193h-805zM180 1597l185 365l182 -88l-236 -338z" />
    <glyph glyph-name="lacute" unicode="&#x13a;" horiz-adv-x="577" 
d="M164 211v1305h209v-1342h149v-174h-143q-105 0 -160 56t-55 155zM164 1665l184 365l182 -88l-235 -338z" />
    <glyph glyph-name="uni013B" unicode="&#x13b;" horiz-adv-x="1046" 
d="M180 0v1430h217v-1237h588v-193h-805zM455 -522q46 44 71.5 83.5t38.5 90.5q-41 6 -61.5 33.5t-20.5 68.5v21q0 51 31 78.5t88 27.5q56 0 86.5 -27.5t30.5 -78.5v-25q0 -76 -36 -149t-91 -123h-137z" />
    <glyph glyph-name="uni013C" unicode="&#x13c;" horiz-adv-x="577" 
d="M164 211v1305h209v-1342h149v-174h-143q-105 0 -160 56t-55 155zM197 -522q46 44 71.5 83.5t38.5 90.5q-41 6 -61.5 33.5t-20.5 68.5v21q0 51 31 78.5t88 27.5q56 0 86.5 -27.5t30.5 -78.5v-25q0 -76 -36 -149t-91 -123h-137z" />
    <glyph glyph-name="Lcaron" unicode="&#x13d;" horiz-adv-x="1046" 
d="M180 0v1430h217v-1237h588v-193h-805zM555 1118l20 400h234l-117 -400h-137z" />
    <glyph glyph-name="lcaron" unicode="&#x13e;" horiz-adv-x="620" 
d="M164 211v1305h209v-1342h149v-174h-143q-105 0 -160 56t-55 155zM492 1116l20 400h233l-114 -400h-139z" />
    <glyph glyph-name="Ldot" unicode="&#x13f;" horiz-adv-x="1046" 
d="M180 0v1430h217v-1237h588v-193h-805zM678 729v35q0 50 32.5 80t98.5 30q65 0 97 -30t32 -80v-35q0 -52 -32 -81.5t-97 -29.5q-66 0 -98.5 29.5t-32.5 81.5z" />
    <glyph glyph-name="ldot" unicode="&#x140;" horiz-adv-x="794" 
d="M164 211v1305h209v-1342h149v-174h-143q-105 0 -160 56t-55 155zM532 643v35q0 50 33 80t99 30q65 0 97 -30t32 -80v-35q0 -52 -32 -81.5t-97 -29.5q-67 0 -99.5 29.5t-32.5 81.5z" />
    <glyph glyph-name="Lslash" unicode="&#x141;" horiz-adv-x="1062" 
d="M-14 469v170l200 68v723h220v-654l354 119v-174l-354 -115v-411h587v-195h-807v537z" />
    <glyph glyph-name="lslash" unicode="&#x142;" horiz-adv-x="593" 
d="M23 596v168l149 49v703h209v-633l213 69v-168l-213 -69v-541h149v-174h-143q-105 0 -160 56t-55 155v434z" />
    <glyph glyph-name="Nacute" unicode="&#x143;" horiz-adv-x="1460" 
d="M180 0v1430h246l477 -807l162 -308h6v1115h209v-1430h-246l-479 807l-160 307h-6v-1114h-209zM618 1597l185 365l182 -88l-235 -338z" />
    <glyph glyph-name="nacute" unicode="&#x144;" horiz-adv-x="1181" 
d="M164 0v1063h209v-176h10q80 200 299 200q164 0 256 -108t92 -303v-676h-211v649q0 258 -209 258q-98 0 -167.5 -48.5t-69.5 -137.5v-721h-209zM485 1253l185 365l182 -88l-236 -338z" />
    <glyph glyph-name="uni0145" unicode="&#x145;" horiz-adv-x="1460" 
d="M180 0v1430h246l477 -807l162 -308h6v1115h209v-1430h-246l-479 807l-160 307h-6v-1114h-209zM582 -522q46 44 71.5 83.5t38.5 90.5q-41 6 -61.5 33.5t-20.5 68.5v21q0 51 31 78.5t88 27.5q56 0 86.5 -27.5t30.5 -78.5v-25q0 -76 -36 -149t-91 -123h-137z" />
    <glyph glyph-name="uni0146" unicode="&#x146;" horiz-adv-x="1181" 
d="M164 0v1063h209v-176h10q80 200 299 200q164 0 256 -108t92 -303v-676h-211v649q0 258 -209 258q-98 0 -167.5 -48.5t-69.5 -137.5v-721h-209zM449 -522q46 44 71.5 83.5t38.5 90.5q-41 6 -61.5 33.5t-20.5 68.5v21q0 51 31 78.5t88 27.5q56 0 86.5 -27.5t30.5 -78.5v-25
q0 -76 -36 -149t-91 -123h-137z" />
    <glyph glyph-name="Ncaron" unicode="&#x147;" horiz-adv-x="1460" 
d="M180 0v1430h246l477 -807l162 -308h6v1115h209v-1430h-246l-479 807l-160 307h-6v-1114h-209zM377 1864l110 82l242 -238l242 238l110 -82l-241 -303h-222z" />
    <glyph glyph-name="ncaron" unicode="&#x148;" horiz-adv-x="1181" 
d="M164 0v1063h209v-176h10q80 200 299 200q164 0 256 -108t92 -303v-676h-211v649q0 258 -209 258q-98 0 -167.5 -48.5t-69.5 -137.5v-721h-209zM244 1520l110 82l242 -238l242 238l110 -82l-241 -303h-222z" />
    <glyph glyph-name="napostrophe" unicode="&#x149;" horiz-adv-x="1714" 
d="M86 989q68 69 107.5 128.5t58.5 129.5q-96 20 -96 123v37q0 60 35 94.5t106 34.5t107 -35t36 -94v-35q0 -96 -54.5 -202t-143.5 -181h-156zM694 0v1063h211v-176h8q80 200 299 200q165 0 257 -107.5t92 -303.5v-676h-209v649q0 258 -211 258q-97 0 -166.5 -48.5
t-69.5 -137.5v-721h-211z" />
    <glyph glyph-name="Eng" unicode="&#x14a;" horiz-adv-x="1460" 
d="M180 0v1430h246l477 -807l162 -308h6v1115h209v-1571q0 -127 -64.5 -198t-191.5 -71h-129v181h176v229h-37l-479 807l-160 307h-6v-1114h-209z" />
    <glyph glyph-name="eng" unicode="&#x14b;" horiz-adv-x="1181" 
d="M164 0v1063h209v-176h10q80 200 299 200q164 0 256 -108t92 -303v-826q0 -125 -62.5 -192.5t-189.5 -67.5h-127v174h168v885q0 258 -209 258q-98 0 -167.5 -48t-69.5 -138v-721h-209z" />
    <glyph glyph-name="Omacron" unicode="&#x14c;" horiz-adv-x="1454" 
d="M113 715q0 355 164.5 547t449.5 192t449.5 -192t164.5 -547t-164.5 -547.5t-449.5 -192.5t-449.5 192.5t-164.5 547.5zM346 600q0 -197 105 -313.5t276 -116.5t276 116.5t105 313.5v229q0 197 -105 314t-276 117t-276 -117t-105 -314v-229zM432 1638v162h590v-162h-590z
" />
    <glyph glyph-name="omacron" unicode="&#x14d;" horiz-adv-x="1148" 
d="M88 532q0 253 132.5 404t354.5 151q220 0 353 -151t133 -404q0 -254 -133 -405.5t-353 -151.5q-222 0 -354.5 151t-132.5 406zM281 1292v162h589v-162h-589zM311 444q0 -143 71 -217.5t193 -74.5q121 0 192 75t71 217v174q0 142 -71 217.5t-192 75.5q-122 0 -193 -75
t-71 -218v-174z" />
    <glyph glyph-name="Obreve" unicode="&#x14e;" horiz-adv-x="1454" 
d="M113 715q0 355 164.5 547t449.5 192t449.5 -192t164.5 -547t-164.5 -547.5t-449.5 -192.5t-449.5 192.5t-164.5 547.5zM346 600q0 -197 105 -313.5t276 -116.5t276 116.5t105 313.5v229q0 197 -105 314t-276 117t-276 -117t-105 -314v-229zM389 1837l117 59l43 -67
q37 -62 75 -91.5t103 -29.5t103 29.5t77 91.5l41 67l117 -59q-15 -44 -29.5 -78t-43 -75.5t-62 -68.5t-86.5 -46t-117 -19q-55 0 -100.5 12t-79 35.5t-59 49t-44.5 62t-31 64t-24 64.5z" />
    <glyph glyph-name="obreve" unicode="&#x14f;" horiz-adv-x="1148" 
d="M88 532q0 253 132.5 404t354.5 151q220 0 353 -151t133 -404q0 -254 -133 -405.5t-353 -151.5q-222 0 -354.5 151t-132.5 406zM238 1491l116 59l43 -67q39 -63 76 -92t102 -29t103.5 29.5t75.5 91.5l43 67l116 -59q-16 -45 -30.5 -78t-43 -75.5t-62 -69t-86 -45.5
t-116.5 -19q-65 0 -118 19t-86 45.5t-61.5 69.5t-42 74.5t-29.5 78.5zM311 444q0 -143 71 -217.5t193 -74.5q121 0 192 75t71 217v174q0 142 -71 217.5t-192 75.5q-122 0 -193 -75t-71 -218v-174z" />
    <glyph glyph-name="Ohungarumlaut" unicode="&#x150;" horiz-adv-x="1454" 
d="M113 715q0 355 164.5 547t449.5 192t449.5 -192t164.5 -547t-164.5 -547.5t-449.5 -192.5t-449.5 192.5t-164.5 547.5zM346 600q0 -197 105 -313.5t276 -116.5t276 116.5t105 313.5v229q0 197 -105 314t-276 117t-276 -117t-105 -314v-229zM444 1593l185 365l174 -84
l-238 -336zM803 1593l184 365l174 -84l-237 -336z" />
    <glyph glyph-name="ohungarumlaut" unicode="&#x151;" horiz-adv-x="1148" 
d="M88 532q0 253 132.5 404t354.5 151q220 0 353 -151t133 -404q0 -254 -133 -405.5t-353 -151.5q-222 0 -354.5 151t-132.5 406zM293 1247l184 365l174 -84l-237 -336zM311 444q0 -143 71 -217.5t193 -74.5q121 0 192 75t71 217v174q0 142 -71 217.5t-192 75.5
q-122 0 -193 -75t-71 -218v-174zM651 1247l185 365l174 -84l-238 -336z" />
    <glyph glyph-name="OE" unicode="&#x152;" horiz-adv-x="2025" 
d="M113 715q0 358 167.5 548.5t464.5 190.5q129 0 259 -24h897v-193h-689v-418h631v-192h-631v-434h689v-193h-904q-125 -25 -252 -25q-297 0 -464.5 191t-167.5 549zM346 600q0 -202 105 -316t307 -114q123 0 235 31v1028q-112 31 -235 31q-202 0 -307 -114.5t-105 -316.5
v-229z" />
    <glyph glyph-name="oe" unicode="&#x153;" horiz-adv-x="1886" 
d="M88 535q0 253 132.5 402.5t354.5 149.5q129 0 224.5 -53t144.5 -153h12q45 97 141.5 151.5t231.5 54.5q217 0 343 -145t126 -381v-82h-737v-39q0 -129 77.5 -209.5t213.5 -80.5q183 0 282 165l127 -118q-60 -103 -169 -162.5t-251 -59.5t-241.5 57.5t-143.5 149.5h-12
q-44 -93 -142.5 -150t-226.5 -57q-221 0 -354 152.5t-133 407.5zM311 444q0 -143 71 -217.5t193 -74.5q121 0 192 75t71 217v174q0 142 -71 217.5t-192 75.5q-122 0 -193 -75t-71 -218v-174zM1061 621h514v20q0 127 -67 204t-181 77q-118 0 -192 -80.5t-74 -206.5v-14z" />
    <glyph glyph-name="Racute" unicode="&#x154;" horiz-adv-x="1333" 
d="M180 0v1430h604q192 0 302 -112t110 -310q0 -155 -71.5 -259.5t-206.5 -140.5l311 -608h-244l-291 584h-297v-584h-217zM397 770h375q91 0 142 47.5t51 136.5v101q0 89 -51 136.5t-142 47.5h-375v-469zM530 1597l185 365l182 -88l-235 -338z" />
    <glyph glyph-name="racute" unicode="&#x155;" horiz-adv-x="776" 
d="M164 0v1063h209v-207h10q28 89 102 148t193 59h61v-203h-90q-132 0 -204 -45t-72 -127v-688h-209zM342 1255l184 365l183 -88l-236 -338z" />
    <glyph glyph-name="uni0156" unicode="&#x156;" horiz-adv-x="1333" 
d="M180 0v1430h604q192 0 302 -112t110 -310q0 -155 -71.5 -259.5t-206.5 -140.5l311 -608h-244l-291 584h-297v-584h-217zM397 770h375q91 0 142 47.5t51 136.5v101q0 89 -51 136.5t-142 47.5h-375v-469zM537 -522q46 44 71.5 83.5t38.5 90.5q-41 6 -61.5 33.5t-20.5 68.5
v21q0 51 31 78.5t88 27.5q56 0 86.5 -27.5t30.5 -78.5v-25q0 -76 -36 -149t-91 -123h-137z" />
    <glyph glyph-name="uni0157" unicode="&#x157;" horiz-adv-x="776" 
d="M123 -522q46 44 71.5 83.5t38.5 90.5q-41 6 -61 33.5t-20 68.5v21q0 51 30.5 78.5t87.5 27.5q56 0 86.5 -27.5t30.5 -78.5v-25q0 -76 -36 -149t-91 -123h-137zM164 0v1063h209v-207h10q28 89 102 148t193 59h61v-203h-90q-132 0 -204 -45t-72 -127v-688h-209z" />
    <glyph glyph-name="Rcaron" unicode="&#x158;" horiz-adv-x="1333" 
d="M180 0v1430h604q192 0 302 -112t110 -310q0 -155 -71.5 -259.5t-206.5 -140.5l311 -608h-244l-291 584h-297v-584h-217zM291 1864l110 82l242 -238l242 238l110 -82l-241 -303h-222zM397 770h375q91 0 142 47.5t51 136.5v101q0 89 -51 136.5t-142 47.5h-375v-469z" />
    <glyph glyph-name="rcaron" unicode="&#x159;" horiz-adv-x="776" 
d="M100 1522l111 82l242 -238l241 238l111 -82l-242 -303h-221zM164 0v1063h209v-207h10q28 89 102 148t193 59h61v-203h-90q-132 0 -204 -45t-72 -127v-688h-209z" />
    <glyph glyph-name="Sacute" unicode="&#x15a;" horiz-adv-x="1218" 
d="M84 219l152 139q152 -190 376 -190q137 0 211 64t74 174q0 89 -52.5 139t-178.5 76l-125 24q-207 39 -310.5 138t-103.5 266q0 189 134 297t360 108q310 0 481 -223l-156 -131q-122 162 -338 162q-126 0 -195 -52.5t-69 -150.5q0 -90 56 -136.5t180 -72.5l125 -25
q212 -44 310.5 -142t98.5 -265q0 -202 -136 -322.5t-376 -120.5q-328 0 -518 244zM496 1597l184 365l182 -88l-235 -338z" />
    <glyph glyph-name="sacute" unicode="&#x15b;" horiz-adv-x="1009" 
d="M68 178l137 123q128 -154 303 -154q98 0 149.5 39t51.5 109q0 58 -37 93.5t-123 47.5l-94 13q-168 25 -258.5 99.5t-90.5 215.5q0 152 108 237.5t284 85.5q135 0 226.5 -42.5t164.5 -126.5l-129 -125q-99 122 -264 122q-92 0 -139.5 -36.5t-47.5 -102.5q0 -63 41 -96
t131 -45l97 -14q172 -24 252.5 -100.5t80.5 -205.5q0 -155 -112.5 -247.5t-302.5 -92.5q-269 0 -428 203zM385 1255l184 365l183 -88l-236 -338z" />
    <glyph glyph-name="Scircumflex" unicode="&#x15c;" horiz-adv-x="1218" 
d="M84 219l152 139q152 -190 376 -190q137 0 211 64t74 174q0 89 -52.5 139t-178.5 76l-125 24q-207 39 -310.5 138t-103.5 266q0 189 134 297t360 108q310 0 481 -223l-156 -131q-122 162 -338 162q-126 0 -195 -52.5t-69 -150.5q0 -90 56 -136.5t180 -72.5l125 -25
q212 -44 310.5 -142t98.5 -265q0 -202 -136 -322.5t-376 -120.5q-328 0 -518 244zM254 1626l242 303h221l241 -303l-110 -82l-242 238l-241 -238z" />
    <glyph glyph-name="scircumflex" unicode="&#x15d;" horiz-adv-x="1009" 
d="M68 178l137 123q128 -154 303 -154q98 0 149.5 39t51.5 109q0 58 -37 93.5t-123 47.5l-94 13q-168 25 -258.5 99.5t-90.5 215.5q0 152 108 237.5t284 85.5q135 0 226.5 -42.5t164.5 -126.5l-129 -125q-99 122 -264 122q-92 0 -139.5 -36.5t-47.5 -102.5q0 -63 41 -96
t131 -45l97 -14q172 -24 252.5 -100.5t80.5 -205.5q0 -155 -112.5 -247.5t-302.5 -92.5q-269 0 -428 203zM143 1284l242 303h221l242 -303l-111 -82l-241 238l-242 -238z" />
    <glyph glyph-name="Scedilla" unicode="&#x15e;" horiz-adv-x="1218" 
d="M84 219l152 139q152 -190 376 -190q137 0 211 64t74 174q0 89 -52.5 139t-178.5 76l-125 24q-207 39 -310.5 138t-103.5 266q0 189 134 297t360 108q310 0 481 -223l-156 -131q-122 162 -338 162q-126 0 -195 -52.5t-69 -150.5q0 -90 56 -136.5t180 -72.5l125 -25
q212 -44 310.5 -142t98.5 -265q0 -191 -122.5 -310t-340.5 -131l-18 -98l6 -6q43 12 86 12q63 0 103 -35.5t40 -101.5q0 -88 -68.5 -132t-172.5 -44q-82 0 -137.5 25.5t-83.5 60.5l83 94q46 -57 129 -57q41 0 66 15t25 44q0 64 -146 84l-51 6l27 133q-280 19 -455 242z" />
    <glyph glyph-name="scedilla" unicode="&#x15f;" horiz-adv-x="1009" 
d="M68 178l137 123q128 -154 303 -154q98 0 149.5 39t51.5 109q0 58 -37 93.5t-123 47.5l-94 13q-168 25 -258.5 99.5t-90.5 215.5q0 152 108 237.5t284 85.5q135 0 226.5 -42.5t164.5 -126.5l-129 -125q-99 122 -264 122q-92 0 -139.5 -36.5t-47.5 -102.5q0 -63 41 -96
t131 -45l97 -14q172 -24 252.5 -100.5t80.5 -205.5q0 -143 -97.5 -234.5t-264.5 -103.5l-21 -98l9 -6q44 12 86 12q63 0 102 -35t39 -102q0 -88 -69 -132t-173 -44q-151 0 -219 86l84 94q46 -57 127 -57q40 0 65 15t25 44q0 30 -30.5 51.5t-112.5 32.5l-53 6l26 133
q-224 19 -366 201z" />
    <glyph glyph-name="Scaron" unicode="&#x160;" horiz-adv-x="1218" 
d="M84 219l152 139q152 -190 376 -190q137 0 211 64t74 174q0 89 -52.5 139t-178.5 76l-125 24q-207 39 -310.5 138t-103.5 266q0 189 134 297t360 108q310 0 481 -223l-156 -131q-122 162 -338 162q-126 0 -195 -52.5t-69 -150.5q0 -90 56 -136.5t180 -72.5l125 -25
q212 -44 310.5 -142t98.5 -265q0 -202 -136 -322.5t-376 -120.5q-328 0 -518 244zM254 1864l111 82l241 -238l242 238l110 -82l-241 -303h-221z" />
    <glyph glyph-name="scaron" unicode="&#x161;" horiz-adv-x="1009" 
d="M68 178l137 123q128 -154 303 -154q98 0 149.5 39t51.5 109q0 58 -37 93.5t-123 47.5l-94 13q-168 25 -258.5 99.5t-90.5 215.5q0 152 108 237.5t284 85.5q135 0 226.5 -42.5t164.5 -126.5l-129 -125q-99 122 -264 122q-92 0 -139.5 -36.5t-47.5 -102.5q0 -63 41 -96
t131 -45l97 -14q172 -24 252.5 -100.5t80.5 -205.5q0 -155 -112.5 -247.5t-302.5 -92.5q-269 0 -428 203zM143 1522l111 82l242 -238l241 238l111 -82l-242 -303h-221z" />
    <glyph glyph-name="uni0162" unicode="&#x162;" horiz-adv-x="1179" 
d="M49 1237v193h1081v-193h-432v-1237h-217v1237h-432zM442 -522q46 45 72 84t39 90q-41 6 -61.5 33.5t-20.5 68.5v21q0 51 31 78.5t88 27.5q56 0 86.5 -27.5t30.5 -78.5v-25q0 -76 -36 -149t-91 -123h-138z" />
    <glyph glyph-name="uni0163" unicode="&#x163;" horiz-adv-x="741" 
d="M55 889v174h90q55 0 77 23.5t22 78.5v191h188v-293h225v-174h-225v-715h209v-174h-197q-108 0 -165.5 58.5t-57.5 162.5v668h-166zM299 -522q46 45 72 84t39 90q-41 6 -61.5 33.5t-20.5 68.5v21q0 51 30.5 78.5t87.5 27.5q56 0 86.5 -27.5t30.5 -78.5v-25q0 -76 -36 -149
t-91 -123h-137z" />
    <glyph glyph-name="Tcaron" unicode="&#x164;" horiz-adv-x="1179" 
d="M49 1237v193h1081v-193h-432v-1237h-217v1237h-432zM238 1864l110 82l242 -238l241 238l111 -82l-242 -303h-221z" />
    <glyph glyph-name="tcaron" unicode="&#x165;" horiz-adv-x="743" 
d="M55 889v174h90q55 0 77 23.5t22 78.5v191h188v-293h225v-174h-225v-715h209v-174h-197q-108 0 -165.5 58.5t-57.5 162.5v668h-166zM569 1165l21 400h233l-114 -400h-140z" />
    <glyph glyph-name="Tbar" unicode="&#x166;" horiz-adv-x="1200" 
d="M59 1237v193h1082v-193h-432v-424h319v-164h-319v-649h-217v649h-322v164h322v424h-433z" />
    <glyph glyph-name="tbar" unicode="&#x167;" horiz-adv-x="753" 
d="M61 889v174h93q54 0 75 23.5t21 78.5v191h188v-293h226v-174h-226v-246h183v-154h-183v-315h209v-174h-196q-107 0 -164.5 58t-57.5 161v270h-131v154h131v246h-168z" />
    <glyph glyph-name="Utilde" unicode="&#x168;" horiz-adv-x="1398" 
d="M170 586v844h215v-883q0 -192 73 -284.5t242 -92.5q168 0 241 93t73 284v883h215v-844q0 -319 -123 -465t-410 -146t-406.5 145t-119.5 466zM338 1733q77 114 207 114q32 0 64.5 -8.5t49 -16.5t48.5 -24q96 -47 149 -47q57 0 119 53l80 -100q-79 -117 -207 -117
q-32 0 -64.5 8.5t-49 16.5t-48.5 24q-95 50 -149 50q-53 0 -119 -56z" />
    <glyph glyph-name="utilde" unicode="&#x169;" horiz-adv-x="1179" 
d="M150 385v678h210v-649q0 -258 211 -258q97 0 166.5 48t69.5 138v721h209v-1063h-209v174h-10q-76 -199 -297 -199q-165 0 -257.5 108t-92.5 302zM225 1391q77 114 207 114q32 0 64.5 -8.5t49 -16.5t48.5 -24q96 -47 149 -47q57 0 119 53l80 -100q-79 -117 -207 -117
q-32 0 -64.5 8.5t-49 16.5t-48.5 24q-94 49 -149 49t-119 -55z" />
    <glyph glyph-name="Umacron" unicode="&#x16a;" horiz-adv-x="1398" 
d="M170 586v844h215v-883q0 -192 73 -284.5t242 -92.5q168 0 241 93t73 284v883h215v-844q0 -319 -123 -465t-410 -146t-406.5 145t-119.5 466zM401 1638v162h590v-162h-590z" />
    <glyph glyph-name="umacron" unicode="&#x16b;" horiz-adv-x="1179" 
d="M150 385v678h210v-649q0 -258 211 -258q97 0 166.5 48t69.5 138v721h209v-1063h-209v174h-10q-76 -199 -297 -199q-165 0 -257.5 108t-92.5 302zM289 1296v162h590v-162h-590z" />
    <glyph glyph-name="Ubreve" unicode="&#x16c;" horiz-adv-x="1398" 
d="M170 586v844h215v-883q0 -192 73 -284.5t242 -92.5q168 0 241 93t73 284v883h215v-844q0 -319 -123 -465t-410 -146t-406.5 145t-119.5 466zM358 1837l117 59l43 -67q37 -62 75 -91.5t103 -29.5t103.5 29.5t77.5 91.5l41 67l116 -59q-15 -44 -29.5 -78t-43 -75.5
t-62 -68.5t-86.5 -46t-117 -19q-55 0 -100.5 12t-79 35.5t-59 49t-44.5 62t-31 64t-24 64.5z" />
    <glyph glyph-name="ubreve" unicode="&#x16d;" horiz-adv-x="1179" 
d="M150 385v678h210v-649q0 -258 211 -258q97 0 166.5 48t69.5 138v721h209v-1063h-209v174h-10q-76 -199 -297 -199q-165 0 -257.5 108t-92.5 302zM246 1495l116 59l44 -67q39 -63 76 -92t102 -29t103 29.5t75 91.5l43 67l117 -59q-16 -45 -30.5 -78t-43 -75.5t-62 -69
t-86 -45.5t-116.5 -19q-65 0 -118 19t-86.5 45.5t-61.5 69.5t-42 75t-30 78z" />
    <glyph glyph-name="Uring" unicode="&#x16e;" horiz-adv-x="1398" 
d="M170 586v844h215v-883q0 -192 73 -284.5t242 -92.5q168 0 241 93t73 284v883h215v-844q0 -319 -123 -465t-410 -146t-406.5 145t-119.5 466zM436 1763q0 110 75 183t185 73t185 -73t75 -183q0 -108 -75.5 -181t-184.5 -73t-184.5 73t-75.5 181zM582 1737q0 -51 30 -80
t84 -29t84.5 29t30.5 80v53q0 52 -30.5 81.5t-84.5 29.5t-84 -29t-30 -82v-53z" />
    <glyph glyph-name="uring" unicode="&#x16f;" horiz-adv-x="1179" 
d="M150 385v678h210v-649q0 -258 211 -258q97 0 166.5 48t69.5 138v721h209v-1063h-209v174h-10q-76 -199 -297 -199q-165 0 -257.5 108t-92.5 302zM324 1421q0 110 75 183t185 73t185 -73t75 -183q0 -108 -75.5 -181t-184.5 -73t-184.5 73t-75.5 181zM469 1395
q0 -52 30.5 -80.5t84.5 -28.5t84 28.5t30 80.5v53q0 53 -30 82t-84 29t-84.5 -29.5t-30.5 -81.5v-53z" />
    <glyph glyph-name="Uhungarumlaut" unicode="&#x170;" horiz-adv-x="1398" 
d="M170 586v844h215v-883q0 -192 73 -284.5t242 -92.5q168 0 241 93t73 284v883h215v-844q0 -319 -123 -465t-410 -146t-406.5 145t-119.5 466zM414 1593l184 365l174 -84l-237 -336zM772 1593l184 365l174 -84l-237 -336z" />
    <glyph glyph-name="uhungarumlaut" unicode="&#x171;" horiz-adv-x="1179" 
d="M150 385v678h210v-649q0 -258 211 -258q97 0 166.5 48t69.5 138v721h209v-1063h-209v174h-10q-76 -199 -297 -199q-165 0 -257.5 108t-92.5 302zM301 1251l184 365l174 -84l-237 -336zM659 1251l185 365l174 -84l-238 -336z" />
    <glyph glyph-name="Uogonek" unicode="&#x172;" horiz-adv-x="1398" 
d="M170 586v844h215v-883q0 -192 73 -284.5t242 -92.5q168 0 241 93t73 284v883h215v-844q0 -212 -51 -346.5t-189 -259.5q-19 -18 -47.5 -43.5t-42.5 -38t-33.5 -31t-28 -29.5t-18 -25.5t-13 -27t-3.5 -25.5q0 -63 67 -63q59 0 103 51l90 -88q-21 -39 -74 -63.5t-129 -24.5
q-93 0 -153 40.5t-60 119.5q0 41 16.5 75.5t53 67t72.5 56t98 59.5l-6 12q-74 -27 -185 -27q-287 0 -406.5 145t-119.5 466z" />
    <glyph glyph-name="uogonek" unicode="&#x173;" horiz-adv-x="1181" 
d="M152 385v678h210v-649q0 -258 213 -258q96 0 165 48t69 138v721h209v-1063q-129 -104 -170 -153t-41 -87q0 -63 70 -63q58 0 102 51l90 -88q-21 -39 -74 -63.5t-129 -24.5q-95 0 -155 40t-60 122q0 75 55 133.5t164 126.5l-2 6h-59v174h-8q-80 -199 -299 -199
q-164 0 -257 108t-93 302z" />
    <glyph glyph-name="Wcircumflex" unicode="&#x174;" horiz-adv-x="1880" 
d="M47 1430h223l252 -1176h6l119 487l172 689h244l170 -689l119 -487h6l106 487l154 689h215l-354 -1430h-246l-184 733l-111 455h-4l-115 -455l-186 -733h-246zM590 1626l241 303h222l241 -303l-110 -82l-242 238l-242 -238z" />
    <glyph glyph-name="wcircumflex" unicode="&#x175;" horiz-adv-x="1622" 
d="M55 1063h205l109 -449l100 -417h6l115 417l129 449h188l133 -449l117 -417h6l97 417l112 449h195l-285 -1063h-242l-141 489l-88 308h-4l-84 -308l-143 -489h-236zM459 1284l241 303h222l241 -303l-110 -82l-242 238l-242 -238z" />
    <glyph glyph-name="Ycircumflex" unicode="&#x176;" horiz-adv-x="1253" 
d="M25 1430h245l357 -650h6l352 650h244l-496 -863v-567h-219v563zM274 1626l242 303h221l242 -303l-111 -82l-241 238l-242 -238z" />
    <glyph glyph-name="ycircumflex" unicode="&#x177;" horiz-adv-x="1046" 
d="M27 1063h211l221 -647l59 -217h10l66 217l223 647h201l-453 -1282q-38 -107 -95.5 -149t-178.5 -42h-119v174h178l66 191zM174 1284l242 303h221l242 -303l-111 -82l-242 238l-241 -238z" />
    <glyph glyph-name="Ydieresis" unicode="&#x178;" horiz-adv-x="1253" 
d="M25 1430h245l357 -650h6l352 650h244l-496 -863v-567h-219v563zM301 1702v35q0 48 30.5 77t92.5 29q63 0 93 -28.5t30 -77.5v-35q0 -49 -30 -78t-93 -29q-62 0 -92.5 29.5t-30.5 77.5zM707 1702v35q0 49 29.5 77.5t92.5 28.5q62 0 92.5 -29t30.5 -77v-35
q0 -48 -30.5 -77.5t-92.5 -29.5q-63 0 -92.5 29t-29.5 78z" />
    <glyph glyph-name="Zacute" unicode="&#x179;" horiz-adv-x="1206" 
d="M76 0v197l784 1040h-743v193h989v-197l-787 -1040h811v-193h-1054zM502 1597l184 365l182 -88l-235 -338z" />
    <glyph glyph-name="zacute" unicode="&#x17a;" horiz-adv-x="987" 
d="M72 0v172l577 717h-559v174h809v-162l-586 -727h602v-174h-843zM383 1255l184 365l183 -88l-236 -338z" />
    <glyph glyph-name="Zdotaccent" unicode="&#x17b;" horiz-adv-x="1206" 
d="M76 0v197l784 1040h-743v193h989v-197l-787 -1040h811v-193h-1054zM475 1698v39q0 56 34 88.5t103 32.5q70 0 104 -32.5t34 -88.5v-39q0 -55 -34.5 -87t-103.5 -32t-103 32t-34 87z" />
    <glyph glyph-name="zdotaccent" unicode="&#x17c;" horiz-adv-x="987" 
d="M72 0v172l577 717h-559v174h809v-162l-586 -727h602v-174h-843zM362 1356v35q0 50 33 80t99 30t98.5 -30t32.5 -80v-35q0 -52 -32.5 -81.5t-98.5 -29.5q-67 0 -99.5 29.5t-32.5 81.5z" />
    <glyph glyph-name="Zcaron" unicode="&#x17d;" horiz-adv-x="1206" 
d="M76 0v197l784 1040h-743v193h989v-197l-787 -1040h811v-193h-1054zM260 1864l111 82l241 -238l242 238l111 -82l-242 -303h-221z" />
    <glyph glyph-name="zcaron" unicode="&#x17e;" horiz-adv-x="987" 
d="M72 0v172l577 717h-559v174h809v-162l-586 -727h602v-174h-843zM141 1522l111 82l242 -238l241 238l111 -82l-242 -303h-221z" />
    <glyph glyph-name="uni018F" unicode="&#x18f;" horiz-adv-x="1454" 
d="M113 715v63h997v43q0 204 -102 321.5t-275 117.5q-135 0 -230.5 -69.5t-142.5 -193.5l-188 80q63 167 210.5 272t352.5 105q286 0 446 -194t160 -545q0 -349 -165 -544.5t-451 -195.5q-288 0 -450 189.5t-162 550.5zM342 600l2 -14q4 -187 111 -301.5t270 -114.5
q164 0 271.5 114t111.5 302v14h-766z" />
    <glyph glyph-name="florin" unicode="&#x192;" horiz-adv-x="993" 
d="M0 -274l16 174h277l69 682h-266l19 182h266l41 401q12 121 86.5 193t202.5 72h241l-20 -175h-289l-51 -491h315l-16 -182h-318l-59 -592q-13 -120 -86.5 -192t-202.5 -72h-225z" />
    <glyph glyph-name="Ohorn" unicode="&#x1a0;" horiz-adv-x="1454" 
d="M113 715q0 355 164.5 547t449.5 192q101 0 186 -24h269v225h182v-201q0 -76 -33 -116t-117 -40h-75q202 -193 202 -583q0 -355 -164.5 -547.5t-449.5 -192.5t-449.5 192.5t-164.5 547.5zM346 600q0 -197 105 -313.5t276 -116.5t276 116.5t105 313.5v229q0 197 -105 314
t-276 117t-276 -117t-105 -314v-229z" />
    <glyph glyph-name="ohorn" unicode="&#x1a1;" horiz-adv-x="1148" 
d="M88 535q0 253 132.5 402.5t354.5 149.5q89 0 162 -24h166v225h182v-198q0 -71 -29 -109.5t-98 -42.5h-32q135 -158 135 -403q0 -255 -133 -407.5t-353 -152.5q-221 0 -354 152.5t-133 407.5zM311 444q0 -143 71 -217.5t193 -74.5q121 0 192 75t71 217v174
q0 142 -71 217.5t-192 75.5q-122 0 -193 -75t-71 -218v-174z" />
    <glyph glyph-name="Uhorn" unicode="&#x1af;" horiz-adv-x="1398" 
d="M170 586v844h215v-883q0 -192 73 -284.5t242 -92.5q168 0 241 93t73 284v883h176v225h182v-203q0 -67 -26.5 -105t-92.5 -44l-24 -3v-714q0 -319 -123 -465t-410 -146t-406.5 145t-119.5 466z" />
    <glyph glyph-name="uhorn" unicode="&#x1b0;" horiz-adv-x="1181" 
d="M152 385v678h210v-649q0 -258 213 -258q96 0 165 48t69 138v721h184v225h183v-203q0 -70 -28 -109.5t-99 -43.5h-31v-932h-209v174h-8q-80 -199 -299 -199q-164 0 -257 108t-93 302z" />
    <glyph glyph-name="uni01B3" unicode="&#x1b3;" horiz-adv-x="1253" 
d="M25 1430h245l357 -650h6l352 650h244l-496 -863v-567h-219v563zM430 1776v155h246q85 0 124.5 -34.5t39.5 -90.5q0 -95 -107 -225l-51 -65l-115 55l107 205h-244z" />
    <glyph glyph-name="uni01B4" unicode="&#x1b4;" horiz-adv-x="1046" 
d="M27 1063h211l221 -647l59 -217h10l66 217l223 647h201l-453 -1282q-38 -107 -95.5 -149t-178.5 -42h-119v174h178l66 191zM330 1452v156h245q85 0 124.5 -34.5t39.5 -90.5q0 -98 -106 -226l-51 -65l-115 55l106 205h-243z" />
    <glyph glyph-name="Aringacute" unicode="&#x1fa;" horiz-adv-x="1343" 
d="M45 0l490 1430h274l489 -1430h-229l-129 395h-545l-129 -395h-221zM410 1739q0 105 75 172t187 67t187 -67t75 -172t-75.5 -172.5t-186.5 -67.5t-186.5 67.5t-75.5 172.5zM449 584h438l-215 645h-10zM555 1720q0 -52 30.5 -79t86.5 -27t86 27t30 79v37q0 52 -30 79.5
t-86 27.5t-86.5 -27.5t-30.5 -79.5v-37zM586 2079l188 233l146 -88l-234 -211z" />
    <glyph glyph-name="aringacute" unicode="&#x1fb;" horiz-adv-x="1118" 
d="M84 293q0 157 114.5 237t338.5 80h196v92q0 211 -225 211q-165 0 -256 -147l-127 115q118 206 395 206q202 0 313 -96.5t111 -271.5v-545h113v-174h-117q-155 0 -186 160l-4 18h-11q-30 -99 -111 -151t-198 -52q-163 0 -254.5 86t-91.5 232zM264 1399q0 104 76 171.5
t186 67.5q112 0 187 -67t75 -172t-75.5 -172.5t-186.5 -67.5q-110 0 -186 68t-76 172zM299 287q0 -71 49.5 -109.5t136.5 -38.5q107 0 177.5 48.5t70.5 125.5v158h-194q-240 0 -240 -145v-39zM410 1380q0 -52 30 -79t86 -27t86.5 27t30.5 79v37q0 52 -30.5 79.5t-86.5 27.5
t-86 -27.5t-30 -79.5v-37zM440 1739l189 233l145 -88l-233 -211z" />
    <glyph glyph-name="AEacute" unicode="&#x1fc;" horiz-adv-x="1898" 
d="M4 0l721 1430h1049v-193h-689v-418h631v-192h-631v-434h689v-193h-906v393h-450l-193 -393h-221zM508 582h360v655h-32zM1026 1597l184 365l183 -88l-236 -338z" />
    <glyph glyph-name="aeacute" unicode="&#x1fd;" horiz-adv-x="1769" 
d="M84 293q0 158 118 243t335 85h196v81q0 102 -56 156.5t-165 54.5q-93 0 -154.5 -37t-105.5 -108l-127 113q53 94 152 150t245 56q237 0 322 -206h12q33 81 133 143.5t236 62.5q144 0 249 -70.5t156 -188t51 -267.5v-82h-737v-39q0 -129 78 -208.5t213 -79.5
q187 0 281 161l129 -116q-59 -103 -168.5 -162.5t-247.5 -59.5q-151 0 -261.5 72t-140.5 158h-12q-11 -40 -40 -78.5t-75.5 -73.5t-117.5 -56.5t-154 -21.5q-158 0 -251 87t-93 231zM299 289q0 -72 49.5 -111t140.5 -39q103 0 173.5 48.5t70.5 125.5v166h-194
q-240 -6 -240 -151v-39zM750 1262l184 364l182 -88l-235 -338zM944 621h514v20q0 127 -66.5 204t-179.5 77q-119 0 -193.5 -80t-74.5 -207v-14z" />
    <glyph glyph-name="Oslashacute" unicode="&#x1fe;" horiz-adv-x="1454" 
d="M113 715q0 355 164.5 547t449.5 192q198 0 338 -96l119 172l141 -92l-135 -193q151 -193 151 -530q0 -355 -164.5 -547.5t-449.5 -192.5q-196 0 -338 97l-119 -172l-141 92l135 192q-151 193 -151 531zM342 598q0 -134 51 -236l565 832q-96 74 -231 74
q-174 0 -279.5 -118.5t-105.5 -318.5v-233zM496 236q96 -74 231 -74q174 0 279.5 118t105.5 318v233q0 134 -51 236zM616 1597l185 365l182 -88l-235 -338z" />
    <glyph glyph-name="oslashacute" unicode="&#x1ff;" horiz-adv-x="1165" 
d="M57 -2l138 172q-99 148 -99 362q0 253 133 404t355 151q162 0 282 -90l127 154l115 -86l-137 -174q98 -143 98 -361q0 -253 -132.5 -404t-352.5 -151q-168 0 -285 88l-125 -151zM315 496q0 -78 21 -160l424 520q-71 62 -176 62q-123 0 -196 -79t-73 -225v-118zM406 207
q68 -62 178 -62q121 0 193.5 79t72.5 225v126q0 73 -21 152zM473 1255l184 365l183 -88l-236 -338z" />
    <glyph glyph-name="uni0218" unicode="&#x218;" horiz-adv-x="1218" 
d="M84 219l152 139q152 -190 376 -190q137 0 211 64t74 174q0 89 -52.5 139t-178.5 76l-125 24q-207 39 -310.5 138t-103.5 266q0 189 134 297t360 108q310 0 481 -223l-156 -131q-122 162 -338 162q-126 0 -195 -52.5t-69 -150.5q0 -90 56 -136.5t180 -72.5l125 -25
q212 -44 310.5 -142t98.5 -265q0 -202 -136 -322.5t-376 -120.5q-328 0 -518 244zM457 -522q46 44 71.5 83.5t38.5 90.5q-41 6 -61.5 33.5t-20.5 68.5v21q0 51 31 78.5t88 27.5q56 0 86.5 -27.5t30.5 -78.5v-25q0 -76 -36 -149t-91 -123h-137z" />
    <glyph glyph-name="uni0219" unicode="&#x219;" horiz-adv-x="1009" 
d="M68 178l137 123q128 -154 303 -154q98 0 149.5 39t51.5 109q0 58 -37 93.5t-123 47.5l-94 13q-168 25 -258.5 99.5t-90.5 215.5q0 152 108 237.5t284 85.5q135 0 226.5 -42.5t164.5 -126.5l-129 -125q-99 122 -264 122q-92 0 -139.5 -36.5t-47.5 -102.5q0 -63 41 -96
t131 -45l97 -14q172 -24 252.5 -100.5t80.5 -205.5q0 -155 -112.5 -247.5t-302.5 -92.5q-269 0 -428 203zM350 -522q46 45 72 84t39 90q-41 6 -61.5 33.5t-20.5 68.5v21q0 51 31 78.5t88 27.5q56 0 86 -27.5t30 -78.5v-25q0 -76 -36 -149t-91 -123h-137z" />
    <glyph glyph-name="uni021A" unicode="&#x21a;" horiz-adv-x="1179" 
d="M49 1237v193h1081v-193h-432v-1237h-217v1237h-432zM442 -522q46 45 72 84t39 90q-41 6 -61.5 33.5t-20.5 68.5v21q0 51 31 78.5t88 27.5q56 0 86.5 -27.5t30.5 -78.5v-25q0 -76 -36 -149t-91 -123h-138z" />
    <glyph glyph-name="uni021B" unicode="&#x21b;" horiz-adv-x="741" 
d="M55 889v174h90q55 0 77 23.5t22 78.5v191h188v-293h225v-174h-225v-715h209v-174h-197q-108 0 -165.5 58.5t-57.5 162.5v668h-166zM299 -522q46 45 72 84t39 90q-41 6 -61.5 33.5t-20.5 68.5v21q0 51 30.5 78.5t87.5 27.5q56 0 86.5 -27.5t30.5 -78.5v-25q0 -76 -36 -149
t-91 -123h-137z" />
    <glyph glyph-name="uni0237" unicode="&#x237;" horiz-adv-x="536" 
d="M-4 -236h168v1299h209v-1210q0 -124 -63 -193.5t-191 -69.5h-123v174z" />
    <glyph glyph-name="uni0259" unicode="&#x259;" horiz-adv-x="1132" 
d="M88 502v82h737v39q0 129 -75.5 209.5t-208.5 80.5q-188 0 -281 -165l-127 118q58 102 169.5 161.5t256.5 59.5q224 0 354.5 -150.5t130.5 -406.5q0 -253 -131 -404t-354 -151q-149 0 -257.5 71t-161 188.5t-52.5 267.5zM311 422q0 -127 66.5 -204t179.5 -77
q119 0 193.5 80t74.5 207v14h-514v-20z" />
    <glyph glyph-name="uni02BB" unicode="&#x2bb;" horiz-adv-x="1228" 
d="M500 1313v24q0 75 36 149.5t91 123.5h137q-47 -47 -73 -85.5t-40 -88.5q41 -7 61.5 -35.5t20.5 -67.5v-20q0 -51 -30 -79t-87 -28t-86.5 28t-29.5 79z" />
    <glyph glyph-name="uni02BC" unicode="&#x2bc;" horiz-adv-x="1228" 
d="M504 1116l20 400h234l-117 -400h-137z" />
    <glyph glyph-name="circumflex" unicode="&#x2c6;" horiz-adv-x="1228" 
d="M262 1284l242 303h221l242 -303l-111 -82l-242 238l-241 -238z" />
    <glyph glyph-name="caron" unicode="&#x2c7;" horiz-adv-x="1228" 
d="M262 1522l111 82l241 -238l242 238l111 -82l-242 -303h-221z" />
    <glyph glyph-name="breve" unicode="&#x2d8;" horiz-adv-x="1228" 
d="M276 1495l117 59l43 -67q39 -63 76 -92t102 -29t103.5 29.5t75.5 91.5l43 67l116 -59q-16 -45 -30.5 -78t-43 -75.5t-62 -69t-86 -45.5t-116.5 -19q-65 0 -118 19t-86.5 45.5t-61.5 69.5t-42 75t-30 78z" />
    <glyph glyph-name="dotaccent" unicode="&#x2d9;" horiz-adv-x="1228" 
d="M483 1356v35q0 50 32.5 80t98.5 30t98.5 -30t32.5 -80v-35q0 -52 -32.5 -81.5t-98.5 -29.5t-98.5 29.5t-32.5 81.5z" />
    <glyph glyph-name="ring" unicode="&#x2da;" horiz-adv-x="1228" 
d="M354 1421q0 110 75 183t185 73t185 -73t75 -183q0 -108 -75.5 -181t-184.5 -73t-184.5 73t-75.5 181zM500 1395q0 -52 30 -80.5t84 -28.5t84.5 28.5t30.5 80.5v53q0 52 -30.5 81.5t-84.5 29.5t-84 -29t-30 -82v-53z" />
    <glyph glyph-name="ogonek" unicode="&#x2db;" horiz-adv-x="1228" 
d="M285 -266q0 77 55 137t170 131l-12 43h137l18 -45q-130 -104 -171.5 -153t-41.5 -87q0 -63 70 -63q58 0 102 51l90 -88q-21 -39 -73.5 -63.5t-128.5 -24.5q-95 0 -155 40t-60 122z" />
    <glyph glyph-name="tilde" unicode="&#x2dc;" horiz-adv-x="1228" 
d="M256 1391q77 114 207 114q32 0 64.5 -8.5t49 -16.5t48.5 -24q96 -47 149 -47q57 0 119 53l80 -100q-79 -117 -207 -117q-32 0 -64.5 8.5t-49 16.5t-48.5 24q-94 49 -149 49t-119 -55z" />
    <glyph glyph-name="hungarumlaut" unicode="&#x2dd;" horiz-adv-x="1228" 
d="M332 1251l184 365l174 -84l-237 -336zM690 1251l184 365l175 -84l-238 -336z" />
    <glyph glyph-name="gravecomb" unicode="&#x300;" 
d="M-256 1532l182 88l185 -365l-131 -61z" />
    <glyph glyph-name="acutecomb" unicode="&#x301;" 
d="M-111 1255l185 365l182 -88l-236 -338z" />
    <glyph glyph-name="uni0302" unicode="&#x302;" 
d="M-352 1284l241 303h222l241 -303l-110 -82l-242 238l-242 -238z" />
    <glyph glyph-name="tildecomb" unicode="&#x303;" 
d="M-358 1391q77 114 206 114q32 0 64.5 -8.5t49 -16.5t48.5 -24q96 -47 150 -47q57 0 119 53l79 -100q-79 -117 -206 -117q-32 0 -64.5 8.5t-49 16.5t-48.5 24q-94 49 -150 49q-55 0 -119 -55z" />
    <glyph glyph-name="uni0304" unicode="&#x304;" 
d="M-295 1296v162h590v-162h-590z" />
    <glyph glyph-name="uni0306" unicode="&#x306;" 
d="M-338 1495l117 59l43 -67q39 -63 76 -92t102 -29t103 29.5t75 91.5l43 67l117 -59q-16 -45 -30.5 -78t-43 -75.5t-62 -69t-86 -45.5t-116.5 -19q-65 0 -118 19t-86.5 45.5t-61.5 69.5t-42 75t-30 78z" />
    <glyph glyph-name="uni0307" unicode="&#x307;" 
d="M-131 1356v35q0 50 32.5 80t98.5 30t98.5 -30t32.5 -80v-35q0 -52 -32.5 -81.5t-98.5 -29.5t-98.5 29.5t-32.5 81.5z" />
    <glyph glyph-name="uni0308" unicode="&#x308;" 
d="M-324 1360v31q0 106 121 106q123 0 123 -106v-31q0 -107 -123 -107q-62 0 -91.5 28.5t-29.5 78.5zM80 1360v31q0 106 123 106q121 0 121 -106v-31q0 -50 -29.5 -78.5t-91.5 -28.5q-123 0 -123 107z" />
    <glyph glyph-name="hookabovecomb" unicode="&#x309;" 
d="M-197 1436v155h246q85 0 124.5 -34.5t39.5 -90.5q0 -95 -107 -225l-51 -65l-114 55l106 205h-244z" />
    <glyph glyph-name="uni030A" unicode="&#x30a;" 
d="M-260 1421q0 110 75 183t185 73t185 -73t75 -183q0 -108 -75.5 -181t-184.5 -73t-184.5 73t-75.5 181zM-115 1395q0 -52 30.5 -80.5t84.5 -28.5t84.5 28.5t30.5 80.5v53q0 52 -30.5 81.5t-84.5 29.5t-84.5 -29.5t-30.5 -81.5v-53z" />
    <glyph glyph-name="uni030B" unicode="&#x30b;" 
d="M-283 1251l185 365l174 -84l-238 -336zM76 1251l184 365l174 -84l-237 -336z" />
    <glyph glyph-name="uni030C" unicode="&#x30c;" 
d="M-352 1522l110 82l242 -238l242 238l110 -82l-241 -303h-222z" />
    <glyph glyph-name="uni0312" unicode="&#x312;" 
d="M-115 1313v24q0 75 36 149.5t91 123.5h138q-47 -47 -73 -85.5t-40 -88.5q41 -7 61.5 -35.5t20.5 -67.5v-20q0 -51 -30 -79t-87 -28t-87 28t-30 79z" />
    <glyph glyph-name="uni0315" unicode="&#x315;" 
d="M0 1116l20 400h234l-115 -400h-139z" />
    <glyph glyph-name="uni031B" unicode="&#x31b;" 
d="M-190 930v133h198v225h182v-203q0 -77 -33 -116t-120 -39h-227z" />
    <glyph glyph-name="dotbelowcomb" unicode="&#x323;" 
d="M-125 -231q0 48 31.5 77t93.5 29t93.5 -29t31.5 -77v-33q0 -48 -31.5 -77.5t-93.5 -29.5t-93.5 29.5t-31.5 77.5v33z" />
    <glyph glyph-name="uni0326" unicode="&#x326;" 
d="M-147 -522q46 44 71.5 83.5t38.5 90.5q-41 6 -61.5 33.5t-20.5 68.5v21q0 51 31 78.5t88 27.5q56 0 86.5 -27.5t30.5 -78.5v-25q0 -76 -36 -149t-91 -123h-137z" />
    <glyph glyph-name="uni0327" unicode="&#x327;" 
d="M-195 -342l84 94q46 -57 129 -57q41 0 66 15t25 44q0 64 -146 84l-51 6l41 203h113l-33 -168l6 -6q44 12 86 12q63 0 103 -35.5t40 -101.5q0 -88 -68.5 -132t-172.5 -44q-82 0 -138 25.5t-84 60.5z" />
    <glyph glyph-name="uni0328" unicode="&#x328;" 
d="M-367 -266q0 77 55 137t169 131l-13 43h138l18 -45q-129 -104 -170 -153t-41 -87q0 -63 68 -63q61 0 102 51l92 -88q-23 -39 -76 -63.5t-129 -24.5q-93 0 -153 40t-60 122z" />
    <glyph glyph-name="uni037E" unicode="&#x37e;" horiz-adv-x="624" 
d="M98 -283q69 71 110 132.5t60 132.5q-100 20 -100 124v33q0 62 36 98.5t107 36.5t107.5 -36.5t36.5 -98.5v-33q0 -99 -54 -207t-143 -182h-160zM168 913v33q0 61 36 97t107 36t107.5 -36t36.5 -97v-33q0 -61 -36.5 -97t-107.5 -36t-107 36t-36 97z" />
    <glyph glyph-name="tonos" unicode="&#x384;" horiz-adv-x="1228" 
d="M557 1212l64 410l198 -29l-121 -399z" />
    <glyph glyph-name="dieresistonos" unicode="&#x385;" horiz-adv-x="1228" 
d="M270 1360v31q0 48 26.5 75t78.5 27q51 0 77.5 -27t26.5 -75v-31q0 -48 -26.5 -75.5t-77.5 -27.5t-78 27.5t-27 75.5zM537 1210l63 412l168 -27l-121 -401zM791 1360v31q0 48 26.5 75t77.5 27t77.5 -27t26.5 -75v-31q0 -48 -26.5 -75.5t-77.5 -27.5t-77.5 27.5t-26.5 75.5
z" />
    <glyph glyph-name="Alphatonos" unicode="&#x386;" horiz-adv-x="1343" 
d="M45 0l490 1430h274l489 -1430h-229l-129 395h-545l-129 -395h-221zM74 1212l63 410l199 -29l-121 -399zM449 584h438l-215 645h-10z" />
    <glyph glyph-name="anoteleia" unicode="&#x387;" horiz-adv-x="624" 
d="M168 913v33q0 61 36 97t107 36t107.5 -36t36.5 -97v-33q0 -61 -36.5 -97t-107.5 -36t-107 36t-36 97z" />
    <glyph glyph-name="Epsilontonos" unicode="&#x388;" horiz-adv-x="1310" 
d="M-45 1212l63 410l201 -29l-121 -399zM281 0v1430h905v-193h-686v-418h628v-192h-628v-434h686v-193h-905z" />
    <glyph glyph-name="Etatonos" unicode="&#x389;" horiz-adv-x="1560" 
d="M-45 1212l63 410l201 -29l-121 -399zM281 0v1430h219v-611h663v611h217v-1430h-217v627h-663v-627h-219z" />
    <glyph glyph-name="Iotatonos" unicode="&#x38a;" horiz-adv-x="1005" 
d="M-23 1212l64 410l201 -29l-121 -399zM281 0v178h194v1073h-194v179h608v-179h-195v-1073h195v-178h-608z" />
    <glyph glyph-name="Omicrontonos" unicode="&#x38c;" horiz-adv-x="1488" 
d="M-45 1212l63 410l199 -29l-121 -399zM147 715q0 355 165 547t450 192q283 0 447.5 -192t164.5 -547t-164.5 -547.5t-447.5 -192.5q-285 0 -450 192.5t-165 547.5zM381 600q0 -197 105 -313.5t276 -116.5t276 116.5t105 313.5v229q0 197 -105 314t-276 117t-276 -117
t-105 -314v-229z" />
    <glyph glyph-name="Upsilontonos" unicode="&#x38e;" horiz-adv-x="1466" 
d="M-45 1212l63 410l201 -29l-121 -399zM238 1430h245l357 -650h6l352 650h244l-496 -863v-567h-219v563z" />
    <glyph glyph-name="Omegatonos" unicode="&#x38f;" horiz-adv-x="1501" 
d="M-45 1212l63 410l201 -29l-121 -399zM143 0v193h326v20q-143 73 -230 220.5t-87 354.5q0 131 38.5 249t112 212t193 149.5t270.5 55.5q121 0 222.5 -36.5t172.5 -99.5t120.5 -148t73 -181.5t23.5 -200.5q0 -207 -86.5 -354.5t-228.5 -220.5v-20h326v-193h-498v291
q100 35 178 156.5t78 257.5v178q0 94 -44 179t-133 141.5t-204 56.5t-204.5 -56.5t-134 -141.5t-44.5 -179v-178q0 -136 78.5 -257.5t179.5 -156.5v-291h-498z" />
    <glyph glyph-name="iotadieresistonos" unicode="&#x390;" horiz-adv-x="626" 
d="M-72 1360v31q0 48 26.5 75t78.5 27q51 0 77.5 -27t26.5 -75v-31q0 -48 -26.5 -75.5t-77.5 -27.5t-78 27.5t-27 75.5zM164 221v842h209v-889h209v-174h-197q-106 0 -163.5 58.5t-57.5 162.5zM195 1210l63 412l168 -27l-121 -401zM449 1360v31q0 48 26.5 75t77.5 27
t77.5 -27t26.5 -75v-31q0 -48 -26.5 -75.5t-77.5 -27.5t-77.5 27.5t-26.5 75.5z" />
    <glyph glyph-name="Alpha" unicode="&#x391;" horiz-adv-x="1343" 
d="M45 0l490 1430h274l489 -1430h-229l-129 395h-545l-129 -395h-221zM449 584h438l-215 645h-10z" />
    <glyph glyph-name="Beta" unicode="&#x392;" horiz-adv-x="1347" 
d="M180 0v1430h623q176 0 277.5 -100.5t101.5 -268.5q0 -77 -21.5 -136t-58 -93t-77 -52t-85.5 -22v-13q46 -2 94 -21t94 -56t75.5 -104t29.5 -152q0 -174 -105.5 -293t-263.5 -119h-684zM397 188h404q95 0 149 50t54 141v70q0 91 -54 140.5t-149 49.5h-404v-451zM397 821
h367q89 0 138.5 46.5t49.5 129.5v68q0 84 -49 130t-139 46h-367v-420z" />
    <glyph glyph-name="Gamma" unicode="&#x393;" horiz-adv-x="1032" 
d="M180 0v1430h799v-193h-582v-1237h-217z" />
    <glyph glyph-name="uni0394" unicode="&#x394;" horiz-adv-x="1345" 
d="M94 0v184l441 1246h274l442 -1246v-184h-1157zM315 193h705l-346 1036h-10z" />
    <glyph glyph-name="Epsilon" unicode="&#x395;" horiz-adv-x="1210" 
d="M180 0v1430h905v-193h-688v-418h629v-192h-629v-434h688v-193h-905z" />
    <glyph glyph-name="Zeta" unicode="&#x396;" horiz-adv-x="1206" 
d="M76 0v197l784 1040h-743v193h989v-197l-787 -1040h811v-193h-1054z" />
    <glyph glyph-name="Eta" unicode="&#x397;" horiz-adv-x="1460" 
d="M180 0v1430h217v-611h664v611h219v-1430h-219v627h-664v-627h-217z" />
    <glyph glyph-name="Theta" unicode="&#x398;" horiz-adv-x="1460" 
d="M113 715q0 355 165.5 547t452.5 192q286 0 451.5 -192t165.5 -547t-165.5 -547.5t-451.5 -192.5q-287 0 -452.5 192.5t-165.5 547.5zM346 600q0 -197 105.5 -313.5t279.5 -116.5t278.5 116.5t104.5 313.5v229q0 197 -104.5 314t-278.5 117t-279.5 -117t-105.5 -314v-229z
M459 627v192h542v-192h-542z" />
    <glyph glyph-name="Iota" unicode="&#x399;" horiz-adv-x="841" 
d="M117 0v178h194v1073h-194v179h608v-179h-195v-1073h195v-178h-608z" />
    <glyph glyph-name="Kappa" unicode="&#x39a;" horiz-adv-x="1341" 
d="M180 0v1430h217v-734h9l204 258l396 476h258l-516 -605l555 -825h-265l-442 676l-199 -225v-451h-217z" />
    <glyph glyph-name="Lambda" unicode="&#x39b;" horiz-adv-x="1316" 
d="M45 0l479 1430h269l479 -1430h-228l-229 709l-158 516h-8l-155 -516l-228 -709h-221z" />
    <glyph glyph-name="Mu" unicode="&#x39c;" horiz-adv-x="1667" 
d="M180 0v1430h262l389 -738h9l391 738h258v-1430h-211v1116h-8l-115 -229l-321 -584l-320 582l-117 235h-8v-1120h-209z" />
    <glyph glyph-name="Nu" unicode="&#x39d;" horiz-adv-x="1460" 
d="M180 0v1430h246l477 -807l162 -308h6v1115h209v-1430h-246l-479 807l-160 307h-6v-1114h-209z" />
    <glyph glyph-name="Xi" unicode="&#x39e;" horiz-adv-x="1210" 
d="M125 0v193h960v-193h-960zM125 1237v193h960v-193h-960zM221 627v192h768v-192h-768z" />
    <glyph glyph-name="Omicron" unicode="&#x39f;" horiz-adv-x="1454" 
d="M113 715q0 355 164.5 547t449.5 192t449.5 -192t164.5 -547t-164.5 -547.5t-449.5 -192.5t-449.5 192.5t-164.5 547.5zM346 600q0 -197 105 -313.5t276 -116.5t276 116.5t105 313.5v229q0 197 -105 314t-276 117t-276 -117t-105 -314v-229z" />
    <glyph glyph-name="Pi" unicode="&#x3a0;" horiz-adv-x="1429" 
d="M180 0v1430h1071v-1430h-219v1237h-635v-1237h-217z" />
    <glyph glyph-name="Rho" unicode="&#x3a1;" horiz-adv-x="1275" 
d="M180 0v1430h604q193 0 302.5 -115.5t109.5 -310.5t-109.5 -309.5t-302.5 -114.5h-387v-580h-217zM397 770h375q91 0 142 47.5t51 136.5v101q0 89 -51 136.5t-142 47.5h-375v-469z" />
    <glyph glyph-name="Sigma" unicode="&#x3a3;" horiz-adv-x="1193" 
d="M84 0v197l491 522l-473 514v197h975v-193h-710l471 -512l-500 -532h739v-193h-993z" />
    <glyph glyph-name="Tau" unicode="&#x3a4;" horiz-adv-x="1179" 
d="M49 1237v193h1081v-193h-432v-1237h-217v1237h-432z" />
    <glyph glyph-name="Upsilon" unicode="&#x3a5;" horiz-adv-x="1253" 
d="M25 1430h245l357 -650h6l352 650h244l-496 -863v-567h-219v563z" />
    <glyph glyph-name="Phi" unicode="&#x3a6;" horiz-adv-x="1742" 
d="M100 725q0 295 168 478t461 183h33v109h219v-109h31q293 0 460.5 -183t167.5 -478q0 -193 -73 -342t-216.5 -234.5t-338.5 -85.5h-31v-133h-219v133h-33q-195 0 -339 85.5t-217 234.5t-73 342zM330 662q0 -183 112 -299.5t289 -116.5h35v958h-35q-177 0 -289 -116.5
t-112 -299.5v-126zM977 246h33q178 0 289.5 116t111.5 300v126q0 184 -111.5 300t-289.5 116h-33v-958z" />
    <glyph glyph-name="Chi" unicode="&#x3a7;" horiz-adv-x="1296" 
d="M43 0l465 731l-449 699h258l332 -541h6l338 541h244l-453 -697l469 -733h-258l-354 575h-4l-350 -575h-244z" />
    <glyph glyph-name="Psi" unicode="&#x3a8;" horiz-adv-x="1652" 
d="M137 958v472h219v-472q0 -380 361 -380v852h219v-852q360 0 360 380v472h217v-472q0 -274 -151.5 -417.5t-425.5 -143.5v-397h-219v397q-274 0 -427 143.5t-153 417.5z" />
    <glyph glyph-name="uni03A9" unicode="&#x3a9;" horiz-adv-x="1472" 
d="M113 0v193h325v20q-142 73 -228.5 220.5t-86.5 354.5q0 104 23.5 200.5t73 181.5t120.5 148t172.5 99.5t222.5 36.5t223 -36.5t173.5 -99.5t121.5 -148t73.5 -181.5t23.5 -200.5q0 -207 -87.5 -354.5t-230.5 -220.5v-20h326v-193h-498v291q101 35 179.5 156.5t78.5 257.5
v178q0 94 -44.5 179t-134 141.5t-204.5 56.5t-204 -56.5t-133 -141.5t-44 -179v-178q0 -136 78 -257.5t178 -156.5v-291h-497z" />
    <glyph glyph-name="Iotadieresis" unicode="&#x3aa;" horiz-adv-x="841" 
d="M94 1702v35q0 48 30.5 77t92.5 29q63 0 93 -28.5t30 -77.5v-35q0 -49 -30 -78t-93 -29q-62 0 -92.5 29.5t-30.5 77.5zM117 0v178h194v1073h-194v179h608v-179h-195v-1073h195v-178h-608zM500 1702v35q0 49 30 77.5t93 28.5q62 0 92 -29t30 -77v-35q0 -49 -30 -78t-92 -29
q-63 0 -93 29t-30 78z" />
    <glyph glyph-name="Upsilondieresis" unicode="&#x3ab;" horiz-adv-x="1253" 
d="M25 1430h245l357 -650h6l352 650h244l-496 -863v-567h-219v563zM301 1702v35q0 48 30.5 77t92.5 29q63 0 93 -28.5t30 -77.5v-35q0 -49 -30 -78t-93 -29q-62 0 -92.5 29.5t-30.5 77.5zM707 1702v35q0 49 29.5 77.5t92.5 28.5q62 0 92.5 -29t30.5 -77v-35
q0 -48 -30.5 -77.5t-92.5 -29.5q-63 0 -92.5 29t-29.5 78z" />
    <glyph glyph-name="alphatonos" unicode="&#x3ac;" horiz-adv-x="1335" 
d="M98 530q0 257 115.5 407t308.5 150q158 0 255 -92t141 -284h8l51 200l53 152h221l-227 -526l127 -363h111v-174h-101q-96 0 -145 42t-68 142l-30 168h-7q-45 -190 -138 -283.5t-251 -93.5q-193 0 -308.5 149.5t-115.5 405.5zM319 455q0 -144 60 -222.5t151 -78.5
q81 0 134 48.5t96 170.5l57 159l-57 158q-43 122 -96 170.5t-134 48.5q-91 0 -151 -78.5t-60 -222.5v-153zM557 1253l64 410l198 -29l-121 -399z" />
    <glyph glyph-name="epsilontonos" unicode="&#x3ad;" horiz-adv-x="1067" 
d="M109 289q0 214 258 260v8q-113 14 -173.5 71.5t-60.5 153.5q0 134 115 219.5t313 85.5q301 0 440 -194l-137 -121q-93 139 -297 139q-108 0 -161.5 -37t-53.5 -94v-22q0 -61 46.5 -97t127.5 -36h238v-158h-246q-190 0 -190 -139v-25q0 -151 239 -151q217 0 318 153
l129 -119q-142 -211 -467 -211q-210 0 -324 85t-114 229zM463 1253l63 410l199 -29l-121 -399z" />
    <glyph glyph-name="etatonos" unicode="&#x3ae;" horiz-adv-x="1198" 
d="M66 889v174h129q88 0 134 -40.5t58 -121.5l2 -16h8q83 202 301 202q164 0 256.5 -108t92.5 -303v-1086h-211v1059q0 258 -209 258q-98 0 -168 -48.5t-70 -137.5v-721h-209v889h-114zM526 1253l64 410l198 -29l-120 -399z" />
    <glyph glyph-name="iotatonos" unicode="&#x3af;" horiz-adv-x="626" 
d="M164 221v842h209v-889h209v-174h-197q-106 0 -163.5 58.5t-57.5 162.5zM201 1212l63 410l199 -29l-121 -399z" />
    <glyph glyph-name="upsilondieresistonos" unicode="&#x3b0;" horiz-adv-x="1173" 
d="M150 500v563h210v-600q0 -160 53.5 -235.5t172.5 -75.5t173 75.5t54 235.5v600h211v-563q0 -266 -109.5 -395.5t-328.5 -129.5q-436 0 -436 525zM236 1360v31q0 48 27 75t79 27q51 0 77.5 -27t26.5 -75v-31q0 -48 -26.5 -75.5t-77.5 -27.5q-52 0 -79 27.5t-27 75.5z
M504 1210l63 412l168 -27l-121 -401zM756 1360v31q0 48 27 75t79 27t78.5 -27t26.5 -75v-31q0 -48 -27 -75.5t-78 -27.5q-52 0 -79 27.5t-27 75.5z" />
    <glyph glyph-name="alpha" unicode="&#x3b1;" horiz-adv-x="1335" 
d="M98 530q0 257 115.5 407t308.5 150q158 0 255 -92t141 -284h8l51 200l53 152h221l-227 -526l127 -363h111v-174h-101q-96 0 -145 42t-68 142l-30 168h-7q-45 -190 -138 -283.5t-251 -93.5q-193 0 -308.5 149.5t-115.5 405.5zM319 455q0 -144 60 -222.5t151 -78.5
q81 0 134 48.5t96 170.5l57 159l-57 158q-43 122 -96 170.5t-134 48.5q-91 0 -151 -78.5t-60 -222.5v-153z" />
    <glyph glyph-name="beta" unicode="&#x3b2;" horiz-adv-x="1212" 
d="M164 -410v1448q0 237 114 369.5t332 132.5q202 0 315 -102.5t113 -272.5q0 -142 -74.5 -230.5t-187.5 -113.5v-8q68 -9 126 -34.5t106 -69t75 -113.5t27 -160q0 -203 -115.5 -332t-314.5 -129q-104 0 -182 44t-115 122h-10v-551h-209zM373 313q0 -74 70.5 -116.5
t177.5 -42.5q127 0 198.5 68t71.5 190v57q0 119 -71.5 185.5t-196.5 66.5h-99v174h88q100 0 153.5 56.5t53.5 152.5v53q0 96 -54 150.5t-163 54.5q-229 0 -229 -281v-768z" />
    <glyph glyph-name="gamma" unicode="&#x3b3;" horiz-adv-x="1054" 
d="M18 889v174h99q87 0 135.5 -34t75.5 -120l114 -356l86 -326h13l100 326l182 510h201l-387 -1063v-410h-211v410l-299 889h-109z" />
    <glyph glyph-name="delta" unicode="&#x3b4;" horiz-adv-x="1148" 
d="M88 512q0 125 34.5 227t93 166.5t133.5 99.5t159 35v11l-287 241v224h733v-175h-381l-157 15v-8l266 -199q207 -151 293 -295.5t86 -321.5q0 -257 -132.5 -407t-353.5 -150q-220 0 -353.5 149t-133.5 388zM311 446q0 -144 71 -219t193 -75q121 0 192 75t71 219v54
q0 151 -45.5 247t-182.5 220q-136 -19 -217.5 -118.5t-81.5 -262.5v-140z" />
    <glyph glyph-name="epsilon" unicode="&#x3b5;" horiz-adv-x="1067" 
d="M109 289q0 214 258 260v8q-113 14 -173.5 71.5t-60.5 153.5q0 134 115 219.5t313 85.5q301 0 440 -194l-137 -121q-93 139 -297 139q-108 0 -161.5 -37t-53.5 -94v-22q0 -61 46.5 -97t127.5 -36h238v-158h-246q-190 0 -190 -139v-25q0 -151 239 -151q217 0 318 153
l129 -119q-142 -211 -467 -211q-210 0 -324 85t-114 229z" />
    <glyph glyph-name="zeta" unicode="&#x3b6;" horiz-adv-x="882" 
d="M88 442q0 124 52 241t204 304l289 359v10l-139 -15h-367v175h735v-162l-356 -457q-108 -138 -151.5 -237t-43.5 -187v-29q0 -97 53.5 -155t174.5 -90l147 -39q74 -20 112 -65t38 -107q0 -24 -15 -82l-78 -242l-186 57l80 252l-150 39q-220 56 -309.5 154.5t-89.5 275.5z
" />
    <glyph glyph-name="eta" unicode="&#x3b7;" horiz-adv-x="1198" 
d="M66 889v174h129q88 0 134 -40.5t58 -121.5l2 -16h8q83 202 301 202q164 0 256.5 -108t92.5 -303v-1086h-211v1059q0 258 -209 258q-98 0 -168 -48.5t-70 -137.5v-721h-209v889h-114z" />
    <glyph glyph-name="theta" unicode="&#x3b8;" horiz-adv-x="1161" 
d="M104 758q0 175 21.5 308t60.5 222.5t98.5 146t131.5 81t164 24.5t164.5 -24.5t131.5 -81t98 -146t60 -222.5t21 -308q0 -218 -31.5 -371t-94.5 -242.5t-148 -129.5t-201 -40q-92 0 -164 24.5t-131.5 81.5t-98.5 146.5t-60.5 222.5t-21.5 308zM328 549q0 -216 63 -307.5
t189 -91.5q127 0 190.5 91.5t63.5 307.5v123h-506v-123zM328 846h506v121q0 216 -63.5 307.5t-190.5 91.5q-126 0 -189 -91.5t-63 -307.5v-121z" />
    <glyph glyph-name="iota" unicode="&#x3b9;" horiz-adv-x="626" 
d="M164 221v842h209v-889h209v-174h-197q-106 0 -163.5 58.5t-57.5 162.5z" />
    <glyph glyph-name="kappa" unicode="&#x3ba;" horiz-adv-x="1116" 
d="M164 0v1063h209v-500h10l115 142l262 286q38 41 75 56.5t93 15.5h102v-174h-121l-254 -268l428 -621h-252l-321 485l-137 -143v-342h-209z" />
    <glyph glyph-name="lambda" unicode="&#x3bb;" horiz-adv-x="1062" 
d="M10 0l410 1063l-90 278h-201v175h190q89 0 135.5 -34t71.5 -112l389 -1196h129v-174h-118q-89 0 -135.5 33.5t-71.5 111.5l-117 363l-84 328h-14l-98 -328l-191 -508h-205z" />
    <glyph glyph-name="uni03BC" unicode="&#x3bc;" horiz-adv-x="1210" 
d="M164 -410v1473h209v-651q0 -256 213 -256q97 0 165 49.5t68 138.5v719h211v-889h115v-174h-109q-94 0 -148 45.5t-63 124.5l-2 10h-8q-67 -205 -246 -205q-171 0 -237 170h-8l49 -299v-256h-209z" />
    <glyph glyph-name="nu" unicode="&#x3bd;" horiz-adv-x="1067" 
d="M18 889v174h99q87 0 136 -34.5t75 -121.5l112 -366l95 -342h12l106 342l183 522h200l-377 -1063h-247l-285 889h-109z" />
    <glyph glyph-name="xi" unicode="&#x3be;" horiz-adv-x="923" 
d="M84 1341v175h801v-175h-273q-106 0 -165.5 -60.5t-59.5 -174.5v-31q0 -97 56.5 -152t160.5 -55h154v-174h-185q-126 0 -187.5 -58t-61.5 -165v-37q0 -93 53 -148t174 -87l151 -39q74 -20 112 -65t38 -107q0 -32 -16 -82l-78 -242l-185 57l78 252l-151 39
q-219 56 -307.5 153.5t-88.5 274.5q0 136 83 231t227 115v9q-123 28 -183.5 97.5t-60.5 186.5q0 88 47 153.5t133 94.5v14h-266z" />
    <glyph glyph-name="omicron" unicode="&#x3bf;" horiz-adv-x="1148" 
d="M88 532q0 253 132.5 404t354.5 151q220 0 353 -151t133 -404q0 -254 -133 -405.5t-353 -151.5q-222 0 -354.5 151t-132.5 406zM311 444q0 -143 71 -217.5t193 -74.5q121 0 192 75t71 217v174q0 142 -71 217.5t-192 75.5q-122 0 -193 -75t-71 -218v-174z" />
    <glyph glyph-name="pi" unicode="&#x3c0;" horiz-adv-x="1296" 
d="M49 889v174h1180v-174h-205v-715h133v-174h-121q-107 0 -165 58.5t-58 158.5v672h-371v-889h-209v889h-184z" />
    <glyph glyph-name="rho" unicode="&#x3c1;" horiz-adv-x="1146" 
d="M113 -410v994q0 230 120 366.5t349 136.5q235 0 352 -141t117 -409q0 -266 -112 -414t-312 -148q-100 0 -179.5 45t-115.5 121h-10v-551h-209zM322 313q0 -72 71 -115.5t172 -43.5q126 0 194 77t68 220v167q0 139 -66 215t-186 76t-186.5 -76t-66.5 -215v-305z" />
    <glyph glyph-name="uni03C2" unicode="&#x3c2;" horiz-adv-x="1005" 
d="M88 547q0 248 125.5 394t341.5 146q143 0 243.5 -67.5t151.5 -190.5l-174 -81q-25 76 -82.5 119.5t-140.5 43.5q-113 0 -177.5 -78.5t-64.5 -207.5v-133q0 -218 250 -287l168 -45q74 -20 112 -65t38 -107q0 -29 -17 -82l-78 -242l-184 57l78 252l-207 58
q-200 53 -291.5 173.5t-91.5 342.5z" />
    <glyph glyph-name="sigma" unicode="&#x3c3;" horiz-adv-x="1196" 
d="M88 520q0 251 132.5 397t371.5 146h555v-174h-266v-15q94 -50 137 -136.5t43 -225.5q0 -240 -133.5 -388.5t-352.5 -148.5q-221 0 -354 149.5t-133 395.5zM311 444q0 -143 71 -217.5t193 -74.5q121 0 192 75t71 217v154q0 95 -29 164t-90 127h-127q-133 0 -207 -73.5
t-74 -217.5v-154z" />
    <glyph glyph-name="tau" unicode="&#x3c4;" horiz-adv-x="993" 
d="M41 889v174h889v-174h-352v-715h229v-174h-217q-108 0 -165.5 58.5t-57.5 162.5v668h-326z" />
    <glyph glyph-name="upsilon" unicode="&#x3c5;" horiz-adv-x="1173" 
d="M150 500v563h210v-600q0 -160 53.5 -235.5t172.5 -75.5t173 75.5t54 235.5v600h211v-563q0 -266 -109.5 -395.5t-328.5 -129.5q-436 0 -436 525z" />
    <glyph glyph-name="phi" unicode="&#x3c6;" horiz-adv-x="1503" 
d="M98 522q0 207 73 351t214 214l125 -137q-99 -57 -145 -148t-46 -231v-104q0 -155 87.5 -235t224.5 -80v434q0 501 379 501q198 0 295.5 -125.5t97.5 -402.5q0 -282 -147.5 -433t-415.5 -151v-385h-209v385q-237 0 -385 149t-148 398zM840 152q161 0 251.5 76.5
t90.5 238.5v166q0 151 -43 214.5t-129 63.5q-84 0 -127 -64t-43 -214v-481z" />
    <glyph glyph-name="chi" unicode="&#x3c7;" horiz-adv-x="1048" 
d="M29 889v174h129q88 0 133 -30.5t76 -108.5l165 -406h7l249 545h228l-361 -711l246 -588h139v-174h-129q-86 0 -131 31.5t-75 108.5l-179 448h-6l-262 -588h-227l375 754l-238 545h-139z" />
    <glyph glyph-name="psi" unicode="&#x3c8;" horiz-adv-x="1509" 
d="M150 524v539h210v-592q0 -319 291 -319v1302h207v-1302q291 0 291 319v592h211v-539q0 -266 -129.5 -407.5t-372.5 -141.5v-385h-207v385q-243 0 -372 141.5t-129 407.5z" />
    <glyph glyph-name="omega" unicode="&#x3c9;" horiz-adv-x="1529" 
d="M100 500q0 444 287 587l125 -137q-98 -57 -143 -148t-45 -231v-141q0 -151 41.5 -214.5t126.5 -63.5t126 63t41 215v299h211v-299q0 -151 42 -214.5t126 -63.5q86 0 128 63.5t42 214.5v141q0 270 -190 379l125 137q144 -69 215.5 -210.5t71.5 -376.5q0 -265 -96 -395
t-267 -130q-122 0 -196 70t-101 197h-8q-29 -127 -102.5 -197t-194.5 -70q-172 0 -268.5 130t-96.5 395z" />
    <glyph glyph-name="iotadieresis" unicode="&#x3ca;" horiz-adv-x="626" 
d="M-41 1360v31q0 106 121 106t121 -106v-31q0 -107 -121 -107t-121 107zM164 221v842h209v-889h209v-174h-197q-106 0 -163.5 58.5t-57.5 162.5zM362 1360v31q0 106 121 106q123 0 123 -106v-31q0 -107 -123 -107q-62 0 -91.5 28.5t-29.5 78.5z" />
    <glyph glyph-name="upsilondieresis" unicode="&#x3cb;" horiz-adv-x="1173" 
d="M150 500v563h210v-600q0 -160 53.5 -235.5t172.5 -75.5t173 75.5t54 235.5v600h211v-563q0 -266 -109.5 -395.5t-328.5 -129.5q-436 0 -436 525zM266 1360v31q0 106 121 106q123 0 123 -106v-31q0 -107 -123 -107q-62 0 -91.5 28.5t-29.5 78.5zM670 1360v31
q0 106 123 106q120 0 120 -106v-31q0 -107 -120 -107q-123 0 -123 107z" />
    <glyph glyph-name="omicrontonos" unicode="&#x3cc;" horiz-adv-x="1148" 
d="M88 532q0 253 132.5 404t354.5 151q220 0 353 -151t133 -404q0 -254 -133 -405.5t-353 -151.5q-222 0 -354.5 151t-132.5 406zM311 444q0 -143 71 -217.5t193 -74.5q121 0 192 75t71 217v174q0 142 -71 217.5t-192 75.5q-122 0 -193 -75t-71 -218v-174zM494 1212l63 410
l199 -29l-121 -399z" />
    <glyph glyph-name="upsilontonos" unicode="&#x3cd;" horiz-adv-x="1173" 
d="M150 500v563h210v-600q0 -160 53.5 -235.5t172.5 -75.5t173 75.5t54 235.5v600h211v-563q0 -266 -109.5 -395.5t-328.5 -129.5q-436 0 -436 525zM510 1212l63 410l201 -29l-121 -399z" />
    <glyph glyph-name="omegatonos" unicode="&#x3ce;" horiz-adv-x="1529" 
d="M100 500q0 444 287 587l125 -137q-98 -57 -143 -148t-45 -231v-141q0 -151 41.5 -214.5t126.5 -63.5t126 63t41 215v299h211v-299q0 -151 42 -214.5t126 -63.5q86 0 128 63.5t42 214.5v141q0 270 -190 379l125 137q144 -69 215.5 -210.5t71.5 -376.5q0 -265 -96 -395
t-267 -130q-122 0 -196 70t-101 197h-8q-29 -127 -102.5 -197t-194.5 -70q-172 0 -268.5 130t-96.5 395zM686 1212l64 410l198 -29l-121 -399z" />
    <glyph glyph-name="uni0400" unicode="&#x400;" horiz-adv-x="1210" 
d="M180 0v1430h905v-193h-688v-418h629v-192h-629v-434h688v-193h-905zM375 1874l182 88l184 -365l-131 -61z" />
    <glyph glyph-name="uni0401" unicode="&#x401;" horiz-adv-x="1210" 
d="M180 0v1430h905v-193h-688v-418h629v-192h-629v-434h688v-193h-905zM305 1702v35q0 48 30.5 77t92.5 29q63 0 93 -28.5t30 -77.5v-35q0 -49 -30 -78t-93 -29q-62 0 -92.5 29.5t-30.5 77.5zM711 1702v35q0 49 30 77.5t93 28.5q62 0 92 -29t30 -77v-35q0 -49 -30 -78
t-92 -29q-63 0 -93 29t-30 78z" />
    <glyph glyph-name="uni0402" unicode="&#x402;" horiz-adv-x="1624" 
d="M49 1237v193h1081v-193h-432v-381h11q117 47 290 47q257 0 382.5 -127.5t125.5 -386.5v-258q0 -481 -391 -481h-98v198h184q88 78 88 287v258q0 162 -76 240t-227 78q-181 0 -289 -43v-668h-217v1237h-432z" />
    <glyph glyph-name="uni0403" unicode="&#x403;" horiz-adv-x="1032" 
d="M180 0v1430h799v-193h-582v-1237h-217zM465 1597l184 365l182 -88l-235 -338z" />
    <glyph glyph-name="uni0404" unicode="&#x404;" horiz-adv-x="1318" 
d="M113 707q0 358 159 552.5t449 194.5q191 0 317 -79.5t201 -235.5l-178 -105q-92 226 -340 226q-176 0 -274 -115t-101 -316v-10h559v-192h-559v-35q2 -200 99 -311t276 -111q263 0 352 240l176 -109q-151 -326 -528 -326q-291 0 -449.5 188t-158.5 544z" />
    <glyph glyph-name="uni0405" unicode="&#x405;" horiz-adv-x="1218" 
d="M84 219l152 139q152 -190 376 -190q137 0 211 64t74 174q0 89 -52.5 139t-178.5 76l-125 24q-207 39 -310.5 138t-103.5 266q0 189 134 297t360 108q310 0 481 -223l-156 -131q-122 162 -338 162q-126 0 -195 -52.5t-69 -150.5q0 -90 56 -136.5t180 -72.5l125 -25
q212 -44 310.5 -142t98.5 -265q0 -202 -136 -322.5t-376 -120.5q-328 0 -518 244z" />
    <glyph glyph-name="uni0406" unicode="&#x406;" horiz-adv-x="841" 
d="M117 0v178h194v1073h-194v179h608v-179h-195v-1073h195v-178h-608z" />
    <glyph glyph-name="uni0407" unicode="&#x407;" horiz-adv-x="841" 
d="M94 1702v35q0 48 30.5 77t92.5 29q63 0 93 -28.5t30 -77.5v-35q0 -49 -30 -78t-93 -29q-62 0 -92.5 29.5t-30.5 77.5zM117 0v178h194v1073h-194v179h608v-179h-195v-1073h195v-178h-608zM500 1702v35q0 49 30 77.5t93 28.5q62 0 92 -29t30 -77v-35q0 -49 -30 -78t-92 -29
q-63 0 -93 29t-30 78z" />
    <glyph glyph-name="uni0408" unicode="&#x408;" horiz-adv-x="1077" 
d="M55 328l201 43q41 -201 223 -201q99 0 155 60.5t56 179.5v835h-473v185h690v-1045q0 -186 -117.5 -298t-312.5 -112q-176 0 -284 94.5t-138 258.5z" />
    <glyph glyph-name="uni0409" unicode="&#x409;" horiz-adv-x="2099" 
d="M27 -4v197h155q89 90 127.5 267t38.5 554v416h864v-556h400q193 0 301 -116.5t108 -319.5q0 -204 -108.5 -321t-300.5 -117h-619v1237h-434v-246q0 -399 -48 -602t-144 -299q-50 -50 -109.5 -72t-144.5 -22h-86zM1212 190h387q92 0 142.5 50t50.5 147v100q0 97 -50.5 147
t-142.5 50h-387v-494z" />
    <glyph glyph-name="uni040A" unicode="&#x40a;" horiz-adv-x="2125" 
d="M180 0v1430h217v-611h623v611h219v-556h399q193 0 301.5 -116.5t108.5 -319.5q0 -204 -108.5 -321t-301.5 -117h-618v627h-623v-627h-217zM1239 190h387q92 0 142.5 50t50.5 147v100q0 97 -50.5 147t-142.5 50h-387v-494z" />
    <glyph glyph-name="uni040B" unicode="&#x40b;" horiz-adv-x="1644" 
d="M49 1237v193h1081v-193h-432v-381h11q117 47 301 47q264 0 391 -127.5t127 -386.5v-389h-217v393q0 163 -78 240.5t-236 77.5q-191 0 -299 -43v-668h-217v1237h-432z" />
    <glyph glyph-name="uni040C" unicode="&#x40c;" horiz-adv-x="1363" 
d="M180 0v1430h217v-613h256l262 461q46 80 97.5 116t122.5 36h106v-193h-129l-219 -383q-34 -58 -61 -82.5t-68 -38.5v-10q50 -10 86.5 -38.5t71.5 -92.5l233 -399h125v-193h-139q-64 0 -111.5 32t-95.5 115l-281 482h-256v-629h-217zM569 1597l185 365l182 -88l-236 -338z
" />
    <glyph glyph-name="uni040D" unicode="&#x40d;" horiz-adv-x="1460" 
d="M180 0v1430h213v-832l-22 -295h6l143 262l563 865h197v-1430h-213v831l23 295h-7l-143 -262l-563 -864h-197zM473 1874l182 88l185 -365l-131 -61z" />
    <glyph glyph-name="uni040E" unicode="&#x40e;" horiz-adv-x="1243" 
d="M35 1430h233l275 -582l110 -260h9l94 262l231 580h219l-501 -1242q-44 -110 -103.5 -149t-179.5 -39h-143v193h221l55 139zM289 1821l174 71l69 -180q51 -14 103 -14q51 0 102 14l70 180l174 -71l-43 -86q-85 -185 -303 -185t-303 185z" />
    <glyph glyph-name="uni040F" unicode="&#x40f;" horiz-adv-x="1429" 
d="M180 0v1430h217v-1237h635v1237h219v-1430h-434v-307h-203v307h-434z" />
    <glyph glyph-name="uni0410" unicode="&#x410;" horiz-adv-x="1343" 
d="M45 0l490 1430h274l489 -1430h-229l-129 395h-545l-129 -395h-221zM449 584h438l-215 645h-10z" />
    <glyph glyph-name="uni0411" unicode="&#x411;" horiz-adv-x="1316" 
d="M180 0v1430h905v-193h-688v-371h406q194 0 302.5 -116.5t108.5 -317.5q0 -200 -109 -316t-302 -116h-623zM397 190h394q92 0 143 50t51 147v92q0 95 -51 145t-143 50h-394v-484z" />
    <glyph glyph-name="uni0412" unicode="&#x412;" horiz-adv-x="1347" 
d="M180 0v1430h623q176 0 277.5 -100.5t101.5 -268.5q0 -77 -21.5 -136t-58 -93t-77 -52t-85.5 -22v-13q46 -2 94 -21t94 -56t75.5 -104t29.5 -152q0 -174 -105.5 -293t-263.5 -119h-684zM397 188h404q95 0 149 50t54 141v70q0 91 -54 140.5t-149 49.5h-404v-451zM397 821
h367q89 0 138.5 46.5t49.5 129.5v68q0 84 -49 130t-139 46h-367v-420z" />
    <glyph glyph-name="uni0413" unicode="&#x413;" horiz-adv-x="1032" 
d="M180 0v1430h799v-193h-582v-1237h-217z" />
    <glyph glyph-name="uni0414" unicode="&#x414;" horiz-adv-x="1548" 
d="M25 193h151q90 115 136 306.5t46 497.5v433h916v-1237h211v-500h-203v307h-1055v-307h-202v500zM428 193h629v1044h-488v-262q0 -559 -141 -772v-10z" />
    <glyph glyph-name="uni0415" unicode="&#x415;" horiz-adv-x="1210" 
d="M180 0v1430h905v-193h-688v-418h629v-192h-629v-434h688v-193h-905z" />
    <glyph glyph-name="uni0416" unicode="&#x416;" horiz-adv-x="2021" 
d="M84 0v193h129l201 397q31 63 65.5 92.5t83.5 40.5v10q-45 14 -78 45t-63 90l-172 369h-129v193h115q75 0 128.5 -36.5t92.5 -119.5l215 -457h229v613h219v-613h230l217 457q39 83 92 119.5t127 36.5h115v-193h-129l-175 -369q-30 -60 -62.5 -90.5t-76.5 -44.5v-10
q50 -11 86.5 -41t67.5 -92l196 -397h129v-193h-141q-70 0 -120 36t-93 124l-233 469h-230v-629h-219v629h-229l-236 -469q-43 -89 -91.5 -124.5t-117.5 -35.5h-143z" />
    <glyph glyph-name="uni0417" unicode="&#x417;" horiz-adv-x="1224" 
d="M70 215l151 135q135 -180 357 -180q146 0 223.5 57t77.5 168v23q0 104 -67.5 159.5t-205.5 55.5h-225v192h213q131 0 192.5 53.5t61.5 161.5v23q0 95 -64.5 146t-191.5 51q-216 0 -328 -152l-151 123q172 223 479 223q234 0 361.5 -103.5t127.5 -279.5q0 -141 -75 -222
t-205 -104v-12q135 -13 223 -95.5t88 -231.5q0 -195 -143.5 -313t-390.5 -118q-320 0 -508 240z" />
    <glyph glyph-name="uni0418" unicode="&#x418;" horiz-adv-x="1460" 
d="M180 0v1430h213v-832l-22 -295h6l143 262l563 865h197v-1430h-213v831l23 295h-7l-143 -262l-563 -864h-197z" />
    <glyph glyph-name="uni0419" unicode="&#x419;" horiz-adv-x="1460" 
d="M180 0v1430h213v-832l-22 -295h6l143 262l563 865h197v-1430h-213v831l23 295h-7l-143 -262l-563 -864h-197zM381 1821l174 71l70 -180q51 -14 102 -14t102 14l70 180l174 -71l-43 -86q-85 -185 -303 -185t-303 185z" />
    <glyph glyph-name="uni041A" unicode="&#x41a;" horiz-adv-x="1363" 
d="M180 0v1430h217v-613h256l262 461q46 80 97.5 116t122.5 36h106v-193h-129l-219 -383q-34 -58 -61 -82.5t-68 -38.5v-10q50 -10 86.5 -38.5t71.5 -92.5l233 -399h125v-193h-139q-64 0 -111.5 32t-95.5 115l-281 482h-256v-629h-217z" />
    <glyph glyph-name="uni041B" unicode="&#x41b;" horiz-adv-x="1437" 
d="M27 -4v197h155q89 90 127.5 267t38.5 554v416h912v-1430h-220v1237h-481v-246q0 -399 -48 -602t-144 -299q-50 -50 -109.5 -72t-144.5 -22h-86z" />
    <glyph glyph-name="uni041C" unicode="&#x41c;" horiz-adv-x="1667" 
d="M180 0v1430h262l389 -738h9l391 738h258v-1430h-211v1116h-8l-115 -229l-321 -584l-320 582l-117 235h-8v-1120h-209z" />
    <glyph glyph-name="uni041D" unicode="&#x41d;" horiz-adv-x="1460" 
d="M180 0v1430h217v-611h664v611h219v-1430h-219v627h-664v-627h-217z" />
    <glyph glyph-name="uni041E" unicode="&#x41e;" horiz-adv-x="1454" 
d="M113 715q0 355 164.5 547t449.5 192t449.5 -192t164.5 -547t-164.5 -547.5t-449.5 -192.5t-449.5 192.5t-164.5 547.5zM346 600q0 -197 105 -313.5t276 -116.5t276 116.5t105 313.5v229q0 197 -105 314t-276 117t-276 -117t-105 -314v-229z" />
    <glyph glyph-name="uni041F" unicode="&#x41f;" horiz-adv-x="1429" 
d="M180 0v1430h1071v-1430h-219v1237h-635v-1237h-217z" />
    <glyph glyph-name="uni0420" unicode="&#x420;" horiz-adv-x="1275" 
d="M180 0v1430h604q193 0 302.5 -115.5t109.5 -310.5t-109.5 -309.5t-302.5 -114.5h-387v-580h-217zM397 770h375q91 0 142 47.5t51 136.5v101q0 89 -51 136.5t-142 47.5h-375v-469z" />
    <glyph glyph-name="uni0421" unicode="&#x421;" horiz-adv-x="1292" 
d="M113 707q0 356 158.5 551.5t437.5 195.5q358 0 505 -321l-182 -103q-40 109 -120.5 169.5t-202.5 60.5q-168 0 -265.5 -119t-97.5 -322v-219q0 -202 97 -316t266 -114q124 0 210 66t128 178l176 -107q-74 -159 -203.5 -245.5t-310.5 -86.5q-281 0 -438.5 188.5
t-157.5 543.5z" />
    <glyph glyph-name="uni0422" unicode="&#x422;" horiz-adv-x="1179" 
d="M49 1237v193h1081v-193h-432v-1237h-217v1237h-432z" />
    <glyph glyph-name="uni0423" unicode="&#x423;" horiz-adv-x="1243" 
d="M35 1430h233l275 -582l110 -260h9l94 262l231 580h219l-501 -1242q-44 -110 -103.5 -149t-179.5 -39h-143v193h221l55 139z" />
    <glyph glyph-name="uni0424" unicode="&#x424;" horiz-adv-x="1769" 
d="M92 713q0 171 73 305.5t214 213.5t328 79h67v184h221v-184h68q187 0 328 -79t213.5 -213.5t72.5 -305.5q0 -170 -73.5 -305.5t-214.5 -214t-326 -78.5h-68v-185h-221v185h-69q-139 0 -255 45.5t-194 125.5t-121 190t-43 237zM322 649q0 -155 104.5 -254.5t278.5 -99.5h75
v835h-73q-176 0 -280.5 -100t-104.5 -254v-127zM989 295h74q175 0 280 99.5t105 254.5v127q0 154 -104.5 254t-280.5 100h-74v-835z" />
    <glyph glyph-name="uni0425" unicode="&#x425;" horiz-adv-x="1296" 
d="M43 0l465 731l-449 699h258l332 -541h6l338 541h244l-453 -697l469 -733h-258l-354 575h-4l-350 -575h-244z" />
    <glyph glyph-name="uni0426" unicode="&#x426;" horiz-adv-x="1523" 
d="M180 0v1430h217v-1237h635v1237h219v-1237h211v-500h-202v307h-1080z" />
    <glyph glyph-name="uni0427" unicode="&#x427;" horiz-adv-x="1343" 
d="M117 1012v418h217v-422q0 -164 77.5 -242t235.5 -78q191 0 299 43v699h217v-1430h-217v545h-10q-117 -47 -301 -47q-265 0 -391.5 127t-126.5 387z" />
    <glyph glyph-name="uni0428" unicode="&#x428;" horiz-adv-x="2009" 
d="M180 0v1430h217v-1237h498v1237h219v-1237h496v1237h219v-1430h-1649z" />
    <glyph glyph-name="uni0429" unicode="&#x429;" horiz-adv-x="2101" 
d="M180 0v1430h217v-1237h498v1237h219v-1237h496v1237h219v-1237h211v-500h-203v307h-1657z" />
    <glyph glyph-name="uni042A" unicode="&#x42a;" horiz-adv-x="1529" 
d="M45 1237v193h569v-556h426q194 0 303 -116.5t109 -319.5q0 -204 -109 -321t-303 -117h-643v1237h-352zM614 190h414q92 0 143.5 50t51.5 147v100q0 97 -51.5 147t-143.5 50h-414v-494z" />
    <glyph glyph-name="uni042B" unicode="&#x42b;" horiz-adv-x="1830" 
d="M180 0v1430h217v-556h406q194 0 302.5 -116t108.5 -320t-108.5 -321t-302.5 -117h-623zM397 190h394q92 0 143 50t51 147v100q0 97 -51 147t-143 50h-394v-494zM1434 0v1430h219v-1430h-219z" />
    <glyph glyph-name="uni042C" unicode="&#x42c;" horiz-adv-x="1312" 
d="M180 0v1430h217v-556h426q194 0 303 -116.5t109 -319.5q0 -204 -109 -321t-303 -117h-643zM397 190h414q92 0 143.5 50t51.5 147v100q0 97 -51.5 147t-143.5 50h-414v-494z" />
    <glyph glyph-name="uni042D" unicode="&#x42d;" horiz-adv-x="1318" 
d="M72 301l176 109q89 -240 350 -240q178 0 276.5 115.5t98.5 316.5v25h-559v192h559v23q0 197 -98.5 307.5t-276.5 110.5q-246 0 -338 -226l-180 105q155 315 518 315q291 0 449.5 -187.5t158.5 -543.5q0 -358 -159 -553t-449 -195q-375 0 -526 326z" />
    <glyph glyph-name="uni042E" unicode="&#x42e;" horiz-adv-x="2004" 
d="M180 0v1430h217v-611h299q19 307 176 471t418 164q284 0 442 -189t158 -550t-158 -550.5t-442 -189.5q-268 0 -422 167t-176 485h-295v-627h-217zM924 600q0 -203 97.5 -316.5t268.5 -113.5t270 113.5t99 316.5v229q0 203 -99 317t-270 114t-268.5 -114t-97.5 -317v-229z
" />
    <glyph glyph-name="uni042F" unicode="&#x42f;" horiz-adv-x="1337" 
d="M84 0v193h125l156 288q32 59 60.5 85t78.5 38v12q-178 9 -270.5 113.5t-92.5 278.5q0 198 109.5 310t300.5 112h606v-1430h-219v584h-270l-242 -439q-46 -84 -91.5 -114.5t-115.5 -30.5h-135zM371 954q0 -88 51 -136t143 -48h373v469h-373q-92 0 -143 -48t-51 -136v-101z
" />
    <glyph glyph-name="uni0430" unicode="&#x430;" horiz-adv-x="1118" 
d="M84 293q0 157 114.5 237t338.5 80h196v92q0 211 -225 211q-165 0 -256 -147l-127 115q118 206 395 206q202 0 313 -96.5t111 -271.5v-545h113v-174h-117q-155 0 -186 160l-4 18h-11q-30 -99 -111 -151t-198 -52q-163 0 -254.5 86t-91.5 232zM299 287q0 -71 49.5 -109.5
t136.5 -38.5q107 0 177.5 48.5t70.5 125.5v158h-194q-240 0 -240 -145v-39z" />
    <glyph glyph-name="uni0431" unicode="&#x431;" horiz-adv-x="1157" 
d="M96 641q0 438 130 638t425 226l338 29v-207l-352 -31q-116 -10 -180.5 -54t-97 -137.5t-42.5 -264.5h9q42 108 115.5 160.5t191.5 52.5q194 0 315 -142.5t121 -388.5q0 -248 -132.5 -397.5t-352.5 -149.5q-234 0 -361 162t-127 504zM319 451q0 -145 72 -222t197 -77
q117 0 187.5 75t70.5 211v140q0 146 -71 222.5t-197 76.5q-125 0 -192 -66.5t-67 -179.5v-180z" />
    <glyph glyph-name="uni0432" unicode="&#x432;" horiz-adv-x="1155" 
d="M164 0v1063h559q134 0 209.5 -72.5t75.5 -195.5q0 -100 -54 -158t-159 -70v-10q123 -9 187.5 -74t64.5 -170q0 -135 -83.5 -224t-222.5 -89h-577zM371 162h319q64 0 100.5 33.5t36.5 95.5v51q0 62 -36.5 95.5t-100.5 33.5h-319v-309zM371 621h293q59 0 91.5 30.5
t32.5 85.5v47q0 55 -32.5 86t-91.5 31h-293v-280z" />
    <glyph glyph-name="uni0433" unicode="&#x433;" horiz-adv-x="897" 
d="M164 0v1063h686v-174h-477v-889h-209z" />
    <glyph glyph-name="uni0434" unicode="&#x434;" horiz-adv-x="1263" 
d="M18 174h127q129 202 129 584v305h766v-889h179v-461h-191v287h-819v-287h-191v461zM369 174h460v715h-354v-141q0 -378 -106 -574z" />
    <glyph glyph-name="uni0435" unicode="&#x435;" horiz-adv-x="1132" 
d="M88 532q0 253 131 404t354 151q112 0 202.5 -40.5t148.5 -112t89 -167t31 -206.5v-82h-737v-39q0 -129 77 -209.5t212 -80.5q188 0 283 165l127 -118q-58 -102 -170 -162t-258 -60q-225 0 -357.5 151t-132.5 406zM307 621h516v20q0 127 -67.5 204t-180.5 77
q-119 0 -193.5 -80t-74.5 -207v-14z" />
    <glyph glyph-name="uni0436" unicode="&#x436;" horiz-adv-x="1642" 
d="M82 0v174h119l116 264q42 92 125 105v10q-76 21 -120 113l-103 223h-119v174h105q71 0 120.5 -33t82.5 -104l137 -295h172v432h209v-432h172l137 295q33 71 82.5 104t120.5 33h104v-174h-119l-102 -223q-44 -92 -121 -113v-10q83 -13 125 -105l117 -264h119v-174h-123
q-69 0 -116.5 32.5t-84.5 114.5l-139 312h-172v-459h-209v459h-172l-139 -312q-37 -82 -84.5 -114.5t-116.5 -32.5h-123z" />
    <glyph glyph-name="uni0437" unicode="&#x437;" horiz-adv-x="1046" 
d="M53 182l142 125q96 -155 292 -155q114 0 173 40.5t59 110.5v25q0 68 -46 103.5t-132 35.5h-230v158h207q85 0 130.5 33.5t45.5 97.5v22q0 133 -211 133q-187 0 -274 -145l-133 115q132 206 420 206q207 0 312 -76t105 -212q0 -192 -211 -236v-8q113 -13 174.5 -78
t61.5 -166q0 -155 -122 -245.5t-329 -90.5q-154 0 -257 52t-177 155z" />
    <glyph glyph-name="uni0438" unicode="&#x438;" horiz-adv-x="1220" 
d="M164 0v1063h205v-535l-21 -252h8l129 226l381 561h191v-1063h-205v535l20 251h-8l-129 -225l-381 -561h-190z" />
    <glyph glyph-name="uni0439" unicode="&#x439;" horiz-adv-x="1220" 
d="M164 0v1063h205v-535l-21 -252h8l129 226l381 561h191v-1063h-205v535l20 251h-8l-129 -225l-381 -561h-190zM266 1479l174 71l70 -180q51 -14 102 -14q52 0 103 14l69 180l174 -71l-43 -86q-85 -185 -303 -185t-303 185z" />
    <glyph glyph-name="uni043A" unicode="&#x43a;" horiz-adv-x="1155" 
d="M164 0v1063h209v-432h192l185 303q43 74 87 101.5t111 27.5h105v-174h-121l-141 -232q-31 -52 -54 -72.5t-63 -31.5v-10q44 -6 75 -29t60 -76l147 -264h117v-174h-125q-66 0 -113.5 31t-89.5 106l-180 322h-192v-459h-209z" />
    <glyph glyph-name="uni043B" unicode="&#x43b;" horiz-adv-x="1187" 
d="M20 -4v178h140q52 71 78 203.5t26 372.5v313h762v-1063h-211v889h-350v-148q0 -521 -148 -669q-76 -76 -223 -76h-74z" />
    <glyph glyph-name="uni043C" unicode="&#x43c;" horiz-adv-x="1445" 
d="M164 0v1063h252l305 -512h8l303 512h250v-1063h-205v807h-8l-68 -127l-278 -469l-279 469l-67 127h-8v-807h-205z" />
    <glyph glyph-name="uni043D" unicode="&#x43d;" horiz-adv-x="1220" 
d="M164 0v1063h209v-430h475v430h209v-1063h-209v459h-475v-459h-209z" />
    <glyph glyph-name="uni043E" unicode="&#x43e;" horiz-adv-x="1148" 
d="M88 532q0 253 132.5 404t354.5 151q220 0 353 -151t133 -404q0 -254 -133 -405.5t-353 -151.5q-222 0 -354.5 151t-132.5 406zM311 444q0 -143 71 -217.5t193 -74.5q121 0 192 75t71 217v174q0 142 -71 217.5t-192 75.5q-122 0 -193 -75t-71 -218v-174z" />
    <glyph glyph-name="uni043F" unicode="&#x43f;" horiz-adv-x="1189" 
d="M164 0v1063h862v-1063h-209v889h-444v-889h-209z" />
    <glyph glyph-name="uni0440" unicode="&#x440;" horiz-adv-x="1206" 
d="M164 -410v1473h209v-174h10q35 95 114 146.5t187 51.5q201 0 313.5 -147.5t112.5 -407.5q0 -261 -112.5 -409t-313.5 -148q-106 0 -184 52t-117 147h-10v-584h-209zM373 352q0 -91 70.5 -143.5t177.5 -52.5q121 0 193.5 78t72.5 206v183q0 128 -72.5 206t-193.5 78
q-104 0 -176 -53t-72 -135v-367z" />
    <glyph glyph-name="uni0441" unicode="&#x441;" horiz-adv-x="1040" 
d="M88 532q0 257 127 406t354 149q155 0 258 -68.5t150 -189.5l-174 -81q-24 76 -84 119.5t-150 43.5q-124 0 -191 -78t-67 -208v-187q0 -130 67 -208t191 -78q182 0 258 176l158 -86q-52 -129 -158 -198t-258 -69q-227 0 -354 150t-127 407z" />
    <glyph glyph-name="uni0442" unicode="&#x442;" horiz-adv-x="980" 
d="M41 889v174h899v-174h-344v-889h-211v889h-344z" />
    <glyph glyph-name="uni0443" unicode="&#x443;" horiz-adv-x="1046" 
d="M27 1063h211l221 -647l59 -217h10l66 217l223 647h201l-453 -1282q-38 -107 -95.5 -149t-178.5 -42h-119v174h178l66 191z" />
    <glyph glyph-name="uni0444" unicode="&#x444;" horiz-adv-x="1572" 
d="M96 530q0 287 85 422t263 135q149 0 230 -137h8v504h209v-504h8q81 137 229 137q178 0 263.5 -135t85.5 -422q0 -286 -85.5 -420.5t-263.5 -134.5q-147 0 -229 138h-8v-523h-209v523h-8q-82 -138 -230 -138q-178 0 -263 134.5t-85 420.5zM317 436q0 -154 47 -222.5
t150 -68.5q168 0 168 136v501q0 136 -168 136q-103 0 -150 -68.5t-47 -222.5v-191zM891 281q0 -136 168 -136q103 0 149.5 68t46.5 223v191q0 155 -46.5 223t-149.5 68q-168 0 -168 -136v-501z" />
    <glyph glyph-name="uni0445" unicode="&#x445;" horiz-adv-x="1075" 
d="M41 0l379 537l-367 526h244l246 -375h6l250 375h229l-369 -520l375 -543h-243l-252 393h-7l-264 -393h-227z" />
    <glyph glyph-name="uni0446" unicode="&#x446;" horiz-adv-x="1251" 
d="M164 0v1063h209v-889h444v889h209v-889h180v-461h-192v287h-850z" />
    <glyph glyph-name="uni0447" unicode="&#x447;" horiz-adv-x="1128" 
d="M102 688v375h211v-361q0 -91 50 -134.5t155 -43.5q108 0 173 32.5t65 90.5v416h211v-1063h-211v475h-11q-99 -131 -299 -131q-168 0 -256 86.5t-88 257.5z" />
    <glyph glyph-name="uni0448" unicode="&#x448;" horiz-adv-x="1665" 
d="M164 0v1063h209v-889h354v889h211v-889h354v889h211v-1063h-1339z" />
    <glyph glyph-name="uni0449" unicode="&#x449;" horiz-adv-x="1726" 
d="M164 0v1063h209v-889h354v889h211v-889h354v889h211v-889h178v-461h-190v287h-1327z" />
    <glyph glyph-name="uni044A" unicode="&#x44a;" horiz-adv-x="1241" 
d="M41 889v174h481v-363h295q161 0 259 -93t98 -255q0 -166 -96.5 -259t-258.5 -93h-508v889h-270zM522 168h258q174 0 174 141v84q0 142 -174 142h-258v-367z" />
    <glyph glyph-name="uni044B" unicode="&#x44b;" horiz-adv-x="1540" 
d="M164 0v1063h209v-363h274q161 0 259 -93.5t98 -256.5q0 -165 -96.5 -257.5t-258.5 -92.5h-485zM373 168h237q174 0 174 141v84q0 142 -174 142h-237v-367zM1167 0v1063h211v-1063h-211z" />
    <glyph glyph-name="uni044C" unicode="&#x44c;" horiz-adv-x="1093" 
d="M164 0v1063h209v-363h295q162 0 259 -93t97 -257q0 -165 -96 -257.5t-258 -92.5h-506zM373 168h258q174 0 174 141v84q0 142 -174 142h-258v-367z" />
    <glyph glyph-name="uni044D" unicode="&#x44d;" horiz-adv-x="1062" 
d="M55 836q117 251 428 251q235 0 363.5 -148.5t128.5 -406.5t-129.5 -407.5t-364.5 -149.5q-163 0 -262.5 64.5t-157.5 191.5l168 86q59 -165 252 -165q134 0 202.5 75.5t68.5 210.5v21h-418v157h418v15q0 128 -69.5 204t-199.5 76q-102 0 -166 -42.5t-102 -127.5z" />
    <glyph glyph-name="uni044E" unicode="&#x44e;" horiz-adv-x="1628" 
d="M164 0v1063h209v-432h225q23 215 146 335.5t321 120.5q220 0 346.5 -148t126.5 -407q0 -260 -126.5 -408.5t-346.5 -148.5q-202 0 -327 128.5t-144 355.5h-221v-459h-209zM815 444q0 -292 250 -292q121 0 186.5 72t65.5 220v174q0 148 -65.5 220.5t-186.5 72.5
q-120 0 -185 -72t-65 -221v-174z" />
    <glyph glyph-name="uni044F" unicode="&#x44f;" horiz-adv-x="1130" 
d="M82 0v174h117l61 135q42 95 123 105v8q-133 14 -205 92t-72 211q0 156 97 247t258 91h506v-1063h-211v395h-238l-110 -248q-37 -81 -85 -114t-116 -33h-125zM326 696q0 -137 172 -137h258v336h-258q-172 0 -172 -141v-58z" />
    <glyph glyph-name="uni0450" unicode="&#x450;" horiz-adv-x="1132" 
d="M88 532q0 253 131 404t354 151q112 0 202.5 -40.5t148.5 -112t89 -167t31 -206.5v-82h-737v-39q0 -129 77 -209.5t212 -80.5q188 0 283 165l127 -118q-58 -102 -170 -162t-258 -60q-225 0 -357.5 151t-132.5 406zM307 621h516v20q0 127 -67.5 204t-180.5 77
q-119 0 -193.5 -80t-74.5 -207v-14zM322 1532l182 88l184 -365l-131 -61z" />
    <glyph glyph-name="uni0451" unicode="&#x451;" horiz-adv-x="1132" 
d="M88 532q0 253 131 404t354 151q112 0 202.5 -40.5t148.5 -112t89 -167t31 -206.5v-82h-737v-39q0 -129 77 -209.5t212 -80.5q188 0 283 165l127 -118q-58 -102 -170 -162t-258 -60q-225 0 -357.5 151t-132.5 406zM254 1360v31q0 106 121 106q123 0 123 -106v-31
q0 -107 -123 -107q-62 0 -91.5 28.5t-29.5 78.5zM307 621h516v20q0 127 -67.5 204t-180.5 77q-119 0 -193.5 -80t-74.5 -207v-14zM657 1360v31q0 106 123 106q121 0 121 -106v-31q0 -50 -29.5 -78.5t-91.5 -28.5q-123 0 -123 107z" />
    <glyph glyph-name="uni0452" unicode="&#x452;" horiz-adv-x="1185" 
d="M33 1233v153h131v130h209v-130h301v-153h-301v-346h10q80 200 299 200q164 0 256 -108t92 -303v-826q0 -125 -62.5 -192.5t-189.5 -67.5h-127v174h168v885q0 258 -209 258q-98 0 -167.5 -48.5t-69.5 -137.5v-721h-209v1233h-131z" />
    <glyph glyph-name="uni0453" unicode="&#x453;" horiz-adv-x="897" 
d="M164 0v1063h686v-174h-477v-889h-209zM391 1255l184 365l183 -88l-236 -338z" />
    <glyph glyph-name="uni0454" unicode="&#x454;" horiz-adv-x="1062" 
d="M88 532q0 258 128.5 406.5t363.5 148.5q309 0 419 -249l-172 -88q-55 161 -247 161q-131 0 -199 -76.5t-70 -205.5v-13h418v-157h-418v-21q0 -131 68.5 -208.5t202.5 -77.5q194 0 270 174l158 -95q-62 -127 -165.5 -191.5t-262.5 -64.5q-236 0 -365 149t-129 408z" />
    <glyph glyph-name="uni0455" unicode="&#x455;" horiz-adv-x="1009" 
d="M68 178l137 123q128 -154 303 -154q98 0 149.5 39t51.5 109q0 58 -37 93.5t-123 47.5l-94 13q-168 25 -258.5 99.5t-90.5 215.5q0 152 108 237.5t284 85.5q135 0 226.5 -42.5t164.5 -126.5l-129 -125q-99 122 -264 122q-92 0 -139.5 -36.5t-47.5 -102.5q0 -63 41 -96
t131 -45l97 -14q172 -24 252.5 -100.5t80.5 -205.5q0 -155 -112.5 -247.5t-302.5 -92.5q-269 0 -428 203z" />
    <glyph glyph-name="uni0456" unicode="&#x456;" horiz-adv-x="536" 
d="M143 1378v33q0 52 30.5 81.5t94.5 29.5t94.5 -29.5t30.5 -81.5v-33q0 -52 -31 -82t-94 -30t-94 30t-31 82zM164 0v1063h209v-1063h-209z" />
    <glyph glyph-name="uni0457" unicode="&#x457;" horiz-adv-x="536" 
d="M-55 1360v31q0 106 121 106q122 0 122 -106v-31q0 -107 -122 -107q-62 0 -91.5 28.5t-29.5 78.5zM164 0v1063h209v-1063h-209zM348 1360v31q0 106 123 106q121 0 121 -106v-31q0 -50 -29.5 -78.5t-91.5 -28.5q-123 0 -123 107z" />
    <glyph glyph-name="uni0458" unicode="&#x458;" horiz-adv-x="536" 
d="M-4 -236h168v1299h209v-1210q0 -124 -63 -193.5t-191 -69.5h-123v174zM143 1378v33q0 52 30.5 81.5t94.5 29.5t94.5 -29.5t30.5 -81.5v-33q0 -52 -31 -82t-94 -30t-94 30t-31 82z" />
    <glyph glyph-name="uni0459" unicode="&#x459;" horiz-adv-x="1687" 
d="M20 -4v178h140q52 71 78 203.5t26 372.5v313h725v-363h275q161 0 258.5 -93.5t97.5 -256.5q0 -165 -96 -257.5t-258 -92.5h-486v889h-315v-148q0 -521 -148 -669q-76 -76 -223 -76h-74zM989 168h238q174 0 174 141v84q0 142 -174 142h-238v-367z" />
    <glyph glyph-name="uni045A" unicode="&#x45a;" horiz-adv-x="1728" 
d="M164 0v1063h209v-430h448v430h209v-363h275q161 0 258.5 -93.5t97.5 -256.5q0 -165 -96 -257.5t-258 -92.5h-486v459h-448v-459h-209zM1030 168h238q174 0 174 141v84q0 142 -174 142h-238v-367z" />
    <glyph glyph-name="uni045B" unicode="&#x45b;" horiz-adv-x="1181" 
d="M33 1233v153h131v130h209v-130h301v-153h-301v-346h10q80 200 299 200q164 0 256 -108t92 -303v-676h-211v649q0 258 -209 258q-98 0 -167.5 -48.5t-69.5 -137.5v-721h-209v1233h-131z" />
    <glyph glyph-name="uni045C" unicode="&#x45c;" horiz-adv-x="1155" 
d="M164 0v1063h209v-432h192l185 303q43 74 87 101.5t111 27.5h105v-174h-121l-141 -232q-31 -52 -54 -72.5t-63 -31.5v-10q44 -6 75 -29t60 -76l147 -264h117v-174h-125q-66 0 -113.5 31t-89.5 106l-180 322h-192v-459h-209zM477 1255l185 365l182 -88l-236 -338z" />
    <glyph glyph-name="uni045D" unicode="&#x45d;" horiz-adv-x="1220" 
d="M164 0v1063h205v-535l-21 -252h8l129 226l381 561h191v-1063h-205v535l20 251h-8l-129 -225l-381 -561h-190zM356 1532l183 88l184 -365l-131 -61z" />
    <glyph glyph-name="uni045E" unicode="&#x45e;" horiz-adv-x="1046" 
d="M27 1063h211l221 -647l59 -217h10l66 217l223 647h201l-453 -1282q-38 -107 -95.5 -149t-178.5 -42h-119v174h178l66 191zM180 1479l174 71l70 -180q51 -14 102 -14q52 0 103 14l69 180l174 -71l-43 -86q-85 -185 -303 -185t-303 185z" />
    <glyph glyph-name="uni045F" unicode="&#x45f;" horiz-adv-x="1189" 
d="M164 0v1063h209v-889h444v889h211v-1063h-338v-287h-190v287h-336z" />
    <glyph glyph-name="uni0472" unicode="&#x472;" horiz-adv-x="1454" 
d="M113 715q0 355 164.5 547t449.5 192t449.5 -192t164.5 -547t-164.5 -547.5t-449.5 -192.5t-449.5 192.5t-164.5 547.5zM340 580q4 -191 110.5 -303.5t276.5 -112.5t276.5 113t110.5 305v45h-774v-47zM340 819h774v33q-4 190 -110.5 302t-276.5 112t-276.5 -112
t-110.5 -304v-31z" />
    <glyph glyph-name="uni0473" unicode="&#x473;" horiz-adv-x="1148" 
d="M88 532q0 253 132.5 404t354.5 151q220 0 353 -151t133 -404q0 -254 -133 -405.5t-353 -151.5q-222 0 -354.5 151t-132.5 406zM305 442q0 -146 72.5 -221.5t197.5 -75.5q124 0 197.5 76t73.5 221v21h-541v-21zM305 614h541v7q0 145 -73.5 221t-197.5 76
q-125 0 -197.5 -75.5t-72.5 -221.5v-7z" />
    <glyph glyph-name="uni0490" unicode="&#x490;" horiz-adv-x="1032" 
d="M180 0v1430h596v307h203v-500h-582v-1237h-217z" />
    <glyph glyph-name="uni0491" unicode="&#x491;" horiz-adv-x="897" 
d="M164 0v1063h495v287h191v-461h-477v-889h-209z" />
    <glyph glyph-name="uni0492" unicode="&#x492;" horiz-adv-x="1081" 
d="M35 653v166h192v611h799v-193h-580v-418h388v-166h-388v-653h-219v653h-192z" />
    <glyph glyph-name="uni0493" unicode="&#x493;" horiz-adv-x="933" 
d="M55 455v151h144v457h688v-174h-477v-283h307v-151h-307v-455h-211v455h-144z" />
    <glyph glyph-name="uni0494" unicode="&#x494;" horiz-adv-x="1323" 
d="M180 0v1430h799v-193h-582v-465h11q117 47 290 47q258 0 383 -127t125 -387v-139q0 -249 -115 -382.5t-309 -133.5h-98v198h186q119 88 119 322v139q0 164 -76 242t-227 78q-183 0 -289 -45v-584h-217z" />
    <glyph glyph-name="uni0495" unicode="&#x495;" horiz-adv-x="1126" 
d="M164 0v1063h686v-174h-477v-400h10q103 132 299 132q175 0 259.5 -92t84.5 -298v-233q0 -408 -328 -408h-114v174h174q59 69 59 259v194q0 124 -47.5 173.5t-159.5 49.5q-108 0 -172.5 -32t-64.5 -89v-319h-209z" />
    <glyph glyph-name="uni0496" unicode="&#x496;" horiz-adv-x="2048" 
d="M84 0v193h129l201 397q31 63 65.5 92.5t83.5 40.5v10q-45 14 -78 45t-63 90l-172 369h-129v193h115q75 0 128.5 -36.5t92.5 -119.5l215 -457h229v613h219v-613h230l217 457q39 83 92 119.5t127 36.5h115v-193h-129l-175 -369q-30 -60 -62.5 -90.5t-76.5 -44.5v-10
q50 -11 86.5 -41t67.5 -92l196 -397h211v-500h-202v307h-37q-63 2 -109 38.5t-88 121.5l-233 469h-230v-629h-219v629h-229l-236 -469q-43 -89 -91.5 -124.5t-117.5 -35.5h-143z" />
    <glyph glyph-name="uni0497" unicode="&#x497;" horiz-adv-x="1654" 
d="M82 0v174h119l116 264q42 92 125 105v10q-76 21 -120 113l-103 223h-119v174h105q71 0 120.5 -33t82.5 -104l137 -295h172v432h209v-432h172l137 295q33 71 82.5 104t120.5 33h104v-174h-119l-102 -223q-44 -92 -121 -113v-10q83 -13 125 -105l117 -264h178v-461h-190
v289h-17q-59 5 -101.5 37.5t-74.5 107.5l-139 312h-172v-459h-209v459h-172l-139 -312q-37 -82 -84.5 -114.5t-116.5 -32.5h-123z" />
    <glyph glyph-name="uni0498" unicode="&#x498;" horiz-adv-x="1224" 
d="M70 215l151 135q135 -180 357 -180q146 0 223.5 57t77.5 168v23q0 104 -67.5 159.5t-205.5 55.5h-225v192h213q131 0 192.5 53.5t61.5 161.5v23q0 95 -64.5 146t-191.5 51q-216 0 -328 -152l-151 123q172 223 479 223q234 0 361.5 -103.5t127.5 -279.5q0 -141 -75 -222
t-205 -104v-12q135 -13 223 -95.5t88 -231.5q0 -172 -113.5 -285t-314.5 -139v-289h-203v289q-256 29 -411 233z" />
    <glyph glyph-name="uni0499" unicode="&#x499;" horiz-adv-x="1046" 
d="M53 182l142 125q96 -155 292 -155q114 0 173 40.5t59 110.5v25q0 68 -46 103.5t-132 35.5h-230v158h207q85 0 130.5 33.5t45.5 97.5v22q0 133 -211 133q-187 0 -274 -145l-133 115q132 206 420 206q207 0 312 -76t105 -212q0 -192 -211 -236v-8q113 -13 174.5 -78
t61.5 -166q0 -136 -94.5 -222.5t-259.5 -106.5v-269h-191v269q-217 24 -340 200z" />
    <glyph glyph-name="uni049A" unicode="&#x49a;" horiz-adv-x="1390" 
d="M180 0v1430h217v-613h256l262 461q44 81 95.5 116.5t124.5 35.5h106v-193h-129l-219 -383q-34 -58 -61 -82.5t-68 -38.5v-10q50 -10 86.5 -38.5t71.5 -92.5l233 -399h211v-500h-203v307h-37q-58 3 -103 35.5t-89 111.5l-281 482h-256v-629h-217z" />
    <glyph glyph-name="uni049B" unicode="&#x49b;" horiz-adv-x="1169" 
d="M164 0v1063h209v-432h192l185 303q43 74 87 101.5t111 27.5h105v-174h-121l-141 -232q-31 -52 -54 -72.5t-63 -31.5v-10q44 -6 75 -29t60 -76l147 -264h179v-461h-191v289h-22q-53 2 -95.5 33.5t-81.5 101.5l-180 322h-192v-459h-209z" />
    <glyph glyph-name="uni049C" unicode="&#x49c;" horiz-adv-x="1460" 
d="M180 0v1430h217v-613h107v301h166v-301h98l242 459q46 83 96.5 118.5t124.5 35.5h104v-193h-127l-202 -383q-29 -54 -56 -80t-71 -41v-10q51 -11 85.5 -39.5t67.5 -91.5l217 -399h127v-193h-139q-68 0 -117 34.5t-92 117.5l-260 477h-98v-301h-166v301h-107v-629h-217z
" />
    <glyph glyph-name="uni049D" unicode="&#x49d;" horiz-adv-x="1249" 
d="M164 0v1063h209v-432h88v239h147v-239h74l160 295q41 79 86 108t114 29h107v-174h-121l-129 -232q-29 -53 -51 -74t-57 -30v-10q45 -6 73 -28t56 -77l133 -264h116v-174h-127q-66 0 -113.5 32t-86.5 107l-160 320h-74v-238h-147v238h-88v-459h-209z" />
    <glyph glyph-name="uni04A0" unicode="&#x4a0;" horiz-adv-x="1581" 
d="M45 1237v193h569v-613h256l263 461q44 81 95.5 116.5t123.5 35.5h106v-193h-129l-219 -383q-34 -58 -61 -82.5t-68 -38.5v-10q50 -10 86.5 -38.5t71.5 -92.5l233 -399h125v-193h-139q-64 0 -111.5 32t-95.5 115l-281 482h-256v-629h-217v1237h-352z" />
    <glyph glyph-name="uni04A1" unicode="&#x4a1;" horiz-adv-x="1302" 
d="M41 889v174h481v-432h193l184 303q43 73 87 101t110 28h106v-174h-121l-141 -232q-30 -52 -54 -72.5t-63 -31.5v-10q42 -6 73 -29t60 -76l150 -264h117v-174h-127q-65 0 -112 31t-89 106l-180 322h-193v-459h-211v889h-270z" />
    <glyph glyph-name="uni04A2" unicode="&#x4a2;" horiz-adv-x="1552" 
d="M180 0v1430h217v-611h664v611h219v-1237h211v-500h-203v307h-227v627h-664v-627h-217z" />
    <glyph glyph-name="uni04A3" unicode="&#x4a3;" horiz-adv-x="1282" 
d="M164 0v1063h209v-430h475v430h209v-889h180v-461h-193v287h-196v459h-475v-459h-209z" />
    <glyph glyph-name="uni04A4" unicode="&#x4a4;" horiz-adv-x="1873" 
d="M180 0v1430h217v-611h623v611h799v-193h-580v-1237h-219v627h-623v-627h-217z" />
    <glyph glyph-name="uni04A5" unicode="&#x4a5;" horiz-adv-x="1554" 
d="M164 0v1063h209v-430h448v430h686v-174h-477v-889h-209v459h-448v-459h-209z" />
    <glyph glyph-name="uni04AA" unicode="&#x4aa;" horiz-adv-x="1292" 
d="M113 707q0 356 158.5 551.5t437.5 195.5q358 0 505 -321l-182 -103q-40 109 -120.5 169.5t-202.5 60.5q-168 0 -265.5 -119t-97.5 -322v-219q0 -202 97 -316t266 -114q124 0 210 66t128 178l176 -107q-62 -135 -166.5 -217.5t-245.5 -105.5v-291h-203v289
q-235 31 -365 216.5t-130 508.5z" />
    <glyph glyph-name="uni04AB" unicode="&#x4ab;" horiz-adv-x="1040" 
d="M88 532q0 257 127 406t354 149q155 0 258 -68.5t150 -189.5l-174 -81q-24 76 -84 119.5t-150 43.5q-124 0 -191 -78t-67 -208v-187q0 -130 67 -208t191 -78q182 0 258 176l158 -86q-88 -218 -317 -256v-273h-191v271q-186 29 -287.5 173.5t-101.5 374.5z" />
    <glyph glyph-name="uni04AE" unicode="&#x4ae;" horiz-adv-x="1253" 
d="M25 1430h245l357 -650h6l352 650h244l-496 -863v-567h-219v563z" />
    <glyph glyph-name="uni04AF" unicode="&#x4af;" horiz-adv-x="1038" 
d="M31 1063h209l174 -496l102 -340h12l107 340l172 496h201l-383 -1063v-410h-211v410z" />
    <glyph glyph-name="uni04B0" unicode="&#x4b0;" horiz-adv-x="1253" 
d="M25 1430h245l359 -650h6l350 650h244l-496 -867h320v-166h-320v-397h-219v397h-319v166h319z" />
    <glyph glyph-name="uni04B1" unicode="&#x4b1;" horiz-adv-x="1038" 
d="M31 1063h209l174 -496l102 -340h12l107 340l172 496h201l-383 -1063h252v-152h-252v-258h-211v258h-250v152h250z" />
    <glyph glyph-name="uni04B2" unicode="&#x4b2;" horiz-adv-x="1353" 
d="M43 0l465 731l-449 699h258l332 -541h6l338 541h244l-453 -697l344 -540h211v-500h-202v307h-142l-354 575h-4l-350 -575h-244z" />
    <glyph glyph-name="uni04B3" unicode="&#x4b3;" horiz-adv-x="1116" 
d="M41 0l379 537l-367 526h244l246 -375h6l250 375h229l-369 -520l254 -369h187v-461h-191v287h-118l-252 393h-7l-264 -393h-227z" />
    <glyph glyph-name="uni04B6" unicode="&#x4b6;" horiz-adv-x="1437" 
d="M117 1012v418h217v-422q0 -164 77.5 -242t235.5 -78q191 0 299 43v699h217v-1237h211v-500h-203v307h-225v545h-10q-117 -47 -301 -47q-265 0 -391.5 127t-126.5 387z" />
    <glyph glyph-name="uni04B7" unicode="&#x4b7;" horiz-adv-x="1189" 
d="M102 688v375h211v-361q0 -91 50 -134.5t155 -43.5q108 0 173 32.5t65 90.5v416h211v-889h178v-461h-191v287h-198v475h-11q-99 -131 -299 -131q-168 0 -256 86.5t-88 257.5z" />
    <glyph glyph-name="uni04B8" unicode="&#x4b8;" horiz-adv-x="1357" 
d="M117 1012v418h217v-422q0 -144 58 -220.5t177 -93.5v324h164v-328q142 6 225 41v699h220v-1430h-220v545h-10q-73 -32 -215 -45v-277h-164v277q-231 15 -341.5 141.5t-110.5 370.5z" />
    <glyph glyph-name="uni04B9" unicode="&#x4b9;" horiz-adv-x="1142" 
d="M102 688v375h211v-361q0 -156 156 -174v291h145v-291q68 6 112 38t44 77v420h209v-1063h-209v461h-10q-67 -79 -146 -101v-188h-145v172q-367 0 -367 344z" />
    <glyph glyph-name="uni04BA" unicode="&#x4ba;" horiz-adv-x="1343" 
d="M180 0v1430h217v-545h11q117 47 301 47q265 0 391.5 -127t126.5 -387v-418h-217v422q0 164 -78 241.5t-236 77.5q-191 0 -299 -43v-698h-217z" />
    <glyph glyph-name="uni04BB" unicode="&#x4bb;" horiz-adv-x="1181" 
d="M164 0v1516h209v-629h10q80 200 299 200q164 0 256 -108t92 -303v-676h-211v649q0 258 -209 258q-98 0 -167.5 -48.5t-69.5 -137.5v-721h-209z" />
    <glyph glyph-name="uni04C0" unicode="&#x4c0;" horiz-adv-x="841" 
d="M117 0v178h194v1073h-194v179h608v-179h-195v-1073h195v-178h-608z" />
    <glyph glyph-name="uni04C1" unicode="&#x4c1;" horiz-adv-x="2021" 
d="M84 0v193h129l201 397q31 63 65.5 92.5t83.5 40.5v10q-45 14 -78 45t-63 90l-172 369h-129v193h115q75 0 128.5 -36.5t92.5 -119.5l215 -457h229v613h219v-613h230l217 457q39 83 92 119.5t127 36.5h115v-193h-129l-175 -369q-30 -60 -62.5 -90.5t-76.5 -44.5v-10
q50 -11 86.5 -41t67.5 -92l196 -397h129v-193h-141q-70 0 -120 36t-93 124l-233 469h-230v-629h-219v629h-229l-236 -469q-43 -89 -91.5 -124.5t-117.5 -35.5h-143zM664 1821l174 71l69 -180q51 -14 103 -14q51 0 102 14l70 180l174 -71l-43 -86q-85 -185 -303 -185
t-303 185z" />
    <glyph glyph-name="uni04C2" unicode="&#x4c2;" horiz-adv-x="1642" 
d="M82 0v174h119l116 264q42 92 125 105v10q-76 21 -120 113l-103 223h-119v174h105q71 0 120.5 -33t82.5 -104l137 -295h172v432h209v-432h172l137 295q33 71 82.5 104t120.5 33h104v-174h-119l-102 -223q-44 -92 -121 -113v-10q83 -13 125 -105l117 -264h119v-174h-123
q-69 0 -116.5 32.5t-84.5 114.5l-139 312h-172v-459h-209v459h-172l-139 -312q-37 -82 -84.5 -114.5t-116.5 -32.5h-123zM475 1479l174 71l70 -180q51 -14 102 -14q52 0 103 14l69 180l174 -71l-43 -86q-85 -185 -303 -185t-303 185z" />
    <glyph glyph-name="uni04CF" unicode="&#x4cf;" horiz-adv-x="536" 
d="M164 0v1516h209v-1516h-209z" />
    <glyph glyph-name="uni04D0" unicode="&#x4d0;" horiz-adv-x="1343" 
d="M45 0l490 1430h274l489 -1430h-229l-129 395h-545l-129 -395h-221zM324 1821l174 71l69 -180q51 -14 103 -14q51 0 102 14l70 180l174 -71l-43 -86q-85 -185 -303 -185t-303 185zM449 584h438l-215 645h-10z" />
    <glyph glyph-name="uni04D1" unicode="&#x4d1;" horiz-adv-x="1118" 
d="M84 293q0 157 114.5 237t338.5 80h196v92q0 211 -225 211q-165 0 -256 -147l-127 115q118 206 395 206q202 0 313 -96.5t111 -271.5v-545h113v-174h-117q-155 0 -186 160l-4 18h-11q-30 -99 -111 -151t-198 -52q-163 0 -254.5 86t-91.5 232zM180 1479l174 71l70 -180
q51 -14 102 -14q52 0 103 14l69 180l174 -71l-43 -86q-85 -185 -303 -185t-303 185zM299 287q0 -71 49.5 -109.5t136.5 -38.5q107 0 177.5 48.5t70.5 125.5v158h-194q-240 0 -240 -145v-39z" />
    <glyph glyph-name="uni04D2" unicode="&#x4d2;" horiz-adv-x="1343" 
d="M45 0l490 1430h274l489 -1430h-229l-129 395h-545l-129 -395h-221zM346 1702v35q0 48 30.5 77t92.5 29q63 0 93 -28.5t30 -77.5v-35q0 -49 -30 -78t-93 -29q-62 0 -92.5 29.5t-30.5 77.5zM449 584h438l-215 645h-10zM752 1702v35q0 49 29.5 77.5t92.5 28.5q62 0 92.5 -29
t30.5 -77v-35q0 -48 -30.5 -77.5t-92.5 -29.5q-63 0 -92.5 29t-29.5 78z" />
    <glyph glyph-name="uni04D3" unicode="&#x4d3;" horiz-adv-x="1118" 
d="M84 293q0 157 114.5 237t338.5 80h196v92q0 211 -225 211q-165 0 -256 -147l-127 115q118 206 395 206q202 0 313 -96.5t111 -271.5v-545h113v-174h-117q-155 0 -186 160l-4 18h-11q-30 -99 -111 -151t-198 -52q-163 0 -254.5 86t-91.5 232zM203 1360v31q0 106 121 106
q122 0 122 -106v-31q0 -107 -122 -107q-62 0 -91.5 28.5t-29.5 78.5zM299 287q0 -71 49.5 -109.5t136.5 -38.5q107 0 177.5 48.5t70.5 125.5v158h-194q-240 0 -240 -145v-39zM606 1360v31q0 106 123 106q121 0 121 -106v-31q0 -50 -29.5 -78.5t-91.5 -28.5q-123 0 -123 107z
" />
    <glyph glyph-name="uni04D4" unicode="&#x4d4;" horiz-adv-x="1898" 
d="M4 0l721 1430h1049v-193h-689v-418h631v-192h-631v-434h689v-193h-906v393h-450l-193 -393h-221zM508 582h360v655h-32z" />
    <glyph glyph-name="uni04D5" unicode="&#x4d5;" horiz-adv-x="1769" 
d="M84 293q0 158 118 243t335 85h196v81q0 102 -56 156.5t-165 54.5q-93 0 -154.5 -37t-105.5 -108l-127 113q53 94 152 150t245 56q237 0 322 -206h12q33 81 133 143.5t236 62.5q144 0 249 -70.5t156 -188t51 -267.5v-82h-737v-39q0 -129 78 -208.5t213 -79.5
q187 0 281 161l129 -116q-59 -103 -168.5 -162.5t-247.5 -59.5q-151 0 -261.5 72t-140.5 158h-12q-11 -40 -40 -78.5t-75.5 -73.5t-117.5 -56.5t-154 -21.5q-158 0 -251 87t-93 231zM299 289q0 -72 49.5 -111t140.5 -39q103 0 173.5 48.5t70.5 125.5v166h-194
q-240 -6 -240 -151v-39zM944 621h514v20q0 127 -66.5 204t-179.5 77q-119 0 -193.5 -80t-74.5 -207v-14z" />
    <glyph glyph-name="uni04D6" unicode="&#x4d6;" horiz-adv-x="1210" 
d="M180 0v1430h905v-193h-688v-418h629v-192h-629v-434h688v-193h-905zM283 1821l174 71l69 -180q51 -14 103 -14q51 0 102 14l70 180l174 -71l-43 -86q-85 -185 -303 -185t-303 185z" />
    <glyph glyph-name="uni04D7" unicode="&#x4d7;" horiz-adv-x="1132" 
d="M88 532q0 253 131 404t354 151q112 0 202.5 -40.5t148.5 -112t89 -167t31 -206.5v-82h-737v-39q0 -129 77 -209.5t212 -80.5q188 0 283 165l127 -118q-58 -102 -170 -162t-258 -60q-225 0 -357.5 151t-132.5 406zM231 1479l175 71l69 -180q51 -14 103 -14q51 0 102 14
l70 180l174 -71l-43 -86q-85 -185 -303 -185q-219 0 -304 185zM307 621h516v20q0 127 -67.5 204t-180.5 77q-119 0 -193.5 -80t-74.5 -207v-14z" />
    <glyph glyph-name="uni04D8" unicode="&#x4d8;" horiz-adv-x="1454" 
d="M113 715v63h997v43q0 204 -102 321.5t-275 117.5q-135 0 -230.5 -69.5t-142.5 -193.5l-188 80q63 167 210.5 272t352.5 105q286 0 446 -194t160 -545q0 -349 -165 -544.5t-451 -195.5q-288 0 -450 189.5t-162 550.5zM342 600l2 -14q4 -187 111 -301.5t270 -114.5
q164 0 271.5 114t111.5 302v14h-766z" />
    <glyph glyph-name="uni04D9" unicode="&#x4d9;" horiz-adv-x="1132" 
d="M88 502v82h737v39q0 129 -75.5 209.5t-208.5 80.5q-188 0 -281 -165l-127 118q58 102 169.5 161.5t256.5 59.5q224 0 354.5 -150.5t130.5 -406.5q0 -253 -131 -404t-354 -151q-149 0 -257.5 71t-161 188.5t-52.5 267.5zM311 422q0 -127 66.5 -204t179.5 -77
q119 0 193.5 80t74.5 207v14h-514v-20z" />
    <glyph glyph-name="uni04DC" unicode="&#x4dc;" horiz-adv-x="2021" 
d="M84 0v193h129l201 397q31 63 65.5 92.5t83.5 40.5v10q-45 14 -78 45t-63 90l-172 369h-129v193h115q75 0 128.5 -36.5t92.5 -119.5l215 -457h229v613h219v-613h230l217 457q39 83 92 119.5t127 36.5h115v-193h-129l-175 -369q-30 -60 -62.5 -90.5t-76.5 -44.5v-10
q50 -11 86.5 -41t67.5 -92l196 -397h129v-193h-141q-70 0 -120 36t-93 124l-233 469h-230v-629h-219v629h-229l-236 -469q-43 -89 -91.5 -124.5t-117.5 -35.5h-143zM686 1702v35q0 48 30.5 77t92.5 29q63 0 93 -28.5t30 -77.5v-35q0 -49 -30 -78t-93 -29q-62 0 -92.5 29.5
t-30.5 77.5zM1092 1702v35q0 49 29.5 77.5t92.5 28.5q62 0 92.5 -29t30.5 -77v-35q0 -48 -30.5 -77.5t-92.5 -29.5q-63 0 -92.5 29t-29.5 78z" />
    <glyph glyph-name="uni04DD" unicode="&#x4dd;" horiz-adv-x="1642" 
d="M82 0v174h119l116 264q42 92 125 105v10q-76 21 -120 113l-103 223h-119v174h105q71 0 120.5 -33t82.5 -104l137 -295h172v432h209v-432h172l137 295q33 71 82.5 104t120.5 33h104v-174h-119l-102 -223q-44 -92 -121 -113v-10q83 -13 125 -105l117 -264h119v-174h-123
q-69 0 -116.5 32.5t-84.5 114.5l-139 312h-172v-459h-209v459h-172l-139 -312q-37 -82 -84.5 -114.5t-116.5 -32.5h-123zM498 1360v31q0 106 120 106q123 0 123 -106v-31q0 -107 -123 -107q-120 0 -120 107zM901 1360v31q0 106 123 106q121 0 121 -106v-31
q0 -50 -29.5 -78.5t-91.5 -28.5q-123 0 -123 107z" />
    <glyph glyph-name="uni04DE" unicode="&#x4de;" horiz-adv-x="1224" 
d="M70 215l151 135q135 -180 357 -180q146 0 223.5 57t77.5 168v23q0 104 -67.5 159.5t-205.5 55.5h-225v192h213q131 0 192.5 53.5t61.5 161.5v23q0 95 -64.5 146t-191.5 51q-216 0 -328 -152l-151 123q172 223 479 223q234 0 361.5 -103.5t127.5 -279.5q0 -141 -75 -222
t-205 -104v-12q135 -13 223 -95.5t88 -231.5q0 -195 -143.5 -313t-390.5 -118q-320 0 -508 240zM266 1702v35q0 48 30.5 77t92.5 29q63 0 93 -28.5t30 -77.5v-35q0 -49 -30 -78t-93 -29q-62 0 -92.5 29.5t-30.5 77.5zM672 1702v35q0 49 30 77.5t93 28.5q62 0 92.5 -29
t30.5 -77v-35q0 -48 -30.5 -77.5t-92.5 -29.5q-63 0 -93 29t-30 78z" />
    <glyph glyph-name="uni04DF" unicode="&#x4df;" horiz-adv-x="1046" 
d="M53 182l142 125q96 -155 292 -155q114 0 173 40.5t59 110.5v25q0 68 -46 103.5t-132 35.5h-230v158h207q85 0 130.5 33.5t45.5 97.5v22q0 133 -211 133q-187 0 -274 -145l-133 115q132 206 420 206q207 0 312 -76t105 -212q0 -192 -211 -236v-8q113 -13 174.5 -78
t61.5 -166q0 -155 -122 -245.5t-329 -90.5q-154 0 -257 52t-177 155zM168 1360v31q0 106 121 106q123 0 123 -106v-31q0 -107 -123 -107q-62 0 -91.5 28.5t-29.5 78.5zM571 1360v31q0 106 123 106q121 0 121 -106v-31q0 -50 -29.5 -78.5t-91.5 -28.5q-123 0 -123 107z" />
    <glyph glyph-name="uni04E2" unicode="&#x4e2;" horiz-adv-x="1460" 
d="M180 0v1430h213v-832l-22 -295h6l143 262l563 865h197v-1430h-213v831l23 295h-7l-143 -262l-563 -864h-197zM434 1638v162h590v-162h-590z" />
    <glyph glyph-name="uni04E3" unicode="&#x4e3;" horiz-adv-x="1220" 
d="M164 0v1063h205v-535l-21 -252h8l129 226l381 561h191v-1063h-205v535l20 251h-8l-129 -225l-381 -561h-190zM317 1296v162h590v-162h-590z" />
    <glyph glyph-name="uni04E4" unicode="&#x4e4;" horiz-adv-x="1460" 
d="M180 0v1430h213v-832l-22 -295h6l143 262l563 865h197v-1430h-213v831l23 295h-7l-143 -262l-563 -864h-197zM403 1702v35q0 48 30.5 77t92.5 29q63 0 93 -28.5t30 -77.5v-35q0 -49 -30 -78t-93 -29q-62 0 -92.5 29.5t-30.5 77.5zM809 1702v35q0 49 30 77.5t93 28.5
q62 0 92.5 -29t30.5 -77v-35q0 -48 -30.5 -77.5t-92.5 -29.5q-63 0 -93 29t-30 78z" />
    <glyph glyph-name="uni04E5" unicode="&#x4e5;" horiz-adv-x="1220" 
d="M164 0v1063h205v-535l-21 -252h8l129 226l381 561h191v-1063h-205v535l20 251h-8l-129 -225l-381 -561h-190zM289 1360v31q0 106 121 106q122 0 122 -106v-31q0 -107 -122 -107q-62 0 -91.5 28.5t-29.5 78.5zM692 1360v31q0 106 123 106q121 0 121 -106v-31
q0 -50 -29.5 -78.5t-91.5 -28.5q-123 0 -123 107z" />
    <glyph glyph-name="uni04E6" unicode="&#x4e6;" horiz-adv-x="1454" 
d="M113 715q0 355 164.5 547t449.5 192t449.5 -192t164.5 -547t-164.5 -547.5t-449.5 -192.5t-449.5 192.5t-164.5 547.5zM346 600q0 -197 105 -313.5t276 -116.5t276 116.5t105 313.5v229q0 197 -105 314t-276 117t-276 -117t-105 -314v-229zM401 1702v35q0 48 30.5 77
t92.5 29q63 0 93 -28.5t30 -77.5v-35q0 -49 -30 -78t-93 -29q-62 0 -92.5 29.5t-30.5 77.5zM807 1702v35q0 49 30 77.5t93 28.5q62 0 92.5 -29t30.5 -77v-35q0 -48 -30.5 -77.5t-92.5 -29.5q-63 0 -93 29t-30 78z" />
    <glyph glyph-name="uni04E7" unicode="&#x4e7;" horiz-adv-x="1148" 
d="M88 532q0 253 132.5 404t354.5 151q220 0 353 -151t133 -404q0 -254 -133 -405.5t-353 -151.5q-222 0 -354.5 151t-132.5 406zM252 1356v30q0 50 29.5 78.5t91.5 28.5q123 0 123 -107v-30q0 -107 -123 -107q-62 0 -91.5 28.5t-29.5 78.5zM311 444q0 -143 71 -217.5
t193 -74.5q121 0 192 75t71 217v174q0 142 -71 217.5t-192 75.5q-122 0 -193 -75t-71 -218v-174zM655 1356v30q0 107 123 107q62 0 91.5 -28.5t29.5 -78.5v-30q0 -50 -29.5 -78.5t-91.5 -28.5q-123 0 -123 107z" />
    <glyph glyph-name="uni04E8" unicode="&#x4e8;" horiz-adv-x="1454" 
d="M113 715q0 355 164.5 547t449.5 192t449.5 -192t164.5 -547t-164.5 -547.5t-449.5 -192.5t-449.5 192.5t-164.5 547.5zM340 580q4 -191 110.5 -303.5t276.5 -112.5t276.5 113t110.5 305v45h-774v-47zM340 819h774v33q-4 190 -110.5 302t-276.5 112t-276.5 -112
t-110.5 -304v-31z" />
    <glyph glyph-name="uni04E9" unicode="&#x4e9;" horiz-adv-x="1148" 
d="M88 532q0 253 132.5 404t354.5 151q220 0 353 -151t133 -404q0 -254 -133 -405.5t-353 -151.5q-222 0 -354.5 151t-132.5 406zM305 442q0 -146 72.5 -221.5t197.5 -75.5q124 0 197.5 76t73.5 221v21h-541v-21zM305 614h541v7q0 145 -73.5 221t-197.5 76
q-125 0 -197.5 -75.5t-72.5 -221.5v-7z" />
    <glyph glyph-name="uni04EE" unicode="&#x4ee;" horiz-adv-x="1243" 
d="M35 1430h233l275 -582l110 -260h9l94 262l231 580h219l-501 -1242q-44 -110 -103.5 -149t-179.5 -39h-143v193h221l55 139zM342 1638v162h590v-162h-590z" />
    <glyph glyph-name="uni04EF" unicode="&#x4ef;" horiz-adv-x="1046" 
d="M27 1063h211l221 -647l59 -217h10l66 217l223 647h201l-453 -1282q-38 -107 -95.5 -149t-178.5 -42h-119v174h178l66 191zM231 1296v162h590v-162h-590z" />
    <glyph glyph-name="uni04F0" unicode="&#x4f0;" horiz-adv-x="1243" 
d="M35 1430h233l275 -582l110 -260h9l94 262l231 580h219l-501 -1242q-44 -110 -103.5 -149t-179.5 -39h-143v193h221l55 139zM311 1702v35q0 48 30.5 77t92.5 29q63 0 93 -28.5t30 -77.5v-35q0 -49 -30 -78t-93 -29q-62 0 -92.5 29.5t-30.5 77.5zM717 1702v35q0 49 30 77.5
t93 28.5q62 0 92.5 -29t30.5 -77v-35q0 -48 -30.5 -77.5t-92.5 -29.5q-63 0 -93 29t-30 78z" />
    <glyph glyph-name="uni04F1" unicode="&#x4f1;" horiz-adv-x="1046" 
d="M27 1063h211l221 -647l59 -217h10l66 217l223 647h201l-453 -1282q-38 -107 -95.5 -149t-178.5 -42h-119v174h178l66 191zM203 1360v31q0 106 121 106q122 0 122 -106v-31q0 -107 -122 -107q-62 0 -91.5 28.5t-29.5 78.5zM606 1360v31q0 106 123 106q121 0 121 -106v-31
q0 -50 -29.5 -78.5t-91.5 -28.5q-123 0 -123 107z" />
    <glyph glyph-name="uni04F2" unicode="&#x4f2;" horiz-adv-x="1243" 
d="M35 1430h233l275 -582l110 -260h9l94 262l231 580h219l-501 -1242q-44 -110 -103.5 -149t-179.5 -39h-143v193h221l55 139zM354 1593l185 365l174 -84l-238 -336zM713 1593l184 365l174 -84l-237 -336z" />
    <glyph glyph-name="uni04F3" unicode="&#x4f3;" horiz-adv-x="1046" 
d="M27 1063h211l221 -647l59 -217h10l66 217l223 647h201l-453 -1282q-38 -107 -95.5 -149t-178.5 -42h-119v174h178l66 191zM244 1251l184 365l174 -84l-237 -336zM602 1251l184 365l175 -84l-238 -336z" />
    <glyph glyph-name="uni04F4" unicode="&#x4f4;" horiz-adv-x="1343" 
d="M117 1012v418h217v-422q0 -164 77.5 -242t235.5 -78q191 0 299 43v699h217v-1430h-217v545h-10q-117 -47 -301 -47q-265 0 -391.5 127t-126.5 387zM313 1702v35q0 48 30.5 77t92.5 29q63 0 93 -28.5t30 -77.5v-35q0 -49 -30 -78t-93 -29q-62 0 -92.5 29.5t-30.5 77.5z
M719 1702v35q0 49 30 77.5t93 28.5q62 0 92.5 -29t30.5 -77v-35q0 -48 -30.5 -77.5t-92.5 -29.5q-63 0 -93 29t-30 78z" />
    <glyph glyph-name="uni04F5" unicode="&#x4f5;" horiz-adv-x="1128" 
d="M102 688v375h211v-361q0 -91 50 -134.5t155 -43.5q108 0 173 32.5t65 90.5v416h211v-1063h-211v475h-11q-99 -131 -299 -131q-168 0 -256 86.5t-88 257.5zM211 1360v31q0 106 121 106q123 0 123 -106v-31q0 -107 -123 -107q-62 0 -91.5 28.5t-29.5 78.5zM614 1360v31
q0 106 123 106q121 0 121 -106v-31q0 -50 -29.5 -78.5t-91.5 -28.5q-123 0 -123 107z" />
    <glyph glyph-name="uni04F8" unicode="&#x4f8;" horiz-adv-x="1830" 
d="M180 0v1430h217v-556h406q194 0 302.5 -116t108.5 -320t-108.5 -321t-302.5 -117h-623zM397 190h394q92 0 143 50t51 147v100q0 97 -51 147t-143 50h-394v-494zM590 1702v35q0 48 30.5 77t92.5 29q63 0 93 -28.5t30 -77.5v-35q0 -49 -30 -78t-93 -29q-62 0 -92.5 29.5
t-30.5 77.5zM995 1702v35q0 49 30 77.5t93 28.5q62 0 92.5 -29t30.5 -77v-35q0 -48 -30.5 -77.5t-92.5 -29.5q-63 0 -93 29t-30 78zM1434 0v1430h219v-1430h-219z" />
    <glyph glyph-name="uni04F9" unicode="&#x4f9;" horiz-adv-x="1540" 
d="M164 0v1063h209v-363h274q161 0 259 -93.5t98 -256.5q0 -165 -96.5 -257.5t-258.5 -92.5h-485zM373 168h237q174 0 174 141v84q0 142 -174 142h-237v-367zM446 1360v31q0 106 121 106q123 0 123 -106v-31q0 -107 -123 -107q-62 0 -91.5 28.5t-29.5 78.5zM850 1360v31
q0 106 123 106q121 0 121 -106v-31q0 -50 -29.5 -78.5t-91.5 -28.5q-123 0 -123 107zM1167 0v1063h211v-1063h-211z" />
    <glyph glyph-name="uni0E01" unicode="&#xe01;" horiz-adv-x="1261" 
d="M133 651v99q0 211 131.5 328.5t353.5 117.5q239 0 362.5 -122.5t123.5 -342.5v-731h-213v733q0 135 -72.5 208t-204.5 73q-249 0 -272 -215h252v-154q-107 -5 -158 -68.5t-51 -201.5v-375h-213v338q0 132 64.5 207t160.5 98v8h-264z" />
    <glyph glyph-name="uni0E02" unicode="&#xe02;" horiz-adv-x="1165" 
d="M125 997v174h174q128 0 184 -52t56 -154v-19q0 -71 -19 -128.5t-46.5 -98t-54.5 -81.5t-46 -101t-19 -134q0 -243 219 -243q105 0 161.5 63.5t56.5 188.5v759h215v-757q0 -216 -109 -327.5t-324 -111.5q-212 0 -324 111.5t-112 304.5q0 95 20.5 166t49.5 111.5t57.5 74.5
t49 77.5t20.5 99.5v77h-209z" />
    <glyph glyph-name="uni0E03" unicode="&#xe03;" horiz-adv-x="1189" 
d="M82 1034v137h176v-165q62 0 108 42t46 95v28h192v-227q0 -67 -16.5 -121t-41.5 -88t-54.5 -71t-54.5 -68.5t-41.5 -81.5t-16.5 -111q0 -126 55.5 -184.5t163.5 -58.5q104 0 160.5 64t56.5 188v759h213v-757q0 -216 -108 -327.5t-322 -111.5q-212 0 -323 111t-111 305
q0 70 14 127t36.5 94.5t49.5 69.5t54 58.5t49.5 53.5t36.5 62.5t14 77.5v104h-8q-15 -81 -61.5 -129.5t-115.5 -48.5q-72 0 -111.5 45t-39.5 129z" />
    <glyph glyph-name="uni0E04" unicode="&#xe04;" horiz-adv-x="1280" 
d="M158 0v731q0 219 124 342t357 123q234 0 358.5 -123t124.5 -342v-731h-215v731q0 136 -70 208.5t-198 72.5q-127 0 -197.5 -73t-70.5 -208v-252h10q27 91 91 145t167 54h86v-197h-129q-225 0 -225 -198v-283h-213z" />
    <glyph glyph-name="uni0E05" unicode="&#xe05;" horiz-adv-x="1302" 
d="M162 0v831q0 173 92.5 269t259.5 96l135 -143h6l136 143q166 0 258 -96t92 -269v-831h-215v766q0 131 -23.5 182.5t-89.5 61.5l-160 -158h-4l-160 158q-66 -10 -89 -61.5t-23 -182.5v-293h8q61 201 260 201h84v-199h-127q-101 0 -163 -45.5t-62 -150.5v-279h-215z" />
    <glyph glyph-name="uni0E06" unicode="&#xe06;" horiz-adv-x="1282" 
d="M86 1034v137h178v-165q64 0 111 42t47 95v28h194v-233q0 -81 -21 -142.5t-51 -100t-60 -75t-51 -89.5t-21 -123v-31q0 -69 41.5 -119t101.5 -72t129 -22q116 0 169.5 72t53.5 217v718h213v-759q0 -209 -94 -323t-274 -114q-133 0 -215.5 60t-118.5 153h-10v-188h-211v399
q0 79 17.5 142t43 100.5t56 74t56 63.5t43 67.5t17.5 87.5v104h-10q-15 -81 -62.5 -129.5t-117.5 -48.5q-74 0 -114 45t-40 129z" />
    <glyph glyph-name="uni0E07" unicode="&#xe07;" horiz-adv-x="1134" 
d="M51 1171h215l291 -993h27q102 0 149 70t47 231v510h-202v182h176q119 0 179 -75.5t60 -216.5v-336q0 -289 -102.5 -416t-315.5 -127h-167z" />
    <glyph glyph-name="uni0E08" unicode="&#xe08;" horiz-adv-x="1132" 
d="M80 983q140 213 438 213q261 0 385.5 -149t124.5 -445q0 -307 -114.5 -454.5t-342.5 -147.5h-153l-131 506h-144v180h158q78 0 116 -38t66 -142l84 -328h21q101 0 160 81.5t59 240.5v207q0 146 -74 225.5t-215 79.5q-198 0 -301 -156z" />
    <glyph glyph-name="uni0E09" unicode="&#xe09;" horiz-adv-x="1230" 
d="M104 973q140 223 478 223q232 0 358.5 -114.5t126.5 -327.5v-580h117v-174h-121q-88 0 -137 52.5t-58 150.5h-12q-95 -228 -330 -228q-144 0 -218.5 83.5t-74.5 242.5v186h-122v177h163q86 0 122 -42t36 -133v-159q0 -87 38 -126.5t112 -39.5q49 0 94.5 14.5t86 43t65 79
t24.5 115.5v317q0 275 -289 275q-113 0 -190 -42t-131 -122z" />
    <glyph glyph-name="uni0E0A" unicode="&#xe0a;" horiz-adv-x="1132" 
d="M117 997v174h170q126 0 180.5 -51.5t54.5 -154.5v-19q0 -71 -17.5 -128t-42.5 -97.5l-50 -81t-42.5 -99.5t-17.5 -132q0 -248 221 -248q106 0 163 63t57 189v86q0 106 -41.5 153t-133.5 47h-32v162h18q89 0 135.5 54.5t46.5 156.5v100h218v-34q0 -213 -205 -281v-8
q104 -26 155.5 -113.5t51.5 -226.5v-109q0 -205 -110.5 -314.5t-324.5 -109.5q-211 0 -322.5 111t-111.5 303q0 81 13.5 145t34.5 101t44.5 72t44.5 61t34.5 65.5t13.5 86.5v77h-205z" />
    <glyph glyph-name="uni0E0B" unicode="&#xe0b;" horiz-adv-x="1165" 
d="M63 1034v137h179v-165q61 0 106 42t45 95v28h193v-227q0 -66 -15 -120t-37 -87.5t-48.5 -70t-48.5 -68t-37 -81t-15 -109.5q0 -248 221 -248q106 0 162.5 63t56.5 189v86q0 105 -37 152.5t-116 47.5h-25v162h8q77 0 121.5 55.5t44.5 155.5v100h223v-34q0 -212 -206 -281
v-8q198 -61 198 -340v-109q0 -206 -109.5 -315t-322.5 -109q-211 0 -321.5 111t-110.5 303q0 70 12.5 127.5t33 95.5t44.5 70t48.5 58.5t45 53t33 62.5t12.5 78v104h-10q-14 -81 -59.5 -129.5t-114.5 -48.5q-74 0 -114 45t-40 129z" />
    <glyph glyph-name="uni0E0C" unicode="&#xe0c;" horiz-adv-x="1906" 
d="M125 651v99q0 213 125.5 329.5t351.5 116.5q232 0 356.5 -123.5t124.5 -341.5v-369q0 -95 72.5 -146.5t169.5 -51.5q103 0 154 62t51 210v735h215v-768q0 -214 -92.5 -321t-255.5 -107q-222 0 -307 213h-11v-188h-207v733q0 136 -71 208.5t-199 72.5q-121 0 -189.5 -54.5
t-80.5 -160.5h254v-154q-119 -5 -172.5 -68t-53.5 -202v-197h197v-178h-147q-260 0 -260 276v58q0 135 61.5 210.5t165.5 98.5v8h-252z" />
    <glyph glyph-name="uni0E0D" unicode="&#xe0d;" horiz-adv-x="1902" 
d="M125 651v99q0 213 127 329.5t354 116.5q226 0 349.5 -123.5t123.5 -341.5v-266q0 -148 52 -210t155 -62q97 0 169.5 51.5t72.5 146.5v780h215v-1140q0 -202 -117.5 -313t-327.5 -111q-303 0 -440 213l139 127q99 -154 287 -154q246 0 246 258v166h-8q-85 -207 -308 -207
q-161 0 -252.5 103t-91.5 311v309q0 135 -70.5 208t-197.5 73q-121 0 -189.5 -54.5t-80.5 -160.5h254v-154q-119 -5 -172.5 -68t-53.5 -202v-197h197v-178h-147q-260 0 -260 276v58q0 135 61.5 210.5t165.5 98.5v8h-252z" />
    <glyph glyph-name="uni0E0E" unicode="&#xe0e;" horiz-adv-x="1284" 
d="M84 0v174h147v176q0 129 56.5 202t148.5 95v8h-299v95q0 213 130 329.5t362 116.5q248 0 373.5 -122t125.5 -343v-1155h-219q-122 143 -299 143q-187 0 -282 -161l-142 125q60 99 161 158t212 59q222 0 344 -195h10v1028q0 135 -75 208t-213 73q-131 0 -200 -52.5
t-81 -162.5h268v-148q-97 -4 -136.5 -68t-39.5 -190v-141q0 -144 -51 -198t-182 -54h-119z" />
    <glyph glyph-name="uni0E0F" unicode="&#xe0f;" horiz-adv-x="1284" 
d="M84 0v174h147v176q0 129 56.5 202t148.5 95v8h-299v95q0 213 130 329.5t362 116.5q248 0 373.5 -122t125.5 -343v-797q0 -190 -89.5 -274t-262.5 -84l-158 131h-6q-58 -141 -211 -141q-85 0 -151.5 47t-106.5 135l146 115q30 -61 66 -89t87 -28q55 0 96 33t80 110h7
l176 -133q61 9 86.5 45t25.5 115v817q0 135 -75 208t-213 73q-131 0 -200 -52.5t-81 -162.5h268v-148q-97 -4 -136.5 -68t-39.5 -190v-141q0 -144 -51 -198t-182 -54h-119z" />
    <glyph glyph-name="uni0E10" unicode="&#xe10;" horiz-adv-x="1181" 
d="M80 979q140 213 434 213q185 0 291 -78v2q0 121 131 121h180v-170h-211v-37q123 -138 123 -432q0 -298 -117 -448t-340 -150h-153l-131 506h-144v180h158q78 0 116 -38t66 -142l84 -328h21q101 0 160 81.5t59 240.5v196q0 150 -76.5 231t-216.5 81q-196 0 -297 -156z
M143 -244h222l45 142h182q15 -174 139 -174q45 0 70.5 28.5t25.5 81.5v64h189v-109q0 -111 -57 -170t-154 -59q-98 0 -163.5 62t-80.5 171h-6l-8 -43q-22 -93 -74.5 -131.5t-153.5 -38.5h-176v176z" />
    <glyph glyph-name="uni0E11" unicode="&#xe11;" horiz-adv-x="1298" 
d="M68 1034v137h178v-165q61 0 106 42t45 95v28h195v-217h8q53 121 123 181.5t168 60.5q114 0 176.5 -81t62.5 -247v-868h-215v864q0 144 -108 144q-60 0 -114.5 -50.5t-139.5 -183.5q-85 -130 -113 -201t-28 -153v-420h-215v420q0 91 18.5 148t77.5 145q63 95 88 149.5
t25 112.5v63h-11q-14 -81 -59.5 -129.5t-114.5 -48.5q-74 0 -113.5 45t-39.5 129z" />
    <glyph glyph-name="uni0E12" unicode="&#xe12;" horiz-adv-x="1875" 
d="M106 610q0 586 369 586l127 -152h6l123 152q145 0 233.5 -84t88.5 -260v-490q0 -95 72 -146.5t169 -51.5q103 0 155 62t52 210v735h215v-768q0 -214 -93.5 -321t-256.5 -107q-224 0 -305 213h-10v-188h-209v768q0 128 -21 175.5t-78 53.5l-137 -151h-4l-139 151
q-70 0 -105.5 -74t-35.5 -212v-217q0 -167 53 -239.5t186 -72.5h62v-182h-86q-235 0 -333 142.5t-98 467.5z" />
    <glyph glyph-name="uni0E13" unicode="&#xe13;" horiz-adv-x="1914" 
d="M125 651v99q0 213 125.5 329.5t349.5 116.5q233 0 356 -123t123 -342v-295q0 -148 52 -210t155 -62q97 0 169.5 51.5t72.5 146.5v809h215v-1171h-213v188h-8q-85 -213 -308 -213q-161 0 -252.5 106.5t-91.5 321.5v330q0 135 -71.5 208t-198.5 73q-120 0 -188 -54.5
t-80 -160.5h254v-154q-119 -5 -172.5 -68t-53.5 -202v-197h197v-178h-147q-260 0 -260 276v58q0 135 61.5 210.5t165.5 98.5v8h-252z" />
    <glyph glyph-name="uni0E14" unicode="&#xe14;" horiz-adv-x="1230" 
d="M104 573q0 308 126 465.5t376 157.5q226 0 345.5 -121t119.5 -344v-731h-215v721q0 139 -65.5 213t-190.5 74q-130 0 -201 -83t-71 -237v-205q0 -157 61.5 -226t188.5 -69h71v-188h-94q-236 0 -343.5 133t-107.5 440z" />
    <glyph glyph-name="uni0E15" unicode="&#xe15;" horiz-adv-x="1257" 
d="M106 602q0 297 99.5 445.5t288.5 148.5l129 -156h6l129 156q150 0 243 -84t93 -260v-852h-213v768q0 129 -23.5 176t-89.5 53l-141 -155h-4l-142 155q-73 0 -114 -81t-41 -218v-219q0 -160 57.5 -227.5t191.5 -67.5h97v-184h-121q-238 0 -341.5 140.5t-103.5 461.5z" />
    <glyph glyph-name="uni0E16" unicode="&#xe16;" horiz-adv-x="1259" 
d="M129 651v99q0 213 127 329.5t356 116.5q240 0 365 -123t125 -342v-731h-215v733q0 136 -72.5 208.5t-206.5 72.5q-123 0 -192.5 -54.5t-81.5 -160.5h254v-154q-119 -5 -171 -68t-52 -202v-197h194v-178h-147q-260 0 -260 276v58q0 133 62 209t165 100v8h-250z" />
    <glyph glyph-name="uni0E17" unicode="&#xe17;" horiz-adv-x="1267" 
d="M172 0v1171h211v-194h10q86 219 332 219q178 0 279.5 -117.5t101.5 -328.5v-750h-215v717q0 289 -236 289q-110 0 -189 -54.5t-79 -154.5v-797h-215z" />
    <glyph glyph-name="uni0E18" unicode="&#xe18;" horiz-adv-x="1120" 
d="M129 831v21q0 158 117.5 251t322.5 93q157 0 262.5 -47.5t180.5 -142.5l-148 -132q-107 138 -301 138q-229 0 -229 -168v-53l299 -39q208 -30 297.5 -113t89.5 -254q0 -206 -114 -308t-324 -102q-243 0 -418 127v406h201v-295q101 -55 219 -55q116 0 175.5 52t59.5 169
q0 98 -46 139t-157 57l-237 31q-250 35 -250 225z" />
    <glyph glyph-name="uni0E19" unicode="&#xe19;" horiz-adv-x="1261" 
d="M162 422v749h213v-718q0 -289 237 -289q68 0 126 22t97 71t39 116v798h216v-1171h-211v195h-11q-86 -220 -325 -220q-179 0 -280 117.5t-101 329.5z" />
    <glyph glyph-name="uni0E1A" unicode="&#xe1a;" horiz-adv-x="1247" 
d="M162 453v718h213v-722q0 -289 250 -289q247 0 247 289v722h215v-718q0 -478 -462 -478q-463 0 -463 478z" />
    <glyph glyph-name="uni0E1B" unicode="&#xe1b;" horiz-adv-x="1247" 
d="M162 453v718h213v-722q0 -289 250 -289q247 0 247 289v1148h215v-1144q0 -478 -462 -478q-463 0 -463 478z" />
    <glyph glyph-name="uni0E1C" unicode="&#xe1c;" horiz-adv-x="1304" 
d="M162 0v874q0 156 56 226.5t190 70.5h163v-178h-196v-753l270 403h4l271 -403v931h213v-1171h-222l-262 389h-4l-262 -389h-221z" />
    <glyph glyph-name="uni0E1D" unicode="&#xe1d;" horiz-adv-x="1304" 
d="M162 0v870q0 156 56 226.5t190 70.5h163v-178h-194v-745l268 391h4l269 -391v1353h215v-1597h-226l-258 387h-4l-258 -387h-225z" />
    <glyph glyph-name="uni0E1E" unicode="&#xe1e;" horiz-adv-x="1490" 
d="M113 1171h206l99 -956h6l219 956h205l221 -956h4l98 956h207l-159 -1171h-263l-208 907h-5l-208 -907h-261z" />
    <glyph glyph-name="uni0E1F" unicode="&#xe1f;" horiz-adv-x="1419" 
d="M98 1171h209l103 -956h4l209 956h204l205 -956h4l125 1382h207l-186 -1597h-262l-193 907h-4l-197 -907h-262z" />
    <glyph glyph-name="uni0E20" unicode="&#xe20;" horiz-adv-x="1284" 
d="M84 0v174h147v176q0 129 56.5 202t148.5 95v8h-299v95q0 213 130 329.5t362 116.5q248 0 373.5 -122t125.5 -343v-731h-215v733q0 135 -75 208t-213 73q-131 0 -200 -52.5t-81 -162.5h268v-148q-97 -4 -136.5 -68.5t-39.5 -189.5v-141q0 -144 -51 -198t-182 -54h-119z
" />
    <glyph glyph-name="uni0E21" unicode="&#xe21;" horiz-adv-x="1263" 
d="M172 0v1171h215v-796q0 -101 78 -156t186 -55q238 0 238 289v718h215v-759q0 -207 -101 -322t-282 -115q-245 0 -328 213h-10v-188h-211z" />
    <glyph glyph-name="uni0E22" unicode="&#xe22;" horiz-adv-x="1216" 
d="M129 391v49q0 129 59.5 206t165.5 77h19v8q-98 19 -162 78t-64 154v8q0 94 58 147t170 53h198v-174h-223v-34q0 -101 50.5 -166.5t150.5 -65.5h47v-176h-256v-141q0 -122 64 -188t186 -66q248 0 248 289v722h215v-718q0 -478 -463 -478q-223 0 -343 109t-120 307z" />
    <glyph glyph-name="uni0E23" unicode="&#xe23;" horiz-adv-x="1060" 
d="M84 205l145 131q69 -91 146.5 -134.5t177.5 -43.5q93 0 150 45.5t57 122.5q0 65 -44 112.5t-141 61.5l-79 10q-172 26 -265.5 104.5t-93.5 227.5q0 87 32 156t88.5 111.5t129 64.5t156.5 22q258 0 409 -190l-147 -132q-111 138 -270 138q-90 0 -143.5 -43.5t-53.5 -114.5
q0 -140 192 -166l88 -10q345 -47 345 -336q0 -172 -114 -269.5t-306 -97.5q-284 0 -459 230z" />
    <glyph glyph-name="uni0E24" unicode="&#xe24;" horiz-adv-x="1259" 
d="M129 651v99q0 213 127 329.5t356 116.5q240 0 365 -123t125 -342v-1155h-215v1157q0 136 -72.5 208.5t-206.5 72.5q-123 0 -192.5 -54.5t-81.5 -160.5h254v-154q-119 -5 -171 -68t-52 -202v-197h194v-178h-147q-260 0 -260 276v58q0 133 62 209t165 100v8h-250z" />
    <glyph glyph-name="uni0E25" unicode="&#xe25;" horiz-adv-x="1181" 
d="M96 342q0 171 114 259.5t339 88.5h262v62q0 132 -63.5 196t-196.5 64q-190 0 -299 -170l-137 125q66 106 179.5 167.5t268.5 61.5q227 0 344 -110t117 -320v-766h-213v520h-274q-109 0 -166.5 -38.5t-57.5 -106.5v-43q0 -150 193 -150h104v-182h-129q-182 0 -283.5 87.5
t-101.5 254.5z" />
    <glyph glyph-name="uni0E26" unicode="&#xe26;" horiz-adv-x="1284" 
d="M84 0v174h147v176q0 129 56.5 202t148.5 95v8h-299v95q0 213 130 329.5t362 116.5q248 0 373.5 -122t125.5 -343v-1155h-215v1157q0 135 -75 208t-213 73q-131 0 -200 -52.5t-81 -162.5h268v-148q-97 -4 -136.5 -68t-39.5 -190v-141q0 -144 -51 -198t-182 -54h-119z" />
    <glyph glyph-name="uni0E27" unicode="&#xe27;" horiz-adv-x="1071" 
d="M72 248l184 84q65 -170 242 -170q116 0 184 81.5t68 227.5v227q0 147 -68 229.5t-184 82.5q-177 0 -238 -168l-186 86q51 125 160.5 196.5t265.5 71.5q235 0 354 -154t119 -456q0 -303 -118.5 -457t-352.5 -154q-156 0 -266.5 71.5t-163.5 201.5z" />
    <glyph glyph-name="uni0E28" unicode="&#xe28;" horiz-adv-x="1310" 
d="M158 0v727q0 220 123.5 342.5t355.5 122.5q175 0 289 -86v16q0 56 34.5 85.5t96.5 29.5h180v-170h-209v-47q94 -105 94 -293v-727h-215v725q0 136 -70 208.5t-198 72.5q-127 0 -197.5 -73t-70.5 -208v-246h10q27 91 91 145t167 54h86v-197h-129q-225 0 -225 -198v-283
h-213z" />
    <glyph glyph-name="uni0E29" unicode="&#xe29;" horiz-adv-x="1286" 
d="M162 440v731h213v-729q0 -135 68.5 -207.5t189.5 -72.5q123 0 190.5 72.5t67.5 207.5v140h-258v186h258v403h211v-405h145v-184h-145v-142q0 -219 -121.5 -342t-349.5 -123q-226 0 -347.5 123t-121.5 342z" />
    <glyph glyph-name="uni0E2A" unicode="&#xe2a;" horiz-adv-x="1232" 
d="M109 342q0 348 460 348h256v58q0 132 -63.5 196t-198.5 64q-189 0 -299 -170l-135 125q66 107 178 168t264 61q179 0 277 -76v6q0 56 34 85.5t95 29.5h182v-170h-211v-39q90 -93 90 -283v-745h-213v520h-274q-109 0 -167 -38.5t-58 -106.5v-43q0 -150 192 -150h107v-182
h-131q-181 0 -283 88t-102 254z" />
    <glyph glyph-name="uni0E2B" unicode="&#xe2b;" horiz-adv-x="1228" 
d="M172 0v1171h215v-399h258q110 0 159.5 59.5t49.5 151.5v188h217v-124q0 -110 -64 -178t-163 -99v-8q115 -26 176 -113t61 -227v-422h-213v381q0 111 -45 163t-143 52h-293v-596h-215z" />
    <glyph glyph-name="uni0E2C" unicode="&#xe2c;" horiz-adv-x="1445" 
d="M113 1171h206l99 -956h6l219 815h205l221 -815h4l82 764q19 170 -123 170h-143v164h121q108 0 170.5 61t97.5 223h197q-23 -121 -57 -189t-76.5 -94.5t-110.5 -35.5v-8q74 -34 100.5 -108.5t9.5 -196.5l-122 -965h-263l-208 795h-5l-208 -795h-261z" />
    <glyph glyph-name="uni0E2D" unicode="&#xe2d;" horiz-adv-x="1175" 
d="M100 438v17q0 111 58 167t166 56h190v-174h-205v-51q0 -155 65.5 -227t203.5 -72q135 0 204.5 77t69.5 228v239q0 148 -74 231t-209 83q-190 0 -278 -160l-170 106q130 238 448 238q253 0 380.5 -155t127.5 -451q0 -615 -499 -615q-225 0 -351.5 122t-126.5 341z" />
    <glyph glyph-name="uni0E2E" unicode="&#xe2e;" horiz-adv-x="1204" 
d="M98 428v14q0 121 56 178.5t168 57.5h188v-174h-203v-51q0 -155 65 -227t203 -72q135 0 204 77t69 228v239q0 149 -73.5 231.5t-207.5 82.5q-188 0 -280 -160l-168 106q63 116 175 177t265 61q178 0 291 -88v8q0 121 131 121h158v-170h-189v-47q123 -126 123 -430
q0 -615 -498 -615q-223 0 -350 119.5t-127 333.5z" />
    <glyph glyph-name="uni0E2F" unicode="&#xe2f;" horiz-adv-x="1126" 
d="M55 795q0 171 106 273.5t277 102.5h148v-178h-121q-91 0 -144 -49.5t-53 -138.5q0 -84 53 -133t150 -49q116 0 192 84.5t76 230.5v233h213l2 -1171h-215v696h-8q-11 -44 -38 -87t-67 -81t-99.5 -61t-127.5 -23q-157 0 -250.5 95.5t-93.5 255.5z" />
    <glyph glyph-name="uni0E30" unicode="&#xe30;" horiz-adv-x="796" 
d="M121 317v162h207v-188l379 2v-191l-371 -2q-100 0 -157.5 56t-57.5 161zM121 913v162h207v-188l379 2v-191l-371 -2q-100 0 -157.5 56t-57.5 161z" />
    <glyph glyph-name="uni0E31" unicode="&#xe31;" 
d="M-606 1567v73h194v-147h463v-166h-405q-129 0 -190.5 58t-61.5 182z" />
    <glyph glyph-name="uni0E32" unicode="&#xe32;" horiz-adv-x="987" 
d="M16 981q60 103 164 159t246 56q192 0 296.5 -100.5t104.5 -284.5v-811h-213v797q0 215 -196 215q-160 0 -262 -156z" />
    <glyph glyph-name="uni0E33" unicode="&#xe33;" horiz-adv-x="987" 
d="M-492 1516v55q0 83 54 133.5t162 50.5t161.5 -50.5t53.5 -133.5v-55q0 -83 -54 -134t-161 -51q-108 0 -162 51t-54 134zM-354 1544q0 -86 78 -86q75 0 75 86q0 84 -75 84q-78 0 -78 -84zM16 981q60 103 164 159t246 56q192 0 296.5 -100.5t104.5 -284.5v-811h-215v797
q0 213 -194 213q-159 0 -262 -154z" />
    <glyph glyph-name="uni0E34" unicode="&#xe34;" 
d="M-1004 1327v166h844v-166h-844z" />
    <glyph glyph-name="uni0E35" unicode="&#xe35;" 
d="M-993 1327v166h647v193h196v-148q0 -211 -212 -211h-631z" />
    <glyph glyph-name="uni0E36" unicode="&#xe36;" 
d="M-1004 1327v166h498v39q0 76 47.5 121t141.5 45q95 0 141.5 -45t46.5 -121v-41q0 -75 -46.5 -119.5t-141.5 -44.5h-2h-685zM-385 1511q0 -71 68 -71q65 0 65 71q0 74 -65 74q-68 0 -68 -74z" />
    <glyph glyph-name="uni0E37" unicode="&#xe37;" 
d="M-1004 1327v166h402v193h174v-193h90v193h178v-148q0 -211 -213 -211h-631z" />
    <glyph glyph-name="uni0E38" unicode="&#xe38;" 
d="M-475 -143h133q182 0 182 -183v-249h-176v270h-139v162z" />
    <glyph glyph-name="uni0E39" unicode="&#xe39;" 
d="M-727 -143h100q170 0 170 -168v-125h129v293h168v-277q0 -75 -40 -114t-115 -39h-156q-75 0 -114.5 39t-39.5 114v123h-102v154z" />
    <glyph glyph-name="uni0E3A" unicode="&#xe3a;" 
d="M-410 -285q0 59 36.5 94t107.5 35t106 -34.5t35 -94.5v-32q0 -60 -35 -94.5t-106 -34.5t-107.5 35t-36.5 94v32z" />
    <glyph glyph-name="uni0E3F" unicode="&#xe3f;" horiz-adv-x="1333" 
d="M180 43v1343h398v211h161v-211h60q171 0 270.5 -94t99.5 -252q0 -247 -247 -286v-13q299 -37 299 -311q0 -164 -105 -275.5t-260 -111.5h-117v-217h-161v217h-398zM391 225h195v416h-195v-416zM391 815h195v389h-195v-389zM733 225h66q94 0 147 44.5t53 129.5v70
q0 85 -53 128.5t-147 43.5h-66v-416zM733 815h43q172 0 172 164v61q0 164 -172 164h-43v-389z" />
    <glyph glyph-name="uni0E40" unicode="&#xe40;" horiz-adv-x="626" 
d="M180 215v956h215v-991h197v-180h-195q-107 0 -162 56.5t-55 158.5z" />
    <glyph glyph-name="uni0E41" unicode="&#xe41;" horiz-adv-x="1179" 
d="M166 215v956h215v-991h197v-180h-195q-106 0 -161.5 57t-55.5 158zM735 215v956h213v-991h199v-180h-197q-105 0 -160 56.5t-55 158.5z" />
    <glyph glyph-name="uni0E42" unicode="&#xe42;" horiz-adv-x="694" 
d="M-29 1667v180h779v-176h-574v-10q143 -45 209 -186t66 -383v-912h202v-180h-200q-107 0 -162 56.5t-55 158.5v1008q0 201 -70.5 317t-194.5 127z" />
    <glyph glyph-name="uni0E43" unicode="&#xe43;" horiz-adv-x="716" 
d="M-23 1628q38 123 136 194.5t247 71.5q164 0 261.5 -89.5t97.5 -239.5q0 -137 -76.5 -223.5t-187.5 -110.5v-1051h207v-180h-203q-106 0 -161.5 57t-55.5 158v1126q128 5 196 55.5t68 145.5v23q0 73 -41.5 113t-112.5 40q-148 0 -194 -184z" />
    <glyph glyph-name="uni0E44" unicode="&#xe44;" horiz-adv-x="688" 
d="M68 1671v176h682v-180q-144 -10 -226 -136.5t-82 -326.5v-1024h205v-180h-203q-106 0 -161.5 57t-55.5 158v905q0 235 77.5 364t240.5 177v10h-477z" />
    <glyph glyph-name="uni0E45" unicode="&#xe45;" horiz-adv-x="991" 
d="M16 981q127 215 410 215q196 0 300.5 -102t104.5 -289v-1229h-213v1217q0 111 -49 163t-149 52q-155 0 -262 -154z" />
    <glyph glyph-name="uni0E46" unicode="&#xe46;" horiz-adv-x="1159" 
d="M92 805v18q0 180 86.5 276.5t247.5 96.5l106 -129h5l104 129q332 0 332 -328v-1159h-215l2 1118q0 105 -20.5 144t-75.5 45l-129 -137h-3l-129 137q-50 0 -79 -39.5t-29 -110.5v-82q0 -81 37.5 -121t132.5 -40h70v-181h-84q-190 0 -274.5 93.5t-84.5 269.5z" />
    <glyph glyph-name="uni0E47" unicode="&#xe47;" 
d="M-944 1534q0 99 64 159t169 60h453v-131h-440q-44 0 -68.5 -25.5t-24.5 -72.5q0 -43 21.5 -69.5t60.5 -29.5l33 107h123q0 -47 17 -74.5t47 -27.5q57 0 57 65v49h141v-80q0 -75 -38.5 -112t-102.5 -37q-61 0 -100 42.5t-46 119.5h-2l-6 -41q-21 -121 -149 -121
q-95 0 -152 59.5t-57 159.5z" />
    <glyph glyph-name="uni0E48" unicode="&#xe48;" 
d="M-371 1327v373h203v-373h-203z" />
    <glyph glyph-name="uni0E49" unicode="&#xe49;" 
d="M-731 1524v164h123q111 0 153 -41.5t45 -153.5h330v-166h-504v197h-147z" />
    <glyph glyph-name="uni0E4A" unicode="&#xe4a;" 
d="M-817 1536q0 90 58 148.5t143 64.5l110 -72h2l115 72q82 -8 131 -58t49 -139v-73h137v-148h-290v203q0 35 -10 51t-31 21l-97 -64l-102 64q-23 -4 -37 -24t-14 -48q0 -33 26.5 -52.5t71.5 -19.5h76v-131h-109q-110 0 -169.5 55.5t-59.5 149.5z" />
    <glyph glyph-name="uni0E4B" unicode="&#xe4b;" 
d="M-446 1411v250h40v35h279v-35h41v-250h-41v-33h-279v33h-40z" />
    <glyph glyph-name="uni0E4C" unicode="&#xe4c;" 
d="M-625 1335v78q0 124 61.5 182t190.5 58h205v-166h-266v-152h-191z" />
    </font>
</defs>
</svg>
