<svg width="24" height="24" viewBox="0 0 24 24" fill="none" xmlns="http://www.w3.org/2000/svg">
<g clip-path="url(#clip0_4215_9343)">
<path d="M21.2308 7H2.76923C2.3444 7 2 7.33579 2 7.75V18.25C2 18.6642 2.3444 19 2.76923 19H21.2308C21.6556 19 22 18.6642 22 18.25V7.75C22 7.33579 21.6556 7 21.2308 7Z" stroke="black" stroke-width="1.5" stroke-linecap="round" stroke-linejoin="round"/>
<path d="M2 11H22" stroke="black" stroke-width="1.5" stroke-linecap="round" stroke-linejoin="round"/>
<path d="M7 10V13" stroke="black" stroke-width="1.5" stroke-linecap="round" stroke-linejoin="round"/>
<path d="M17 10V13" stroke="black" stroke-width="1.5" stroke-linecap="round" stroke-linejoin="round"/>
<path d="M16 7V5.5C16 5.10218 15.8314 4.72064 15.5314 4.43934C15.2313 4.15804 14.8243 4 14.4 4H9.6C9.17565 4 8.76869 4.15804 8.46863 4.43934C8.16857 4.72064 8 5.10218 8 5.5V7" stroke="black" stroke-width="1.5" stroke-linecap="round" stroke-linejoin="round"/>
</g>
<defs>
<clipPath id="clip0_4215_9343">
<rect width="24" height="24" fill="white"/>
</clipPath>
</defs>
</svg>
