<svg fill="none" height="424" viewBox="0 0 1000 424" width="1000" xmlns="http://www.w3.org/2000/svg"><g fill="#000"><path d="m954.227 114.917-25.856-40.2211 28.872-38.7844h17.094l-29.447 37.4916 27.724 41.5139zm-44.387 0v-114.917h16.089v114.917z"/><path d="m857.502 116.927c-21.116 0-34.475-15.944-34.475-41.5132 0-25.569 13.359-41.5137 34.475-41.5137s34.475 15.9447 34.475 41.5137c0 25.5692-13.359 41.5132-34.475 41.5132zm-18.387-41.5132c0 18.0994 7.039 29.4472 18.387 29.4472s18.387-11.3478 18.387-29.4472-7.039-29.4474-18.387-29.4474-18.387 11.348-18.387 29.4474z"/><path d="m797.815 114.917-25.856-40.2211 28.872-38.7844h17.094l-29.447 37.4916 27.723 41.5139zm-44.387 0v-114.917h16.089v114.917z"/><path d="m691.643 109.889c-12.066 0-27.58-7.47-27.58-36.4861 0-5.8895 2.012-12.3536 5.315-17.2375l16.089-19.1049c4.74-2.0111 10.917-3.1602 17.094-3.1602 5.458 0 11.06 2.011 14.508 5.4585l8.619-10.0552h14.939v10.9171h-3.735c-6.464 0-10.486 4.1657-10.486 11.2044 2.011 4.3093 2.585 10.1988 2.585 17.2375v49.5574l-18.243 21.835c-3.16 2.154-10.055 3.591-17.093 3.591-11.636 0-19.824-4.022-25.713-12.497l9.481-11.348c2.442 4.165 9.911 10.198 19.392 10.198 4.884 0 10.486-1.723 16.088-6.176v-26.4312l-7.182 8.9062c-2.586 1.724-7.757 3.591-14.078 3.591zm-11.491-39.6463c0 17.6684 5.602 27.58 15.801 27.58 5.889 0 16.95-14.7955 16.95-27.4364 0-16.5193-5.746-25.7126-16.088-25.7126-10.63 0-16.663 9.1933-16.663 25.569z"/><path d="m632.804 59.3257c0-4.4531-4.453-8.9061-10.63-8.9061l-21.978 16.9502v47.5472h-16.088v-79.0056h15.226v17.9557l20.829-16.8066c1.58-1.2928 3.017-2.2983 5.028-2.2983 13.359 0 23.701 10.3425 23.701 21.9778v58.177h-16.088z"/><path d="m560.603 116.928c-7.182-2.729-11.491-7.757-12.353-13.79-7.757 9.193-16.663 13.215-26.575 13.215-12.497 0-19.392-6.033-19.392-16.8064 0-12.3535 6.464-21.5468 22.553-32.033h21.69v-10.1989c0-5.4585-3.016-8.4751-8.475-8.4751h-29.591l10.773-12.9281h23.127c11.348 0 20.254 8.4751 20.254 19.8231v32.6077c0 8.7624 2.73 13.5027 8.907 15.6577zm-42.662-24.5636c0 7.6132 3.591 11.9226 10.055 11.9226 6.608 0 13.215-6.0332 18.53-14.221v-9.6243h-24.276c-2.442 2.873-4.309 7.6133-4.309 11.9227z"/><path d="m423.49 114.917v-81.1603l13.933-16.5193h22.984c16.232 0 28.298 9.6243 28.298 24.1325 0 8.0442-3.878 14.9392-10.917 19.6795 10.199 4.884 15.083 12.9282 15.083 24.8508 0 18.0998-11.205 29.0168-29.304 29.0168zm16.95-14.365h23.127c7.613 0 12.21-5.8894 12.21-14.7955 0-8.7624-4.31-14.0773-12.21-14.0773h-23.127zm0-42.9501h19.967c6.751 0 11.204-5.1712 11.204-12.7845 0-7.7568-4.453-13.2154-11.204-13.2154h-19.967z"/><path d="m951.017 248.459c-12.067 0-27.58-7.469-27.58-36.486 0-5.889 2.011-12.353 5.314-17.237l16.089-19.105c4.74-2.011 10.917-3.16 17.094-3.16 5.458 0 11.06 2.011 14.508 5.458l8.619-10.055h14.939v10.917h-3.735c-6.464 0-10.486 4.166-10.486 11.204 2.011 4.31 2.585 10.199 2.585 17.238v49.558l-18.243 21.834c-3.16 2.155-10.055 3.591-17.093 3.591-11.636 0-19.824-4.022-25.713-12.497l9.481-11.348c2.442 4.166 9.911 10.199 19.392 10.199 4.884 0 10.486-1.724 16.088-6.177v-26.431l-7.182 8.906c-2.586 1.724-7.757 3.591-14.077 3.591zm-11.492-39.646c0 17.669 5.602 27.58 15.801 27.58 5.889 0 16.95-14.795 16.95-27.436 0-16.52-5.746-25.713-16.088-25.713-10.63 0-16.663 9.193-16.663 25.569z"/><path d="m892.184 197.897c0-4.453-4.453-8.907-10.63-8.907l-21.978 16.951v47.546h-16.088v-79.005h15.226v17.956l20.829-16.807c1.58-1.292 3.016-2.298 5.028-2.298 13.359 0 23.701 10.343 23.701 21.978v58.176h-16.088z"/><path d="m804.215 253.487v-79.005h16.088v79.005zm-5.602-100.695 13.503-13.647 13.646 13.647-13.646 13.502z"/><path d="m766.494 197.896c0-4.453-4.453-8.906-10.629-8.906l-21.978 16.95v47.547h-16.089v-79.005h15.227v17.956l20.828-16.807c1.581-1.293 3.017-2.298 5.028-2.298 13.359 0 23.702 10.342 23.702 21.977v58.177h-16.089z"/><path d="m667.111 213.985v39.502h-16.089v-79.005h14.652v17.812l12.067-14.652c3.447-2.872 8.044-4.309 12.497-4.309 6.033 0 11.922 2.586 14.939 8.619l-11.492 13.646c-1.292-4.309-4.022-8.331-9.48-8.331-8.044 0-17.094 14.939-17.094 26.718z"/><path d="m627.518 255.498c-7.182-2.729-11.491-7.757-12.353-13.79-7.757 9.194-16.663 13.216-26.575 13.216-12.497 0-19.392-6.033-19.392-16.807 0-12.353 6.464-21.547 22.553-32.033h21.69v-10.199c0-5.458-3.016-8.475-8.475-8.475h-29.591l10.773-12.928h23.127c11.348 0 20.255 8.475 20.255 19.823v32.608c0 8.762 2.729 13.502 8.906 15.657zm-42.662-24.563c0 7.613 3.591 11.922 10.055 11.922 6.608 0 13.215-6.033 18.53-14.22v-9.625h-24.276c-2.442 2.873-4.309 7.613-4.309 11.923z"/><path d="m525.528 255.499c-23.27 0-36.342-14.796-36.342-41.227 0-7.326.862-14.221 3.304-19.679l15.514-18.53c4.596-2.442 10.055-3.592 15.944-3.592 20.685 0 33.757 11.779 33.757 34.188v3.591l-7.038 8.475h-45.393c.862 16.232 8.763 22.84 20.254 22.84 11.205 0 17.094-3.16 23.271-12.641l6.464 5.315c-4.453 13.934-16.375 21.26-29.735 21.26zm-20.254-49.702h37.205c-.575-14.221-7.183-22.121-18.531-22.121-10.486 0-17.668 7.9-18.674 22.121z"/><path d="m423.49 253.487v-97.679h16.95v83.315h38.066l-10.773 14.364z"/><path d="m633.852 423.701c-10.773 0-20.254-4.596-25.712-12.497l9.48-11.348c2.442 4.166 9.912 10.199 19.392 10.199 4.884 0 10.487-1.724 16.089-6.177v-29.734l-12.21 14.508c-2.873.862-6.464 1.436-9.912 1.436-12.497 0-21.259-6.177-24.276-17.237v-51.138h15.801v47.547c2.011 5.745 6.033 8.906 11.348 8.906 8.188 0 16.232-9.194 19.249-22.265v-34.188h16.088v76.85l-18.099 21.547c-4.884 2.299-11.348 3.591-17.238 3.591z"/><path d="m573.02 402.442c-10.63 0-19.249-7.326-19.249-21.547v-45.679h-12.928v-13.503h12.928v-10.917l16.089-14.077v24.994h16.232v13.503h-16.232v42.232c0 8.762 2.298 12.066 7.038 12.066 4.884 0 8.188-5.171 11.492-10.774l6.464 5.315-14.508 17.382c-2.155.574-4.597 1.005-7.326 1.005z"/><path d="m510.191 400.718v-79.005h16.088v79.005zm-5.603-100.696 13.503-13.646 13.646 13.646-13.646 13.503z"/><path d="m460.697 402.729c-25.856 0-40.364-18.961-40.364-53.005 0-8.332 1.58-16.376 4.74-23.414l16.375-19.536c5.89-3.591 12.929-5.746 21.116-5.746 15.658 0 26.288 6.177 32.752 17.812l-9.194 11.204c-6.464-9.911-14.795-14.652-23.414-14.652-15.514 0-25.138 12.21-25.138 34.476 0 23.988 9.05 37.922 24.563 37.922 11.061 0 21.404-5.315 26.431-21.834l7.183 6.177c-3.304 20.972-17.525 30.596-35.05 30.596z"/></g><path d="m348.85 13.3096h-13.31l13.31.0049v.081c-.001.042-.003.0979-.003.166-.001.137-.002.3275-.005.5674-.007.4796-.021 1.1614-.047 2.0322-.052 1.7425-.153 4.2442-.354 7.3955-.4 6.2988-1.195 15.2227-2.779 25.8995-3.158 21.2857-9.502 49.8928-22.314 78.6799-18.404 41.347-49.733 77.32-65.768 94.183 15.717 14.714 44.742 45.746 65.682 90.831 14.743 31.744 21.219 55.686 23.95 72.09 1.365 8.199 1.792 14.498 1.85 18.927.03 2.213-.032 3.955-.114 5.23-.041.638-.088 1.16-.13 1.563-.021.201-.04.375-.057.518-.009.071-.018.135-.026.192-.003.028-.007.055-.01.08-.002.012-.004.025-.005.036-.001.005-.003.013-.003.016l-13.177-1.866 13.174 1.881-1.632 11.428h-244v-13.304c0-.037-.001-.113-.003-.226-.004-.226-.013-.602-.033-1.12-.041-1.039-.126-2.648-.3-4.763-.348-4.233-1.054-10.486-2.487-18.27-2.8697-15.58-8.634-37.192-20.1906-60.993-11.4481-23.576-28.8675-46.506-43.7657-63.799-7.3927-8.582-14.0471-15.639-18.8369-20.537-2.3927-2.446-4.315-4.349-5.625-5.626-.6547-.638-1.1571-1.119-1.4873-1.434-.1649-.158-.2861-.276-.36327-.349-.03761-.035-.06523-.06-.08105-.075l-.0127-.013-9.89648-9.264 9.44434-9.726c.00323-.003.0099-.008.01757-.016.01737-.017.04582-.049.08594-.09.08041-.084.20695-.214.375-.39.33655-.352.84395-.887 1.50485-1.591 1.3238-1.41 3.2607-3.501 5.669-6.172 4.8205-5.345 11.5114-13 18.9433-22.183 14.9733-18.503 32.5048-42.661 44.0284-66.393 11.3471-23.3693 17.1676-49.2374 20.1076-69.6024 1.46-10.1141 2.187-18.7151 2.55-24.7529.181-3.015.27-5.3819.314-6.9688.022-.7923.031-1.3902.036-1.7754.003-.1915.005-.3317.006-.416v-13.3955h245.768zm-298.0736 223.6014c1.8365 2.055 3.7415 4.22 5.6933 6.485 15.5387 18.038 34.6434 42.978 47.5453 69.548 12.792 26.347 19.203 50.324 22.421 67.796 1.132 6.146 1.87 11.501 2.353 15.886h193.14c-.224-2.06-.539-4.397-.975-7.014-2.297-13.799-7.996-35.447-21.837-65.248-21.957-47.276-53.819-77.659-65.092-87.453zm78.3606-210.2919c-.439 6.4073-1.219 14.8207-2.616 24.4932-3.147 21.8046-9.504 50.6457-22.506 77.4237-12.8263 26.415-31.819 52.406-47.2826 71.514-2.9622 3.66-5.8123 7.089-8.4853 10.242h183.8809c11.125-11.072 47.431-49.238 66.901-92.98 11.537-25.9197 17.371-52.019 20.3-71.7632 1.092-7.3579 1.774-13.7856 2.199-18.9297z" fill="#00744b"/></svg>