<svg width="421" height="109" viewBox="0 0 421 109" fill="none" xmlns="http://www.w3.org/2000/svg">
<path d="M407.01 100.464C404.49 100.464 402.6 99.2877 401.76 97.1457L397.266 85.5536L402.012 80.7657L406.632 93.7857C407.052 94.9197 407.556 95.4237 408.228 95.4237H410.538V79.5477H406.38L407.64 74.8438H416.754V95.3817L412.386 100.464H407.01Z" fill="white"/>
<path d="M387.935 101.052C384.701 100.422 381.131 98.8677 378.359 97.1037L378.023 100.464H372.479V74.8438H378.695V91.7277C381.047 93.9117 384.995 95.5917 387.095 95.9697V74.8438H393.311V94.8357L387.935 101.052Z" fill="white"/>
<path d="M363.86 101.051C359.912 100.463 357.938 98.4054 357.938 94.7514V73.3314C357.938 69.8874 356.342 66.8634 352.688 66.1494L355.964 61.0674H370.873L367.892 65.6874H360.248C363.104 67.7034 364.154 70.7274 364.154 73.7934V92.9034C364.154 95.0034 365.33 96.2214 367.724 96.5994L363.86 101.051Z" fill="white"/>
<path d="M343.322 100.758C340.886 100.758 337.064 98.3217 335.51 96.3057L339.332 91.8957C340.424 93.3237 342.104 94.7097 344.036 95.4657V82.5297C344.036 80.9757 343.196 80.1356 341.684 80.1356H331.688L335.048 74.8438H343.196C347.732 74.8438 350.252 77.1957 350.252 81.3537V94.5417L344.708 100.758H343.322Z" fill="white"/>
<path d="M322.354 62.2434V55.6074H327.646V62.2434H322.354Z" fill="white"/>
<path d="M319.036 71.9036C316.474 71.9036 314.752 70.6016 314.752 68.0396V64.9316H320.464V67.7036H332.77L330.04 71.9036H319.036Z" fill="white"/>
<path d="M314.597 100.464C310.481 100.464 307.415 97.5237 307.415 93.9117V86.3097C309.095 84.6297 310.607 82.9497 310.607 80.7237V79.5477H306.365L308.045 74.8438H316.571V79.8417C316.571 83.2437 315.311 85.5536 313.547 87.5276V92.4837C313.547 94.3317 314.345 95.1717 315.731 95.1717H321.695V87.2337C321.695 84.9657 320.603 83.3277 318.125 82.9917V82.0676L322.409 74.8438H329.297L324.635 81.5217C326.399 81.8997 327.911 83.9157 327.911 86.8137V94.2477L322.493 100.464H314.597Z" fill="white"/>
<path d="M285.653 101.052C282.041 101.052 279.479 98.3637 279.479 94.4997V74.8438H285.695V92.3996C285.695 94.2476 286.325 95.2137 287.585 95.5917L294.683 91.5597V74.8438H300.899V100.464H295.355L294.935 96.3477L286.913 101.052H285.653Z" fill="white"/>
<path d="M267.183 82.5297C267.183 80.9757 266.343 80.1356 264.831 80.1356H257.439L260.799 74.8438H266.343C270.879 74.8438 273.399 77.1957 273.399 81.3537V100.464H267.183V82.5297Z" fill="white"/>
<path d="M242.561 69.258C243.359 68.964 244.703 68.124 244.703 66.696V66.444H242.561V63H248.735L250.079 64.47C250.079 65.31 249.911 66.654 249.239 67.704H258.899L256.169 71.904H242.561V69.258Z" fill="white"/>
<path d="M247.918 82.5717C247.918 81.0177 247.078 80.1356 245.566 80.1356H234.226L237.586 74.8438H247.078C251.614 74.8438 254.134 77.1957 254.134 81.3537V100.464H247.918V89.7957H240.484C239.938 90.6777 239.644 91.6016 239.644 92.6096C239.644 94.5836 240.61 96.0117 243.046 96.7257L239.14 101.052C235.36 100.086 233.596 97.6076 233.596 94.3736C233.596 92.7776 234.016 91.1397 234.814 89.3337L239.686 85.0917H247.918V82.5717Z" fill="white"/>
<path d="M333.164 10.258C333.962 9.964 335.306 9.124 335.306 7.696V7.444H333.164V4H339.338L340.682 5.47C340.682 6.31 340.514 7.654 339.842 8.704H349.502L346.772 12.904H333.164V10.258Z" fill="white"/>
<path d="M332.218 52.6354C330.244 52.6354 328.942 51.4594 328.942 49.6954V47.2594H326.338L327.346 43.8994H333.646V49.1074H337.174V43.8994H342.13V50.2834L340.24 52.6354H332.218Z" fill="white"/>
<path d="M335.17 41.7577C332.818 41.5057 328.996 39.4057 327.4 37.3056L331.222 32.8958C332.356 34.3238 334.036 35.7516 336.01 36.4656V29.3678C333.868 25.8818 328.366 22.7738 325.09 22.5217V20.8417L329.374 15.8438H345.166L341.806 21.1357H334.288L342.142 27.0998V35.5416L336.598 41.7577H335.17Z" fill="white"/>
<path d="M305.217 42.0518C301.605 42.0518 299.043 39.3638 299.043 35.4998V15.8438H305.259V33.3997C305.259 35.2477 305.889 36.2137 307.149 36.5917L314.247 32.5597V15.8438H320.463V41.4637H314.919L314.499 37.3476L306.477 42.0518H305.217Z" fill="white"/>
<path d="M278.499 41.4637C273.963 41.4637 271.275 38.6077 271.275 34.5337V30.1238L273.585 27.4778L271.275 25.2518V19.3717L274.341 15.8438H282.615V20.3797H277.323V25.0417H283.833V25.8818L281.523 29.6616H277.323V33.4837C277.323 35.1637 278.457 36.2557 279.843 36.2557H286.731V15.8438H292.947V35.2477L287.403 41.4637H278.499Z" fill="white"/>
<path d="M247.209 12.9037L249.939 8.70368H261.111V5.72168H266.907V12.9037H247.209Z" fill="white"/>
<path d="M257.322 41.7577C254.97 41.5057 251.148 39.4057 249.552 37.3056L253.374 32.8958C254.508 34.3238 256.188 35.7516 258.162 36.4656V29.3678C256.02 25.8818 250.518 22.7738 247.242 22.5217V20.8417L251.526 15.8438H267.318L263.958 21.1357H256.44L264.294 27.0998V35.5416L258.75 41.7577H257.322Z" fill="white"/>
<path d="M241.869 42.0518C237.921 41.4638 235.947 39.4057 235.947 35.7517V15.8438H242.163V33.9037C242.163 36.0037 243.339 37.2218 245.733 37.5998L241.869 42.0518Z" fill="white"/>
<path d="M40.1504 104.155V63.0576H67.9985V71.4173H49.6374V79.1958H67.9985V87.1484H49.6374V95.6798H67.9985V104.155H40.1504Z" fill="white"/>
<path d="M108.205 104.08L105.043 96.0116H89.2895L86.2996 104.08H75.6055L92.6802 62.9824H102.223L119.125 104.08H108.203H108.205ZM97.2804 73.9537L92.1046 88.059H102.337L97.278 73.9537H97.2804Z" fill="white"/>
<path d="M148.197 104.08L139.36 87.7696H136.009V104.08H126.408V62.9824H141.931C143.886 62.9824 145.792 63.1848 147.652 63.5918C149.512 63.9989 151.178 64.6859 152.653 65.6529C154.128 66.6199 155.307 67.8975 156.188 69.4833C157.069 71.0715 157.512 73.0432 157.512 75.4031C157.512 78.1888 156.764 80.5323 155.27 82.4263C153.776 84.3227 151.704 85.678 149.06 86.4897L159.695 104.077H148.197V104.08ZM147.794 75.5795C147.794 74.6125 147.591 73.829 147.188 73.2291C146.783 72.6291 146.263 72.1656 145.629 71.8362C144.993 71.5068 144.28 71.2856 143.492 71.168C142.702 71.0527 141.943 70.9939 141.211 70.9939H135.953V80.5723H140.633C141.441 80.5723 142.269 80.504 143.117 80.3699C143.965 80.2335 144.734 79.9935 145.429 79.6453C146.123 79.297 146.69 78.7935 147.132 78.1347C147.575 77.4783 147.796 76.6266 147.796 75.5795H147.794Z" fill="white"/>
<path d="M192.844 104.08L176.459 77.2054H176.287L176.518 104.08H166.975V62.9824H178.186L194.515 89.8001H194.688L194.457 62.9824H204V104.08H192.847H192.844Z" fill="white"/>
<path d="M65.7465 50.6162L49.3616 23.7397H49.1892L49.4199 50.6162H39.877V9.52148H51.0884L67.4174 36.3392H67.5899L67.3591 9.52148H76.9021V50.6186H65.7489L65.7465 50.6162Z" fill="white"/>
<path d="M88.5156 50.6162V9.52148H115.881V17.8811H98.0003V25.6596H114.903V33.6122H98.0003V42.1437H116.916V50.6186H88.5156V50.6162Z" fill="white"/>
<path d="M192.498 17.9964V50.6186H182.666V17.9964H171.168V9.52148H203.996V17.9964H192.498Z" fill="white"/>
<path d="M4 63.0009V94.416H13.7876V63.0009H4Z" fill="white"/>
<path d="M34.7792 94.4043H13.7871V104.286H34.7792V94.4043Z" fill="white"/>
<path d="M150.908 32.9164L134.557 17.9629L131.105 21.8098L147.457 36.7633L150.908 32.9164Z" fill="white"/>
<path d="M138.457 40.8803L163.527 12.9355L159.731 9.46375L134.661 37.4085L138.457 40.8803Z" fill="white"/>
<path d="M147.033 45.4395H141.906V50.6157H147.033V45.4395Z" fill="white"/>
<path d="M165.164 27.085H160.037V32.2612H165.164V27.085Z" fill="white"/>
<path d="M160.351 41.559L156.551 38.084L153.109 41.9204L156.909 45.3954L160.351 41.559Z" fill="white"/>
</svg>
