<svg width="1388" height="213" viewBox="0 0 1388 213" fill="none" xmlns="http://www.w3.org/2000/svg">
<g clip-path="url(#clip0_9_5)">
<path d="M1074.14 19.1185L1136.96 19.0731C1148.41 19.0691 1167.04 18.4881 1177.61 20.4123C1183.69 21.4777 1189.47 23.8572 1194.54 27.3851C1213.38 40.6202 1218 68.9034 1205.71 88.5808C1199.31 98.834 1185.45 100.649 1174.38 102.524C1179.34 102.859 1184.07 103.04 1188.9 104.287C1216.23 111.324 1223.44 134.949 1217.2 159.909C1216.23 165.941 1208.95 175.935 1204.86 180.267C1188.38 197.726 1161.87 193.679 1138.95 193.662L1074.1 193.711C1074.5 174.514 1074.16 153.846 1074.16 134.555L1074.14 19.1185ZM1114.61 161.465C1128.21 161.56 1141.81 161.678 1155.4 161.673C1162.93 161.67 1167.63 161.501 1173.63 156.722C1177.86 150.599 1178.63 141.748 1177.28 134.462C1176.56 130.559 1174.48 127.19 1171.19 124.956C1162.4 118.992 1126.49 121.5 1114.61 121.588L1114.61 161.465ZM1114.63 90.6979C1126.09 90.8112 1159.13 93.1623 1166.01 86.499L1166.11 86.406C1171.34 80.3077 1170.4 78.4307 1170.98 70.6902C1171.83 59.1547 1165.91 51.3485 1153.63 51.2534C1140.96 51.1554 1127.52 51.1979 1114.58 51.5295L1114.63 90.6979Z" fill="#267A55"/>
<path d="M963.639 19.3038C1019.69 19.1452 1044.96 58.086 1043.3 110.614C1041.7 161.476 1017.87 191.916 965.957 194.408C946.352 194.662 925.704 189.327 910.871 175.516C878.072 144.974 878.059 74.0895 907.435 41.3698C922.16 24.9639 942.395 20.0603 963.639 19.3038ZM971.852 161.031C1006.01 155.234 1002.62 117.107 1001.65 90.6573C1000.66 64.0494 984.85 50.4627 958.313 52.3677C921.964 60.1378 927.27 94.5571 927.622 123.507C927.927 148.603 947.098 165.411 971.852 161.031Z" fill="#267A55"/>
<path d="M190.324 19.1846C228.014 18.2467 269.662 19.1071 307.66 19.0988L307.662 54.722C284.593 53.9658 254.138 54.3146 230.987 54.7691L231.038 87.6392L303.617 87.644L303.593 121.541C296.313 121.415 233.392 120.997 231.239 121.864L230.997 123.967L231.034 157.602C257.317 158.094 285.903 157.848 312.212 157.606C312.326 169.675 312.309 181.747 312.16 193.816C273.212 192.751 229.585 193.611 190.31 193.745L190.324 19.1846Z" fill="#2A2A2A"/>
<path d="M761.706 19.1364L855.256 19.0663C854.863 48.4595 855.452 78.1575 855.222 107.592C854.917 121.048 855.791 134.82 854.876 148.236C851.813 193.311 797.513 203.351 763.4 186.774C763.048 186.578 762.696 186.374 762.35 186.161C745.931 176.065 741.187 164.026 737.006 146.45C749.237 144.482 761.408 142.121 773.484 139.371C774.798 145.257 777.008 151.387 781.25 155.84C788.792 163.752 802.63 163.885 810.423 156.09C812.95 153.564 814.651 150.336 815.308 146.826C816.494 140.725 816.088 122.199 816.081 115.208L816.006 55.5045C797.9 55.2791 779.8 55.2451 761.693 55.4025L761.706 19.1364Z" fill="#267A55"/>
<path d="M589.568 19.167L730.595 19.0916L730.588 55.1542C714.162 55.0407 697.743 55.0576 681.316 55.205C680.598 84.0116 681.188 115.16 681.188 144.148L681.256 193.814C667.174 193.633 653.092 193.612 639.011 193.75L639.009 55.1463L589.546 55.1558L589.568 19.167Z" fill="#2A2A2A"/>
<path d="M519.21 0.498047C521.967 0.813001 538.007 16.4014 541.119 19.3028C516.399 47.0996 491.428 74.6714 466.209 102.015C480.101 113.131 500.269 132.592 513.894 144.912C508.481 151.338 502.331 157.882 496.653 164.131C481.846 150.92 463.177 134.729 449.283 120.984C443.176 127.383 437.6 134.4 431.139 140.529C428.959 143.998 421.381 151.586 418.206 154.919C412.343 149.514 402.953 140.353 396.756 135.958C405.996 125.325 418.062 111.748 427.971 101.845C418.436 93.5443 403.97 80.9936 395.355 72.2714C398.555 67.0158 407.748 57.767 412.356 52.9468C419.505 59.8805 437.946 76.8611 445.466 82.6216C447.897 78.6472 464.172 61.3557 468.224 56.8937L519.21 0.498047Z" fill="#267A55"/>
<path d="M382.703 161.227C384.926 162.34 386.8 164.518 388.554 166.32C382.81 172.033 377.012 177.689 371.159 183.291C369.154 182.565 367.263 180.111 365.769 178.468C368.787 174.629 378.829 165.087 382.703 161.227Z" fill="#267A55"/>
<path d="M513.011 157.743C515.508 158.102 530.144 171.457 531.191 173.888C530.89 176.151 528.975 177.647 527.335 179.261C522.262 175.382 513.435 167.057 508.783 162.567L513.011 157.743Z" fill="#267A55"/>
<path d="M368.164 15.3887C370.31 16.0103 383.949 29.2075 386.605 31.717C385.593 33.1389 383.571 35.468 382.403 36.891C379.813 36.2595 366.507 23.1214 363.643 20.4205L368.164 15.3887Z" fill="#267A55"/>
<path d="M560.728 97.7019L560.816 104.538C553.395 104.573 543.98 104.858 536.732 104.296C535.839 103.111 536.086 99.4934 536.072 97.7995C542.803 97.3966 553.688 97.7148 560.728 97.7019Z" fill="#267A55"/>
<path d="M334.449 97.7099C341.694 97.6686 351.59 97.343 358.614 97.9067C359.395 99.3658 359.154 102.732 359.146 104.537L334.466 104.512L334.449 97.7099Z" fill="#267A55"/>
<path d="M0 19.1615C15.9222 19.1339 32.5048 18.8705 48.3758 19.2089C54.1016 27.4489 60.5163 38.638 65.8747 47.4136L100.546 103.875C106.185 113.036 113.185 125.181 119.17 133.896C118.074 95.9673 118.688 57.1789 118.18 19.1487L159.28 19.0694C159.235 76.9038 158.67 136.079 159.327 193.85C143.436 193.386 126.634 193.68 110.675 193.719C105.337 183.041 94.0382 166.419 87.5816 155.744C71.9373 129.878 55.5302 104.253 40.0294 78.2829L41.4151 193.799C27.8213 193.657 13.4024 193.972 0 193.629V19.1615Z" fill="#2A2A2A"/>
<path d="M1275.99 142.217C1291.28 159.144 1331.2 173.455 1347.61 148.882C1349.74 145.689 1348.9 138.724 1347.49 135.065C1342.26 121.554 1322.35 123.614 1310.67 121.156C1289.62 117.893 1267.04 112.351 1258.82 89.4328C1249.15 62.4373 1261.9 33.8631 1289.7 24.4834C1312.68 16.7298 1340.54 17.2722 1362.84 27.1221C1367.97 29.3828 1381.87 38.1816 1383.6 42.9C1383.34 45.8566 1362.46 64.5496 1358.8 67.9829C1355.81 64.9969 1353.31 62.6227 1349.86 60.1684C1338.87 52.3438 1324.79 50.6852 1311.69 52.5536C1301.26 54.0425 1292.86 60.4999 1294.94 71.9655C1296.74 82.9275 1309.25 85.4544 1318.59 86.8483C1350.84 91.6612 1381 94.5706 1387.83 133.005V145.665C1385.68 157.745 1382.1 167.162 1373.2 176.047C1359.28 189.942 1337.76 194.516 1318.71 194.411C1291.01 194.258 1269.72 186.656 1250.12 167.044C1253.6 162.673 1271.01 146.891 1275.99 142.217Z" fill="#267A55"/>
<path d="M444.425 188.261L451.453 188.18L451.381 213H444.438L444.425 188.261Z" fill="#267A55"/>
</g>
<defs>
<clipPath id="clip0_9_5">
<rect width="1387.83" height="213" fill="white"/>
</clipPath>
</defs>
</svg>
