<svg width="1645" height="228" viewBox="0 0 1645 228" fill="none" xmlns="http://www.w3.org/2000/svg">
<g clip-path="url(#clip0_9_23)">
<path d="M1030.28 33.25C1045.28 32.7415 1061.43 33.4388 1076.86 33.0068C1058.67 55.9659 1033.85 82.597 1014.29 105.782C1027.44 124.999 1040.32 145.447 1053.19 164.968C1061.14 176.958 1074.91 196.554 1081.49 208.793L1034.08 208.764C1028.66 201.074 1022.2 190.244 1017.03 182.137L985.392 132.915C977.344 141.892 969.481 151.249 961.44 160.302L961.432 208.819L921.071 208.792L921.087 33.1469C934.541 33.2736 948.003 33.2502 961.456 33.0765L961.473 118.239C963.248 116.173 965.039 113.807 966.669 111.615C986.806 84.5727 1008.74 59.167 1030.28 33.25Z" fill="#267A55"/>
<path d="M189.336 33.7756C227.5 33.0143 268.455 33.7357 306.832 33.7279L306.825 69.7043C282.218 69.0229 254.807 69.6134 230.061 69.6795C230.03 80.5827 230.071 91.4866 230.18 102.389C252.992 103.146 279.526 102.508 302.694 102.568L302.695 136.505C292.217 136.317 237.247 135.063 230.238 136.839L230.058 138.687L230.159 172.364C256.401 172.993 284.986 172.425 311.417 172.43L311.361 208.716C271.21 208.141 229.634 208.677 189.374 208.684L189.336 33.7756Z" fill="#2A2A2A"/>
<path d="M824.597 33.2644C826.075 33.2273 827.561 33.2257 829.038 33.2597C852.404 33.7659 873.279 40.0464 889.721 57.2318C884.179 63.6799 870.533 76.1174 863.906 82.5046C853.52 72.6649 843.858 66.7279 828.902 66.0916C816.749 65.5743 800.092 67.643 799.145 82.8795C798.156 98.7922 816.211 100.448 827.962 102.177C861.737 106.447 895.336 115.899 892.926 157.843C890.661 197.159 853.553 211.638 819.079 209.946C792.765 208.795 772.882 201.087 754.527 182.14C762.179 175.032 772.33 163.637 780.43 157.653C795.181 172.852 822.532 183.309 843.745 173.065C850.259 169.919 852.42 163.485 854.123 156.831C853.352 153.394 852.275 150.049 851.239 146.682C837.384 131.661 793.24 140.814 774.062 120.672C764.86 112.04 760.657 101.419 760.104 88.7024C758.368 48.7843 790.98 34.9134 824.597 33.2644Z" fill="#267A55"/>
<path d="M588.831 33.7709C634.933 32.9512 683.503 33.731 729.809 33.7226L729.713 69.9271C713.275 69.8648 696.838 69.8969 680.401 70.0232L680.385 157.754L680.383 208.698L638.287 208.66L638.312 69.9286L588.811 69.9214L588.831 33.7709Z" fill="#2A2A2A"/>
<path d="M1105.96 33.61L1193.89 33.5963V64.321C1186.09 64.2068 1178.05 64.3542 1170.23 64.4015L1170.28 178.466C1178.12 178.526 1186.04 178.428 1193.87 178.396C1193.86 184.813 1194.27 203.15 1193.48 208.797L1105.87 208.782C1106.12 198.936 1105.95 188.324 1105.99 178.419C1113.63 178.626 1121.83 178.443 1129.52 178.407C1130.34 164.143 1129.89 146.47 1129.89 131.993C1129.99 109.462 1129.92 86.9314 1129.67 64.4019C1122.37 64.0836 1113.32 64.313 1105.89 64.2927C1106.08 54.2556 1105.94 43.6895 1105.96 33.61Z" fill="#267A55"/>
<path d="M1224.94 33.1065C1238.53 33.2687 1252.14 33.2653 1265.73 33.0964C1264.56 78.0421 1265.44 129.701 1265.67 174.882L1335.8 174.878L1335.81 208.796L1224.94 208.792V33.1065Z" fill="#267A55"/>
<path d="M1366.61 33.6269C1380.21 33.6815 1393.81 33.6629 1407.41 33.5714L1407.37 174.981L1477.68 174.947C1477.48 186.107 1477.64 197.629 1477.67 208.818C1441.29 208.296 1403.31 208.789 1366.83 208.79C1366.44 150.562 1367.51 91.7885 1366.61 33.6269Z" fill="#267A55"/>
<path d="M519.011 15.0828C521.511 16.6165 537.244 31.4641 540.278 34.2706C532.416 44.0198 519.97 56.8736 511.274 66.5479C496.443 83.0458 480.905 100.79 465.521 116.659C479.38 130.498 498.244 146.014 513.148 160.087C508.305 165.314 500.229 173.553 496.145 178.99C491.541 175.537 483.331 167.733 478.869 163.676L448.322 135.849C444.253 141.152 435.632 150.019 430.861 155.241C426.391 160.166 421.978 165.143 417.624 170.171C410.865 163.592 403.393 157.051 396.476 150.44C405.98 138.931 417.381 127.911 426.982 116.302C417.627 108.558 402.636 93.3548 393.973 87.1899L411.432 67.9398C422.487 77.2911 433.933 88.0939 444.702 97.9019C450.312 89.8705 469.015 69.8346 476.268 62.1054C490.333 47.1184 504.891 29.6867 519.011 15.0828Z" fill="#267A55"/>
<path d="M382.611 176.001C383.491 177.193 386.753 179.923 388.016 181.037C381.873 186.579 376.637 193.053 369.949 198.305C368.831 197.348 366.205 194.559 365.056 193.401C369.547 187.92 377.162 180.505 382.611 176.001Z" fill="#267A55"/>
<path d="M512.409 172.218C514.537 172.997 528.405 186.154 530.994 188.542C530.147 190.112 528.093 192.487 526.905 193.953C525.168 193.802 510.693 179.911 508.734 177.854C508.905 175.635 510.879 173.899 512.409 172.218Z" fill="#267A55"/>
<path d="M367.608 30.5219C372.665 34.0061 381.269 42.3139 386.106 46.7448L381.092 52.0073C375.084 46.4181 368.955 40.9615 362.708 35.6416C364.117 34.0462 366.097 32.0967 367.608 30.5219Z" fill="#267A55"/>
<path d="M535.671 112.52C543.575 112.475 551.96 112.284 559.812 112.71C560.862 114.007 560.571 117.752 560.584 119.636C552.744 119.144 544.452 120.113 536.391 119.258C535.167 117.659 535.597 114.649 535.671 112.52Z" fill="#267A55"/>
<path d="M333.585 112.508C341.607 112.638 349.256 112.357 357.426 112.647C358.646 114.703 358.234 116.887 358.279 119.565C350.591 119.34 341.168 120.797 334.986 118.835C332.948 116.586 333.619 116.259 333.585 112.508Z" fill="#267A55"/>
<path d="M118.078 34.0123C131.324 34.005 146.111 34.3299 159.229 33.9181C158.708 90.4325 158.098 152.452 159.162 208.79L110.707 208.798C100.656 190.703 87.389 170.357 76.2716 152.408C64.7575 133.818 52.3082 112.169 40.2842 94.3045L41.0506 208.818L0 208.785V34.1564C16.0229 33.9639 32.0472 33.9327 48.0707 34.0626C54.627 43.1714 62.7392 57.3144 68.7727 67.1728L103.585 123.862C107.692 130.547 114.654 142.738 118.911 148.669C118.648 110.653 117.945 71.9475 118.078 34.0123Z" fill="#2A2A2A"/>
<path d="M1532.13 157.419L1532.38 157.666C1546.18 171.179 1559.3 177.01 1578.94 176.712C1592.38 176.509 1605.76 171.41 1605.55 155.864C1605.25 134.469 1571.67 138.422 1557.07 134.497C1544.77 131.19 1534.41 128.941 1524.87 119.409C1506.94 101.833 1507.55 68.9102 1525.33 51.4372C1539.09 37.9175 1560.16 33.2807 1578.74 33.2423C1603.81 33.1902 1623.92 39.6539 1641.84 57.335C1633.18 65.8027 1624.45 74.2013 1615.64 82.5295C1603.11 68.9591 1586.1 64.1817 1567.98 66.7439C1556.45 68.3754 1549.83 75.505 1551.59 87.4179C1553.57 98.8146 1568.05 100.475 1577.39 101.861C1598.31 104.967 1622.58 107.532 1636.42 125.686C1642 133.01 1643.51 139.891 1644.98 148.615V160.272C1638.19 202.132 1600.49 212.615 1563.67 209.464C1539.6 207.404 1523.3 198.6 1506.08 182.21C1514.76 174.888 1522.95 165.186 1532.13 157.419Z" fill="#267A55"/>
<path d="M443.639 0H450.699C450.956 6.94264 452.319 20.0105 448.351 25.7273L445.952 25.5923C442.373 21.6696 443.496 5.75286 443.639 0Z" fill="#267A55"/>
<path d="M443.633 228C443.484 222.209 442.276 206.147 446.175 202.25L448.433 202.588C452.158 208.115 450.975 221.171 450.792 228H443.633Z" fill="#267A55"/>
</g>
<defs>
<clipPath id="clip0_9_23">
<rect width="1644.98" height="228" fill="white"/>
</clipPath>
</defs>
</svg>
